G04 EAGLE Gerber RS-274X export*
G75*
%MOMM*%
%FSLAX34Y34*%
%LPD*%
%INSoldermask Top*%
%IPPOS*%
%AMOC8*
5,1,8,0,0,1.08239X$1,22.5*%
G01*
%ADD10C,7.203188*%
%ADD11P,4.566820X8X112.500000*%
%ADD12C,3.403600*%
%ADD13C,1.903200*%
%ADD14R,2.133600X4.521200*%
%ADD15C,1.209600*%


D10*
X-242140Y-233803D03*
X237860Y61197D03*
X-242140Y61197D03*
X237860Y-233803D03*
D11*
X-105540Y150097D03*
X-105540Y222097D03*
D12*
X-165540Y119097D03*
X-165540Y254097D03*
D13*
X-52140Y238697D02*
X-52140Y221697D01*
X-17140Y221697D02*
X-17140Y238697D01*
X17860Y238697D02*
X17860Y221697D01*
X65360Y221697D02*
X65360Y238697D01*
X100360Y238697D02*
X100360Y221697D01*
X135360Y221697D02*
X135360Y238697D01*
X182860Y238697D02*
X182860Y221697D01*
X217860Y221697D02*
X217860Y238697D01*
X252860Y238697D02*
X252860Y221697D01*
X22860Y76197D02*
X22860Y59197D01*
X57860Y59197D02*
X57860Y76197D01*
X92860Y76197D02*
X92860Y59197D01*
X-99640Y59197D02*
X-99640Y76197D01*
X-64640Y76197D02*
X-64640Y59197D01*
X-29640Y59197D02*
X-29640Y76197D01*
X193360Y4947D02*
X210360Y4947D01*
X210360Y-30053D02*
X193360Y-30053D01*
X193360Y-65053D02*
X210360Y-65053D01*
X210360Y-108803D02*
X193360Y-108803D01*
X193360Y-143803D02*
X210360Y-143803D01*
X210360Y-178803D02*
X193360Y-178803D01*
X-202640Y-65053D02*
X-219640Y-65053D01*
X-219640Y-30053D02*
X-202640Y-30053D01*
X-202640Y4947D02*
X-219640Y4947D01*
X-219640Y-178803D02*
X-202640Y-178803D01*
X-202640Y-143803D02*
X-219640Y-143803D01*
X-219640Y-108803D02*
X-202640Y-108803D01*
X147860Y-231803D02*
X147860Y-248803D01*
X112860Y-248803D02*
X112860Y-231803D01*
X77860Y-231803D02*
X77860Y-248803D01*
X-89640Y-248803D02*
X-89640Y-231803D01*
X-124640Y-231803D02*
X-124640Y-248803D01*
X-159640Y-248803D02*
X-159640Y-231803D01*
X30360Y-231803D02*
X30360Y-248803D01*
X-4640Y-248803D02*
X-4640Y-231803D01*
X-39640Y-231803D02*
X-39640Y-248803D01*
D14*
X-62140Y-137063D03*
X-62140Y-40543D03*
X55360Y-137063D03*
X55360Y-40543D03*
D15*
X102860Y-153803D03*
X127860Y-153803D03*
X115360Y-163803D03*
X125360Y-173803D03*
X105360Y-173803D03*
X125360Y-21303D03*
X112860Y-8803D03*
X125360Y-38803D03*
X110360Y-26303D03*
X95360Y-13803D03*
X100360Y1197D03*
X115360Y-51303D03*
X127860Y-63803D03*
X77860Y-26303D03*
X120360Y-113803D03*
X120360Y-98803D03*
X120360Y-81303D03*
M02*
