G04 EAGLE Gerber RS-274X export*
G75*
%MOMM*%
%FSLAX34Y34*%
%LPD*%
%INSilkscreen Top*%
%IPPOS*%
%AMOC8*
5,1,8,0,0,1.08239X$1,22.5*%
G01*
%ADD10C,0.101600*%
%ADD11C,0.177800*%
%ADD12C,0.127000*%
%ADD13C,0.076200*%
%ADD14C,0.152400*%
%ADD15R,0.609600X0.863600*%
%ADD16C,0.203200*%
%ADD17C,0.240000*%

G36*
X277257Y406684D02*
X277257Y406684D01*
X277259Y406683D01*
X277302Y406703D01*
X277346Y406721D01*
X277346Y406723D01*
X277348Y406724D01*
X277381Y406809D01*
X277381Y409349D01*
X277380Y409351D01*
X277381Y409353D01*
X277361Y409396D01*
X277343Y409440D01*
X277341Y409440D01*
X277340Y409442D01*
X277255Y409475D01*
X273445Y409475D01*
X273443Y409474D01*
X273441Y409475D01*
X273398Y409455D01*
X273354Y409437D01*
X273354Y409435D01*
X273352Y409434D01*
X273319Y409349D01*
X273319Y406809D01*
X273320Y406807D01*
X273319Y406805D01*
X273339Y406762D01*
X273357Y406718D01*
X273359Y406718D01*
X273360Y406716D01*
X273445Y406683D01*
X277255Y406683D01*
X277257Y406684D01*
G37*
G36*
X391557Y285526D02*
X391557Y285526D01*
X391559Y285525D01*
X391602Y285545D01*
X391646Y285563D01*
X391646Y285565D01*
X391648Y285566D01*
X391681Y285651D01*
X391681Y288191D01*
X391680Y288193D01*
X391681Y288195D01*
X391661Y288238D01*
X391643Y288282D01*
X391641Y288282D01*
X391640Y288284D01*
X391555Y288317D01*
X387745Y288317D01*
X387743Y288316D01*
X387741Y288317D01*
X387698Y288297D01*
X387654Y288279D01*
X387654Y288277D01*
X387652Y288276D01*
X387619Y288191D01*
X387619Y285651D01*
X387620Y285649D01*
X387619Y285647D01*
X387639Y285604D01*
X387657Y285560D01*
X387659Y285560D01*
X387660Y285558D01*
X387745Y285525D01*
X391555Y285525D01*
X391557Y285526D01*
G37*
D10*
X124542Y347486D02*
X124542Y344889D01*
X124540Y344790D01*
X124534Y344690D01*
X124525Y344591D01*
X124512Y344493D01*
X124495Y344395D01*
X124474Y344297D01*
X124449Y344201D01*
X124421Y344106D01*
X124389Y344012D01*
X124354Y343919D01*
X124315Y343827D01*
X124272Y343737D01*
X124227Y343649D01*
X124177Y343562D01*
X124125Y343478D01*
X124069Y343395D01*
X124011Y343315D01*
X123949Y343237D01*
X123884Y343162D01*
X123816Y343089D01*
X123746Y343019D01*
X123673Y342951D01*
X123598Y342886D01*
X123520Y342824D01*
X123440Y342766D01*
X123357Y342710D01*
X123273Y342658D01*
X123186Y342608D01*
X123098Y342563D01*
X123008Y342520D01*
X122916Y342481D01*
X122823Y342446D01*
X122729Y342414D01*
X122634Y342386D01*
X122538Y342361D01*
X122440Y342340D01*
X122342Y342323D01*
X122244Y342310D01*
X122145Y342301D01*
X122045Y342295D01*
X121946Y342293D01*
X115454Y342293D01*
X115454Y342292D02*
X115355Y342294D01*
X115255Y342300D01*
X115156Y342309D01*
X115058Y342322D01*
X114960Y342340D01*
X114862Y342360D01*
X114766Y342385D01*
X114670Y342413D01*
X114576Y342445D01*
X114483Y342480D01*
X114392Y342519D01*
X114302Y342562D01*
X114213Y342607D01*
X114127Y342657D01*
X114042Y342709D01*
X113960Y342765D01*
X113880Y342824D01*
X113802Y342885D01*
X113726Y342950D01*
X113653Y343018D01*
X113583Y343088D01*
X113515Y343161D01*
X113450Y343237D01*
X113389Y343315D01*
X113330Y343395D01*
X113274Y343477D01*
X113222Y343562D01*
X113173Y343648D01*
X113127Y343737D01*
X113084Y343827D01*
X113045Y343918D01*
X113010Y344011D01*
X112978Y344105D01*
X112950Y344201D01*
X112925Y344297D01*
X112905Y344395D01*
X112887Y344493D01*
X112874Y344591D01*
X112865Y344690D01*
X112859Y344789D01*
X112857Y344889D01*
X112858Y344889D02*
X112858Y347486D01*
X115454Y351851D02*
X112858Y355096D01*
X124542Y355096D01*
X124542Y351851D02*
X124542Y358342D01*
X102001Y831708D02*
X99404Y831708D01*
X99305Y831710D01*
X99205Y831716D01*
X99106Y831725D01*
X99008Y831738D01*
X98910Y831755D01*
X98812Y831776D01*
X98716Y831801D01*
X98621Y831829D01*
X98527Y831861D01*
X98434Y831896D01*
X98342Y831935D01*
X98252Y831978D01*
X98164Y832023D01*
X98077Y832073D01*
X97993Y832125D01*
X97910Y832181D01*
X97830Y832239D01*
X97752Y832301D01*
X97677Y832366D01*
X97604Y832434D01*
X97534Y832504D01*
X97466Y832577D01*
X97401Y832652D01*
X97339Y832730D01*
X97281Y832810D01*
X97225Y832893D01*
X97173Y832977D01*
X97123Y833064D01*
X97078Y833152D01*
X97035Y833242D01*
X96996Y833334D01*
X96961Y833427D01*
X96929Y833521D01*
X96901Y833616D01*
X96876Y833712D01*
X96855Y833810D01*
X96838Y833908D01*
X96825Y834006D01*
X96816Y834105D01*
X96810Y834205D01*
X96808Y834304D01*
X96808Y840796D01*
X96810Y840895D01*
X96816Y840995D01*
X96825Y841094D01*
X96838Y841192D01*
X96855Y841290D01*
X96876Y841388D01*
X96901Y841484D01*
X96929Y841579D01*
X96961Y841673D01*
X96996Y841766D01*
X97035Y841858D01*
X97078Y841948D01*
X97123Y842036D01*
X97173Y842123D01*
X97225Y842207D01*
X97281Y842290D01*
X97339Y842370D01*
X97401Y842448D01*
X97466Y842523D01*
X97534Y842596D01*
X97604Y842666D01*
X97677Y842734D01*
X97752Y842799D01*
X97830Y842861D01*
X97910Y842919D01*
X97993Y842975D01*
X98077Y843027D01*
X98164Y843077D01*
X98252Y843122D01*
X98342Y843165D01*
X98434Y843204D01*
X98526Y843239D01*
X98621Y843271D01*
X98716Y843299D01*
X98812Y843324D01*
X98910Y843345D01*
X99008Y843362D01*
X99106Y843375D01*
X99205Y843384D01*
X99305Y843390D01*
X99404Y843392D01*
X102001Y843392D01*
X106366Y840796D02*
X109612Y843392D01*
X109612Y831708D01*
X112857Y831708D02*
X106366Y831708D01*
X117797Y837550D02*
X117800Y837780D01*
X117808Y838010D01*
X117822Y838239D01*
X117841Y838468D01*
X117866Y838697D01*
X117896Y838924D01*
X117931Y839152D01*
X117972Y839378D01*
X118018Y839603D01*
X118070Y839827D01*
X118127Y840049D01*
X118189Y840271D01*
X118257Y840490D01*
X118330Y840708D01*
X118408Y840925D01*
X118491Y841139D01*
X118579Y841351D01*
X118672Y841561D01*
X118771Y841769D01*
X118770Y841769D02*
X118803Y841859D01*
X118839Y841948D01*
X118879Y842036D01*
X118923Y842121D01*
X118970Y842205D01*
X119020Y842287D01*
X119074Y842367D01*
X119130Y842444D01*
X119190Y842520D01*
X119253Y842593D01*
X119318Y842663D01*
X119387Y842731D01*
X119458Y842795D01*
X119531Y842857D01*
X119607Y842916D01*
X119685Y842972D01*
X119766Y843025D01*
X119848Y843074D01*
X119932Y843120D01*
X120019Y843163D01*
X120106Y843202D01*
X120196Y843238D01*
X120286Y843270D01*
X120378Y843298D01*
X120471Y843323D01*
X120565Y843344D01*
X120659Y843361D01*
X120754Y843375D01*
X120850Y843384D01*
X120946Y843390D01*
X121042Y843392D01*
X121138Y843390D01*
X121234Y843384D01*
X121330Y843375D01*
X121425Y843361D01*
X121519Y843344D01*
X121613Y843323D01*
X121706Y843298D01*
X121798Y843270D01*
X121888Y843238D01*
X121978Y843202D01*
X122065Y843163D01*
X122152Y843120D01*
X122236Y843074D01*
X122318Y843025D01*
X122399Y842972D01*
X122477Y842916D01*
X122553Y842857D01*
X122626Y842795D01*
X122697Y842731D01*
X122766Y842663D01*
X122831Y842593D01*
X122894Y842520D01*
X122954Y842444D01*
X123010Y842367D01*
X123064Y842287D01*
X123114Y842205D01*
X123161Y842121D01*
X123205Y842036D01*
X123245Y841948D01*
X123281Y841859D01*
X123314Y841769D01*
X123413Y841562D01*
X123506Y841352D01*
X123594Y841139D01*
X123677Y840925D01*
X123755Y840709D01*
X123828Y840491D01*
X123896Y840271D01*
X123958Y840050D01*
X124015Y839827D01*
X124067Y839603D01*
X124113Y839378D01*
X124154Y839152D01*
X124189Y838925D01*
X124219Y838697D01*
X124244Y838468D01*
X124263Y838239D01*
X124277Y838010D01*
X124285Y837780D01*
X124288Y837550D01*
X117796Y837550D02*
X117799Y837320D01*
X117807Y837090D01*
X117821Y836861D01*
X117840Y836632D01*
X117865Y836403D01*
X117895Y836175D01*
X117930Y835948D01*
X117971Y835722D01*
X118017Y835497D01*
X118069Y835273D01*
X118126Y835050D01*
X118188Y834829D01*
X118256Y834609D01*
X118329Y834391D01*
X118407Y834175D01*
X118490Y833961D01*
X118578Y833749D01*
X118671Y833538D01*
X118770Y833331D01*
X118803Y833241D01*
X118839Y833152D01*
X118880Y833064D01*
X118923Y832979D01*
X118970Y832895D01*
X119020Y832813D01*
X119074Y832733D01*
X119130Y832656D01*
X119190Y832580D01*
X119253Y832507D01*
X119318Y832437D01*
X119387Y832369D01*
X119458Y832305D01*
X119531Y832243D01*
X119607Y832184D01*
X119685Y832128D01*
X119766Y832075D01*
X119848Y832026D01*
X119932Y831980D01*
X120019Y831937D01*
X120106Y831898D01*
X120196Y831862D01*
X120286Y831830D01*
X120378Y831802D01*
X120471Y831777D01*
X120565Y831756D01*
X120659Y831739D01*
X120754Y831725D01*
X120850Y831716D01*
X120946Y831710D01*
X121042Y831708D01*
X123314Y833331D02*
X123413Y833538D01*
X123506Y833749D01*
X123594Y833961D01*
X123677Y834175D01*
X123755Y834391D01*
X123828Y834609D01*
X123896Y834829D01*
X123958Y835050D01*
X124015Y835273D01*
X124067Y835497D01*
X124113Y835722D01*
X124154Y835948D01*
X124189Y836175D01*
X124219Y836403D01*
X124244Y836632D01*
X124263Y836861D01*
X124277Y837090D01*
X124285Y837320D01*
X124288Y837550D01*
X123314Y833331D02*
X123281Y833241D01*
X123245Y833152D01*
X123205Y833064D01*
X123161Y832979D01*
X123114Y832895D01*
X123064Y832813D01*
X123010Y832733D01*
X122954Y832656D01*
X122894Y832580D01*
X122831Y832507D01*
X122766Y832437D01*
X122697Y832369D01*
X122626Y832305D01*
X122553Y832243D01*
X122477Y832184D01*
X122399Y832128D01*
X122318Y832075D01*
X122236Y832026D01*
X122152Y831980D01*
X122065Y831937D01*
X121978Y831898D01*
X121888Y831862D01*
X121798Y831830D01*
X121706Y831802D01*
X121613Y831777D01*
X121519Y831756D01*
X121425Y831739D01*
X121330Y831725D01*
X121234Y831716D01*
X121138Y831710D01*
X121042Y831708D01*
X118445Y834304D02*
X123638Y840796D01*
X52501Y696708D02*
X49904Y696708D01*
X49805Y696710D01*
X49705Y696716D01*
X49606Y696725D01*
X49508Y696738D01*
X49410Y696755D01*
X49312Y696776D01*
X49216Y696801D01*
X49121Y696829D01*
X49027Y696861D01*
X48934Y696896D01*
X48842Y696935D01*
X48752Y696978D01*
X48664Y697023D01*
X48577Y697073D01*
X48493Y697125D01*
X48410Y697181D01*
X48330Y697239D01*
X48252Y697301D01*
X48177Y697366D01*
X48104Y697434D01*
X48034Y697504D01*
X47966Y697577D01*
X47901Y697652D01*
X47839Y697730D01*
X47781Y697810D01*
X47725Y697893D01*
X47673Y697977D01*
X47623Y698064D01*
X47578Y698152D01*
X47535Y698242D01*
X47496Y698334D01*
X47461Y698427D01*
X47429Y698521D01*
X47401Y698616D01*
X47376Y698712D01*
X47355Y698810D01*
X47338Y698908D01*
X47325Y699006D01*
X47316Y699105D01*
X47310Y699205D01*
X47308Y699304D01*
X47308Y705796D01*
X47310Y705895D01*
X47316Y705995D01*
X47325Y706094D01*
X47338Y706192D01*
X47355Y706290D01*
X47376Y706388D01*
X47401Y706484D01*
X47429Y706579D01*
X47461Y706673D01*
X47496Y706766D01*
X47535Y706858D01*
X47578Y706948D01*
X47623Y707036D01*
X47673Y707123D01*
X47725Y707207D01*
X47781Y707290D01*
X47839Y707370D01*
X47901Y707448D01*
X47966Y707523D01*
X48034Y707596D01*
X48104Y707666D01*
X48177Y707734D01*
X48252Y707799D01*
X48330Y707861D01*
X48410Y707919D01*
X48493Y707975D01*
X48577Y708027D01*
X48664Y708077D01*
X48752Y708122D01*
X48842Y708165D01*
X48934Y708204D01*
X49026Y708239D01*
X49121Y708271D01*
X49216Y708299D01*
X49312Y708324D01*
X49410Y708345D01*
X49508Y708362D01*
X49606Y708375D01*
X49705Y708384D01*
X49805Y708390D01*
X49904Y708392D01*
X52501Y708392D01*
X60436Y708392D02*
X60543Y708390D01*
X60649Y708384D01*
X60755Y708374D01*
X60861Y708361D01*
X60967Y708343D01*
X61071Y708322D01*
X61175Y708297D01*
X61278Y708268D01*
X61379Y708236D01*
X61479Y708199D01*
X61578Y708159D01*
X61676Y708116D01*
X61772Y708069D01*
X61866Y708018D01*
X61958Y707964D01*
X62048Y707907D01*
X62136Y707847D01*
X62221Y707783D01*
X62304Y707716D01*
X62385Y707646D01*
X62463Y707574D01*
X62539Y707498D01*
X62611Y707420D01*
X62681Y707339D01*
X62748Y707256D01*
X62812Y707171D01*
X62872Y707083D01*
X62929Y706993D01*
X62983Y706901D01*
X63034Y706807D01*
X63081Y706711D01*
X63124Y706613D01*
X63164Y706514D01*
X63201Y706414D01*
X63233Y706313D01*
X63262Y706210D01*
X63287Y706106D01*
X63308Y706002D01*
X63326Y705896D01*
X63339Y705790D01*
X63349Y705684D01*
X63355Y705578D01*
X63357Y705471D01*
X60436Y708392D02*
X60315Y708390D01*
X60194Y708384D01*
X60074Y708374D01*
X59953Y708361D01*
X59834Y708343D01*
X59714Y708322D01*
X59596Y708297D01*
X59479Y708268D01*
X59362Y708235D01*
X59247Y708199D01*
X59133Y708158D01*
X59020Y708115D01*
X58908Y708067D01*
X58799Y708016D01*
X58691Y707961D01*
X58584Y707903D01*
X58480Y707842D01*
X58378Y707777D01*
X58278Y707709D01*
X58180Y707638D01*
X58084Y707564D01*
X57991Y707487D01*
X57901Y707406D01*
X57813Y707323D01*
X57728Y707237D01*
X57645Y707148D01*
X57566Y707057D01*
X57489Y706963D01*
X57416Y706867D01*
X57346Y706769D01*
X57279Y706668D01*
X57215Y706565D01*
X57155Y706460D01*
X57098Y706353D01*
X57044Y706245D01*
X56994Y706135D01*
X56948Y706023D01*
X56905Y705910D01*
X56866Y705795D01*
X62384Y703199D02*
X62463Y703276D01*
X62539Y703357D01*
X62612Y703440D01*
X62682Y703525D01*
X62749Y703613D01*
X62813Y703703D01*
X62873Y703795D01*
X62930Y703890D01*
X62984Y703986D01*
X63035Y704084D01*
X63082Y704184D01*
X63126Y704286D01*
X63166Y704389D01*
X63202Y704493D01*
X63234Y704599D01*
X63263Y704705D01*
X63288Y704813D01*
X63310Y704921D01*
X63327Y705031D01*
X63341Y705140D01*
X63350Y705250D01*
X63356Y705361D01*
X63358Y705471D01*
X62384Y703199D02*
X56866Y696708D01*
X63357Y696708D01*
X184142Y499651D02*
X184142Y497054D01*
X184140Y496955D01*
X184134Y496855D01*
X184125Y496756D01*
X184112Y496658D01*
X184095Y496560D01*
X184074Y496462D01*
X184049Y496366D01*
X184021Y496271D01*
X183989Y496177D01*
X183954Y496084D01*
X183915Y495992D01*
X183872Y495902D01*
X183827Y495814D01*
X183777Y495727D01*
X183725Y495643D01*
X183669Y495560D01*
X183611Y495480D01*
X183549Y495402D01*
X183484Y495327D01*
X183416Y495254D01*
X183346Y495184D01*
X183273Y495116D01*
X183198Y495051D01*
X183120Y494989D01*
X183040Y494931D01*
X182957Y494875D01*
X182873Y494823D01*
X182786Y494773D01*
X182698Y494728D01*
X182608Y494685D01*
X182516Y494646D01*
X182423Y494611D01*
X182329Y494579D01*
X182234Y494551D01*
X182138Y494526D01*
X182040Y494505D01*
X181942Y494488D01*
X181844Y494475D01*
X181745Y494466D01*
X181645Y494460D01*
X181546Y494458D01*
X175054Y494458D01*
X174955Y494460D01*
X174855Y494466D01*
X174756Y494475D01*
X174658Y494488D01*
X174560Y494506D01*
X174462Y494526D01*
X174366Y494551D01*
X174270Y494579D01*
X174176Y494611D01*
X174083Y494646D01*
X173992Y494685D01*
X173902Y494728D01*
X173813Y494773D01*
X173727Y494823D01*
X173642Y494875D01*
X173560Y494931D01*
X173480Y494990D01*
X173402Y495051D01*
X173326Y495116D01*
X173253Y495184D01*
X173183Y495254D01*
X173115Y495327D01*
X173050Y495403D01*
X172989Y495481D01*
X172930Y495561D01*
X172874Y495643D01*
X172822Y495728D01*
X172773Y495814D01*
X172727Y495903D01*
X172684Y495993D01*
X172645Y496084D01*
X172610Y496177D01*
X172578Y496271D01*
X172550Y496367D01*
X172525Y496463D01*
X172505Y496561D01*
X172487Y496659D01*
X172474Y496757D01*
X172465Y496856D01*
X172459Y496955D01*
X172457Y497055D01*
X172458Y497054D02*
X172458Y499651D01*
X184142Y504016D02*
X184142Y507262D01*
X184140Y507375D01*
X184134Y507488D01*
X184124Y507601D01*
X184110Y507714D01*
X184093Y507826D01*
X184071Y507937D01*
X184046Y508047D01*
X184016Y508157D01*
X183983Y508265D01*
X183946Y508372D01*
X183906Y508478D01*
X183861Y508582D01*
X183813Y508685D01*
X183762Y508786D01*
X183707Y508885D01*
X183649Y508982D01*
X183587Y509077D01*
X183522Y509170D01*
X183454Y509260D01*
X183383Y509348D01*
X183308Y509434D01*
X183231Y509517D01*
X183151Y509597D01*
X183068Y509674D01*
X182982Y509749D01*
X182894Y509820D01*
X182804Y509888D01*
X182711Y509953D01*
X182616Y510015D01*
X182519Y510073D01*
X182420Y510128D01*
X182319Y510179D01*
X182216Y510227D01*
X182112Y510272D01*
X182006Y510312D01*
X181899Y510349D01*
X181791Y510382D01*
X181681Y510412D01*
X181571Y510437D01*
X181460Y510459D01*
X181348Y510476D01*
X181235Y510490D01*
X181122Y510500D01*
X181009Y510506D01*
X180896Y510508D01*
X180783Y510506D01*
X180670Y510500D01*
X180557Y510490D01*
X180444Y510476D01*
X180332Y510459D01*
X180221Y510437D01*
X180111Y510412D01*
X180001Y510382D01*
X179893Y510349D01*
X179786Y510312D01*
X179680Y510272D01*
X179576Y510227D01*
X179473Y510179D01*
X179372Y510128D01*
X179273Y510073D01*
X179176Y510015D01*
X179081Y509953D01*
X178988Y509888D01*
X178898Y509820D01*
X178810Y509749D01*
X178724Y509674D01*
X178641Y509597D01*
X178561Y509517D01*
X178484Y509434D01*
X178409Y509348D01*
X178338Y509260D01*
X178270Y509170D01*
X178205Y509077D01*
X178143Y508982D01*
X178085Y508885D01*
X178030Y508786D01*
X177979Y508685D01*
X177931Y508582D01*
X177886Y508478D01*
X177846Y508372D01*
X177809Y508265D01*
X177776Y508157D01*
X177746Y508047D01*
X177721Y507937D01*
X177699Y507826D01*
X177682Y507714D01*
X177668Y507601D01*
X177658Y507488D01*
X177652Y507375D01*
X177650Y507262D01*
X172458Y507911D02*
X172458Y504016D01*
X172458Y507911D02*
X172460Y508012D01*
X172466Y508112D01*
X172476Y508212D01*
X172489Y508312D01*
X172507Y508411D01*
X172528Y508510D01*
X172553Y508607D01*
X172582Y508704D01*
X172615Y508799D01*
X172651Y508893D01*
X172691Y508985D01*
X172734Y509076D01*
X172781Y509165D01*
X172831Y509252D01*
X172885Y509338D01*
X172942Y509421D01*
X173002Y509501D01*
X173065Y509580D01*
X173132Y509656D01*
X173201Y509729D01*
X173273Y509799D01*
X173347Y509867D01*
X173424Y509932D01*
X173504Y509993D01*
X173586Y510052D01*
X173670Y510107D01*
X173756Y510159D01*
X173844Y510208D01*
X173934Y510253D01*
X174026Y510295D01*
X174119Y510333D01*
X174214Y510367D01*
X174309Y510398D01*
X174406Y510425D01*
X174504Y510448D01*
X174603Y510468D01*
X174703Y510483D01*
X174803Y510495D01*
X174903Y510503D01*
X175004Y510507D01*
X175104Y510507D01*
X175205Y510503D01*
X175305Y510495D01*
X175405Y510483D01*
X175505Y510468D01*
X175604Y510448D01*
X175702Y510425D01*
X175799Y510398D01*
X175894Y510367D01*
X175989Y510333D01*
X176082Y510295D01*
X176174Y510253D01*
X176264Y510208D01*
X176352Y510159D01*
X176438Y510107D01*
X176522Y510052D01*
X176604Y509993D01*
X176684Y509932D01*
X176761Y509867D01*
X176835Y509799D01*
X176907Y509729D01*
X176976Y509656D01*
X177043Y509580D01*
X177106Y509501D01*
X177166Y509421D01*
X177223Y509338D01*
X177277Y509252D01*
X177327Y509165D01*
X177374Y509076D01*
X177417Y508985D01*
X177457Y508893D01*
X177493Y508799D01*
X177526Y508704D01*
X177555Y508607D01*
X177580Y508510D01*
X177601Y508411D01*
X177619Y508312D01*
X177632Y508212D01*
X177642Y508112D01*
X177648Y508012D01*
X177650Y507911D01*
X177651Y507911D02*
X177651Y505314D01*
X104042Y675389D02*
X104042Y677986D01*
X104042Y675389D02*
X104040Y675290D01*
X104034Y675190D01*
X104025Y675091D01*
X104012Y674993D01*
X103995Y674895D01*
X103974Y674797D01*
X103949Y674701D01*
X103921Y674606D01*
X103889Y674512D01*
X103854Y674419D01*
X103815Y674327D01*
X103772Y674237D01*
X103727Y674149D01*
X103677Y674062D01*
X103625Y673978D01*
X103569Y673895D01*
X103511Y673815D01*
X103449Y673737D01*
X103384Y673662D01*
X103316Y673589D01*
X103246Y673519D01*
X103173Y673451D01*
X103098Y673386D01*
X103020Y673324D01*
X102940Y673266D01*
X102857Y673210D01*
X102773Y673158D01*
X102686Y673108D01*
X102598Y673063D01*
X102508Y673020D01*
X102416Y672981D01*
X102323Y672946D01*
X102229Y672914D01*
X102134Y672886D01*
X102038Y672861D01*
X101940Y672840D01*
X101842Y672823D01*
X101744Y672810D01*
X101645Y672801D01*
X101545Y672795D01*
X101446Y672793D01*
X94954Y672793D01*
X94954Y672792D02*
X94855Y672794D01*
X94755Y672800D01*
X94656Y672809D01*
X94558Y672822D01*
X94460Y672840D01*
X94362Y672860D01*
X94266Y672885D01*
X94170Y672913D01*
X94076Y672945D01*
X93983Y672980D01*
X93892Y673019D01*
X93802Y673062D01*
X93713Y673107D01*
X93627Y673157D01*
X93542Y673209D01*
X93460Y673265D01*
X93380Y673324D01*
X93302Y673385D01*
X93226Y673450D01*
X93153Y673518D01*
X93083Y673588D01*
X93015Y673661D01*
X92950Y673737D01*
X92889Y673815D01*
X92830Y673895D01*
X92774Y673977D01*
X92722Y674062D01*
X92673Y674148D01*
X92627Y674237D01*
X92584Y674327D01*
X92545Y674418D01*
X92510Y674511D01*
X92478Y674605D01*
X92450Y674701D01*
X92425Y674797D01*
X92405Y674895D01*
X92387Y674993D01*
X92374Y675091D01*
X92365Y675190D01*
X92359Y675289D01*
X92357Y675389D01*
X92358Y675389D02*
X92358Y677986D01*
X92358Y684947D02*
X101446Y682351D01*
X101446Y688842D01*
X98849Y686895D02*
X104042Y686895D01*
X122139Y441458D02*
X124736Y441458D01*
X122139Y441458D02*
X122040Y441460D01*
X121940Y441466D01*
X121841Y441475D01*
X121743Y441488D01*
X121645Y441505D01*
X121547Y441526D01*
X121451Y441551D01*
X121356Y441579D01*
X121262Y441611D01*
X121169Y441646D01*
X121077Y441685D01*
X120987Y441728D01*
X120899Y441773D01*
X120812Y441823D01*
X120728Y441875D01*
X120645Y441931D01*
X120565Y441989D01*
X120487Y442051D01*
X120412Y442116D01*
X120339Y442184D01*
X120269Y442254D01*
X120201Y442327D01*
X120136Y442402D01*
X120074Y442480D01*
X120016Y442560D01*
X119960Y442643D01*
X119908Y442727D01*
X119858Y442814D01*
X119813Y442902D01*
X119770Y442992D01*
X119731Y443084D01*
X119696Y443177D01*
X119664Y443271D01*
X119636Y443366D01*
X119611Y443462D01*
X119590Y443560D01*
X119573Y443658D01*
X119560Y443756D01*
X119551Y443855D01*
X119545Y443955D01*
X119543Y444054D01*
X119543Y450546D01*
X119545Y450645D01*
X119551Y450745D01*
X119560Y450844D01*
X119573Y450942D01*
X119590Y451040D01*
X119611Y451138D01*
X119636Y451234D01*
X119664Y451329D01*
X119696Y451423D01*
X119731Y451516D01*
X119770Y451608D01*
X119813Y451698D01*
X119858Y451786D01*
X119908Y451873D01*
X119960Y451957D01*
X120016Y452040D01*
X120074Y452120D01*
X120136Y452198D01*
X120201Y452273D01*
X120269Y452346D01*
X120339Y452416D01*
X120412Y452484D01*
X120487Y452549D01*
X120565Y452611D01*
X120645Y452669D01*
X120728Y452725D01*
X120812Y452777D01*
X120899Y452827D01*
X120987Y452872D01*
X121077Y452915D01*
X121169Y452954D01*
X121261Y452989D01*
X121356Y453021D01*
X121451Y453049D01*
X121547Y453074D01*
X121645Y453095D01*
X121743Y453112D01*
X121841Y453125D01*
X121940Y453134D01*
X122040Y453140D01*
X122139Y453142D01*
X124736Y453142D01*
X129101Y447949D02*
X132996Y447949D01*
X133095Y447947D01*
X133195Y447941D01*
X133294Y447932D01*
X133392Y447919D01*
X133490Y447902D01*
X133588Y447881D01*
X133684Y447856D01*
X133779Y447828D01*
X133873Y447796D01*
X133966Y447761D01*
X134058Y447722D01*
X134148Y447679D01*
X134236Y447634D01*
X134323Y447584D01*
X134407Y447532D01*
X134490Y447476D01*
X134570Y447418D01*
X134648Y447356D01*
X134723Y447291D01*
X134796Y447223D01*
X134866Y447153D01*
X134934Y447080D01*
X134999Y447005D01*
X135061Y446927D01*
X135119Y446847D01*
X135175Y446764D01*
X135227Y446680D01*
X135277Y446593D01*
X135322Y446505D01*
X135365Y446415D01*
X135404Y446323D01*
X135439Y446230D01*
X135471Y446136D01*
X135499Y446041D01*
X135524Y445945D01*
X135545Y445847D01*
X135562Y445749D01*
X135575Y445651D01*
X135584Y445552D01*
X135590Y445452D01*
X135592Y445353D01*
X135592Y444704D01*
X135590Y444591D01*
X135584Y444478D01*
X135574Y444365D01*
X135560Y444252D01*
X135543Y444140D01*
X135521Y444029D01*
X135496Y443919D01*
X135466Y443809D01*
X135433Y443701D01*
X135396Y443594D01*
X135356Y443488D01*
X135311Y443384D01*
X135263Y443281D01*
X135212Y443180D01*
X135157Y443081D01*
X135099Y442984D01*
X135037Y442889D01*
X134972Y442796D01*
X134904Y442706D01*
X134833Y442618D01*
X134758Y442532D01*
X134681Y442449D01*
X134601Y442369D01*
X134518Y442292D01*
X134432Y442217D01*
X134344Y442146D01*
X134254Y442078D01*
X134161Y442013D01*
X134066Y441951D01*
X133969Y441893D01*
X133870Y441838D01*
X133769Y441787D01*
X133666Y441739D01*
X133562Y441694D01*
X133456Y441654D01*
X133349Y441617D01*
X133241Y441584D01*
X133131Y441554D01*
X133021Y441529D01*
X132910Y441507D01*
X132798Y441490D01*
X132685Y441476D01*
X132572Y441466D01*
X132459Y441460D01*
X132346Y441458D01*
X132233Y441460D01*
X132120Y441466D01*
X132007Y441476D01*
X131894Y441490D01*
X131782Y441507D01*
X131671Y441529D01*
X131561Y441554D01*
X131451Y441584D01*
X131343Y441617D01*
X131236Y441654D01*
X131130Y441694D01*
X131026Y441739D01*
X130923Y441787D01*
X130822Y441838D01*
X130723Y441893D01*
X130626Y441951D01*
X130531Y442013D01*
X130438Y442078D01*
X130348Y442146D01*
X130260Y442217D01*
X130174Y442292D01*
X130091Y442369D01*
X130011Y442449D01*
X129934Y442532D01*
X129859Y442618D01*
X129788Y442706D01*
X129720Y442796D01*
X129655Y442889D01*
X129593Y442984D01*
X129535Y443081D01*
X129480Y443180D01*
X129429Y443281D01*
X129381Y443384D01*
X129336Y443488D01*
X129296Y443594D01*
X129259Y443701D01*
X129226Y443809D01*
X129196Y443919D01*
X129171Y444029D01*
X129149Y444140D01*
X129132Y444252D01*
X129118Y444365D01*
X129108Y444478D01*
X129102Y444591D01*
X129100Y444704D01*
X129101Y444704D02*
X129101Y447949D01*
X129103Y448092D01*
X129109Y448235D01*
X129119Y448378D01*
X129133Y448520D01*
X129150Y448662D01*
X129172Y448804D01*
X129197Y448945D01*
X129227Y449085D01*
X129260Y449224D01*
X129297Y449362D01*
X129338Y449499D01*
X129382Y449635D01*
X129431Y449770D01*
X129483Y449903D01*
X129538Y450035D01*
X129598Y450165D01*
X129661Y450294D01*
X129727Y450421D01*
X129797Y450545D01*
X129870Y450668D01*
X129947Y450789D01*
X130027Y450908D01*
X130110Y451024D01*
X130196Y451139D01*
X130285Y451250D01*
X130378Y451360D01*
X130473Y451466D01*
X130572Y451570D01*
X130673Y451671D01*
X130777Y451770D01*
X130883Y451865D01*
X130993Y451958D01*
X131104Y452047D01*
X131219Y452133D01*
X131335Y452216D01*
X131454Y452296D01*
X131575Y452373D01*
X131697Y452446D01*
X131822Y452516D01*
X131949Y452582D01*
X132078Y452645D01*
X132208Y452705D01*
X132340Y452760D01*
X132473Y452812D01*
X132608Y452861D01*
X132744Y452905D01*
X132881Y452946D01*
X133019Y452983D01*
X133158Y453016D01*
X133298Y453046D01*
X133439Y453071D01*
X133581Y453093D01*
X133723Y453110D01*
X133865Y453124D01*
X134008Y453134D01*
X134151Y453140D01*
X134294Y453142D01*
D11*
X363123Y124000D02*
X363131Y124666D01*
X363156Y125331D01*
X363197Y125996D01*
X363254Y126659D01*
X363327Y127321D01*
X363417Y127980D01*
X363522Y128638D01*
X363644Y129292D01*
X363782Y129944D01*
X363936Y130591D01*
X364106Y131235D01*
X364291Y131875D01*
X364492Y132509D01*
X364709Y133139D01*
X364941Y133763D01*
X365188Y134381D01*
X365450Y134993D01*
X365727Y135598D01*
X366020Y136197D01*
X366326Y136788D01*
X366647Y137371D01*
X366982Y137946D01*
X367332Y138513D01*
X367695Y139071D01*
X368071Y139620D01*
X368461Y140160D01*
X368865Y140689D01*
X369281Y141209D01*
X369709Y141719D01*
X370150Y142217D01*
X370603Y142705D01*
X371068Y143182D01*
X371545Y143647D01*
X372033Y144100D01*
X372531Y144541D01*
X373041Y144969D01*
X373561Y145385D01*
X374090Y145789D01*
X374630Y146179D01*
X375179Y146555D01*
X375737Y146918D01*
X376304Y147268D01*
X376879Y147603D01*
X377462Y147924D01*
X378053Y148230D01*
X378652Y148523D01*
X379257Y148800D01*
X379869Y149062D01*
X380487Y149309D01*
X381111Y149541D01*
X381741Y149758D01*
X382375Y149959D01*
X383015Y150144D01*
X383659Y150314D01*
X384306Y150468D01*
X384958Y150606D01*
X385612Y150728D01*
X386270Y150833D01*
X386929Y150923D01*
X387591Y150996D01*
X388254Y151053D01*
X388919Y151094D01*
X389584Y151119D01*
X390250Y151127D01*
X390916Y151119D01*
X391581Y151094D01*
X392246Y151053D01*
X392909Y150996D01*
X393571Y150923D01*
X394230Y150833D01*
X394888Y150728D01*
X395542Y150606D01*
X396194Y150468D01*
X396841Y150314D01*
X397485Y150144D01*
X398125Y149959D01*
X398759Y149758D01*
X399389Y149541D01*
X400013Y149309D01*
X400631Y149062D01*
X401243Y148800D01*
X401848Y148523D01*
X402447Y148230D01*
X403038Y147924D01*
X403621Y147603D01*
X404196Y147268D01*
X404763Y146918D01*
X405321Y146555D01*
X405870Y146179D01*
X406410Y145789D01*
X406939Y145385D01*
X407459Y144969D01*
X407969Y144541D01*
X408467Y144100D01*
X408955Y143647D01*
X409432Y143182D01*
X409897Y142705D01*
X410350Y142217D01*
X410791Y141719D01*
X411219Y141209D01*
X411635Y140689D01*
X412039Y140160D01*
X412429Y139620D01*
X412805Y139071D01*
X413168Y138513D01*
X413518Y137946D01*
X413853Y137371D01*
X414174Y136788D01*
X414480Y136197D01*
X414773Y135598D01*
X415050Y134993D01*
X415312Y134381D01*
X415559Y133763D01*
X415791Y133139D01*
X416008Y132509D01*
X416209Y131875D01*
X416394Y131235D01*
X416564Y130591D01*
X416718Y129944D01*
X416856Y129292D01*
X416978Y128638D01*
X417083Y127980D01*
X417173Y127321D01*
X417246Y126659D01*
X417303Y125996D01*
X417344Y125331D01*
X417369Y124666D01*
X417377Y124000D01*
X417369Y123334D01*
X417344Y122669D01*
X417303Y122004D01*
X417246Y121341D01*
X417173Y120679D01*
X417083Y120020D01*
X416978Y119362D01*
X416856Y118708D01*
X416718Y118056D01*
X416564Y117409D01*
X416394Y116765D01*
X416209Y116125D01*
X416008Y115491D01*
X415791Y114861D01*
X415559Y114237D01*
X415312Y113619D01*
X415050Y113007D01*
X414773Y112402D01*
X414480Y111803D01*
X414174Y111212D01*
X413853Y110629D01*
X413518Y110054D01*
X413168Y109487D01*
X412805Y108929D01*
X412429Y108380D01*
X412039Y107840D01*
X411635Y107311D01*
X411219Y106791D01*
X410791Y106281D01*
X410350Y105783D01*
X409897Y105295D01*
X409432Y104818D01*
X408955Y104353D01*
X408467Y103900D01*
X407969Y103459D01*
X407459Y103031D01*
X406939Y102615D01*
X406410Y102211D01*
X405870Y101821D01*
X405321Y101445D01*
X404763Y101082D01*
X404196Y100732D01*
X403621Y100397D01*
X403038Y100076D01*
X402447Y99770D01*
X401848Y99477D01*
X401243Y99200D01*
X400631Y98938D01*
X400013Y98691D01*
X399389Y98459D01*
X398759Y98242D01*
X398125Y98041D01*
X397485Y97856D01*
X396841Y97686D01*
X396194Y97532D01*
X395542Y97394D01*
X394888Y97272D01*
X394230Y97167D01*
X393571Y97077D01*
X392909Y97004D01*
X392246Y96947D01*
X391581Y96906D01*
X390916Y96881D01*
X390250Y96873D01*
X389584Y96881D01*
X388919Y96906D01*
X388254Y96947D01*
X387591Y97004D01*
X386929Y97077D01*
X386270Y97167D01*
X385612Y97272D01*
X384958Y97394D01*
X384306Y97532D01*
X383659Y97686D01*
X383015Y97856D01*
X382375Y98041D01*
X381741Y98242D01*
X381111Y98459D01*
X380487Y98691D01*
X379869Y98938D01*
X379257Y99200D01*
X378652Y99477D01*
X378053Y99770D01*
X377462Y100076D01*
X376879Y100397D01*
X376304Y100732D01*
X375737Y101082D01*
X375179Y101445D01*
X374630Y101821D01*
X374090Y102211D01*
X373561Y102615D01*
X373041Y103031D01*
X372531Y103459D01*
X372033Y103900D01*
X371545Y104353D01*
X371068Y104818D01*
X370603Y105295D01*
X370150Y105783D01*
X369709Y106281D01*
X369281Y106791D01*
X368865Y107311D01*
X368461Y107840D01*
X368071Y108380D01*
X367695Y108929D01*
X367332Y109487D01*
X366982Y110054D01*
X366647Y110629D01*
X366326Y111212D01*
X366020Y111803D01*
X365727Y112402D01*
X365450Y113007D01*
X365188Y113619D01*
X364941Y114237D01*
X364709Y114861D01*
X364492Y115491D01*
X364291Y116125D01*
X364106Y116765D01*
X363936Y117409D01*
X363782Y118056D01*
X363644Y118708D01*
X363522Y119362D01*
X363417Y120020D01*
X363327Y120679D01*
X363254Y121341D01*
X363197Y122004D01*
X363156Y122669D01*
X363131Y123334D01*
X363123Y124000D01*
D12*
X415015Y83958D02*
X415015Y81418D01*
X415013Y81318D01*
X415007Y81219D01*
X414997Y81119D01*
X414984Y81021D01*
X414966Y80922D01*
X414945Y80825D01*
X414920Y80729D01*
X414891Y80633D01*
X414858Y80539D01*
X414822Y80446D01*
X414782Y80355D01*
X414738Y80265D01*
X414691Y80177D01*
X414641Y80091D01*
X414587Y80007D01*
X414530Y79925D01*
X414470Y79846D01*
X414406Y79768D01*
X414340Y79694D01*
X414271Y79622D01*
X414199Y79553D01*
X414125Y79487D01*
X414047Y79423D01*
X413968Y79363D01*
X413886Y79306D01*
X413802Y79252D01*
X413716Y79202D01*
X413628Y79155D01*
X413538Y79111D01*
X413447Y79071D01*
X413354Y79035D01*
X413260Y79002D01*
X413164Y78973D01*
X413068Y78948D01*
X412971Y78927D01*
X412872Y78909D01*
X412774Y78896D01*
X412674Y78886D01*
X412575Y78880D01*
X412475Y78878D01*
X406125Y78878D01*
X406025Y78880D01*
X405926Y78886D01*
X405826Y78896D01*
X405728Y78909D01*
X405629Y78927D01*
X405532Y78948D01*
X405436Y78973D01*
X405340Y79002D01*
X405246Y79035D01*
X405153Y79071D01*
X405062Y79111D01*
X404972Y79155D01*
X404884Y79202D01*
X404798Y79252D01*
X404714Y79306D01*
X404632Y79363D01*
X404553Y79423D01*
X404475Y79487D01*
X404401Y79553D01*
X404329Y79622D01*
X404260Y79694D01*
X404194Y79768D01*
X404130Y79846D01*
X404070Y79925D01*
X404013Y80007D01*
X403959Y80091D01*
X403909Y80177D01*
X403862Y80265D01*
X403818Y80355D01*
X403778Y80446D01*
X403742Y80539D01*
X403709Y80633D01*
X403680Y80729D01*
X403655Y80825D01*
X403634Y80922D01*
X403616Y81021D01*
X403603Y81119D01*
X403593Y81219D01*
X403587Y81318D01*
X403585Y81418D01*
X403585Y83958D01*
X403585Y88440D02*
X404855Y88440D01*
X403585Y88440D02*
X403585Y94790D01*
X415015Y91615D01*
D10*
X74792Y341889D02*
X74792Y344486D01*
X74792Y341889D02*
X74790Y341790D01*
X74784Y341690D01*
X74775Y341591D01*
X74762Y341493D01*
X74745Y341395D01*
X74724Y341297D01*
X74699Y341201D01*
X74671Y341106D01*
X74639Y341012D01*
X74604Y340919D01*
X74565Y340827D01*
X74522Y340737D01*
X74477Y340649D01*
X74427Y340562D01*
X74375Y340478D01*
X74319Y340395D01*
X74261Y340315D01*
X74199Y340237D01*
X74134Y340162D01*
X74066Y340089D01*
X73996Y340019D01*
X73923Y339951D01*
X73848Y339886D01*
X73770Y339824D01*
X73690Y339766D01*
X73607Y339710D01*
X73523Y339658D01*
X73436Y339608D01*
X73348Y339563D01*
X73258Y339520D01*
X73166Y339481D01*
X73073Y339446D01*
X72979Y339414D01*
X72884Y339386D01*
X72788Y339361D01*
X72690Y339340D01*
X72592Y339323D01*
X72494Y339310D01*
X72395Y339301D01*
X72295Y339295D01*
X72196Y339293D01*
X65704Y339293D01*
X65704Y339292D02*
X65605Y339294D01*
X65505Y339300D01*
X65406Y339309D01*
X65308Y339322D01*
X65210Y339340D01*
X65112Y339360D01*
X65016Y339385D01*
X64920Y339413D01*
X64826Y339445D01*
X64733Y339480D01*
X64642Y339519D01*
X64552Y339562D01*
X64463Y339607D01*
X64377Y339657D01*
X64292Y339709D01*
X64210Y339765D01*
X64130Y339824D01*
X64052Y339885D01*
X63976Y339950D01*
X63903Y340018D01*
X63833Y340088D01*
X63765Y340161D01*
X63700Y340237D01*
X63639Y340315D01*
X63580Y340395D01*
X63524Y340477D01*
X63472Y340562D01*
X63423Y340648D01*
X63377Y340737D01*
X63334Y340827D01*
X63295Y340918D01*
X63260Y341011D01*
X63228Y341105D01*
X63200Y341201D01*
X63175Y341297D01*
X63155Y341395D01*
X63137Y341493D01*
X63124Y341591D01*
X63115Y341690D01*
X63109Y341789D01*
X63107Y341889D01*
X63108Y341889D02*
X63108Y344486D01*
X71546Y348850D02*
X71433Y348852D01*
X71320Y348858D01*
X71207Y348868D01*
X71094Y348882D01*
X70982Y348899D01*
X70871Y348921D01*
X70761Y348946D01*
X70651Y348976D01*
X70543Y349009D01*
X70436Y349046D01*
X70330Y349086D01*
X70226Y349131D01*
X70123Y349179D01*
X70022Y349230D01*
X69923Y349285D01*
X69826Y349343D01*
X69731Y349405D01*
X69638Y349470D01*
X69548Y349538D01*
X69460Y349609D01*
X69374Y349684D01*
X69291Y349761D01*
X69211Y349841D01*
X69134Y349924D01*
X69059Y350010D01*
X68988Y350098D01*
X68920Y350188D01*
X68855Y350281D01*
X68793Y350376D01*
X68735Y350473D01*
X68680Y350572D01*
X68629Y350673D01*
X68581Y350776D01*
X68536Y350880D01*
X68496Y350986D01*
X68459Y351093D01*
X68426Y351201D01*
X68396Y351311D01*
X68371Y351421D01*
X68349Y351532D01*
X68332Y351644D01*
X68318Y351757D01*
X68308Y351870D01*
X68302Y351983D01*
X68300Y352096D01*
X68302Y352209D01*
X68308Y352322D01*
X68318Y352435D01*
X68332Y352548D01*
X68349Y352660D01*
X68371Y352771D01*
X68396Y352881D01*
X68426Y352991D01*
X68459Y353099D01*
X68496Y353206D01*
X68536Y353312D01*
X68581Y353416D01*
X68629Y353519D01*
X68680Y353620D01*
X68735Y353719D01*
X68793Y353816D01*
X68855Y353911D01*
X68920Y354004D01*
X68988Y354094D01*
X69059Y354182D01*
X69134Y354268D01*
X69211Y354351D01*
X69291Y354431D01*
X69374Y354508D01*
X69460Y354583D01*
X69548Y354654D01*
X69638Y354722D01*
X69731Y354787D01*
X69826Y354849D01*
X69923Y354907D01*
X70022Y354962D01*
X70123Y355013D01*
X70226Y355061D01*
X70330Y355106D01*
X70436Y355146D01*
X70543Y355183D01*
X70651Y355216D01*
X70761Y355246D01*
X70871Y355271D01*
X70982Y355293D01*
X71094Y355310D01*
X71207Y355324D01*
X71320Y355334D01*
X71433Y355340D01*
X71546Y355342D01*
X71659Y355340D01*
X71772Y355334D01*
X71885Y355324D01*
X71998Y355310D01*
X72110Y355293D01*
X72221Y355271D01*
X72331Y355246D01*
X72441Y355216D01*
X72549Y355183D01*
X72656Y355146D01*
X72762Y355106D01*
X72866Y355061D01*
X72969Y355013D01*
X73070Y354962D01*
X73169Y354907D01*
X73266Y354849D01*
X73361Y354787D01*
X73454Y354722D01*
X73544Y354654D01*
X73632Y354583D01*
X73718Y354508D01*
X73801Y354431D01*
X73881Y354351D01*
X73958Y354268D01*
X74033Y354182D01*
X74104Y354094D01*
X74172Y354004D01*
X74237Y353911D01*
X74299Y353816D01*
X74357Y353719D01*
X74412Y353620D01*
X74463Y353519D01*
X74511Y353416D01*
X74556Y353312D01*
X74596Y353206D01*
X74633Y353099D01*
X74666Y352991D01*
X74696Y352881D01*
X74721Y352771D01*
X74743Y352660D01*
X74760Y352548D01*
X74774Y352435D01*
X74784Y352322D01*
X74790Y352209D01*
X74792Y352096D01*
X74790Y351983D01*
X74784Y351870D01*
X74774Y351757D01*
X74760Y351644D01*
X74743Y351532D01*
X74721Y351421D01*
X74696Y351311D01*
X74666Y351201D01*
X74633Y351093D01*
X74596Y350986D01*
X74556Y350880D01*
X74511Y350776D01*
X74463Y350673D01*
X74412Y350572D01*
X74357Y350473D01*
X74299Y350376D01*
X74237Y350281D01*
X74172Y350188D01*
X74104Y350098D01*
X74033Y350010D01*
X73958Y349924D01*
X73881Y349841D01*
X73801Y349761D01*
X73718Y349684D01*
X73632Y349609D01*
X73544Y349538D01*
X73454Y349470D01*
X73361Y349405D01*
X73266Y349343D01*
X73169Y349285D01*
X73070Y349230D01*
X72969Y349179D01*
X72866Y349131D01*
X72762Y349086D01*
X72656Y349046D01*
X72549Y349009D01*
X72441Y348976D01*
X72331Y348946D01*
X72221Y348921D01*
X72110Y348899D01*
X71998Y348882D01*
X71885Y348868D01*
X71772Y348858D01*
X71659Y348852D01*
X71546Y348850D01*
X65704Y349500D02*
X65603Y349502D01*
X65503Y349508D01*
X65403Y349518D01*
X65303Y349531D01*
X65204Y349549D01*
X65105Y349570D01*
X65008Y349595D01*
X64911Y349624D01*
X64816Y349657D01*
X64722Y349693D01*
X64630Y349733D01*
X64539Y349776D01*
X64450Y349823D01*
X64363Y349873D01*
X64277Y349927D01*
X64194Y349984D01*
X64114Y350044D01*
X64035Y350107D01*
X63959Y350174D01*
X63886Y350243D01*
X63816Y350315D01*
X63748Y350389D01*
X63683Y350466D01*
X63622Y350546D01*
X63563Y350628D01*
X63508Y350712D01*
X63456Y350798D01*
X63407Y350886D01*
X63362Y350976D01*
X63320Y351068D01*
X63282Y351161D01*
X63248Y351256D01*
X63217Y351351D01*
X63190Y351448D01*
X63167Y351546D01*
X63147Y351645D01*
X63132Y351745D01*
X63120Y351845D01*
X63112Y351945D01*
X63108Y352046D01*
X63108Y352146D01*
X63112Y352247D01*
X63120Y352347D01*
X63132Y352447D01*
X63147Y352547D01*
X63167Y352646D01*
X63190Y352744D01*
X63217Y352841D01*
X63248Y352936D01*
X63282Y353031D01*
X63320Y353124D01*
X63362Y353216D01*
X63407Y353306D01*
X63456Y353394D01*
X63508Y353480D01*
X63563Y353564D01*
X63622Y353646D01*
X63683Y353726D01*
X63748Y353803D01*
X63816Y353877D01*
X63886Y353949D01*
X63959Y354018D01*
X64035Y354085D01*
X64114Y354148D01*
X64194Y354208D01*
X64277Y354265D01*
X64363Y354319D01*
X64450Y354369D01*
X64539Y354416D01*
X64630Y354459D01*
X64722Y354499D01*
X64816Y354535D01*
X64911Y354568D01*
X65008Y354597D01*
X65105Y354622D01*
X65204Y354643D01*
X65303Y354661D01*
X65403Y354674D01*
X65503Y354684D01*
X65603Y354690D01*
X65704Y354692D01*
X65805Y354690D01*
X65905Y354684D01*
X66005Y354674D01*
X66105Y354661D01*
X66204Y354643D01*
X66303Y354622D01*
X66400Y354597D01*
X66497Y354568D01*
X66592Y354535D01*
X66686Y354499D01*
X66778Y354459D01*
X66869Y354416D01*
X66958Y354369D01*
X67045Y354319D01*
X67131Y354265D01*
X67214Y354208D01*
X67294Y354148D01*
X67373Y354085D01*
X67449Y354018D01*
X67522Y353949D01*
X67592Y353877D01*
X67660Y353803D01*
X67725Y353726D01*
X67786Y353646D01*
X67845Y353564D01*
X67900Y353480D01*
X67952Y353394D01*
X68001Y353306D01*
X68046Y353216D01*
X68088Y353124D01*
X68126Y353031D01*
X68160Y352936D01*
X68191Y352841D01*
X68218Y352744D01*
X68241Y352646D01*
X68261Y352547D01*
X68276Y352447D01*
X68288Y352347D01*
X68296Y352247D01*
X68300Y352146D01*
X68300Y352046D01*
X68296Y351945D01*
X68288Y351845D01*
X68276Y351745D01*
X68261Y351645D01*
X68241Y351546D01*
X68218Y351448D01*
X68191Y351351D01*
X68160Y351256D01*
X68126Y351161D01*
X68088Y351068D01*
X68046Y350976D01*
X68001Y350886D01*
X67952Y350798D01*
X67900Y350712D01*
X67845Y350628D01*
X67786Y350546D01*
X67725Y350466D01*
X67660Y350389D01*
X67592Y350315D01*
X67522Y350243D01*
X67449Y350174D01*
X67373Y350107D01*
X67294Y350044D01*
X67214Y349984D01*
X67131Y349927D01*
X67045Y349873D01*
X66958Y349823D01*
X66869Y349776D01*
X66778Y349733D01*
X66686Y349693D01*
X66592Y349657D01*
X66497Y349624D01*
X66400Y349595D01*
X66303Y349570D01*
X66204Y349549D01*
X66105Y349531D01*
X66005Y349518D01*
X65905Y349508D01*
X65805Y349502D01*
X65704Y349500D01*
X201604Y550358D02*
X204201Y550358D01*
X201604Y550358D02*
X201505Y550360D01*
X201405Y550366D01*
X201306Y550375D01*
X201208Y550388D01*
X201110Y550405D01*
X201012Y550426D01*
X200916Y550451D01*
X200821Y550479D01*
X200727Y550511D01*
X200634Y550546D01*
X200542Y550585D01*
X200452Y550628D01*
X200364Y550673D01*
X200277Y550723D01*
X200193Y550775D01*
X200110Y550831D01*
X200030Y550889D01*
X199952Y550951D01*
X199877Y551016D01*
X199804Y551084D01*
X199734Y551154D01*
X199666Y551227D01*
X199601Y551302D01*
X199539Y551380D01*
X199481Y551460D01*
X199425Y551543D01*
X199373Y551627D01*
X199323Y551714D01*
X199278Y551802D01*
X199235Y551892D01*
X199196Y551984D01*
X199161Y552077D01*
X199129Y552171D01*
X199101Y552266D01*
X199076Y552362D01*
X199055Y552460D01*
X199038Y552558D01*
X199025Y552656D01*
X199016Y552755D01*
X199010Y552855D01*
X199008Y552954D01*
X199008Y559446D01*
X199010Y559545D01*
X199016Y559645D01*
X199025Y559744D01*
X199038Y559842D01*
X199055Y559940D01*
X199076Y560038D01*
X199101Y560134D01*
X199129Y560229D01*
X199161Y560323D01*
X199196Y560416D01*
X199235Y560508D01*
X199278Y560598D01*
X199323Y560686D01*
X199373Y560773D01*
X199425Y560857D01*
X199481Y560940D01*
X199539Y561020D01*
X199601Y561098D01*
X199666Y561173D01*
X199734Y561246D01*
X199804Y561316D01*
X199877Y561384D01*
X199952Y561449D01*
X200030Y561511D01*
X200110Y561569D01*
X200193Y561625D01*
X200277Y561677D01*
X200364Y561727D01*
X200452Y561772D01*
X200542Y561815D01*
X200634Y561854D01*
X200726Y561889D01*
X200821Y561921D01*
X200916Y561949D01*
X201012Y561974D01*
X201110Y561995D01*
X201208Y562012D01*
X201306Y562025D01*
X201405Y562034D01*
X201505Y562040D01*
X201604Y562042D01*
X204201Y562042D01*
X211163Y555551D02*
X215057Y555551D01*
X211163Y555551D02*
X211064Y555553D01*
X210964Y555559D01*
X210865Y555568D01*
X210767Y555581D01*
X210669Y555598D01*
X210571Y555619D01*
X210475Y555644D01*
X210380Y555672D01*
X210286Y555704D01*
X210193Y555739D01*
X210101Y555778D01*
X210011Y555821D01*
X209923Y555866D01*
X209836Y555916D01*
X209752Y555968D01*
X209669Y556024D01*
X209589Y556082D01*
X209511Y556144D01*
X209436Y556209D01*
X209363Y556277D01*
X209293Y556347D01*
X209225Y556420D01*
X209160Y556495D01*
X209098Y556573D01*
X209040Y556653D01*
X208984Y556736D01*
X208932Y556820D01*
X208882Y556907D01*
X208837Y556995D01*
X208794Y557085D01*
X208755Y557177D01*
X208720Y557270D01*
X208688Y557364D01*
X208660Y557459D01*
X208635Y557555D01*
X208614Y557653D01*
X208597Y557751D01*
X208584Y557849D01*
X208575Y557948D01*
X208569Y558048D01*
X208567Y558147D01*
X208566Y558147D02*
X208566Y558796D01*
X208568Y558909D01*
X208574Y559022D01*
X208584Y559135D01*
X208598Y559248D01*
X208615Y559360D01*
X208637Y559471D01*
X208662Y559581D01*
X208692Y559691D01*
X208725Y559799D01*
X208762Y559906D01*
X208802Y560012D01*
X208847Y560116D01*
X208895Y560219D01*
X208946Y560320D01*
X209001Y560419D01*
X209059Y560516D01*
X209121Y560611D01*
X209186Y560704D01*
X209254Y560794D01*
X209325Y560882D01*
X209400Y560968D01*
X209477Y561051D01*
X209557Y561131D01*
X209640Y561208D01*
X209726Y561283D01*
X209814Y561354D01*
X209904Y561422D01*
X209997Y561487D01*
X210092Y561549D01*
X210189Y561607D01*
X210288Y561662D01*
X210389Y561713D01*
X210492Y561761D01*
X210596Y561806D01*
X210702Y561846D01*
X210809Y561883D01*
X210917Y561916D01*
X211027Y561946D01*
X211137Y561971D01*
X211248Y561993D01*
X211360Y562010D01*
X211473Y562024D01*
X211586Y562034D01*
X211699Y562040D01*
X211812Y562042D01*
X211925Y562040D01*
X212038Y562034D01*
X212151Y562024D01*
X212264Y562010D01*
X212376Y561993D01*
X212487Y561971D01*
X212597Y561946D01*
X212707Y561916D01*
X212815Y561883D01*
X212922Y561846D01*
X213028Y561806D01*
X213132Y561761D01*
X213235Y561713D01*
X213336Y561662D01*
X213435Y561607D01*
X213532Y561549D01*
X213627Y561487D01*
X213720Y561422D01*
X213810Y561354D01*
X213898Y561283D01*
X213984Y561208D01*
X214067Y561131D01*
X214147Y561051D01*
X214224Y560968D01*
X214299Y560882D01*
X214370Y560794D01*
X214438Y560704D01*
X214503Y560611D01*
X214565Y560516D01*
X214623Y560419D01*
X214678Y560320D01*
X214729Y560219D01*
X214777Y560116D01*
X214822Y560012D01*
X214862Y559906D01*
X214899Y559799D01*
X214932Y559691D01*
X214962Y559581D01*
X214987Y559471D01*
X215009Y559360D01*
X215026Y559248D01*
X215040Y559135D01*
X215050Y559022D01*
X215056Y558909D01*
X215058Y558796D01*
X215057Y558796D02*
X215057Y555551D01*
X215055Y555408D01*
X215049Y555265D01*
X215039Y555122D01*
X215025Y554980D01*
X215008Y554838D01*
X214986Y554696D01*
X214961Y554555D01*
X214931Y554415D01*
X214898Y554276D01*
X214861Y554138D01*
X214820Y554001D01*
X214776Y553865D01*
X214727Y553730D01*
X214675Y553597D01*
X214620Y553465D01*
X214560Y553335D01*
X214497Y553206D01*
X214431Y553079D01*
X214361Y552955D01*
X214288Y552832D01*
X214211Y552711D01*
X214131Y552592D01*
X214048Y552476D01*
X213962Y552361D01*
X213873Y552250D01*
X213780Y552140D01*
X213685Y552034D01*
X213586Y551930D01*
X213485Y551829D01*
X213381Y551730D01*
X213275Y551635D01*
X213165Y551542D01*
X213054Y551453D01*
X212939Y551367D01*
X212823Y551284D01*
X212704Y551204D01*
X212583Y551127D01*
X212460Y551054D01*
X212336Y550984D01*
X212209Y550918D01*
X212080Y550855D01*
X211950Y550795D01*
X211818Y550740D01*
X211685Y550688D01*
X211550Y550639D01*
X211414Y550595D01*
X211277Y550554D01*
X211139Y550517D01*
X211000Y550484D01*
X210860Y550454D01*
X210719Y550429D01*
X210577Y550407D01*
X210435Y550390D01*
X210293Y550376D01*
X210150Y550366D01*
X210007Y550360D01*
X209864Y550358D01*
D12*
X83000Y527000D02*
X33000Y527000D01*
X83000Y527000D02*
X83000Y486000D01*
X83000Y477000D01*
X74000Y477000D01*
X33000Y477000D01*
X33000Y527000D01*
X83000Y486000D02*
X74000Y477000D01*
X40795Y502000D02*
X40800Y502422D01*
X40816Y502844D01*
X40842Y503266D01*
X40878Y503686D01*
X40924Y504106D01*
X40981Y504524D01*
X41048Y504941D01*
X41126Y505357D01*
X41213Y505770D01*
X41311Y506180D01*
X41418Y506589D01*
X41536Y506994D01*
X41663Y507397D01*
X41801Y507796D01*
X41948Y508192D01*
X42105Y508584D01*
X42271Y508972D01*
X42447Y509356D01*
X42632Y509736D01*
X42827Y510110D01*
X43030Y510480D01*
X43243Y510845D01*
X43464Y511205D01*
X43695Y511559D01*
X43933Y511907D01*
X44181Y512249D01*
X44436Y512585D01*
X44700Y512915D01*
X44972Y513238D01*
X45252Y513554D01*
X45539Y513864D01*
X45834Y514166D01*
X46136Y514461D01*
X46446Y514748D01*
X46762Y515028D01*
X47085Y515300D01*
X47415Y515564D01*
X47751Y515819D01*
X48093Y516067D01*
X48441Y516305D01*
X48795Y516536D01*
X49155Y516757D01*
X49520Y516970D01*
X49890Y517173D01*
X50264Y517368D01*
X50644Y517553D01*
X51028Y517729D01*
X51416Y517895D01*
X51808Y518052D01*
X52204Y518199D01*
X52603Y518337D01*
X53006Y518464D01*
X53411Y518582D01*
X53820Y518689D01*
X54230Y518787D01*
X54643Y518874D01*
X55059Y518952D01*
X55476Y519019D01*
X55894Y519076D01*
X56314Y519122D01*
X56734Y519158D01*
X57156Y519184D01*
X57578Y519200D01*
X58000Y519205D01*
X58422Y519200D01*
X58844Y519184D01*
X59266Y519158D01*
X59686Y519122D01*
X60106Y519076D01*
X60524Y519019D01*
X60941Y518952D01*
X61357Y518874D01*
X61770Y518787D01*
X62180Y518689D01*
X62589Y518582D01*
X62994Y518464D01*
X63397Y518337D01*
X63796Y518199D01*
X64192Y518052D01*
X64584Y517895D01*
X64972Y517729D01*
X65356Y517553D01*
X65736Y517368D01*
X66110Y517173D01*
X66480Y516970D01*
X66845Y516757D01*
X67205Y516536D01*
X67559Y516305D01*
X67907Y516067D01*
X68249Y515819D01*
X68585Y515564D01*
X68915Y515300D01*
X69238Y515028D01*
X69554Y514748D01*
X69864Y514461D01*
X70166Y514166D01*
X70461Y513864D01*
X70748Y513554D01*
X71028Y513238D01*
X71300Y512915D01*
X71564Y512585D01*
X71819Y512249D01*
X72067Y511907D01*
X72305Y511559D01*
X72536Y511205D01*
X72757Y510845D01*
X72970Y510480D01*
X73173Y510110D01*
X73368Y509736D01*
X73553Y509356D01*
X73729Y508972D01*
X73895Y508584D01*
X74052Y508192D01*
X74199Y507796D01*
X74337Y507397D01*
X74464Y506994D01*
X74582Y506589D01*
X74689Y506180D01*
X74787Y505770D01*
X74874Y505357D01*
X74952Y504941D01*
X75019Y504524D01*
X75076Y504106D01*
X75122Y503686D01*
X75158Y503266D01*
X75184Y502844D01*
X75200Y502422D01*
X75205Y502000D01*
X75200Y501578D01*
X75184Y501156D01*
X75158Y500734D01*
X75122Y500314D01*
X75076Y499894D01*
X75019Y499476D01*
X74952Y499059D01*
X74874Y498643D01*
X74787Y498230D01*
X74689Y497820D01*
X74582Y497411D01*
X74464Y497006D01*
X74337Y496603D01*
X74199Y496204D01*
X74052Y495808D01*
X73895Y495416D01*
X73729Y495028D01*
X73553Y494644D01*
X73368Y494264D01*
X73173Y493890D01*
X72970Y493520D01*
X72757Y493155D01*
X72536Y492795D01*
X72305Y492441D01*
X72067Y492093D01*
X71819Y491751D01*
X71564Y491415D01*
X71300Y491085D01*
X71028Y490762D01*
X70748Y490446D01*
X70461Y490136D01*
X70166Y489834D01*
X69864Y489539D01*
X69554Y489252D01*
X69238Y488972D01*
X68915Y488700D01*
X68585Y488436D01*
X68249Y488181D01*
X67907Y487933D01*
X67559Y487695D01*
X67205Y487464D01*
X66845Y487243D01*
X66480Y487030D01*
X66110Y486827D01*
X65736Y486632D01*
X65356Y486447D01*
X64972Y486271D01*
X64584Y486105D01*
X64192Y485948D01*
X63796Y485801D01*
X63397Y485663D01*
X62994Y485536D01*
X62589Y485418D01*
X62180Y485311D01*
X61770Y485213D01*
X61357Y485126D01*
X60941Y485048D01*
X60524Y484981D01*
X60106Y484924D01*
X59686Y484878D01*
X59266Y484842D01*
X58844Y484816D01*
X58422Y484800D01*
X58000Y484795D01*
X57578Y484800D01*
X57156Y484816D01*
X56734Y484842D01*
X56314Y484878D01*
X55894Y484924D01*
X55476Y484981D01*
X55059Y485048D01*
X54643Y485126D01*
X54230Y485213D01*
X53820Y485311D01*
X53411Y485418D01*
X53006Y485536D01*
X52603Y485663D01*
X52204Y485801D01*
X51808Y485948D01*
X51416Y486105D01*
X51028Y486271D01*
X50644Y486447D01*
X50264Y486632D01*
X49890Y486827D01*
X49520Y487030D01*
X49155Y487243D01*
X48795Y487464D01*
X48441Y487695D01*
X48093Y487933D01*
X47751Y488181D01*
X47415Y488436D01*
X47085Y488700D01*
X46762Y488972D01*
X46446Y489252D01*
X46136Y489539D01*
X45834Y489834D01*
X45539Y490136D01*
X45252Y490446D01*
X44972Y490762D01*
X44700Y491085D01*
X44436Y491415D01*
X44181Y491751D01*
X43933Y492093D01*
X43695Y492441D01*
X43464Y492795D01*
X43243Y493155D01*
X43030Y493520D01*
X42827Y493890D01*
X42632Y494264D01*
X42447Y494644D01*
X42271Y495028D01*
X42105Y495416D01*
X41948Y495808D01*
X41801Y496204D01*
X41663Y496603D01*
X41536Y497006D01*
X41418Y497411D01*
X41311Y497820D01*
X41213Y498230D01*
X41126Y498643D01*
X41048Y499059D01*
X40981Y499476D01*
X40924Y499894D01*
X40878Y500314D01*
X40842Y500734D01*
X40816Y501156D01*
X40800Y501578D01*
X40795Y502000D01*
X71000Y474000D02*
X74000Y477000D01*
X71000Y474000D02*
X75000Y470000D01*
X83000Y477000D01*
D13*
X22694Y486506D02*
X15328Y486506D01*
X22694Y486506D02*
X22694Y489780D01*
X22694Y492846D02*
X22694Y496120D01*
X22694Y492846D02*
X15328Y492846D01*
X15328Y496120D01*
X18602Y495301D02*
X18602Y492846D01*
X15328Y499170D02*
X22694Y499170D01*
X15328Y499170D02*
X15328Y501216D01*
X15330Y501305D01*
X15336Y501394D01*
X15346Y501483D01*
X15359Y501571D01*
X15376Y501659D01*
X15398Y501746D01*
X15423Y501831D01*
X15451Y501916D01*
X15484Y501999D01*
X15520Y502081D01*
X15559Y502161D01*
X15602Y502239D01*
X15648Y502315D01*
X15698Y502390D01*
X15751Y502462D01*
X15807Y502531D01*
X15866Y502598D01*
X15927Y502663D01*
X15992Y502724D01*
X16059Y502783D01*
X16128Y502839D01*
X16200Y502892D01*
X16275Y502942D01*
X16351Y502988D01*
X16429Y503031D01*
X16509Y503070D01*
X16591Y503106D01*
X16674Y503139D01*
X16759Y503167D01*
X16844Y503192D01*
X16931Y503214D01*
X17019Y503231D01*
X17107Y503244D01*
X17196Y503254D01*
X17285Y503260D01*
X17374Y503262D01*
X20648Y503262D01*
X20737Y503260D01*
X20826Y503254D01*
X20915Y503244D01*
X21003Y503231D01*
X21091Y503214D01*
X21178Y503192D01*
X21263Y503167D01*
X21348Y503139D01*
X21431Y503106D01*
X21513Y503070D01*
X21593Y503031D01*
X21671Y502988D01*
X21747Y502942D01*
X21822Y502892D01*
X21894Y502839D01*
X21963Y502783D01*
X22030Y502724D01*
X22095Y502663D01*
X22156Y502598D01*
X22215Y502531D01*
X22271Y502462D01*
X22324Y502390D01*
X22374Y502315D01*
X22420Y502239D01*
X22463Y502161D01*
X22502Y502081D01*
X22538Y501999D01*
X22571Y501916D01*
X22599Y501831D01*
X22624Y501746D01*
X22646Y501659D01*
X22663Y501571D01*
X22676Y501483D01*
X22686Y501394D01*
X22692Y501305D01*
X22694Y501216D01*
X22694Y499170D01*
X16965Y506729D02*
X15328Y508775D01*
X22694Y508775D01*
X22694Y506729D02*
X22694Y510821D01*
D14*
X354260Y595544D02*
X383978Y595544D01*
X383978Y450256D02*
X263328Y450256D01*
X406330Y469306D02*
X406330Y576494D01*
X327590Y595544D02*
X279838Y595544D01*
X243770Y483530D02*
X243770Y473116D01*
D13*
X226103Y492963D02*
X222124Y492963D01*
X219139Y490642D01*
X222124Y492963D02*
X219139Y495285D01*
X222124Y492963D02*
X223450Y489316D01*
X222124Y492963D02*
X223450Y496611D01*
X319081Y555285D02*
X331019Y555285D01*
X324387Y551306D01*
X331019Y547326D01*
X319081Y547326D01*
X319081Y541019D02*
X331019Y541019D01*
X319081Y542345D02*
X319081Y539692D01*
X331019Y539692D02*
X331019Y542345D01*
X319081Y532567D02*
X319081Y529914D01*
X319081Y532567D02*
X319083Y532669D01*
X319089Y532770D01*
X319099Y532871D01*
X319112Y532972D01*
X319130Y533072D01*
X319151Y533171D01*
X319176Y533270D01*
X319205Y533367D01*
X319237Y533464D01*
X319273Y533559D01*
X319313Y533652D01*
X319356Y533744D01*
X319403Y533834D01*
X319454Y533923D01*
X319507Y534009D01*
X319564Y534093D01*
X319624Y534175D01*
X319687Y534255D01*
X319753Y534332D01*
X319822Y534407D01*
X319894Y534479D01*
X319969Y534548D01*
X320046Y534614D01*
X320126Y534677D01*
X320208Y534737D01*
X320292Y534794D01*
X320378Y534847D01*
X320467Y534898D01*
X320557Y534945D01*
X320649Y534988D01*
X320742Y535028D01*
X320837Y535064D01*
X320934Y535096D01*
X321031Y535125D01*
X321130Y535150D01*
X321229Y535171D01*
X321329Y535189D01*
X321430Y535202D01*
X321531Y535212D01*
X321632Y535218D01*
X321734Y535220D01*
X328366Y535220D01*
X328468Y535218D01*
X328569Y535212D01*
X328670Y535202D01*
X328771Y535189D01*
X328871Y535171D01*
X328970Y535150D01*
X329069Y535125D01*
X329166Y535096D01*
X329263Y535064D01*
X329358Y535028D01*
X329451Y534988D01*
X329543Y534945D01*
X329633Y534898D01*
X329722Y534847D01*
X329808Y534794D01*
X329892Y534737D01*
X329974Y534677D01*
X330054Y534614D01*
X330131Y534548D01*
X330206Y534479D01*
X330278Y534407D01*
X330347Y534332D01*
X330413Y534255D01*
X330476Y534175D01*
X330536Y534093D01*
X330593Y534009D01*
X330646Y533923D01*
X330697Y533834D01*
X330744Y533744D01*
X330787Y533652D01*
X330827Y533559D01*
X330863Y533464D01*
X330895Y533367D01*
X330924Y533270D01*
X330949Y533172D01*
X330970Y533072D01*
X330988Y532972D01*
X331001Y532871D01*
X331011Y532770D01*
X331017Y532669D01*
X331019Y532567D01*
X331019Y529914D01*
X331019Y525220D02*
X319081Y525220D01*
X331019Y525220D02*
X331019Y521904D01*
X331017Y521790D01*
X331011Y521675D01*
X331001Y521561D01*
X330987Y521448D01*
X330970Y521334D01*
X330948Y521222D01*
X330923Y521110D01*
X330893Y521000D01*
X330860Y520890D01*
X330823Y520782D01*
X330783Y520675D01*
X330738Y520569D01*
X330691Y520465D01*
X330639Y520363D01*
X330584Y520263D01*
X330526Y520164D01*
X330464Y520068D01*
X330399Y519973D01*
X330331Y519882D01*
X330259Y519792D01*
X330185Y519705D01*
X330108Y519621D01*
X330027Y519539D01*
X329944Y519460D01*
X329859Y519384D01*
X329770Y519311D01*
X329680Y519242D01*
X329587Y519175D01*
X329491Y519112D01*
X329394Y519052D01*
X329294Y518995D01*
X329193Y518942D01*
X329090Y518892D01*
X328985Y518846D01*
X328879Y518803D01*
X328771Y518765D01*
X328662Y518730D01*
X328552Y518699D01*
X328441Y518671D01*
X328329Y518648D01*
X328216Y518628D01*
X328103Y518612D01*
X327989Y518600D01*
X327875Y518592D01*
X327760Y518588D01*
X327646Y518588D01*
X327531Y518592D01*
X327417Y518600D01*
X327303Y518612D01*
X327190Y518628D01*
X327077Y518648D01*
X326965Y518671D01*
X326854Y518699D01*
X326744Y518730D01*
X326635Y518765D01*
X326527Y518803D01*
X326421Y518846D01*
X326316Y518892D01*
X326213Y518942D01*
X326112Y518995D01*
X326012Y519052D01*
X325915Y519112D01*
X325819Y519175D01*
X325726Y519242D01*
X325636Y519311D01*
X325547Y519384D01*
X325462Y519460D01*
X325379Y519539D01*
X325298Y519621D01*
X325221Y519705D01*
X325147Y519792D01*
X325075Y519882D01*
X325007Y519973D01*
X324942Y520068D01*
X324880Y520164D01*
X324822Y520263D01*
X324767Y520363D01*
X324715Y520465D01*
X324668Y520569D01*
X324623Y520675D01*
X324583Y520782D01*
X324546Y520890D01*
X324513Y521000D01*
X324483Y521110D01*
X324458Y521222D01*
X324436Y521334D01*
X324419Y521448D01*
X324405Y521561D01*
X324395Y521675D01*
X324389Y521790D01*
X324387Y521904D01*
X324387Y525220D01*
X324387Y521241D02*
X319081Y518588D01*
X322397Y513855D02*
X327703Y513855D01*
X327817Y513853D01*
X327932Y513847D01*
X328046Y513837D01*
X328159Y513823D01*
X328273Y513806D01*
X328385Y513784D01*
X328497Y513759D01*
X328607Y513729D01*
X328717Y513696D01*
X328825Y513659D01*
X328932Y513619D01*
X329038Y513574D01*
X329142Y513527D01*
X329244Y513475D01*
X329344Y513420D01*
X329443Y513362D01*
X329539Y513300D01*
X329634Y513235D01*
X329725Y513167D01*
X329815Y513095D01*
X329902Y513021D01*
X329986Y512944D01*
X330068Y512863D01*
X330147Y512780D01*
X330223Y512695D01*
X330296Y512606D01*
X330365Y512516D01*
X330432Y512423D01*
X330495Y512327D01*
X330555Y512230D01*
X330612Y512130D01*
X330665Y512029D01*
X330715Y511926D01*
X330761Y511821D01*
X330804Y511715D01*
X330842Y511607D01*
X330877Y511498D01*
X330908Y511388D01*
X330936Y511277D01*
X330959Y511165D01*
X330979Y511052D01*
X330995Y510939D01*
X331007Y510825D01*
X331015Y510711D01*
X331019Y510596D01*
X331019Y510482D01*
X331015Y510367D01*
X331007Y510253D01*
X330995Y510139D01*
X330979Y510026D01*
X330959Y509913D01*
X330936Y509801D01*
X330908Y509690D01*
X330877Y509580D01*
X330842Y509471D01*
X330804Y509363D01*
X330761Y509257D01*
X330715Y509152D01*
X330665Y509049D01*
X330612Y508948D01*
X330555Y508848D01*
X330495Y508751D01*
X330432Y508655D01*
X330365Y508562D01*
X330296Y508472D01*
X330223Y508383D01*
X330147Y508298D01*
X330068Y508215D01*
X329986Y508134D01*
X329902Y508057D01*
X329815Y507983D01*
X329725Y507911D01*
X329634Y507843D01*
X329539Y507778D01*
X329443Y507716D01*
X329344Y507658D01*
X329244Y507603D01*
X329142Y507551D01*
X329038Y507504D01*
X328932Y507459D01*
X328825Y507419D01*
X328717Y507382D01*
X328607Y507349D01*
X328497Y507319D01*
X328385Y507294D01*
X328273Y507272D01*
X328159Y507255D01*
X328046Y507241D01*
X327932Y507231D01*
X327817Y507225D01*
X327703Y507223D01*
X322397Y507223D01*
X322283Y507225D01*
X322168Y507231D01*
X322054Y507241D01*
X321941Y507255D01*
X321827Y507272D01*
X321715Y507294D01*
X321603Y507319D01*
X321493Y507349D01*
X321383Y507382D01*
X321275Y507419D01*
X321168Y507459D01*
X321062Y507504D01*
X320958Y507551D01*
X320856Y507603D01*
X320756Y507658D01*
X320657Y507716D01*
X320561Y507778D01*
X320466Y507843D01*
X320375Y507911D01*
X320285Y507983D01*
X320198Y508057D01*
X320114Y508134D01*
X320032Y508215D01*
X319953Y508298D01*
X319877Y508383D01*
X319804Y508472D01*
X319735Y508562D01*
X319668Y508655D01*
X319605Y508751D01*
X319545Y508848D01*
X319488Y508948D01*
X319435Y509049D01*
X319385Y509152D01*
X319339Y509257D01*
X319296Y509363D01*
X319258Y509471D01*
X319223Y509580D01*
X319192Y509690D01*
X319164Y509801D01*
X319141Y509913D01*
X319121Y510026D01*
X319105Y510139D01*
X319093Y510253D01*
X319085Y510367D01*
X319081Y510482D01*
X319081Y510596D01*
X319085Y510711D01*
X319093Y510825D01*
X319105Y510939D01*
X319121Y511052D01*
X319141Y511165D01*
X319164Y511277D01*
X319192Y511388D01*
X319223Y511498D01*
X319258Y511607D01*
X319296Y511715D01*
X319339Y511821D01*
X319385Y511926D01*
X319435Y512029D01*
X319488Y512130D01*
X319545Y512230D01*
X319605Y512327D01*
X319668Y512423D01*
X319735Y512516D01*
X319804Y512606D01*
X319877Y512695D01*
X319953Y512780D01*
X320032Y512863D01*
X320114Y512944D01*
X320198Y513021D01*
X320285Y513095D01*
X320375Y513167D01*
X320466Y513235D01*
X320561Y513300D01*
X320657Y513362D01*
X320756Y513420D01*
X320856Y513475D01*
X320958Y513527D01*
X321062Y513574D01*
X321168Y513619D01*
X321275Y513659D01*
X321383Y513696D01*
X321493Y513729D01*
X321603Y513759D01*
X321715Y513784D01*
X321827Y513806D01*
X321941Y513823D01*
X322054Y513837D01*
X322168Y513847D01*
X322283Y513853D01*
X322397Y513855D01*
X319081Y498827D02*
X319083Y498725D01*
X319089Y498624D01*
X319099Y498523D01*
X319112Y498422D01*
X319130Y498322D01*
X319151Y498223D01*
X319176Y498124D01*
X319205Y498027D01*
X319237Y497930D01*
X319273Y497835D01*
X319313Y497742D01*
X319356Y497650D01*
X319403Y497560D01*
X319454Y497471D01*
X319507Y497385D01*
X319564Y497301D01*
X319624Y497219D01*
X319687Y497139D01*
X319753Y497062D01*
X319822Y496987D01*
X319894Y496915D01*
X319969Y496846D01*
X320046Y496780D01*
X320126Y496717D01*
X320208Y496657D01*
X320292Y496600D01*
X320378Y496547D01*
X320467Y496496D01*
X320557Y496449D01*
X320649Y496406D01*
X320742Y496366D01*
X320837Y496330D01*
X320934Y496298D01*
X321031Y496269D01*
X321130Y496244D01*
X321229Y496223D01*
X321329Y496205D01*
X321430Y496192D01*
X321531Y496182D01*
X321632Y496176D01*
X321734Y496174D01*
X319081Y498827D02*
X319083Y498975D01*
X319089Y499122D01*
X319098Y499269D01*
X319112Y499416D01*
X319129Y499562D01*
X319151Y499708D01*
X319176Y499854D01*
X319205Y499998D01*
X319237Y500142D01*
X319274Y500285D01*
X319314Y500427D01*
X319358Y500568D01*
X319406Y500707D01*
X319457Y500845D01*
X319512Y500982D01*
X319571Y501118D01*
X319633Y501252D01*
X319698Y501384D01*
X319767Y501514D01*
X319840Y501642D01*
X319915Y501769D01*
X319994Y501894D01*
X320077Y502016D01*
X320162Y502136D01*
X320251Y502254D01*
X320343Y502369D01*
X320437Y502482D01*
X320535Y502593D01*
X320636Y502701D01*
X320739Y502806D01*
X328366Y502474D02*
X328468Y502472D01*
X328569Y502466D01*
X328670Y502456D01*
X328771Y502443D01*
X328871Y502425D01*
X328970Y502404D01*
X329069Y502379D01*
X329166Y502350D01*
X329263Y502318D01*
X329358Y502282D01*
X329451Y502242D01*
X329543Y502199D01*
X329633Y502152D01*
X329722Y502101D01*
X329808Y502048D01*
X329892Y501991D01*
X329974Y501931D01*
X330054Y501868D01*
X330131Y501802D01*
X330206Y501733D01*
X330278Y501661D01*
X330347Y501586D01*
X330413Y501509D01*
X330476Y501429D01*
X330536Y501347D01*
X330593Y501263D01*
X330646Y501177D01*
X330697Y501088D01*
X330744Y500998D01*
X330787Y500906D01*
X330827Y500813D01*
X330863Y500718D01*
X330895Y500621D01*
X330924Y500524D01*
X330949Y500425D01*
X330970Y500326D01*
X330988Y500226D01*
X331001Y500125D01*
X331011Y500024D01*
X331017Y499923D01*
X331019Y499821D01*
X331017Y499682D01*
X331011Y499543D01*
X331001Y499404D01*
X330988Y499266D01*
X330970Y499127D01*
X330949Y498990D01*
X330924Y498853D01*
X330895Y498717D01*
X330862Y498582D01*
X330826Y498447D01*
X330785Y498314D01*
X330741Y498182D01*
X330694Y498051D01*
X330642Y497922D01*
X330587Y497794D01*
X330529Y497668D01*
X330467Y497543D01*
X330401Y497421D01*
X330333Y497300D01*
X330260Y497181D01*
X330185Y497064D01*
X330106Y496949D01*
X330024Y496837D01*
X326045Y501148D02*
X326097Y501233D01*
X326153Y501316D01*
X326211Y501397D01*
X326273Y501476D01*
X326337Y501552D01*
X326404Y501626D01*
X326474Y501698D01*
X326546Y501766D01*
X326621Y501833D01*
X326698Y501896D01*
X326778Y501956D01*
X326860Y502014D01*
X326944Y502068D01*
X327029Y502119D01*
X327117Y502167D01*
X327206Y502212D01*
X327297Y502253D01*
X327390Y502291D01*
X327484Y502325D01*
X327578Y502356D01*
X327675Y502384D01*
X327772Y502408D01*
X327869Y502428D01*
X327968Y502444D01*
X328067Y502457D01*
X328166Y502467D01*
X328266Y502472D01*
X328366Y502474D01*
X324055Y497500D02*
X324003Y497415D01*
X323947Y497332D01*
X323889Y497251D01*
X323827Y497172D01*
X323763Y497096D01*
X323696Y497022D01*
X323626Y496950D01*
X323554Y496882D01*
X323479Y496815D01*
X323402Y496752D01*
X323322Y496692D01*
X323240Y496634D01*
X323156Y496580D01*
X323071Y496529D01*
X322983Y496481D01*
X322894Y496436D01*
X322803Y496395D01*
X322710Y496357D01*
X322617Y496323D01*
X322522Y496292D01*
X322425Y496264D01*
X322328Y496240D01*
X322231Y496220D01*
X322132Y496204D01*
X322033Y496191D01*
X321934Y496181D01*
X321834Y496176D01*
X321734Y496174D01*
X324055Y497500D02*
X326045Y501148D01*
X331019Y491376D02*
X319081Y491376D01*
X331019Y491376D02*
X331019Y488060D01*
X331017Y487947D01*
X331011Y487834D01*
X331002Y487721D01*
X330988Y487608D01*
X330971Y487497D01*
X330950Y487385D01*
X330925Y487275D01*
X330896Y487165D01*
X330864Y487057D01*
X330828Y486950D01*
X330788Y486844D01*
X330744Y486739D01*
X330698Y486636D01*
X330647Y486534D01*
X330593Y486435D01*
X330536Y486337D01*
X330476Y486241D01*
X330412Y486148D01*
X330345Y486056D01*
X330275Y485967D01*
X330202Y485881D01*
X330126Y485797D01*
X330048Y485715D01*
X329966Y485637D01*
X329882Y485561D01*
X329796Y485488D01*
X329707Y485418D01*
X329615Y485351D01*
X329522Y485287D01*
X329426Y485227D01*
X329328Y485170D01*
X329229Y485116D01*
X329127Y485065D01*
X329024Y485019D01*
X328919Y484975D01*
X328813Y484935D01*
X328706Y484899D01*
X328598Y484867D01*
X328488Y484838D01*
X328378Y484813D01*
X328266Y484792D01*
X328155Y484775D01*
X328042Y484761D01*
X327929Y484752D01*
X327816Y484746D01*
X327703Y484744D01*
X322397Y484744D01*
X322284Y484746D01*
X322171Y484752D01*
X322058Y484761D01*
X321945Y484775D01*
X321834Y484792D01*
X321722Y484813D01*
X321612Y484838D01*
X321502Y484867D01*
X321394Y484899D01*
X321287Y484935D01*
X321181Y484975D01*
X321076Y485019D01*
X320973Y485065D01*
X320871Y485116D01*
X320772Y485170D01*
X320674Y485227D01*
X320578Y485287D01*
X320485Y485351D01*
X320393Y485418D01*
X320304Y485488D01*
X320218Y485561D01*
X320134Y485637D01*
X320052Y485715D01*
X319974Y485797D01*
X319898Y485881D01*
X319825Y485967D01*
X319755Y486056D01*
X319688Y486148D01*
X319624Y486241D01*
X319564Y486337D01*
X319507Y486435D01*
X319453Y486534D01*
X319402Y486636D01*
X319356Y486739D01*
X319312Y486844D01*
X319272Y486950D01*
X319236Y487057D01*
X319204Y487165D01*
X319175Y487275D01*
X319150Y487385D01*
X319129Y487497D01*
X319112Y487608D01*
X319098Y487721D01*
X319089Y487834D01*
X319083Y487947D01*
X319081Y488060D01*
X319081Y491376D01*
X317755Y480045D02*
X317755Y474739D01*
X319081Y467797D02*
X319081Y465144D01*
X319081Y467797D02*
X319083Y467899D01*
X319089Y468000D01*
X319099Y468101D01*
X319112Y468202D01*
X319130Y468302D01*
X319151Y468401D01*
X319176Y468500D01*
X319205Y468597D01*
X319237Y468694D01*
X319273Y468789D01*
X319313Y468882D01*
X319356Y468974D01*
X319403Y469064D01*
X319454Y469153D01*
X319507Y469239D01*
X319564Y469323D01*
X319624Y469405D01*
X319687Y469485D01*
X319753Y469562D01*
X319822Y469637D01*
X319894Y469709D01*
X319969Y469778D01*
X320046Y469844D01*
X320126Y469907D01*
X320208Y469967D01*
X320292Y470024D01*
X320378Y470077D01*
X320467Y470128D01*
X320557Y470175D01*
X320649Y470218D01*
X320742Y470258D01*
X320837Y470294D01*
X320934Y470326D01*
X321031Y470355D01*
X321130Y470380D01*
X321229Y470401D01*
X321329Y470419D01*
X321430Y470432D01*
X321531Y470442D01*
X321632Y470448D01*
X321734Y470450D01*
X328366Y470450D01*
X328468Y470448D01*
X328569Y470442D01*
X328670Y470432D01*
X328771Y470419D01*
X328871Y470401D01*
X328970Y470380D01*
X329069Y470355D01*
X329166Y470326D01*
X329263Y470294D01*
X329358Y470258D01*
X329451Y470218D01*
X329543Y470175D01*
X329633Y470128D01*
X329722Y470077D01*
X329808Y470024D01*
X329892Y469967D01*
X329974Y469907D01*
X330054Y469844D01*
X330131Y469778D01*
X330206Y469709D01*
X330278Y469637D01*
X330347Y469562D01*
X330413Y469485D01*
X330476Y469405D01*
X330536Y469323D01*
X330593Y469239D01*
X330646Y469153D01*
X330697Y469064D01*
X330744Y468974D01*
X330787Y468882D01*
X330827Y468789D01*
X330863Y468694D01*
X330895Y468597D01*
X330924Y468500D01*
X330949Y468402D01*
X330970Y468302D01*
X330988Y468202D01*
X331001Y468101D01*
X331011Y468000D01*
X331017Y467899D01*
X331019Y467797D01*
X331019Y465144D01*
X327703Y460896D02*
X322397Y460896D01*
X327703Y460896D02*
X327817Y460894D01*
X327932Y460888D01*
X328046Y460878D01*
X328159Y460864D01*
X328273Y460847D01*
X328385Y460825D01*
X328497Y460800D01*
X328607Y460770D01*
X328717Y460737D01*
X328825Y460700D01*
X328932Y460660D01*
X329038Y460615D01*
X329142Y460568D01*
X329244Y460516D01*
X329344Y460461D01*
X329443Y460403D01*
X329539Y460341D01*
X329634Y460276D01*
X329725Y460208D01*
X329815Y460136D01*
X329902Y460062D01*
X329986Y459985D01*
X330068Y459904D01*
X330147Y459821D01*
X330223Y459736D01*
X330296Y459647D01*
X330365Y459557D01*
X330432Y459464D01*
X330495Y459368D01*
X330555Y459271D01*
X330612Y459171D01*
X330665Y459070D01*
X330715Y458967D01*
X330761Y458862D01*
X330804Y458756D01*
X330842Y458648D01*
X330877Y458539D01*
X330908Y458429D01*
X330936Y458318D01*
X330959Y458206D01*
X330979Y458093D01*
X330995Y457980D01*
X331007Y457866D01*
X331015Y457752D01*
X331019Y457637D01*
X331019Y457523D01*
X331015Y457408D01*
X331007Y457294D01*
X330995Y457180D01*
X330979Y457067D01*
X330959Y456954D01*
X330936Y456842D01*
X330908Y456731D01*
X330877Y456621D01*
X330842Y456512D01*
X330804Y456404D01*
X330761Y456298D01*
X330715Y456193D01*
X330665Y456090D01*
X330612Y455989D01*
X330555Y455889D01*
X330495Y455792D01*
X330432Y455696D01*
X330365Y455603D01*
X330296Y455513D01*
X330223Y455424D01*
X330147Y455339D01*
X330068Y455256D01*
X329986Y455175D01*
X329902Y455098D01*
X329815Y455024D01*
X329725Y454952D01*
X329634Y454884D01*
X329539Y454819D01*
X329443Y454757D01*
X329344Y454699D01*
X329244Y454644D01*
X329142Y454592D01*
X329038Y454545D01*
X328932Y454500D01*
X328825Y454460D01*
X328717Y454423D01*
X328607Y454390D01*
X328497Y454360D01*
X328385Y454335D01*
X328273Y454313D01*
X328159Y454296D01*
X328046Y454282D01*
X327932Y454272D01*
X327817Y454266D01*
X327703Y454264D01*
X322397Y454264D01*
X322283Y454266D01*
X322168Y454272D01*
X322054Y454282D01*
X321941Y454296D01*
X321827Y454313D01*
X321715Y454335D01*
X321603Y454360D01*
X321493Y454390D01*
X321383Y454423D01*
X321275Y454460D01*
X321168Y454500D01*
X321062Y454545D01*
X320958Y454592D01*
X320856Y454644D01*
X320756Y454699D01*
X320657Y454757D01*
X320561Y454819D01*
X320466Y454884D01*
X320375Y454952D01*
X320285Y455024D01*
X320198Y455098D01*
X320114Y455175D01*
X320032Y455256D01*
X319953Y455339D01*
X319877Y455424D01*
X319804Y455513D01*
X319735Y455603D01*
X319668Y455696D01*
X319605Y455792D01*
X319545Y455889D01*
X319488Y455989D01*
X319435Y456090D01*
X319385Y456193D01*
X319339Y456298D01*
X319296Y456404D01*
X319258Y456512D01*
X319223Y456621D01*
X319192Y456731D01*
X319164Y456842D01*
X319141Y456954D01*
X319121Y457067D01*
X319105Y457180D01*
X319093Y457294D01*
X319085Y457408D01*
X319081Y457523D01*
X319081Y457637D01*
X319085Y457752D01*
X319093Y457866D01*
X319105Y457980D01*
X319121Y458093D01*
X319141Y458206D01*
X319164Y458318D01*
X319192Y458429D01*
X319223Y458539D01*
X319258Y458648D01*
X319296Y458756D01*
X319339Y458862D01*
X319385Y458967D01*
X319435Y459070D01*
X319488Y459171D01*
X319545Y459271D01*
X319605Y459368D01*
X319668Y459464D01*
X319735Y459557D01*
X319804Y459647D01*
X319877Y459736D01*
X319953Y459821D01*
X320032Y459904D01*
X320114Y459985D01*
X320198Y460062D01*
X320285Y460136D01*
X320375Y460208D01*
X320466Y460276D01*
X320561Y460341D01*
X320657Y460403D01*
X320756Y460461D01*
X320856Y460516D01*
X320958Y460568D01*
X321062Y460615D01*
X321168Y460660D01*
X321275Y460700D01*
X321383Y460737D01*
X321493Y460770D01*
X321603Y460800D01*
X321715Y460825D01*
X321827Y460847D01*
X321941Y460864D01*
X322054Y460878D01*
X322168Y460888D01*
X322283Y460894D01*
X322397Y460896D01*
X319081Y449085D02*
X331019Y449085D01*
X319081Y442453D01*
X331019Y442453D01*
X331019Y436893D02*
X319081Y436893D01*
X319081Y430261D02*
X331019Y436893D01*
X331019Y430261D02*
X319081Y430261D01*
D14*
X32300Y622900D02*
X32300Y635600D01*
X38650Y641950D01*
X51350Y641950D01*
X57700Y635600D01*
X32300Y597500D02*
X38650Y591150D01*
X32300Y597500D02*
X32300Y610200D01*
X38650Y616550D01*
X51350Y616550D01*
X57700Y610200D01*
X57700Y597500D01*
X51350Y591150D01*
X38650Y616550D02*
X32300Y622900D01*
X51350Y616550D02*
X57700Y622900D01*
X57700Y635600D01*
X32300Y559400D02*
X32300Y546700D01*
X32300Y559400D02*
X38650Y565750D01*
X51350Y565750D01*
X57700Y559400D01*
X38650Y565750D02*
X32300Y572100D01*
X32300Y584800D01*
X38650Y591150D01*
X51350Y591150D01*
X57700Y584800D01*
X57700Y572100D01*
X51350Y565750D01*
X51350Y540350D02*
X38650Y540350D01*
X32300Y546700D01*
X51350Y540350D02*
X57700Y546700D01*
X57700Y559400D01*
X32300Y648300D02*
X32300Y661000D01*
X38650Y667350D01*
X51350Y667350D01*
X57700Y661000D01*
X38650Y641950D02*
X32300Y648300D01*
X51350Y641950D02*
X57700Y648300D01*
X57700Y661000D01*
D12*
X26077Y540223D02*
X14647Y540223D01*
X20997Y544033D01*
X14647Y547843D01*
X26077Y547843D01*
X26077Y554320D02*
X14647Y554320D01*
X26077Y553050D02*
X26077Y555590D01*
X14647Y555590D02*
X14647Y553050D01*
X26077Y562792D02*
X26077Y565332D01*
X26077Y562792D02*
X26075Y562692D01*
X26069Y562593D01*
X26059Y562493D01*
X26046Y562395D01*
X26028Y562296D01*
X26007Y562199D01*
X25982Y562103D01*
X25953Y562007D01*
X25920Y561913D01*
X25884Y561820D01*
X25844Y561729D01*
X25800Y561639D01*
X25753Y561551D01*
X25703Y561465D01*
X25649Y561381D01*
X25592Y561299D01*
X25532Y561220D01*
X25468Y561142D01*
X25402Y561068D01*
X25333Y560996D01*
X25261Y560927D01*
X25187Y560861D01*
X25109Y560797D01*
X25030Y560737D01*
X24948Y560680D01*
X24864Y560626D01*
X24778Y560576D01*
X24690Y560529D01*
X24600Y560485D01*
X24509Y560445D01*
X24416Y560409D01*
X24322Y560376D01*
X24226Y560347D01*
X24130Y560322D01*
X24033Y560301D01*
X23934Y560283D01*
X23836Y560270D01*
X23736Y560260D01*
X23637Y560254D01*
X23537Y560252D01*
X17187Y560252D01*
X17087Y560254D01*
X16988Y560260D01*
X16888Y560270D01*
X16790Y560283D01*
X16691Y560301D01*
X16594Y560322D01*
X16498Y560347D01*
X16402Y560376D01*
X16308Y560409D01*
X16215Y560445D01*
X16124Y560485D01*
X16034Y560529D01*
X15946Y560576D01*
X15860Y560626D01*
X15776Y560680D01*
X15694Y560737D01*
X15615Y560797D01*
X15537Y560861D01*
X15463Y560927D01*
X15391Y560996D01*
X15322Y561068D01*
X15256Y561142D01*
X15192Y561220D01*
X15132Y561299D01*
X15075Y561381D01*
X15021Y561465D01*
X14971Y561551D01*
X14924Y561639D01*
X14880Y561729D01*
X14840Y561820D01*
X14804Y561913D01*
X14771Y562007D01*
X14742Y562103D01*
X14717Y562199D01*
X14696Y562296D01*
X14678Y562395D01*
X14665Y562493D01*
X14655Y562593D01*
X14649Y562692D01*
X14647Y562792D01*
X14647Y565332D01*
X27347Y569306D02*
X27347Y574386D01*
X26077Y581461D02*
X26077Y584001D01*
X26077Y581461D02*
X26075Y581361D01*
X26069Y581262D01*
X26059Y581162D01*
X26046Y581064D01*
X26028Y580965D01*
X26007Y580868D01*
X25982Y580772D01*
X25953Y580676D01*
X25920Y580582D01*
X25884Y580489D01*
X25844Y580398D01*
X25800Y580308D01*
X25753Y580220D01*
X25703Y580134D01*
X25649Y580050D01*
X25592Y579968D01*
X25532Y579889D01*
X25468Y579811D01*
X25402Y579737D01*
X25333Y579665D01*
X25261Y579596D01*
X25187Y579530D01*
X25109Y579466D01*
X25030Y579406D01*
X24948Y579349D01*
X24864Y579295D01*
X24778Y579245D01*
X24690Y579198D01*
X24600Y579154D01*
X24509Y579114D01*
X24416Y579078D01*
X24322Y579045D01*
X24226Y579016D01*
X24130Y578991D01*
X24033Y578970D01*
X23934Y578952D01*
X23836Y578939D01*
X23736Y578929D01*
X23637Y578923D01*
X23537Y578921D01*
X17187Y578921D01*
X17087Y578923D01*
X16988Y578929D01*
X16888Y578939D01*
X16790Y578952D01*
X16691Y578970D01*
X16594Y578991D01*
X16498Y579016D01*
X16402Y579045D01*
X16308Y579078D01*
X16215Y579114D01*
X16124Y579154D01*
X16034Y579198D01*
X15946Y579245D01*
X15860Y579295D01*
X15776Y579349D01*
X15694Y579406D01*
X15615Y579466D01*
X15537Y579530D01*
X15463Y579596D01*
X15391Y579665D01*
X15322Y579737D01*
X15256Y579811D01*
X15192Y579889D01*
X15132Y579968D01*
X15075Y580050D01*
X15021Y580134D01*
X14971Y580220D01*
X14924Y580308D01*
X14880Y580398D01*
X14840Y580489D01*
X14804Y580582D01*
X14771Y580676D01*
X14742Y580772D01*
X14717Y580868D01*
X14696Y580965D01*
X14678Y581064D01*
X14665Y581162D01*
X14655Y581262D01*
X14649Y581361D01*
X14647Y581461D01*
X14647Y584001D01*
X17822Y588483D02*
X22902Y588483D01*
X17822Y588483D02*
X17711Y588485D01*
X17601Y588491D01*
X17490Y588500D01*
X17380Y588514D01*
X17271Y588531D01*
X17162Y588552D01*
X17054Y588577D01*
X16947Y588606D01*
X16841Y588638D01*
X16736Y588674D01*
X16633Y588714D01*
X16531Y588757D01*
X16430Y588804D01*
X16331Y588855D01*
X16235Y588908D01*
X16140Y588965D01*
X16047Y589026D01*
X15956Y589089D01*
X15867Y589156D01*
X15781Y589226D01*
X15698Y589299D01*
X15616Y589374D01*
X15538Y589452D01*
X15463Y589534D01*
X15390Y589617D01*
X15320Y589703D01*
X15253Y589792D01*
X15190Y589883D01*
X15129Y589976D01*
X15072Y590071D01*
X15019Y590167D01*
X14968Y590266D01*
X14921Y590367D01*
X14878Y590469D01*
X14838Y590572D01*
X14802Y590677D01*
X14770Y590783D01*
X14741Y590890D01*
X14716Y590998D01*
X14695Y591107D01*
X14678Y591216D01*
X14664Y591326D01*
X14655Y591437D01*
X14649Y591547D01*
X14647Y591658D01*
X14649Y591769D01*
X14655Y591879D01*
X14664Y591990D01*
X14678Y592100D01*
X14695Y592209D01*
X14716Y592318D01*
X14741Y592426D01*
X14770Y592533D01*
X14802Y592639D01*
X14838Y592744D01*
X14878Y592847D01*
X14921Y592949D01*
X14968Y593050D01*
X15019Y593149D01*
X15072Y593246D01*
X15129Y593340D01*
X15190Y593433D01*
X15253Y593524D01*
X15320Y593613D01*
X15390Y593699D01*
X15463Y593782D01*
X15538Y593864D01*
X15616Y593942D01*
X15698Y594017D01*
X15781Y594090D01*
X15867Y594160D01*
X15956Y594227D01*
X16047Y594290D01*
X16140Y594351D01*
X16234Y594408D01*
X16331Y594461D01*
X16430Y594512D01*
X16531Y594559D01*
X16633Y594602D01*
X16736Y594642D01*
X16841Y594678D01*
X16947Y594710D01*
X17054Y594739D01*
X17162Y594764D01*
X17271Y594785D01*
X17380Y594802D01*
X17490Y594816D01*
X17601Y594825D01*
X17711Y594831D01*
X17822Y594833D01*
X22902Y594833D01*
X23013Y594831D01*
X23123Y594825D01*
X23234Y594816D01*
X23344Y594802D01*
X23453Y594785D01*
X23562Y594764D01*
X23670Y594739D01*
X23777Y594710D01*
X23883Y594678D01*
X23988Y594642D01*
X24091Y594602D01*
X24193Y594559D01*
X24294Y594512D01*
X24393Y594461D01*
X24490Y594408D01*
X24584Y594351D01*
X24677Y594290D01*
X24768Y594227D01*
X24857Y594160D01*
X24943Y594090D01*
X25026Y594017D01*
X25108Y593942D01*
X25186Y593864D01*
X25261Y593782D01*
X25334Y593699D01*
X25404Y593613D01*
X25471Y593524D01*
X25534Y593433D01*
X25595Y593340D01*
X25652Y593245D01*
X25705Y593149D01*
X25756Y593050D01*
X25803Y592949D01*
X25846Y592847D01*
X25886Y592744D01*
X25922Y592639D01*
X25954Y592533D01*
X25983Y592426D01*
X26008Y592318D01*
X26029Y592209D01*
X26046Y592100D01*
X26060Y591990D01*
X26069Y591879D01*
X26075Y591769D01*
X26077Y591658D01*
X26075Y591547D01*
X26069Y591437D01*
X26060Y591326D01*
X26046Y591216D01*
X26029Y591107D01*
X26008Y590998D01*
X25983Y590890D01*
X25954Y590783D01*
X25922Y590677D01*
X25886Y590572D01*
X25846Y590469D01*
X25803Y590367D01*
X25756Y590266D01*
X25705Y590167D01*
X25652Y590071D01*
X25595Y589976D01*
X25534Y589883D01*
X25471Y589792D01*
X25404Y589703D01*
X25334Y589617D01*
X25261Y589534D01*
X25186Y589452D01*
X25108Y589374D01*
X25026Y589299D01*
X24943Y589226D01*
X24857Y589156D01*
X24768Y589089D01*
X24677Y589026D01*
X24584Y588965D01*
X24489Y588908D01*
X24393Y588855D01*
X24294Y588804D01*
X24193Y588757D01*
X24091Y588714D01*
X23988Y588674D01*
X23883Y588638D01*
X23777Y588606D01*
X23670Y588577D01*
X23562Y588552D01*
X23453Y588531D01*
X23344Y588514D01*
X23234Y588500D01*
X23123Y588491D01*
X23013Y588485D01*
X22902Y588483D01*
X26077Y600294D02*
X14647Y600294D01*
X26077Y606644D01*
X14647Y606644D01*
X14647Y612486D02*
X26077Y612486D01*
X26077Y618836D02*
X14647Y612486D01*
X14647Y618836D02*
X26077Y618836D01*
D10*
X226095Y375792D02*
X226095Y364108D01*
X226095Y375792D02*
X229340Y375792D01*
X229453Y375790D01*
X229566Y375784D01*
X229679Y375774D01*
X229792Y375760D01*
X229904Y375743D01*
X230015Y375721D01*
X230125Y375696D01*
X230235Y375666D01*
X230343Y375633D01*
X230450Y375596D01*
X230556Y375556D01*
X230660Y375511D01*
X230763Y375463D01*
X230864Y375412D01*
X230963Y375357D01*
X231060Y375299D01*
X231155Y375237D01*
X231248Y375172D01*
X231338Y375104D01*
X231426Y375033D01*
X231512Y374958D01*
X231595Y374881D01*
X231675Y374801D01*
X231752Y374718D01*
X231827Y374632D01*
X231898Y374544D01*
X231966Y374454D01*
X232031Y374361D01*
X232093Y374266D01*
X232151Y374169D01*
X232206Y374070D01*
X232257Y373969D01*
X232305Y373866D01*
X232350Y373762D01*
X232390Y373656D01*
X232427Y373549D01*
X232460Y373441D01*
X232490Y373331D01*
X232515Y373221D01*
X232537Y373110D01*
X232554Y372998D01*
X232568Y372885D01*
X232578Y372772D01*
X232584Y372659D01*
X232586Y372546D01*
X232584Y372433D01*
X232578Y372320D01*
X232568Y372207D01*
X232554Y372094D01*
X232537Y371982D01*
X232515Y371871D01*
X232490Y371761D01*
X232460Y371651D01*
X232427Y371543D01*
X232390Y371436D01*
X232350Y371330D01*
X232305Y371226D01*
X232257Y371123D01*
X232206Y371022D01*
X232151Y370923D01*
X232093Y370826D01*
X232031Y370731D01*
X231966Y370638D01*
X231898Y370548D01*
X231827Y370460D01*
X231752Y370374D01*
X231675Y370291D01*
X231595Y370211D01*
X231512Y370134D01*
X231426Y370059D01*
X231338Y369988D01*
X231248Y369920D01*
X231155Y369855D01*
X231060Y369793D01*
X230963Y369735D01*
X230864Y369680D01*
X230763Y369629D01*
X230660Y369581D01*
X230556Y369536D01*
X230450Y369496D01*
X230343Y369459D01*
X230235Y369426D01*
X230125Y369396D01*
X230015Y369371D01*
X229904Y369349D01*
X229792Y369332D01*
X229679Y369318D01*
X229566Y369308D01*
X229453Y369302D01*
X229340Y369300D01*
X229340Y369301D02*
X226095Y369301D01*
X229989Y369301D02*
X232586Y364108D01*
X237451Y373196D02*
X240696Y375792D01*
X240696Y364108D01*
X237451Y364108D02*
X243942Y364108D01*
X112542Y645558D02*
X100858Y645558D01*
X100858Y648804D01*
X100860Y648917D01*
X100866Y649030D01*
X100876Y649143D01*
X100890Y649256D01*
X100907Y649368D01*
X100929Y649479D01*
X100954Y649589D01*
X100984Y649699D01*
X101017Y649807D01*
X101054Y649914D01*
X101094Y650020D01*
X101139Y650124D01*
X101187Y650227D01*
X101238Y650328D01*
X101293Y650427D01*
X101351Y650524D01*
X101413Y650619D01*
X101478Y650712D01*
X101546Y650802D01*
X101617Y650890D01*
X101692Y650976D01*
X101769Y651059D01*
X101849Y651139D01*
X101932Y651216D01*
X102018Y651291D01*
X102106Y651362D01*
X102196Y651430D01*
X102289Y651495D01*
X102384Y651557D01*
X102481Y651615D01*
X102580Y651670D01*
X102681Y651721D01*
X102784Y651769D01*
X102888Y651814D01*
X102994Y651854D01*
X103101Y651891D01*
X103209Y651924D01*
X103319Y651954D01*
X103429Y651979D01*
X103540Y652001D01*
X103652Y652018D01*
X103765Y652032D01*
X103878Y652042D01*
X103991Y652048D01*
X104104Y652050D01*
X104217Y652048D01*
X104330Y652042D01*
X104443Y652032D01*
X104556Y652018D01*
X104668Y652001D01*
X104779Y651979D01*
X104889Y651954D01*
X104999Y651924D01*
X105107Y651891D01*
X105214Y651854D01*
X105320Y651814D01*
X105424Y651769D01*
X105527Y651721D01*
X105628Y651670D01*
X105727Y651615D01*
X105824Y651557D01*
X105919Y651495D01*
X106012Y651430D01*
X106102Y651362D01*
X106190Y651291D01*
X106276Y651216D01*
X106359Y651139D01*
X106439Y651059D01*
X106516Y650976D01*
X106591Y650890D01*
X106662Y650802D01*
X106730Y650712D01*
X106795Y650619D01*
X106857Y650524D01*
X106915Y650427D01*
X106970Y650328D01*
X107021Y650227D01*
X107069Y650124D01*
X107114Y650020D01*
X107154Y649914D01*
X107191Y649807D01*
X107224Y649699D01*
X107254Y649589D01*
X107279Y649479D01*
X107301Y649368D01*
X107318Y649256D01*
X107332Y649143D01*
X107342Y649030D01*
X107348Y648917D01*
X107350Y648804D01*
X107349Y648804D02*
X107349Y645558D01*
X107349Y649453D02*
X112542Y652049D01*
X103454Y656914D02*
X100858Y660160D01*
X112542Y660160D01*
X112542Y663405D02*
X112542Y656914D01*
X106700Y668344D02*
X106470Y668347D01*
X106240Y668355D01*
X106011Y668369D01*
X105782Y668388D01*
X105553Y668413D01*
X105325Y668443D01*
X105098Y668478D01*
X104872Y668519D01*
X104647Y668565D01*
X104423Y668617D01*
X104200Y668674D01*
X103979Y668736D01*
X103759Y668804D01*
X103541Y668877D01*
X103325Y668955D01*
X103111Y669038D01*
X102899Y669126D01*
X102688Y669219D01*
X102481Y669318D01*
X102391Y669351D01*
X102302Y669387D01*
X102214Y669427D01*
X102129Y669471D01*
X102045Y669518D01*
X101963Y669568D01*
X101883Y669622D01*
X101806Y669678D01*
X101730Y669738D01*
X101657Y669801D01*
X101587Y669866D01*
X101519Y669935D01*
X101455Y670006D01*
X101393Y670079D01*
X101334Y670155D01*
X101278Y670233D01*
X101225Y670314D01*
X101176Y670396D01*
X101130Y670480D01*
X101087Y670567D01*
X101048Y670654D01*
X101012Y670744D01*
X100980Y670834D01*
X100952Y670926D01*
X100927Y671019D01*
X100906Y671113D01*
X100889Y671207D01*
X100875Y671302D01*
X100866Y671398D01*
X100860Y671494D01*
X100858Y671590D01*
X100860Y671686D01*
X100866Y671782D01*
X100875Y671878D01*
X100889Y671973D01*
X100906Y672067D01*
X100927Y672161D01*
X100952Y672254D01*
X100980Y672346D01*
X101012Y672436D01*
X101048Y672526D01*
X101087Y672614D01*
X101130Y672700D01*
X101176Y672784D01*
X101225Y672866D01*
X101278Y672947D01*
X101334Y673025D01*
X101393Y673101D01*
X101455Y673174D01*
X101519Y673245D01*
X101587Y673314D01*
X101657Y673379D01*
X101730Y673442D01*
X101806Y673502D01*
X101883Y673558D01*
X101963Y673612D01*
X102045Y673662D01*
X102129Y673709D01*
X102214Y673753D01*
X102302Y673793D01*
X102391Y673829D01*
X102481Y673862D01*
X102688Y673961D01*
X102899Y674054D01*
X103111Y674142D01*
X103325Y674225D01*
X103541Y674303D01*
X103759Y674376D01*
X103979Y674444D01*
X104200Y674506D01*
X104423Y674563D01*
X104647Y674615D01*
X104872Y674661D01*
X105098Y674702D01*
X105325Y674737D01*
X105553Y674767D01*
X105782Y674792D01*
X106011Y674811D01*
X106240Y674825D01*
X106470Y674833D01*
X106700Y674836D01*
X106700Y668344D02*
X106930Y668347D01*
X107160Y668355D01*
X107389Y668369D01*
X107618Y668388D01*
X107847Y668413D01*
X108075Y668443D01*
X108302Y668478D01*
X108528Y668519D01*
X108753Y668565D01*
X108977Y668617D01*
X109200Y668674D01*
X109421Y668736D01*
X109641Y668804D01*
X109859Y668877D01*
X110075Y668955D01*
X110289Y669038D01*
X110501Y669126D01*
X110712Y669219D01*
X110919Y669318D01*
X111009Y669351D01*
X111098Y669387D01*
X111186Y669428D01*
X111271Y669471D01*
X111355Y669518D01*
X111437Y669568D01*
X111517Y669622D01*
X111594Y669678D01*
X111670Y669738D01*
X111743Y669801D01*
X111813Y669866D01*
X111881Y669935D01*
X111945Y670006D01*
X112007Y670079D01*
X112066Y670155D01*
X112122Y670233D01*
X112175Y670314D01*
X112224Y670396D01*
X112270Y670480D01*
X112313Y670567D01*
X112352Y670654D01*
X112388Y670744D01*
X112420Y670834D01*
X112448Y670926D01*
X112473Y671019D01*
X112494Y671113D01*
X112511Y671207D01*
X112525Y671302D01*
X112534Y671398D01*
X112540Y671494D01*
X112542Y671590D01*
X110919Y673862D02*
X110712Y673961D01*
X110501Y674054D01*
X110289Y674142D01*
X110075Y674225D01*
X109859Y674303D01*
X109641Y674376D01*
X109421Y674444D01*
X109200Y674506D01*
X108977Y674563D01*
X108753Y674615D01*
X108528Y674661D01*
X108302Y674702D01*
X108075Y674737D01*
X107847Y674767D01*
X107618Y674792D01*
X107389Y674811D01*
X107160Y674825D01*
X106930Y674833D01*
X106700Y674836D01*
X110919Y673862D02*
X111009Y673829D01*
X111098Y673793D01*
X111186Y673753D01*
X111271Y673709D01*
X111355Y673662D01*
X111437Y673612D01*
X111517Y673558D01*
X111594Y673502D01*
X111670Y673442D01*
X111743Y673379D01*
X111813Y673314D01*
X111881Y673245D01*
X111945Y673174D01*
X112007Y673101D01*
X112066Y673025D01*
X112122Y672947D01*
X112175Y672866D01*
X112224Y672784D01*
X112270Y672700D01*
X112313Y672613D01*
X112352Y672526D01*
X112388Y672436D01*
X112420Y672346D01*
X112448Y672254D01*
X112473Y672161D01*
X112494Y672067D01*
X112511Y671973D01*
X112525Y671878D01*
X112534Y671782D01*
X112540Y671686D01*
X112542Y671590D01*
X109946Y668993D02*
X103454Y674186D01*
X107708Y604908D02*
X119392Y604908D01*
X107708Y604908D02*
X107708Y608154D01*
X107710Y608267D01*
X107716Y608380D01*
X107726Y608493D01*
X107740Y608606D01*
X107757Y608718D01*
X107779Y608829D01*
X107804Y608939D01*
X107834Y609049D01*
X107867Y609157D01*
X107904Y609264D01*
X107944Y609370D01*
X107989Y609474D01*
X108037Y609577D01*
X108088Y609678D01*
X108143Y609777D01*
X108201Y609874D01*
X108263Y609969D01*
X108328Y610062D01*
X108396Y610152D01*
X108467Y610240D01*
X108542Y610326D01*
X108619Y610409D01*
X108699Y610489D01*
X108782Y610566D01*
X108868Y610641D01*
X108956Y610712D01*
X109046Y610780D01*
X109139Y610845D01*
X109234Y610907D01*
X109331Y610965D01*
X109430Y611020D01*
X109531Y611071D01*
X109634Y611119D01*
X109738Y611164D01*
X109844Y611204D01*
X109951Y611241D01*
X110059Y611274D01*
X110169Y611304D01*
X110279Y611329D01*
X110390Y611351D01*
X110502Y611368D01*
X110615Y611382D01*
X110728Y611392D01*
X110841Y611398D01*
X110954Y611400D01*
X111067Y611398D01*
X111180Y611392D01*
X111293Y611382D01*
X111406Y611368D01*
X111518Y611351D01*
X111629Y611329D01*
X111739Y611304D01*
X111849Y611274D01*
X111957Y611241D01*
X112064Y611204D01*
X112170Y611164D01*
X112274Y611119D01*
X112377Y611071D01*
X112478Y611020D01*
X112577Y610965D01*
X112674Y610907D01*
X112769Y610845D01*
X112862Y610780D01*
X112952Y610712D01*
X113040Y610641D01*
X113126Y610566D01*
X113209Y610489D01*
X113289Y610409D01*
X113366Y610326D01*
X113441Y610240D01*
X113512Y610152D01*
X113580Y610062D01*
X113645Y609969D01*
X113707Y609874D01*
X113765Y609777D01*
X113820Y609678D01*
X113871Y609577D01*
X113919Y609474D01*
X113964Y609370D01*
X114004Y609264D01*
X114041Y609157D01*
X114074Y609049D01*
X114104Y608939D01*
X114129Y608829D01*
X114151Y608718D01*
X114168Y608606D01*
X114182Y608493D01*
X114192Y608380D01*
X114198Y608267D01*
X114200Y608154D01*
X114199Y608154D02*
X114199Y604908D01*
X114199Y608803D02*
X119392Y611399D01*
X110304Y616264D02*
X107708Y619510D01*
X119392Y619510D01*
X119392Y622755D02*
X119392Y616264D01*
X107708Y631264D02*
X107710Y631371D01*
X107716Y631477D01*
X107726Y631583D01*
X107739Y631689D01*
X107757Y631795D01*
X107778Y631899D01*
X107803Y632003D01*
X107832Y632106D01*
X107864Y632207D01*
X107901Y632307D01*
X107941Y632406D01*
X107984Y632504D01*
X108031Y632600D01*
X108082Y632694D01*
X108136Y632786D01*
X108193Y632876D01*
X108253Y632964D01*
X108317Y633049D01*
X108384Y633132D01*
X108454Y633213D01*
X108526Y633291D01*
X108602Y633367D01*
X108680Y633439D01*
X108761Y633509D01*
X108844Y633576D01*
X108929Y633640D01*
X109017Y633700D01*
X109107Y633757D01*
X109199Y633811D01*
X109293Y633862D01*
X109389Y633909D01*
X109487Y633952D01*
X109586Y633992D01*
X109686Y634029D01*
X109787Y634061D01*
X109890Y634090D01*
X109994Y634115D01*
X110098Y634136D01*
X110204Y634154D01*
X110310Y634167D01*
X110416Y634177D01*
X110522Y634183D01*
X110629Y634185D01*
X107708Y631264D02*
X107710Y631143D01*
X107716Y631022D01*
X107726Y630902D01*
X107739Y630781D01*
X107757Y630662D01*
X107778Y630542D01*
X107803Y630424D01*
X107832Y630307D01*
X107865Y630190D01*
X107901Y630075D01*
X107942Y629961D01*
X107985Y629848D01*
X108033Y629736D01*
X108084Y629627D01*
X108139Y629519D01*
X108197Y629412D01*
X108258Y629308D01*
X108323Y629206D01*
X108391Y629106D01*
X108462Y629008D01*
X108536Y628912D01*
X108613Y628819D01*
X108694Y628729D01*
X108777Y628641D01*
X108863Y628556D01*
X108952Y628473D01*
X109043Y628394D01*
X109137Y628317D01*
X109233Y628244D01*
X109331Y628174D01*
X109432Y628107D01*
X109535Y628043D01*
X109640Y627983D01*
X109747Y627925D01*
X109855Y627872D01*
X109965Y627822D01*
X110077Y627776D01*
X110190Y627733D01*
X110305Y627694D01*
X112901Y633211D02*
X112823Y633290D01*
X112743Y633366D01*
X112660Y633439D01*
X112574Y633509D01*
X112487Y633576D01*
X112396Y633640D01*
X112304Y633700D01*
X112210Y633758D01*
X112113Y633812D01*
X112015Y633862D01*
X111915Y633909D01*
X111814Y633953D01*
X111711Y633993D01*
X111606Y634029D01*
X111501Y634061D01*
X111394Y634090D01*
X111287Y634115D01*
X111178Y634137D01*
X111069Y634154D01*
X110960Y634168D01*
X110850Y634177D01*
X110739Y634183D01*
X110629Y634185D01*
X112901Y633212D02*
X119392Y627694D01*
X119392Y634185D01*
X175958Y224415D02*
X187642Y224415D01*
X175958Y224415D02*
X175958Y227660D01*
X175960Y227773D01*
X175966Y227886D01*
X175976Y227999D01*
X175990Y228112D01*
X176007Y228224D01*
X176029Y228335D01*
X176054Y228445D01*
X176084Y228555D01*
X176117Y228663D01*
X176154Y228770D01*
X176194Y228876D01*
X176239Y228980D01*
X176287Y229083D01*
X176338Y229184D01*
X176393Y229283D01*
X176451Y229380D01*
X176513Y229475D01*
X176578Y229568D01*
X176646Y229658D01*
X176717Y229746D01*
X176792Y229832D01*
X176869Y229915D01*
X176949Y229995D01*
X177032Y230072D01*
X177118Y230147D01*
X177206Y230218D01*
X177296Y230286D01*
X177389Y230351D01*
X177484Y230413D01*
X177581Y230471D01*
X177680Y230526D01*
X177781Y230577D01*
X177884Y230625D01*
X177988Y230670D01*
X178094Y230710D01*
X178201Y230747D01*
X178309Y230780D01*
X178419Y230810D01*
X178529Y230835D01*
X178640Y230857D01*
X178752Y230874D01*
X178865Y230888D01*
X178978Y230898D01*
X179091Y230904D01*
X179204Y230906D01*
X179317Y230904D01*
X179430Y230898D01*
X179543Y230888D01*
X179656Y230874D01*
X179768Y230857D01*
X179879Y230835D01*
X179989Y230810D01*
X180099Y230780D01*
X180207Y230747D01*
X180314Y230710D01*
X180420Y230670D01*
X180524Y230625D01*
X180627Y230577D01*
X180728Y230526D01*
X180827Y230471D01*
X180924Y230413D01*
X181019Y230351D01*
X181112Y230286D01*
X181202Y230218D01*
X181290Y230147D01*
X181376Y230072D01*
X181459Y229995D01*
X181539Y229915D01*
X181616Y229832D01*
X181691Y229746D01*
X181762Y229658D01*
X181830Y229568D01*
X181895Y229475D01*
X181957Y229380D01*
X182015Y229283D01*
X182070Y229184D01*
X182121Y229083D01*
X182169Y228980D01*
X182214Y228876D01*
X182254Y228770D01*
X182291Y228663D01*
X182324Y228555D01*
X182354Y228445D01*
X182379Y228335D01*
X182401Y228224D01*
X182418Y228112D01*
X182432Y227999D01*
X182442Y227886D01*
X182448Y227773D01*
X182450Y227660D01*
X182449Y227660D02*
X182449Y224415D01*
X182449Y228309D02*
X187642Y230906D01*
X178554Y235771D02*
X175958Y239016D01*
X187642Y239016D01*
X187642Y235771D02*
X187642Y242262D01*
X187642Y247201D02*
X187642Y250446D01*
X187640Y250559D01*
X187634Y250672D01*
X187624Y250785D01*
X187610Y250898D01*
X187593Y251010D01*
X187571Y251121D01*
X187546Y251231D01*
X187516Y251341D01*
X187483Y251449D01*
X187446Y251556D01*
X187406Y251662D01*
X187361Y251766D01*
X187313Y251869D01*
X187262Y251970D01*
X187207Y252069D01*
X187149Y252166D01*
X187087Y252261D01*
X187022Y252354D01*
X186954Y252444D01*
X186883Y252532D01*
X186808Y252618D01*
X186731Y252701D01*
X186651Y252781D01*
X186568Y252858D01*
X186482Y252933D01*
X186394Y253004D01*
X186304Y253072D01*
X186211Y253137D01*
X186116Y253199D01*
X186019Y253257D01*
X185920Y253312D01*
X185819Y253363D01*
X185716Y253411D01*
X185612Y253456D01*
X185506Y253496D01*
X185399Y253533D01*
X185291Y253566D01*
X185181Y253596D01*
X185071Y253621D01*
X184960Y253643D01*
X184848Y253660D01*
X184735Y253674D01*
X184622Y253684D01*
X184509Y253690D01*
X184396Y253692D01*
X184283Y253690D01*
X184170Y253684D01*
X184057Y253674D01*
X183944Y253660D01*
X183832Y253643D01*
X183721Y253621D01*
X183611Y253596D01*
X183501Y253566D01*
X183393Y253533D01*
X183286Y253496D01*
X183180Y253456D01*
X183076Y253411D01*
X182973Y253363D01*
X182872Y253312D01*
X182773Y253257D01*
X182676Y253199D01*
X182581Y253137D01*
X182488Y253072D01*
X182398Y253004D01*
X182310Y252933D01*
X182224Y252858D01*
X182141Y252781D01*
X182061Y252701D01*
X181984Y252618D01*
X181909Y252532D01*
X181838Y252444D01*
X181770Y252354D01*
X181705Y252261D01*
X181643Y252166D01*
X181585Y252069D01*
X181530Y251970D01*
X181479Y251869D01*
X181431Y251766D01*
X181386Y251662D01*
X181346Y251556D01*
X181309Y251449D01*
X181276Y251341D01*
X181246Y251231D01*
X181221Y251121D01*
X181199Y251010D01*
X181182Y250898D01*
X181168Y250785D01*
X181158Y250672D01*
X181152Y250559D01*
X181150Y250446D01*
X175958Y251096D02*
X175958Y247201D01*
X175958Y251096D02*
X175960Y251197D01*
X175966Y251297D01*
X175976Y251397D01*
X175989Y251497D01*
X176007Y251596D01*
X176028Y251695D01*
X176053Y251792D01*
X176082Y251889D01*
X176115Y251984D01*
X176151Y252078D01*
X176191Y252170D01*
X176234Y252261D01*
X176281Y252350D01*
X176331Y252437D01*
X176385Y252523D01*
X176442Y252606D01*
X176502Y252686D01*
X176565Y252765D01*
X176632Y252841D01*
X176701Y252914D01*
X176773Y252984D01*
X176847Y253052D01*
X176924Y253117D01*
X177004Y253178D01*
X177086Y253237D01*
X177170Y253292D01*
X177256Y253344D01*
X177344Y253393D01*
X177434Y253438D01*
X177526Y253480D01*
X177619Y253518D01*
X177714Y253552D01*
X177809Y253583D01*
X177906Y253610D01*
X178004Y253633D01*
X178103Y253653D01*
X178203Y253668D01*
X178303Y253680D01*
X178403Y253688D01*
X178504Y253692D01*
X178604Y253692D01*
X178705Y253688D01*
X178805Y253680D01*
X178905Y253668D01*
X179005Y253653D01*
X179104Y253633D01*
X179202Y253610D01*
X179299Y253583D01*
X179394Y253552D01*
X179489Y253518D01*
X179582Y253480D01*
X179674Y253438D01*
X179764Y253393D01*
X179852Y253344D01*
X179938Y253292D01*
X180022Y253237D01*
X180104Y253178D01*
X180184Y253117D01*
X180261Y253052D01*
X180335Y252984D01*
X180407Y252914D01*
X180476Y252841D01*
X180543Y252765D01*
X180606Y252686D01*
X180666Y252606D01*
X180723Y252523D01*
X180777Y252437D01*
X180827Y252350D01*
X180874Y252261D01*
X180917Y252170D01*
X180957Y252078D01*
X180993Y251984D01*
X181026Y251889D01*
X181055Y251792D01*
X181080Y251695D01*
X181101Y251596D01*
X181119Y251497D01*
X181132Y251397D01*
X181142Y251297D01*
X181148Y251197D01*
X181150Y251096D01*
X181151Y251096D02*
X181151Y248499D01*
X145715Y286658D02*
X145715Y298342D01*
X148960Y298342D01*
X149073Y298340D01*
X149186Y298334D01*
X149299Y298324D01*
X149412Y298310D01*
X149524Y298293D01*
X149635Y298271D01*
X149745Y298246D01*
X149855Y298216D01*
X149963Y298183D01*
X150070Y298146D01*
X150176Y298106D01*
X150280Y298061D01*
X150383Y298013D01*
X150484Y297962D01*
X150583Y297907D01*
X150680Y297849D01*
X150775Y297787D01*
X150868Y297722D01*
X150958Y297654D01*
X151046Y297583D01*
X151132Y297508D01*
X151215Y297431D01*
X151295Y297351D01*
X151372Y297268D01*
X151447Y297182D01*
X151518Y297094D01*
X151586Y297004D01*
X151651Y296911D01*
X151713Y296816D01*
X151771Y296719D01*
X151826Y296620D01*
X151877Y296519D01*
X151925Y296416D01*
X151970Y296312D01*
X152010Y296206D01*
X152047Y296099D01*
X152080Y295991D01*
X152110Y295881D01*
X152135Y295771D01*
X152157Y295660D01*
X152174Y295548D01*
X152188Y295435D01*
X152198Y295322D01*
X152204Y295209D01*
X152206Y295096D01*
X152204Y294983D01*
X152198Y294870D01*
X152188Y294757D01*
X152174Y294644D01*
X152157Y294532D01*
X152135Y294421D01*
X152110Y294311D01*
X152080Y294201D01*
X152047Y294093D01*
X152010Y293986D01*
X151970Y293880D01*
X151925Y293776D01*
X151877Y293673D01*
X151826Y293572D01*
X151771Y293473D01*
X151713Y293376D01*
X151651Y293281D01*
X151586Y293188D01*
X151518Y293098D01*
X151447Y293010D01*
X151372Y292924D01*
X151295Y292841D01*
X151215Y292761D01*
X151132Y292684D01*
X151046Y292609D01*
X150958Y292538D01*
X150868Y292470D01*
X150775Y292405D01*
X150680Y292343D01*
X150583Y292285D01*
X150484Y292230D01*
X150383Y292179D01*
X150280Y292131D01*
X150176Y292086D01*
X150070Y292046D01*
X149963Y292009D01*
X149855Y291976D01*
X149745Y291946D01*
X149635Y291921D01*
X149524Y291899D01*
X149412Y291882D01*
X149299Y291868D01*
X149186Y291858D01*
X149073Y291852D01*
X148960Y291850D01*
X148960Y291851D02*
X145715Y291851D01*
X149609Y291851D02*
X152206Y286658D01*
X157071Y295746D02*
X160316Y298342D01*
X160316Y286658D01*
X157071Y286658D02*
X163562Y286658D01*
X168501Y289254D02*
X171097Y298342D01*
X168501Y289254D02*
X174992Y289254D01*
X173045Y291851D02*
X173045Y286658D01*
D14*
X150450Y169680D02*
X150550Y169678D01*
X150649Y169672D01*
X150749Y169662D01*
X150847Y169649D01*
X150946Y169631D01*
X151043Y169610D01*
X151139Y169585D01*
X151235Y169556D01*
X151329Y169523D01*
X151422Y169487D01*
X151513Y169447D01*
X151603Y169403D01*
X151691Y169356D01*
X151777Y169306D01*
X151861Y169252D01*
X151943Y169195D01*
X152022Y169135D01*
X152100Y169071D01*
X152174Y169005D01*
X152246Y168936D01*
X152315Y168864D01*
X152381Y168790D01*
X152445Y168712D01*
X152505Y168633D01*
X152562Y168551D01*
X152616Y168467D01*
X152666Y168381D01*
X152713Y168293D01*
X152757Y168203D01*
X152797Y168112D01*
X152833Y168019D01*
X152866Y167925D01*
X152895Y167829D01*
X152920Y167733D01*
X152941Y167636D01*
X152959Y167537D01*
X152972Y167439D01*
X152982Y167339D01*
X152988Y167240D01*
X152990Y167140D01*
X125050Y169680D02*
X124950Y169678D01*
X124851Y169672D01*
X124751Y169662D01*
X124653Y169649D01*
X124554Y169631D01*
X124457Y169610D01*
X124361Y169585D01*
X124265Y169556D01*
X124171Y169523D01*
X124078Y169487D01*
X123987Y169447D01*
X123897Y169403D01*
X123809Y169356D01*
X123723Y169306D01*
X123639Y169252D01*
X123557Y169195D01*
X123478Y169135D01*
X123400Y169071D01*
X123326Y169005D01*
X123254Y168936D01*
X123185Y168864D01*
X123119Y168790D01*
X123055Y168712D01*
X122995Y168633D01*
X122938Y168551D01*
X122884Y168467D01*
X122834Y168381D01*
X122787Y168293D01*
X122743Y168203D01*
X122703Y168112D01*
X122667Y168019D01*
X122634Y167925D01*
X122605Y167829D01*
X122580Y167733D01*
X122559Y167636D01*
X122541Y167537D01*
X122528Y167439D01*
X122518Y167339D01*
X122512Y167240D01*
X122510Y167140D01*
X122510Y85860D02*
X122512Y85760D01*
X122518Y85661D01*
X122528Y85561D01*
X122541Y85463D01*
X122559Y85364D01*
X122580Y85267D01*
X122605Y85171D01*
X122634Y85075D01*
X122667Y84981D01*
X122703Y84888D01*
X122743Y84797D01*
X122787Y84707D01*
X122834Y84619D01*
X122884Y84533D01*
X122938Y84449D01*
X122995Y84367D01*
X123055Y84288D01*
X123119Y84210D01*
X123185Y84136D01*
X123254Y84064D01*
X123326Y83995D01*
X123400Y83929D01*
X123478Y83865D01*
X123557Y83805D01*
X123639Y83748D01*
X123723Y83694D01*
X123809Y83644D01*
X123897Y83597D01*
X123987Y83553D01*
X124078Y83513D01*
X124171Y83477D01*
X124265Y83444D01*
X124361Y83415D01*
X124457Y83390D01*
X124554Y83369D01*
X124653Y83351D01*
X124751Y83338D01*
X124851Y83328D01*
X124950Y83322D01*
X125050Y83320D01*
X150450Y83320D02*
X150550Y83322D01*
X150649Y83328D01*
X150749Y83338D01*
X150847Y83351D01*
X150946Y83369D01*
X151043Y83390D01*
X151139Y83415D01*
X151235Y83444D01*
X151329Y83477D01*
X151422Y83513D01*
X151513Y83553D01*
X151603Y83597D01*
X151691Y83644D01*
X151777Y83694D01*
X151861Y83748D01*
X151943Y83805D01*
X152022Y83865D01*
X152100Y83929D01*
X152174Y83995D01*
X152246Y84064D01*
X152315Y84136D01*
X152381Y84210D01*
X152445Y84288D01*
X152505Y84367D01*
X152562Y84449D01*
X152616Y84533D01*
X152666Y84619D01*
X152713Y84707D01*
X152757Y84797D01*
X152797Y84888D01*
X152833Y84981D01*
X152866Y85075D01*
X152895Y85171D01*
X152920Y85267D01*
X152941Y85364D01*
X152959Y85463D01*
X152972Y85561D01*
X152982Y85661D01*
X152988Y85760D01*
X152990Y85860D01*
X150450Y169680D02*
X125050Y169680D01*
X152990Y167140D02*
X152990Y160790D01*
X151720Y159520D01*
X122510Y160790D02*
X122510Y167140D01*
X122510Y160790D02*
X123780Y159520D01*
X151720Y93480D02*
X152990Y92210D01*
X151720Y93480D02*
X151720Y159520D01*
X123780Y93480D02*
X122510Y92210D01*
X123780Y93480D02*
X123780Y159520D01*
X152990Y92210D02*
X152990Y85860D01*
X122510Y85860D02*
X122510Y92210D01*
X125050Y83320D02*
X150450Y83320D01*
D15*
X137750Y79002D03*
X137750Y173998D03*
D12*
X157435Y138648D02*
X168865Y138648D01*
X157435Y138648D02*
X157435Y141823D01*
X157437Y141934D01*
X157443Y142044D01*
X157452Y142155D01*
X157466Y142265D01*
X157483Y142374D01*
X157504Y142483D01*
X157529Y142591D01*
X157558Y142698D01*
X157590Y142804D01*
X157626Y142909D01*
X157666Y143012D01*
X157709Y143114D01*
X157756Y143215D01*
X157807Y143314D01*
X157860Y143411D01*
X157917Y143505D01*
X157978Y143598D01*
X158041Y143689D01*
X158108Y143778D01*
X158178Y143864D01*
X158251Y143947D01*
X158326Y144029D01*
X158404Y144107D01*
X158486Y144182D01*
X158569Y144255D01*
X158655Y144325D01*
X158744Y144392D01*
X158835Y144455D01*
X158928Y144516D01*
X159023Y144573D01*
X159119Y144626D01*
X159218Y144677D01*
X159319Y144724D01*
X159421Y144767D01*
X159524Y144807D01*
X159629Y144843D01*
X159735Y144875D01*
X159842Y144904D01*
X159950Y144929D01*
X160059Y144950D01*
X160168Y144967D01*
X160278Y144981D01*
X160389Y144990D01*
X160499Y144996D01*
X160610Y144998D01*
X160721Y144996D01*
X160831Y144990D01*
X160942Y144981D01*
X161052Y144967D01*
X161161Y144950D01*
X161270Y144929D01*
X161378Y144904D01*
X161485Y144875D01*
X161591Y144843D01*
X161696Y144807D01*
X161799Y144767D01*
X161901Y144724D01*
X162002Y144677D01*
X162101Y144626D01*
X162198Y144573D01*
X162292Y144516D01*
X162385Y144455D01*
X162476Y144392D01*
X162565Y144325D01*
X162651Y144255D01*
X162734Y144182D01*
X162816Y144107D01*
X162894Y144029D01*
X162969Y143947D01*
X163042Y143864D01*
X163112Y143778D01*
X163179Y143689D01*
X163242Y143598D01*
X163303Y143505D01*
X163360Y143411D01*
X163413Y143314D01*
X163464Y143215D01*
X163511Y143114D01*
X163554Y143012D01*
X163594Y142909D01*
X163630Y142804D01*
X163662Y142698D01*
X163691Y142591D01*
X163716Y142483D01*
X163737Y142374D01*
X163754Y142265D01*
X163768Y142155D01*
X163777Y142044D01*
X163783Y141934D01*
X163785Y141823D01*
X163785Y138648D01*
X163785Y142458D02*
X168865Y144998D01*
X159975Y149995D02*
X157435Y153170D01*
X168865Y153170D01*
X168865Y149995D02*
X168865Y156345D01*
X168865Y161425D02*
X168865Y165235D01*
X168863Y165335D01*
X168857Y165434D01*
X168847Y165534D01*
X168834Y165632D01*
X168816Y165731D01*
X168795Y165828D01*
X168770Y165924D01*
X168741Y166020D01*
X168708Y166114D01*
X168672Y166207D01*
X168632Y166298D01*
X168588Y166388D01*
X168541Y166476D01*
X168491Y166562D01*
X168437Y166646D01*
X168380Y166728D01*
X168320Y166807D01*
X168256Y166885D01*
X168190Y166959D01*
X168121Y167031D01*
X168049Y167100D01*
X167975Y167166D01*
X167897Y167230D01*
X167818Y167290D01*
X167736Y167347D01*
X167652Y167401D01*
X167566Y167451D01*
X167478Y167498D01*
X167388Y167542D01*
X167297Y167582D01*
X167204Y167618D01*
X167110Y167651D01*
X167014Y167680D01*
X166918Y167705D01*
X166821Y167726D01*
X166722Y167744D01*
X166624Y167757D01*
X166524Y167767D01*
X166425Y167773D01*
X166325Y167775D01*
X165055Y167775D01*
X164955Y167773D01*
X164856Y167767D01*
X164756Y167757D01*
X164658Y167744D01*
X164559Y167726D01*
X164462Y167705D01*
X164366Y167680D01*
X164270Y167651D01*
X164176Y167618D01*
X164083Y167582D01*
X163992Y167542D01*
X163902Y167498D01*
X163814Y167451D01*
X163728Y167401D01*
X163644Y167347D01*
X163562Y167290D01*
X163483Y167230D01*
X163405Y167166D01*
X163331Y167100D01*
X163259Y167031D01*
X163190Y166959D01*
X163124Y166885D01*
X163060Y166807D01*
X163000Y166728D01*
X162943Y166646D01*
X162889Y166562D01*
X162839Y166476D01*
X162792Y166388D01*
X162748Y166298D01*
X162708Y166207D01*
X162672Y166114D01*
X162639Y166020D01*
X162610Y165924D01*
X162585Y165828D01*
X162564Y165731D01*
X162546Y165632D01*
X162533Y165534D01*
X162523Y165434D01*
X162517Y165335D01*
X162515Y165235D01*
X162515Y161425D01*
X157435Y161425D01*
X157435Y167775D01*
D10*
X214458Y235595D02*
X226142Y235595D01*
X214458Y235595D02*
X214458Y238840D01*
X214460Y238953D01*
X214466Y239066D01*
X214476Y239179D01*
X214490Y239292D01*
X214507Y239404D01*
X214529Y239515D01*
X214554Y239625D01*
X214584Y239735D01*
X214617Y239843D01*
X214654Y239950D01*
X214694Y240056D01*
X214739Y240160D01*
X214787Y240263D01*
X214838Y240364D01*
X214893Y240463D01*
X214951Y240560D01*
X215013Y240655D01*
X215078Y240748D01*
X215146Y240838D01*
X215217Y240926D01*
X215292Y241012D01*
X215369Y241095D01*
X215449Y241175D01*
X215532Y241252D01*
X215618Y241327D01*
X215706Y241398D01*
X215796Y241466D01*
X215889Y241531D01*
X215984Y241593D01*
X216081Y241651D01*
X216180Y241706D01*
X216281Y241757D01*
X216384Y241805D01*
X216488Y241850D01*
X216594Y241890D01*
X216701Y241927D01*
X216809Y241960D01*
X216919Y241990D01*
X217029Y242015D01*
X217140Y242037D01*
X217252Y242054D01*
X217365Y242068D01*
X217478Y242078D01*
X217591Y242084D01*
X217704Y242086D01*
X217817Y242084D01*
X217930Y242078D01*
X218043Y242068D01*
X218156Y242054D01*
X218268Y242037D01*
X218379Y242015D01*
X218489Y241990D01*
X218599Y241960D01*
X218707Y241927D01*
X218814Y241890D01*
X218920Y241850D01*
X219024Y241805D01*
X219127Y241757D01*
X219228Y241706D01*
X219327Y241651D01*
X219424Y241593D01*
X219519Y241531D01*
X219612Y241466D01*
X219702Y241398D01*
X219790Y241327D01*
X219876Y241252D01*
X219959Y241175D01*
X220039Y241095D01*
X220116Y241012D01*
X220191Y240926D01*
X220262Y240838D01*
X220330Y240748D01*
X220395Y240655D01*
X220457Y240560D01*
X220515Y240463D01*
X220570Y240364D01*
X220621Y240263D01*
X220669Y240160D01*
X220714Y240056D01*
X220754Y239950D01*
X220791Y239843D01*
X220824Y239735D01*
X220854Y239625D01*
X220879Y239515D01*
X220901Y239404D01*
X220918Y239292D01*
X220932Y239179D01*
X220942Y239066D01*
X220948Y238953D01*
X220950Y238840D01*
X220949Y238840D02*
X220949Y235595D01*
X220949Y239489D02*
X226142Y242086D01*
X217379Y253442D02*
X217272Y253440D01*
X217166Y253434D01*
X217060Y253424D01*
X216954Y253411D01*
X216848Y253393D01*
X216744Y253372D01*
X216640Y253347D01*
X216537Y253318D01*
X216436Y253286D01*
X216336Y253249D01*
X216237Y253209D01*
X216139Y253166D01*
X216043Y253119D01*
X215949Y253068D01*
X215857Y253014D01*
X215767Y252957D01*
X215679Y252897D01*
X215594Y252833D01*
X215511Y252766D01*
X215430Y252696D01*
X215352Y252624D01*
X215276Y252548D01*
X215204Y252470D01*
X215134Y252389D01*
X215067Y252306D01*
X215003Y252221D01*
X214943Y252133D01*
X214886Y252043D01*
X214832Y251951D01*
X214781Y251857D01*
X214734Y251761D01*
X214691Y251663D01*
X214651Y251564D01*
X214614Y251464D01*
X214582Y251363D01*
X214553Y251260D01*
X214528Y251156D01*
X214507Y251052D01*
X214489Y250946D01*
X214476Y250840D01*
X214466Y250734D01*
X214460Y250628D01*
X214458Y250521D01*
X214460Y250400D01*
X214466Y250279D01*
X214476Y250159D01*
X214489Y250038D01*
X214507Y249919D01*
X214528Y249799D01*
X214553Y249681D01*
X214582Y249564D01*
X214615Y249447D01*
X214651Y249332D01*
X214692Y249218D01*
X214735Y249105D01*
X214783Y248993D01*
X214834Y248884D01*
X214889Y248776D01*
X214947Y248669D01*
X215008Y248565D01*
X215073Y248463D01*
X215141Y248363D01*
X215212Y248265D01*
X215286Y248169D01*
X215363Y248076D01*
X215444Y247986D01*
X215527Y247898D01*
X215613Y247813D01*
X215702Y247730D01*
X215793Y247651D01*
X215887Y247574D01*
X215983Y247501D01*
X216081Y247431D01*
X216182Y247364D01*
X216285Y247300D01*
X216390Y247240D01*
X216497Y247182D01*
X216605Y247129D01*
X216715Y247079D01*
X216827Y247033D01*
X216940Y246990D01*
X217055Y246951D01*
X219651Y252468D02*
X219573Y252547D01*
X219493Y252623D01*
X219410Y252696D01*
X219324Y252766D01*
X219237Y252833D01*
X219146Y252897D01*
X219054Y252957D01*
X218960Y253015D01*
X218863Y253069D01*
X218765Y253119D01*
X218665Y253166D01*
X218564Y253210D01*
X218461Y253250D01*
X218356Y253286D01*
X218251Y253318D01*
X218144Y253347D01*
X218037Y253372D01*
X217928Y253394D01*
X217819Y253411D01*
X217710Y253425D01*
X217600Y253434D01*
X217489Y253440D01*
X217379Y253442D01*
X219651Y252468D02*
X226142Y246951D01*
X226142Y253442D01*
X241422Y235845D02*
X253106Y235845D01*
X241422Y235845D02*
X241422Y239090D01*
X241424Y239203D01*
X241430Y239316D01*
X241440Y239429D01*
X241454Y239542D01*
X241471Y239654D01*
X241493Y239765D01*
X241518Y239875D01*
X241548Y239985D01*
X241581Y240093D01*
X241618Y240200D01*
X241658Y240306D01*
X241703Y240410D01*
X241751Y240513D01*
X241802Y240614D01*
X241857Y240713D01*
X241915Y240810D01*
X241977Y240905D01*
X242042Y240998D01*
X242110Y241088D01*
X242181Y241176D01*
X242256Y241262D01*
X242333Y241345D01*
X242413Y241425D01*
X242496Y241502D01*
X242582Y241577D01*
X242670Y241648D01*
X242760Y241716D01*
X242853Y241781D01*
X242948Y241843D01*
X243045Y241901D01*
X243144Y241956D01*
X243245Y242007D01*
X243348Y242055D01*
X243452Y242100D01*
X243558Y242140D01*
X243665Y242177D01*
X243773Y242210D01*
X243883Y242240D01*
X243993Y242265D01*
X244104Y242287D01*
X244216Y242304D01*
X244329Y242318D01*
X244442Y242328D01*
X244555Y242334D01*
X244668Y242336D01*
X244781Y242334D01*
X244894Y242328D01*
X245007Y242318D01*
X245120Y242304D01*
X245232Y242287D01*
X245343Y242265D01*
X245453Y242240D01*
X245563Y242210D01*
X245671Y242177D01*
X245778Y242140D01*
X245884Y242100D01*
X245988Y242055D01*
X246091Y242007D01*
X246192Y241956D01*
X246291Y241901D01*
X246388Y241843D01*
X246483Y241781D01*
X246576Y241716D01*
X246666Y241648D01*
X246754Y241577D01*
X246840Y241502D01*
X246923Y241425D01*
X247003Y241345D01*
X247080Y241262D01*
X247155Y241176D01*
X247226Y241088D01*
X247294Y240998D01*
X247359Y240905D01*
X247421Y240810D01*
X247479Y240713D01*
X247534Y240614D01*
X247585Y240513D01*
X247633Y240410D01*
X247678Y240306D01*
X247718Y240200D01*
X247755Y240093D01*
X247788Y239985D01*
X247818Y239875D01*
X247843Y239765D01*
X247865Y239654D01*
X247882Y239542D01*
X247896Y239429D01*
X247906Y239316D01*
X247912Y239203D01*
X247914Y239090D01*
X247913Y239090D02*
X247913Y235845D01*
X247913Y239739D02*
X253106Y242336D01*
X253106Y247201D02*
X253106Y250446D01*
X253107Y250446D02*
X253105Y250559D01*
X253099Y250672D01*
X253089Y250785D01*
X253075Y250898D01*
X253058Y251010D01*
X253036Y251121D01*
X253011Y251231D01*
X252981Y251341D01*
X252948Y251449D01*
X252911Y251556D01*
X252871Y251662D01*
X252826Y251766D01*
X252778Y251869D01*
X252727Y251970D01*
X252672Y252069D01*
X252614Y252166D01*
X252552Y252261D01*
X252487Y252354D01*
X252419Y252444D01*
X252348Y252532D01*
X252273Y252618D01*
X252196Y252701D01*
X252116Y252781D01*
X252033Y252858D01*
X251947Y252933D01*
X251859Y253004D01*
X251769Y253072D01*
X251676Y253137D01*
X251581Y253199D01*
X251484Y253257D01*
X251385Y253312D01*
X251284Y253363D01*
X251181Y253411D01*
X251077Y253456D01*
X250971Y253496D01*
X250864Y253533D01*
X250756Y253566D01*
X250646Y253596D01*
X250536Y253621D01*
X250425Y253643D01*
X250313Y253660D01*
X250200Y253674D01*
X250087Y253684D01*
X249974Y253690D01*
X249861Y253692D01*
X249748Y253690D01*
X249635Y253684D01*
X249522Y253674D01*
X249409Y253660D01*
X249297Y253643D01*
X249186Y253621D01*
X249076Y253596D01*
X248966Y253566D01*
X248858Y253533D01*
X248751Y253496D01*
X248645Y253456D01*
X248541Y253411D01*
X248438Y253363D01*
X248337Y253312D01*
X248238Y253257D01*
X248141Y253199D01*
X248046Y253137D01*
X247953Y253072D01*
X247863Y253004D01*
X247775Y252933D01*
X247689Y252858D01*
X247606Y252781D01*
X247526Y252701D01*
X247449Y252618D01*
X247374Y252532D01*
X247303Y252444D01*
X247235Y252354D01*
X247170Y252261D01*
X247108Y252166D01*
X247050Y252069D01*
X246995Y251970D01*
X246944Y251869D01*
X246896Y251766D01*
X246851Y251662D01*
X246811Y251556D01*
X246774Y251449D01*
X246741Y251341D01*
X246711Y251231D01*
X246686Y251121D01*
X246664Y251010D01*
X246647Y250898D01*
X246633Y250785D01*
X246623Y250672D01*
X246617Y250559D01*
X246615Y250446D01*
X241422Y251096D02*
X241422Y247201D01*
X241423Y251096D02*
X241425Y251197D01*
X241431Y251297D01*
X241441Y251397D01*
X241454Y251497D01*
X241472Y251596D01*
X241493Y251695D01*
X241518Y251792D01*
X241547Y251889D01*
X241580Y251984D01*
X241616Y252078D01*
X241656Y252170D01*
X241699Y252261D01*
X241746Y252350D01*
X241796Y252437D01*
X241850Y252523D01*
X241907Y252606D01*
X241967Y252686D01*
X242030Y252765D01*
X242097Y252841D01*
X242166Y252914D01*
X242238Y252984D01*
X242312Y253052D01*
X242389Y253117D01*
X242469Y253178D01*
X242551Y253237D01*
X242635Y253292D01*
X242721Y253344D01*
X242809Y253393D01*
X242899Y253438D01*
X242991Y253480D01*
X243084Y253518D01*
X243179Y253552D01*
X243274Y253583D01*
X243371Y253610D01*
X243469Y253633D01*
X243568Y253653D01*
X243668Y253668D01*
X243768Y253680D01*
X243868Y253688D01*
X243969Y253692D01*
X244069Y253692D01*
X244170Y253688D01*
X244270Y253680D01*
X244370Y253668D01*
X244470Y253653D01*
X244569Y253633D01*
X244667Y253610D01*
X244764Y253583D01*
X244859Y253552D01*
X244954Y253518D01*
X245047Y253480D01*
X245139Y253438D01*
X245229Y253393D01*
X245317Y253344D01*
X245403Y253292D01*
X245487Y253237D01*
X245569Y253178D01*
X245649Y253117D01*
X245726Y253052D01*
X245800Y252984D01*
X245872Y252914D01*
X245941Y252841D01*
X246008Y252765D01*
X246071Y252686D01*
X246131Y252606D01*
X246188Y252523D01*
X246242Y252437D01*
X246292Y252350D01*
X246339Y252261D01*
X246382Y252170D01*
X246422Y252078D01*
X246458Y251984D01*
X246491Y251889D01*
X246520Y251792D01*
X246545Y251695D01*
X246566Y251596D01*
X246584Y251497D01*
X246597Y251397D01*
X246607Y251297D01*
X246613Y251197D01*
X246615Y251096D01*
X246615Y248499D01*
X268387Y235975D02*
X280071Y235975D01*
X268387Y235975D02*
X268387Y239220D01*
X268386Y239220D02*
X268388Y239333D01*
X268394Y239446D01*
X268404Y239559D01*
X268418Y239672D01*
X268435Y239784D01*
X268457Y239895D01*
X268482Y240005D01*
X268512Y240115D01*
X268545Y240223D01*
X268582Y240330D01*
X268622Y240436D01*
X268667Y240540D01*
X268715Y240643D01*
X268766Y240744D01*
X268821Y240843D01*
X268879Y240940D01*
X268941Y241035D01*
X269006Y241128D01*
X269074Y241218D01*
X269145Y241306D01*
X269220Y241392D01*
X269297Y241475D01*
X269377Y241555D01*
X269460Y241632D01*
X269546Y241707D01*
X269634Y241778D01*
X269724Y241846D01*
X269817Y241911D01*
X269912Y241973D01*
X270009Y242031D01*
X270108Y242086D01*
X270209Y242137D01*
X270312Y242185D01*
X270416Y242230D01*
X270522Y242270D01*
X270629Y242307D01*
X270737Y242340D01*
X270847Y242370D01*
X270957Y242395D01*
X271068Y242417D01*
X271180Y242434D01*
X271293Y242448D01*
X271406Y242458D01*
X271519Y242464D01*
X271632Y242466D01*
X271745Y242464D01*
X271858Y242458D01*
X271971Y242448D01*
X272084Y242434D01*
X272196Y242417D01*
X272307Y242395D01*
X272417Y242370D01*
X272527Y242340D01*
X272635Y242307D01*
X272742Y242270D01*
X272848Y242230D01*
X272952Y242185D01*
X273055Y242137D01*
X273156Y242086D01*
X273255Y242031D01*
X273352Y241973D01*
X273447Y241911D01*
X273540Y241846D01*
X273630Y241778D01*
X273718Y241707D01*
X273804Y241632D01*
X273887Y241555D01*
X273967Y241475D01*
X274044Y241392D01*
X274119Y241306D01*
X274190Y241218D01*
X274258Y241128D01*
X274323Y241035D01*
X274385Y240940D01*
X274443Y240843D01*
X274498Y240744D01*
X274549Y240643D01*
X274597Y240540D01*
X274642Y240436D01*
X274682Y240330D01*
X274719Y240223D01*
X274752Y240115D01*
X274782Y240005D01*
X274807Y239895D01*
X274829Y239784D01*
X274846Y239672D01*
X274860Y239559D01*
X274870Y239446D01*
X274876Y239333D01*
X274878Y239220D01*
X274878Y235975D01*
X274878Y239869D02*
X280071Y242466D01*
X277474Y247331D02*
X268387Y249927D01*
X277474Y247331D02*
X277474Y253822D01*
X274878Y251875D02*
X280071Y251875D01*
X295351Y235845D02*
X307035Y235845D01*
X295351Y235845D02*
X295351Y239090D01*
X295350Y239090D02*
X295352Y239203D01*
X295358Y239316D01*
X295368Y239429D01*
X295382Y239542D01*
X295399Y239654D01*
X295421Y239765D01*
X295446Y239875D01*
X295476Y239985D01*
X295509Y240093D01*
X295546Y240200D01*
X295586Y240306D01*
X295631Y240410D01*
X295679Y240513D01*
X295730Y240614D01*
X295785Y240713D01*
X295843Y240810D01*
X295905Y240905D01*
X295970Y240998D01*
X296038Y241088D01*
X296109Y241176D01*
X296184Y241262D01*
X296261Y241345D01*
X296341Y241425D01*
X296424Y241502D01*
X296510Y241577D01*
X296598Y241648D01*
X296688Y241716D01*
X296781Y241781D01*
X296876Y241843D01*
X296973Y241901D01*
X297072Y241956D01*
X297173Y242007D01*
X297276Y242055D01*
X297380Y242100D01*
X297486Y242140D01*
X297593Y242177D01*
X297701Y242210D01*
X297811Y242240D01*
X297921Y242265D01*
X298032Y242287D01*
X298144Y242304D01*
X298257Y242318D01*
X298370Y242328D01*
X298483Y242334D01*
X298596Y242336D01*
X298709Y242334D01*
X298822Y242328D01*
X298935Y242318D01*
X299048Y242304D01*
X299160Y242287D01*
X299271Y242265D01*
X299381Y242240D01*
X299491Y242210D01*
X299599Y242177D01*
X299706Y242140D01*
X299812Y242100D01*
X299916Y242055D01*
X300019Y242007D01*
X300120Y241956D01*
X300219Y241901D01*
X300316Y241843D01*
X300411Y241781D01*
X300504Y241716D01*
X300594Y241648D01*
X300682Y241577D01*
X300768Y241502D01*
X300851Y241425D01*
X300931Y241345D01*
X301008Y241262D01*
X301083Y241176D01*
X301154Y241088D01*
X301222Y240998D01*
X301287Y240905D01*
X301349Y240810D01*
X301407Y240713D01*
X301462Y240614D01*
X301513Y240513D01*
X301561Y240410D01*
X301606Y240306D01*
X301646Y240200D01*
X301683Y240093D01*
X301716Y239985D01*
X301746Y239875D01*
X301771Y239765D01*
X301793Y239654D01*
X301810Y239542D01*
X301824Y239429D01*
X301834Y239316D01*
X301840Y239203D01*
X301842Y239090D01*
X301842Y235845D01*
X301842Y239739D02*
X307035Y242336D01*
X307035Y247201D02*
X307035Y251096D01*
X307034Y251096D02*
X307032Y251195D01*
X307026Y251295D01*
X307017Y251394D01*
X307004Y251492D01*
X306987Y251590D01*
X306966Y251688D01*
X306941Y251784D01*
X306913Y251879D01*
X306881Y251973D01*
X306846Y252066D01*
X306807Y252158D01*
X306764Y252248D01*
X306719Y252336D01*
X306669Y252423D01*
X306617Y252507D01*
X306561Y252590D01*
X306503Y252670D01*
X306441Y252748D01*
X306376Y252823D01*
X306308Y252896D01*
X306238Y252966D01*
X306165Y253034D01*
X306090Y253099D01*
X306012Y253161D01*
X305932Y253219D01*
X305849Y253275D01*
X305765Y253327D01*
X305678Y253377D01*
X305590Y253422D01*
X305500Y253465D01*
X305408Y253504D01*
X305315Y253539D01*
X305221Y253571D01*
X305126Y253599D01*
X305030Y253624D01*
X304932Y253645D01*
X304834Y253662D01*
X304736Y253675D01*
X304637Y253684D01*
X304537Y253690D01*
X304438Y253692D01*
X303140Y253692D01*
X303041Y253690D01*
X302941Y253684D01*
X302842Y253675D01*
X302744Y253662D01*
X302646Y253645D01*
X302548Y253624D01*
X302452Y253599D01*
X302357Y253571D01*
X302263Y253539D01*
X302170Y253504D01*
X302078Y253465D01*
X301988Y253422D01*
X301900Y253377D01*
X301813Y253327D01*
X301729Y253275D01*
X301646Y253219D01*
X301566Y253161D01*
X301488Y253099D01*
X301413Y253034D01*
X301340Y252966D01*
X301270Y252896D01*
X301202Y252823D01*
X301137Y252748D01*
X301075Y252670D01*
X301017Y252590D01*
X300961Y252507D01*
X300909Y252423D01*
X300859Y252336D01*
X300814Y252248D01*
X300771Y252158D01*
X300732Y252066D01*
X300697Y251973D01*
X300665Y251879D01*
X300637Y251784D01*
X300612Y251688D01*
X300591Y251590D01*
X300574Y251492D01*
X300561Y251394D01*
X300552Y251295D01*
X300546Y251195D01*
X300544Y251096D01*
X300544Y247201D01*
X295351Y247201D01*
X295351Y253692D01*
X322315Y235845D02*
X333999Y235845D01*
X322315Y235845D02*
X322315Y239090D01*
X322317Y239203D01*
X322323Y239316D01*
X322333Y239429D01*
X322347Y239542D01*
X322364Y239654D01*
X322386Y239765D01*
X322411Y239875D01*
X322441Y239985D01*
X322474Y240093D01*
X322511Y240200D01*
X322551Y240306D01*
X322596Y240410D01*
X322644Y240513D01*
X322695Y240614D01*
X322750Y240713D01*
X322808Y240810D01*
X322870Y240905D01*
X322935Y240998D01*
X323003Y241088D01*
X323074Y241176D01*
X323149Y241262D01*
X323226Y241345D01*
X323306Y241425D01*
X323389Y241502D01*
X323475Y241577D01*
X323563Y241648D01*
X323653Y241716D01*
X323746Y241781D01*
X323841Y241843D01*
X323938Y241901D01*
X324037Y241956D01*
X324138Y242007D01*
X324241Y242055D01*
X324345Y242100D01*
X324451Y242140D01*
X324558Y242177D01*
X324666Y242210D01*
X324776Y242240D01*
X324886Y242265D01*
X324997Y242287D01*
X325109Y242304D01*
X325222Y242318D01*
X325335Y242328D01*
X325448Y242334D01*
X325561Y242336D01*
X325674Y242334D01*
X325787Y242328D01*
X325900Y242318D01*
X326013Y242304D01*
X326125Y242287D01*
X326236Y242265D01*
X326346Y242240D01*
X326456Y242210D01*
X326564Y242177D01*
X326671Y242140D01*
X326777Y242100D01*
X326881Y242055D01*
X326984Y242007D01*
X327085Y241956D01*
X327184Y241901D01*
X327281Y241843D01*
X327376Y241781D01*
X327469Y241716D01*
X327559Y241648D01*
X327647Y241577D01*
X327733Y241502D01*
X327816Y241425D01*
X327896Y241345D01*
X327973Y241262D01*
X328048Y241176D01*
X328119Y241088D01*
X328187Y240998D01*
X328252Y240905D01*
X328314Y240810D01*
X328372Y240713D01*
X328427Y240614D01*
X328478Y240513D01*
X328526Y240410D01*
X328571Y240306D01*
X328611Y240200D01*
X328648Y240093D01*
X328681Y239985D01*
X328711Y239875D01*
X328736Y239765D01*
X328758Y239654D01*
X328775Y239542D01*
X328789Y239429D01*
X328799Y239316D01*
X328805Y239203D01*
X328807Y239090D01*
X328806Y239090D02*
X328806Y235845D01*
X328806Y239739D02*
X333999Y242336D01*
X327508Y247201D02*
X327508Y251096D01*
X327510Y251195D01*
X327516Y251295D01*
X327525Y251394D01*
X327538Y251492D01*
X327555Y251590D01*
X327576Y251688D01*
X327601Y251784D01*
X327629Y251879D01*
X327661Y251973D01*
X327696Y252066D01*
X327735Y252158D01*
X327778Y252248D01*
X327823Y252336D01*
X327873Y252423D01*
X327925Y252507D01*
X327981Y252590D01*
X328039Y252670D01*
X328101Y252748D01*
X328166Y252823D01*
X328234Y252896D01*
X328304Y252966D01*
X328377Y253034D01*
X328452Y253099D01*
X328530Y253161D01*
X328610Y253219D01*
X328693Y253275D01*
X328777Y253327D01*
X328864Y253377D01*
X328952Y253422D01*
X329042Y253465D01*
X329134Y253504D01*
X329227Y253539D01*
X329321Y253571D01*
X329416Y253599D01*
X329512Y253624D01*
X329610Y253645D01*
X329708Y253662D01*
X329806Y253675D01*
X329905Y253684D01*
X330005Y253690D01*
X330104Y253692D01*
X330753Y253692D01*
X330866Y253690D01*
X330979Y253684D01*
X331092Y253674D01*
X331205Y253660D01*
X331317Y253643D01*
X331428Y253621D01*
X331538Y253596D01*
X331648Y253566D01*
X331756Y253533D01*
X331863Y253496D01*
X331969Y253456D01*
X332073Y253411D01*
X332176Y253363D01*
X332277Y253312D01*
X332376Y253257D01*
X332473Y253199D01*
X332568Y253137D01*
X332661Y253072D01*
X332751Y253004D01*
X332839Y252933D01*
X332925Y252858D01*
X333008Y252781D01*
X333088Y252701D01*
X333165Y252618D01*
X333240Y252532D01*
X333311Y252444D01*
X333379Y252354D01*
X333444Y252261D01*
X333506Y252166D01*
X333564Y252069D01*
X333619Y251970D01*
X333670Y251869D01*
X333718Y251766D01*
X333763Y251662D01*
X333803Y251556D01*
X333840Y251449D01*
X333873Y251341D01*
X333903Y251231D01*
X333928Y251121D01*
X333950Y251010D01*
X333967Y250898D01*
X333981Y250785D01*
X333991Y250672D01*
X333997Y250559D01*
X333999Y250446D01*
X333997Y250333D01*
X333991Y250220D01*
X333981Y250107D01*
X333967Y249994D01*
X333950Y249882D01*
X333928Y249771D01*
X333903Y249661D01*
X333873Y249551D01*
X333840Y249443D01*
X333803Y249336D01*
X333763Y249230D01*
X333718Y249126D01*
X333670Y249023D01*
X333619Y248922D01*
X333564Y248823D01*
X333506Y248726D01*
X333444Y248631D01*
X333379Y248538D01*
X333311Y248448D01*
X333240Y248360D01*
X333165Y248274D01*
X333088Y248191D01*
X333008Y248111D01*
X332925Y248034D01*
X332839Y247959D01*
X332751Y247888D01*
X332661Y247820D01*
X332568Y247755D01*
X332473Y247693D01*
X332376Y247635D01*
X332277Y247580D01*
X332176Y247529D01*
X332073Y247481D01*
X331969Y247436D01*
X331863Y247396D01*
X331756Y247359D01*
X331648Y247326D01*
X331538Y247296D01*
X331428Y247271D01*
X331317Y247249D01*
X331205Y247232D01*
X331092Y247218D01*
X330979Y247208D01*
X330866Y247202D01*
X330753Y247200D01*
X330753Y247201D02*
X327508Y247201D01*
X327365Y247203D01*
X327222Y247209D01*
X327079Y247219D01*
X326937Y247233D01*
X326795Y247250D01*
X326653Y247272D01*
X326512Y247297D01*
X326372Y247327D01*
X326233Y247360D01*
X326095Y247397D01*
X325958Y247438D01*
X325822Y247482D01*
X325687Y247531D01*
X325554Y247583D01*
X325422Y247638D01*
X325292Y247698D01*
X325163Y247761D01*
X325036Y247827D01*
X324912Y247897D01*
X324789Y247970D01*
X324668Y248047D01*
X324549Y248126D01*
X324433Y248210D01*
X324318Y248296D01*
X324207Y248385D01*
X324098Y248478D01*
X323991Y248573D01*
X323887Y248672D01*
X323786Y248773D01*
X323687Y248877D01*
X323592Y248983D01*
X323499Y249093D01*
X323410Y249204D01*
X323324Y249318D01*
X323241Y249435D01*
X323161Y249554D01*
X323084Y249675D01*
X323011Y249797D01*
X322941Y249922D01*
X322875Y250049D01*
X322812Y250178D01*
X322752Y250308D01*
X322697Y250440D01*
X322645Y250573D01*
X322596Y250708D01*
X322552Y250844D01*
X322511Y250981D01*
X322474Y251119D01*
X322441Y251258D01*
X322411Y251398D01*
X322386Y251539D01*
X322364Y251681D01*
X322347Y251823D01*
X322333Y251965D01*
X322323Y252108D01*
X322317Y252251D01*
X322315Y252394D01*
X349279Y235845D02*
X360963Y235845D01*
X349279Y235845D02*
X349279Y239090D01*
X349281Y239203D01*
X349287Y239316D01*
X349297Y239429D01*
X349311Y239542D01*
X349328Y239654D01*
X349350Y239765D01*
X349375Y239875D01*
X349405Y239985D01*
X349438Y240093D01*
X349475Y240200D01*
X349515Y240306D01*
X349560Y240410D01*
X349608Y240513D01*
X349659Y240614D01*
X349714Y240713D01*
X349772Y240810D01*
X349834Y240905D01*
X349899Y240998D01*
X349967Y241088D01*
X350038Y241176D01*
X350113Y241262D01*
X350190Y241345D01*
X350270Y241425D01*
X350353Y241502D01*
X350439Y241577D01*
X350527Y241648D01*
X350617Y241716D01*
X350710Y241781D01*
X350805Y241843D01*
X350902Y241901D01*
X351001Y241956D01*
X351102Y242007D01*
X351205Y242055D01*
X351309Y242100D01*
X351415Y242140D01*
X351522Y242177D01*
X351630Y242210D01*
X351740Y242240D01*
X351850Y242265D01*
X351961Y242287D01*
X352073Y242304D01*
X352186Y242318D01*
X352299Y242328D01*
X352412Y242334D01*
X352525Y242336D01*
X352638Y242334D01*
X352751Y242328D01*
X352864Y242318D01*
X352977Y242304D01*
X353089Y242287D01*
X353200Y242265D01*
X353310Y242240D01*
X353420Y242210D01*
X353528Y242177D01*
X353635Y242140D01*
X353741Y242100D01*
X353845Y242055D01*
X353948Y242007D01*
X354049Y241956D01*
X354148Y241901D01*
X354245Y241843D01*
X354340Y241781D01*
X354433Y241716D01*
X354523Y241648D01*
X354611Y241577D01*
X354697Y241502D01*
X354780Y241425D01*
X354860Y241345D01*
X354937Y241262D01*
X355012Y241176D01*
X355083Y241088D01*
X355151Y240998D01*
X355216Y240905D01*
X355278Y240810D01*
X355336Y240713D01*
X355391Y240614D01*
X355442Y240513D01*
X355490Y240410D01*
X355535Y240306D01*
X355575Y240200D01*
X355612Y240093D01*
X355645Y239985D01*
X355675Y239875D01*
X355700Y239765D01*
X355722Y239654D01*
X355739Y239542D01*
X355753Y239429D01*
X355763Y239316D01*
X355769Y239203D01*
X355771Y239090D01*
X355770Y239090D02*
X355770Y235845D01*
X355770Y239739D02*
X360963Y242336D01*
X350578Y247201D02*
X349279Y247201D01*
X349279Y253692D01*
X360963Y250446D01*
X376244Y235845D02*
X387928Y235845D01*
X376244Y235845D02*
X376244Y239090D01*
X376243Y239090D02*
X376245Y239203D01*
X376251Y239316D01*
X376261Y239429D01*
X376275Y239542D01*
X376292Y239654D01*
X376314Y239765D01*
X376339Y239875D01*
X376369Y239985D01*
X376402Y240093D01*
X376439Y240200D01*
X376479Y240306D01*
X376524Y240410D01*
X376572Y240513D01*
X376623Y240614D01*
X376678Y240713D01*
X376736Y240810D01*
X376798Y240905D01*
X376863Y240998D01*
X376931Y241088D01*
X377002Y241176D01*
X377077Y241262D01*
X377154Y241345D01*
X377234Y241425D01*
X377317Y241502D01*
X377403Y241577D01*
X377491Y241648D01*
X377581Y241716D01*
X377674Y241781D01*
X377769Y241843D01*
X377866Y241901D01*
X377965Y241956D01*
X378066Y242007D01*
X378169Y242055D01*
X378273Y242100D01*
X378379Y242140D01*
X378486Y242177D01*
X378594Y242210D01*
X378704Y242240D01*
X378814Y242265D01*
X378925Y242287D01*
X379037Y242304D01*
X379150Y242318D01*
X379263Y242328D01*
X379376Y242334D01*
X379489Y242336D01*
X379602Y242334D01*
X379715Y242328D01*
X379828Y242318D01*
X379941Y242304D01*
X380053Y242287D01*
X380164Y242265D01*
X380274Y242240D01*
X380384Y242210D01*
X380492Y242177D01*
X380599Y242140D01*
X380705Y242100D01*
X380809Y242055D01*
X380912Y242007D01*
X381013Y241956D01*
X381112Y241901D01*
X381209Y241843D01*
X381304Y241781D01*
X381397Y241716D01*
X381487Y241648D01*
X381575Y241577D01*
X381661Y241502D01*
X381744Y241425D01*
X381824Y241345D01*
X381901Y241262D01*
X381976Y241176D01*
X382047Y241088D01*
X382115Y240998D01*
X382180Y240905D01*
X382242Y240810D01*
X382300Y240713D01*
X382355Y240614D01*
X382406Y240513D01*
X382454Y240410D01*
X382499Y240306D01*
X382539Y240200D01*
X382576Y240093D01*
X382609Y239985D01*
X382639Y239875D01*
X382664Y239765D01*
X382686Y239654D01*
X382703Y239542D01*
X382717Y239429D01*
X382727Y239316D01*
X382733Y239203D01*
X382735Y239090D01*
X382735Y235845D01*
X382735Y239739D02*
X387928Y242336D01*
X384682Y247200D02*
X384569Y247202D01*
X384456Y247208D01*
X384343Y247218D01*
X384230Y247232D01*
X384118Y247249D01*
X384007Y247271D01*
X383897Y247296D01*
X383787Y247326D01*
X383679Y247359D01*
X383572Y247396D01*
X383466Y247436D01*
X383362Y247481D01*
X383259Y247529D01*
X383158Y247580D01*
X383059Y247635D01*
X382962Y247693D01*
X382867Y247755D01*
X382774Y247820D01*
X382684Y247888D01*
X382596Y247959D01*
X382510Y248034D01*
X382427Y248111D01*
X382347Y248191D01*
X382270Y248274D01*
X382195Y248360D01*
X382124Y248448D01*
X382056Y248538D01*
X381991Y248631D01*
X381929Y248726D01*
X381871Y248823D01*
X381816Y248922D01*
X381765Y249023D01*
X381717Y249126D01*
X381672Y249230D01*
X381632Y249336D01*
X381595Y249443D01*
X381562Y249551D01*
X381532Y249661D01*
X381507Y249771D01*
X381485Y249882D01*
X381468Y249994D01*
X381454Y250107D01*
X381444Y250220D01*
X381438Y250333D01*
X381436Y250446D01*
X381438Y250559D01*
X381444Y250672D01*
X381454Y250785D01*
X381468Y250898D01*
X381485Y251010D01*
X381507Y251121D01*
X381532Y251231D01*
X381562Y251341D01*
X381595Y251449D01*
X381632Y251556D01*
X381672Y251662D01*
X381717Y251766D01*
X381765Y251869D01*
X381816Y251970D01*
X381871Y252069D01*
X381929Y252166D01*
X381991Y252261D01*
X382056Y252354D01*
X382124Y252444D01*
X382195Y252532D01*
X382270Y252618D01*
X382347Y252701D01*
X382427Y252781D01*
X382510Y252858D01*
X382596Y252933D01*
X382684Y253004D01*
X382774Y253072D01*
X382867Y253137D01*
X382962Y253199D01*
X383059Y253257D01*
X383158Y253312D01*
X383259Y253363D01*
X383362Y253411D01*
X383466Y253456D01*
X383572Y253496D01*
X383679Y253533D01*
X383787Y253566D01*
X383897Y253596D01*
X384007Y253621D01*
X384118Y253643D01*
X384230Y253660D01*
X384343Y253674D01*
X384456Y253684D01*
X384569Y253690D01*
X384682Y253692D01*
X384795Y253690D01*
X384908Y253684D01*
X385021Y253674D01*
X385134Y253660D01*
X385246Y253643D01*
X385357Y253621D01*
X385467Y253596D01*
X385577Y253566D01*
X385685Y253533D01*
X385792Y253496D01*
X385898Y253456D01*
X386002Y253411D01*
X386105Y253363D01*
X386206Y253312D01*
X386305Y253257D01*
X386402Y253199D01*
X386497Y253137D01*
X386590Y253072D01*
X386680Y253004D01*
X386768Y252933D01*
X386854Y252858D01*
X386937Y252781D01*
X387017Y252701D01*
X387094Y252618D01*
X387169Y252532D01*
X387240Y252444D01*
X387308Y252354D01*
X387373Y252261D01*
X387435Y252166D01*
X387493Y252069D01*
X387548Y251970D01*
X387599Y251869D01*
X387647Y251766D01*
X387692Y251662D01*
X387732Y251556D01*
X387769Y251449D01*
X387802Y251341D01*
X387832Y251231D01*
X387857Y251121D01*
X387879Y251010D01*
X387896Y250898D01*
X387910Y250785D01*
X387920Y250672D01*
X387926Y250559D01*
X387928Y250446D01*
X387926Y250333D01*
X387920Y250220D01*
X387910Y250107D01*
X387896Y249994D01*
X387879Y249882D01*
X387857Y249771D01*
X387832Y249661D01*
X387802Y249551D01*
X387769Y249443D01*
X387732Y249336D01*
X387692Y249230D01*
X387647Y249126D01*
X387599Y249023D01*
X387548Y248922D01*
X387493Y248823D01*
X387435Y248726D01*
X387373Y248631D01*
X387308Y248538D01*
X387240Y248448D01*
X387169Y248360D01*
X387094Y248274D01*
X387017Y248191D01*
X386937Y248111D01*
X386854Y248034D01*
X386768Y247959D01*
X386680Y247888D01*
X386590Y247820D01*
X386497Y247755D01*
X386402Y247693D01*
X386305Y247635D01*
X386206Y247580D01*
X386105Y247529D01*
X386002Y247481D01*
X385898Y247436D01*
X385792Y247396D01*
X385685Y247359D01*
X385577Y247326D01*
X385467Y247296D01*
X385357Y247271D01*
X385246Y247249D01*
X385134Y247232D01*
X385021Y247218D01*
X384908Y247208D01*
X384795Y247202D01*
X384682Y247200D01*
X378840Y247850D02*
X378739Y247852D01*
X378639Y247858D01*
X378539Y247868D01*
X378439Y247881D01*
X378340Y247899D01*
X378241Y247920D01*
X378144Y247945D01*
X378047Y247974D01*
X377952Y248007D01*
X377858Y248043D01*
X377766Y248083D01*
X377675Y248126D01*
X377586Y248173D01*
X377499Y248223D01*
X377413Y248277D01*
X377330Y248334D01*
X377250Y248394D01*
X377171Y248457D01*
X377095Y248524D01*
X377022Y248593D01*
X376952Y248665D01*
X376884Y248739D01*
X376819Y248816D01*
X376758Y248896D01*
X376699Y248978D01*
X376644Y249062D01*
X376592Y249148D01*
X376543Y249236D01*
X376498Y249326D01*
X376456Y249418D01*
X376418Y249511D01*
X376384Y249606D01*
X376353Y249701D01*
X376326Y249798D01*
X376303Y249896D01*
X376283Y249995D01*
X376268Y250095D01*
X376256Y250195D01*
X376248Y250295D01*
X376244Y250396D01*
X376244Y250496D01*
X376248Y250597D01*
X376256Y250697D01*
X376268Y250797D01*
X376283Y250897D01*
X376303Y250996D01*
X376326Y251094D01*
X376353Y251191D01*
X376384Y251286D01*
X376418Y251381D01*
X376456Y251474D01*
X376498Y251566D01*
X376543Y251656D01*
X376592Y251744D01*
X376644Y251830D01*
X376699Y251914D01*
X376758Y251996D01*
X376819Y252076D01*
X376884Y252153D01*
X376952Y252227D01*
X377022Y252299D01*
X377095Y252368D01*
X377171Y252435D01*
X377250Y252498D01*
X377330Y252558D01*
X377413Y252615D01*
X377499Y252669D01*
X377586Y252719D01*
X377675Y252766D01*
X377766Y252809D01*
X377858Y252849D01*
X377952Y252885D01*
X378047Y252918D01*
X378144Y252947D01*
X378241Y252972D01*
X378340Y252993D01*
X378439Y253011D01*
X378539Y253024D01*
X378639Y253034D01*
X378739Y253040D01*
X378840Y253042D01*
X378941Y253040D01*
X379041Y253034D01*
X379141Y253024D01*
X379241Y253011D01*
X379340Y252993D01*
X379439Y252972D01*
X379536Y252947D01*
X379633Y252918D01*
X379728Y252885D01*
X379822Y252849D01*
X379914Y252809D01*
X380005Y252766D01*
X380094Y252719D01*
X380181Y252669D01*
X380267Y252615D01*
X380350Y252558D01*
X380430Y252498D01*
X380509Y252435D01*
X380585Y252368D01*
X380658Y252299D01*
X380728Y252227D01*
X380796Y252153D01*
X380861Y252076D01*
X380922Y251996D01*
X380981Y251914D01*
X381036Y251830D01*
X381088Y251744D01*
X381137Y251656D01*
X381182Y251566D01*
X381224Y251474D01*
X381262Y251381D01*
X381296Y251286D01*
X381327Y251191D01*
X381354Y251094D01*
X381377Y250996D01*
X381397Y250897D01*
X381412Y250797D01*
X381424Y250697D01*
X381432Y250597D01*
X381436Y250496D01*
X381436Y250396D01*
X381432Y250295D01*
X381424Y250195D01*
X381412Y250095D01*
X381397Y249995D01*
X381377Y249896D01*
X381354Y249798D01*
X381327Y249701D01*
X381296Y249606D01*
X381262Y249511D01*
X381224Y249418D01*
X381182Y249326D01*
X381137Y249236D01*
X381088Y249148D01*
X381036Y249062D01*
X380981Y248978D01*
X380922Y248896D01*
X380861Y248816D01*
X380796Y248739D01*
X380728Y248665D01*
X380658Y248593D01*
X380585Y248524D01*
X380509Y248457D01*
X380430Y248394D01*
X380350Y248334D01*
X380267Y248277D01*
X380181Y248223D01*
X380094Y248173D01*
X380005Y248126D01*
X379914Y248083D01*
X379822Y248043D01*
X379728Y248007D01*
X379633Y247974D01*
X379536Y247945D01*
X379439Y247920D01*
X379340Y247899D01*
X379241Y247881D01*
X379141Y247868D01*
X379041Y247858D01*
X378941Y247852D01*
X378840Y247850D01*
X403208Y235845D02*
X414892Y235845D01*
X403208Y235845D02*
X403208Y239090D01*
X403207Y239090D02*
X403209Y239203D01*
X403215Y239316D01*
X403225Y239429D01*
X403239Y239542D01*
X403256Y239654D01*
X403278Y239765D01*
X403303Y239875D01*
X403333Y239985D01*
X403366Y240093D01*
X403403Y240200D01*
X403443Y240306D01*
X403488Y240410D01*
X403536Y240513D01*
X403587Y240614D01*
X403642Y240713D01*
X403700Y240810D01*
X403762Y240905D01*
X403827Y240998D01*
X403895Y241088D01*
X403966Y241176D01*
X404041Y241262D01*
X404118Y241345D01*
X404198Y241425D01*
X404281Y241502D01*
X404367Y241577D01*
X404455Y241648D01*
X404545Y241716D01*
X404638Y241781D01*
X404733Y241843D01*
X404830Y241901D01*
X404929Y241956D01*
X405030Y242007D01*
X405133Y242055D01*
X405237Y242100D01*
X405343Y242140D01*
X405450Y242177D01*
X405558Y242210D01*
X405668Y242240D01*
X405778Y242265D01*
X405889Y242287D01*
X406001Y242304D01*
X406114Y242318D01*
X406227Y242328D01*
X406340Y242334D01*
X406453Y242336D01*
X406566Y242334D01*
X406679Y242328D01*
X406792Y242318D01*
X406905Y242304D01*
X407017Y242287D01*
X407128Y242265D01*
X407238Y242240D01*
X407348Y242210D01*
X407456Y242177D01*
X407563Y242140D01*
X407669Y242100D01*
X407773Y242055D01*
X407876Y242007D01*
X407977Y241956D01*
X408076Y241901D01*
X408173Y241843D01*
X408268Y241781D01*
X408361Y241716D01*
X408451Y241648D01*
X408539Y241577D01*
X408625Y241502D01*
X408708Y241425D01*
X408788Y241345D01*
X408865Y241262D01*
X408940Y241176D01*
X409011Y241088D01*
X409079Y240998D01*
X409144Y240905D01*
X409206Y240810D01*
X409264Y240713D01*
X409319Y240614D01*
X409370Y240513D01*
X409418Y240410D01*
X409463Y240306D01*
X409503Y240200D01*
X409540Y240093D01*
X409573Y239985D01*
X409603Y239875D01*
X409628Y239765D01*
X409650Y239654D01*
X409667Y239542D01*
X409681Y239429D01*
X409691Y239316D01*
X409697Y239203D01*
X409699Y239090D01*
X409699Y235845D01*
X409699Y239739D02*
X414892Y242336D01*
X409699Y249797D02*
X409699Y253692D01*
X409698Y249797D02*
X409696Y249698D01*
X409690Y249598D01*
X409681Y249499D01*
X409668Y249401D01*
X409651Y249303D01*
X409630Y249205D01*
X409605Y249109D01*
X409577Y249014D01*
X409545Y248920D01*
X409510Y248827D01*
X409471Y248735D01*
X409428Y248645D01*
X409383Y248557D01*
X409333Y248470D01*
X409281Y248386D01*
X409225Y248303D01*
X409167Y248223D01*
X409105Y248145D01*
X409040Y248070D01*
X408972Y247997D01*
X408902Y247927D01*
X408829Y247859D01*
X408754Y247794D01*
X408676Y247732D01*
X408596Y247674D01*
X408513Y247618D01*
X408429Y247566D01*
X408342Y247516D01*
X408254Y247471D01*
X408164Y247428D01*
X408072Y247389D01*
X407979Y247354D01*
X407885Y247322D01*
X407790Y247294D01*
X407694Y247269D01*
X407596Y247248D01*
X407498Y247231D01*
X407400Y247218D01*
X407301Y247209D01*
X407201Y247203D01*
X407102Y247201D01*
X406453Y247201D01*
X406453Y247200D02*
X406340Y247202D01*
X406227Y247208D01*
X406114Y247218D01*
X406001Y247232D01*
X405889Y247249D01*
X405778Y247271D01*
X405668Y247296D01*
X405558Y247326D01*
X405450Y247359D01*
X405343Y247396D01*
X405237Y247436D01*
X405133Y247481D01*
X405030Y247529D01*
X404929Y247580D01*
X404830Y247635D01*
X404733Y247693D01*
X404638Y247755D01*
X404545Y247820D01*
X404455Y247888D01*
X404367Y247959D01*
X404281Y248034D01*
X404198Y248111D01*
X404118Y248191D01*
X404041Y248274D01*
X403966Y248360D01*
X403895Y248448D01*
X403827Y248538D01*
X403762Y248631D01*
X403700Y248726D01*
X403642Y248823D01*
X403587Y248922D01*
X403536Y249023D01*
X403488Y249126D01*
X403443Y249230D01*
X403403Y249336D01*
X403366Y249443D01*
X403333Y249551D01*
X403303Y249661D01*
X403278Y249771D01*
X403256Y249882D01*
X403239Y249994D01*
X403225Y250107D01*
X403215Y250220D01*
X403209Y250333D01*
X403207Y250446D01*
X403209Y250559D01*
X403215Y250672D01*
X403225Y250785D01*
X403239Y250898D01*
X403256Y251010D01*
X403278Y251121D01*
X403303Y251231D01*
X403333Y251341D01*
X403366Y251449D01*
X403403Y251556D01*
X403443Y251662D01*
X403488Y251766D01*
X403536Y251869D01*
X403587Y251970D01*
X403642Y252069D01*
X403700Y252166D01*
X403762Y252261D01*
X403827Y252354D01*
X403895Y252444D01*
X403966Y252532D01*
X404041Y252618D01*
X404118Y252701D01*
X404198Y252781D01*
X404281Y252858D01*
X404367Y252933D01*
X404455Y253004D01*
X404545Y253072D01*
X404638Y253137D01*
X404733Y253199D01*
X404830Y253257D01*
X404929Y253312D01*
X405030Y253363D01*
X405133Y253411D01*
X405237Y253456D01*
X405343Y253496D01*
X405450Y253533D01*
X405558Y253566D01*
X405668Y253596D01*
X405778Y253621D01*
X405889Y253643D01*
X406001Y253660D01*
X406114Y253674D01*
X406227Y253684D01*
X406340Y253690D01*
X406453Y253692D01*
X409699Y253692D01*
X409842Y253690D01*
X409985Y253684D01*
X410128Y253674D01*
X410270Y253660D01*
X410412Y253643D01*
X410554Y253621D01*
X410695Y253596D01*
X410835Y253566D01*
X410974Y253533D01*
X411112Y253496D01*
X411249Y253455D01*
X411385Y253411D01*
X411520Y253362D01*
X411653Y253310D01*
X411785Y253255D01*
X411915Y253195D01*
X412044Y253132D01*
X412171Y253066D01*
X412296Y252996D01*
X412418Y252923D01*
X412539Y252846D01*
X412658Y252766D01*
X412774Y252683D01*
X412889Y252597D01*
X413000Y252508D01*
X413110Y252415D01*
X413216Y252320D01*
X413320Y252221D01*
X413421Y252120D01*
X413520Y252016D01*
X413615Y251910D01*
X413708Y251800D01*
X413797Y251689D01*
X413883Y251574D01*
X413966Y251458D01*
X414046Y251339D01*
X414123Y251218D01*
X414196Y251096D01*
X414266Y250971D01*
X414332Y250844D01*
X414395Y250715D01*
X414455Y250585D01*
X414510Y250453D01*
X414562Y250320D01*
X414611Y250185D01*
X414655Y250049D01*
X414696Y249912D01*
X414733Y249774D01*
X414766Y249635D01*
X414796Y249495D01*
X414821Y249354D01*
X414843Y249212D01*
X414860Y249070D01*
X414874Y248928D01*
X414884Y248785D01*
X414890Y248642D01*
X414892Y248499D01*
D16*
X110000Y611750D02*
X109998Y611848D01*
X109992Y611946D01*
X109983Y612044D01*
X109969Y612141D01*
X109952Y612238D01*
X109931Y612334D01*
X109906Y612429D01*
X109878Y612523D01*
X109845Y612615D01*
X109810Y612707D01*
X109770Y612797D01*
X109728Y612885D01*
X109681Y612972D01*
X109632Y613056D01*
X109579Y613139D01*
X109523Y613219D01*
X109463Y613298D01*
X109401Y613374D01*
X109336Y613447D01*
X109268Y613518D01*
X109197Y613586D01*
X109124Y613651D01*
X109048Y613713D01*
X108969Y613773D01*
X108889Y613829D01*
X108806Y613882D01*
X108722Y613931D01*
X108635Y613978D01*
X108547Y614020D01*
X108457Y614060D01*
X108365Y614095D01*
X108273Y614128D01*
X108179Y614156D01*
X108084Y614181D01*
X107988Y614202D01*
X107891Y614219D01*
X107794Y614233D01*
X107696Y614242D01*
X107598Y614248D01*
X107500Y614250D01*
X110000Y611750D02*
X110000Y556750D01*
X109998Y556652D01*
X109992Y556554D01*
X109983Y556456D01*
X109969Y556359D01*
X109952Y556262D01*
X109931Y556166D01*
X109906Y556071D01*
X109878Y555977D01*
X109845Y555885D01*
X109810Y555793D01*
X109770Y555703D01*
X109728Y555615D01*
X109681Y555528D01*
X109632Y555444D01*
X109579Y555361D01*
X109523Y555281D01*
X109463Y555202D01*
X109401Y555126D01*
X109336Y555053D01*
X109268Y554982D01*
X109197Y554914D01*
X109124Y554849D01*
X109048Y554787D01*
X108969Y554727D01*
X108889Y554671D01*
X108806Y554618D01*
X108722Y554569D01*
X108635Y554522D01*
X108547Y554480D01*
X108457Y554440D01*
X108365Y554405D01*
X108273Y554372D01*
X108179Y554344D01*
X108084Y554319D01*
X107988Y554298D01*
X107891Y554281D01*
X107794Y554267D01*
X107696Y554258D01*
X107598Y554252D01*
X107500Y554250D01*
X77500Y554250D02*
X77402Y554252D01*
X77304Y554258D01*
X77206Y554267D01*
X77109Y554281D01*
X77012Y554298D01*
X76916Y554319D01*
X76821Y554344D01*
X76727Y554372D01*
X76635Y554405D01*
X76543Y554440D01*
X76453Y554480D01*
X76365Y554522D01*
X76278Y554569D01*
X76194Y554618D01*
X76111Y554671D01*
X76031Y554727D01*
X75952Y554787D01*
X75876Y554849D01*
X75803Y554914D01*
X75732Y554982D01*
X75664Y555053D01*
X75599Y555126D01*
X75537Y555202D01*
X75477Y555281D01*
X75421Y555361D01*
X75368Y555444D01*
X75319Y555528D01*
X75272Y555615D01*
X75230Y555703D01*
X75190Y555793D01*
X75155Y555885D01*
X75122Y555977D01*
X75094Y556071D01*
X75069Y556166D01*
X75048Y556262D01*
X75031Y556359D01*
X75017Y556456D01*
X75008Y556554D01*
X75002Y556652D01*
X75000Y556750D01*
X75000Y611750D01*
X75002Y611848D01*
X75008Y611946D01*
X75017Y612044D01*
X75031Y612141D01*
X75048Y612238D01*
X75069Y612334D01*
X75094Y612429D01*
X75122Y612523D01*
X75155Y612615D01*
X75190Y612707D01*
X75230Y612797D01*
X75272Y612885D01*
X75319Y612972D01*
X75368Y613056D01*
X75421Y613139D01*
X75477Y613219D01*
X75537Y613298D01*
X75599Y613374D01*
X75664Y613447D01*
X75732Y613518D01*
X75803Y613586D01*
X75876Y613651D01*
X75952Y613713D01*
X76031Y613773D01*
X76111Y613829D01*
X76194Y613882D01*
X76278Y613931D01*
X76365Y613978D01*
X76453Y614020D01*
X76543Y614060D01*
X76635Y614095D01*
X76727Y614128D01*
X76821Y614156D01*
X76916Y614181D01*
X77012Y614202D01*
X77109Y614219D01*
X77206Y614233D01*
X77304Y614242D01*
X77402Y614248D01*
X77500Y614250D01*
X81500Y614250D01*
X103500Y614250D02*
X107500Y614250D01*
X107500Y554250D02*
X103500Y554250D01*
X81500Y554250D02*
X77500Y554250D01*
X100000Y569250D02*
X100000Y599250D01*
X85000Y599250D02*
X85000Y569250D01*
X85000Y599250D02*
X100000Y599250D01*
X100000Y569250D02*
X85000Y569250D01*
D12*
X115939Y582938D02*
X116004Y582936D01*
X116068Y582930D01*
X116132Y582920D01*
X116196Y582907D01*
X116258Y582889D01*
X116319Y582868D01*
X116379Y582844D01*
X116437Y582815D01*
X116494Y582783D01*
X116548Y582748D01*
X116600Y582710D01*
X116650Y582668D01*
X116697Y582624D01*
X116741Y582577D01*
X116783Y582527D01*
X116821Y582475D01*
X116856Y582421D01*
X116888Y582364D01*
X116917Y582306D01*
X116941Y582246D01*
X116962Y582185D01*
X116980Y582123D01*
X116993Y582059D01*
X117003Y581995D01*
X117009Y581931D01*
X117011Y581866D01*
X117009Y581772D01*
X117003Y581678D01*
X116993Y581584D01*
X116980Y581491D01*
X116962Y581399D01*
X116941Y581307D01*
X116916Y581216D01*
X116887Y581126D01*
X116854Y581038D01*
X116818Y580951D01*
X116778Y580866D01*
X116735Y580782D01*
X116688Y580701D01*
X116638Y580621D01*
X116585Y580543D01*
X116528Y580468D01*
X116469Y580395D01*
X116406Y580325D01*
X116341Y580257D01*
X113257Y580392D02*
X113192Y580394D01*
X113128Y580400D01*
X113064Y580410D01*
X113000Y580423D01*
X112938Y580441D01*
X112877Y580462D01*
X112817Y580486D01*
X112759Y580515D01*
X112702Y580547D01*
X112648Y580582D01*
X112596Y580620D01*
X112546Y580662D01*
X112499Y580706D01*
X112455Y580753D01*
X112413Y580803D01*
X112375Y580855D01*
X112340Y580909D01*
X112308Y580966D01*
X112279Y581024D01*
X112255Y581084D01*
X112234Y581145D01*
X112216Y581207D01*
X112203Y581271D01*
X112193Y581335D01*
X112187Y581399D01*
X112185Y581464D01*
X112187Y581550D01*
X112192Y581636D01*
X112202Y581722D01*
X112215Y581807D01*
X112231Y581892D01*
X112251Y581976D01*
X112275Y582059D01*
X112302Y582141D01*
X112333Y582221D01*
X112367Y582301D01*
X112405Y582378D01*
X112446Y582454D01*
X112490Y582528D01*
X112537Y582601D01*
X112587Y582671D01*
X114195Y580928D02*
X114162Y580875D01*
X114125Y580824D01*
X114086Y580775D01*
X114044Y580728D01*
X113999Y580684D01*
X113952Y580643D01*
X113903Y580604D01*
X113851Y580568D01*
X113797Y580535D01*
X113742Y580506D01*
X113685Y580480D01*
X113626Y580457D01*
X113567Y580437D01*
X113506Y580421D01*
X113445Y580408D01*
X113382Y580399D01*
X113320Y580394D01*
X113257Y580392D01*
X115001Y582403D02*
X115034Y582456D01*
X115071Y582507D01*
X115110Y582556D01*
X115152Y582603D01*
X115197Y582647D01*
X115244Y582688D01*
X115293Y582727D01*
X115345Y582763D01*
X115399Y582796D01*
X115454Y582825D01*
X115511Y582851D01*
X115570Y582874D01*
X115629Y582894D01*
X115690Y582910D01*
X115751Y582923D01*
X115814Y582932D01*
X115876Y582937D01*
X115939Y582939D01*
X115000Y582403D02*
X114196Y580928D01*
X113257Y585561D02*
X112185Y586902D01*
X117011Y586902D01*
X117011Y588242D02*
X117011Y585561D01*
D16*
X110270Y257500D02*
X110268Y257402D01*
X110262Y257304D01*
X110253Y257206D01*
X110239Y257109D01*
X110222Y257012D01*
X110201Y256916D01*
X110176Y256821D01*
X110148Y256727D01*
X110115Y256635D01*
X110080Y256543D01*
X110040Y256453D01*
X109998Y256365D01*
X109951Y256278D01*
X109902Y256194D01*
X109849Y256111D01*
X109793Y256031D01*
X109733Y255952D01*
X109671Y255876D01*
X109606Y255803D01*
X109538Y255732D01*
X109467Y255664D01*
X109394Y255599D01*
X109318Y255537D01*
X109239Y255477D01*
X109159Y255421D01*
X109076Y255368D01*
X108992Y255319D01*
X108905Y255272D01*
X108817Y255230D01*
X108727Y255190D01*
X108635Y255155D01*
X108543Y255122D01*
X108449Y255094D01*
X108354Y255069D01*
X108258Y255048D01*
X108161Y255031D01*
X108064Y255017D01*
X107966Y255008D01*
X107868Y255002D01*
X107770Y255000D01*
X52770Y255000D01*
X52672Y255002D01*
X52574Y255008D01*
X52476Y255017D01*
X52379Y255031D01*
X52282Y255048D01*
X52186Y255069D01*
X52091Y255094D01*
X51997Y255122D01*
X51905Y255155D01*
X51813Y255190D01*
X51723Y255230D01*
X51635Y255272D01*
X51548Y255319D01*
X51464Y255368D01*
X51381Y255421D01*
X51301Y255477D01*
X51222Y255537D01*
X51146Y255599D01*
X51073Y255664D01*
X51002Y255732D01*
X50934Y255803D01*
X50869Y255876D01*
X50807Y255952D01*
X50747Y256031D01*
X50691Y256111D01*
X50638Y256194D01*
X50589Y256278D01*
X50542Y256365D01*
X50500Y256453D01*
X50460Y256543D01*
X50425Y256635D01*
X50392Y256727D01*
X50364Y256821D01*
X50339Y256916D01*
X50318Y257012D01*
X50301Y257109D01*
X50287Y257206D01*
X50278Y257304D01*
X50272Y257402D01*
X50270Y257500D01*
X50270Y287500D02*
X50272Y287598D01*
X50278Y287696D01*
X50287Y287794D01*
X50301Y287891D01*
X50318Y287988D01*
X50339Y288084D01*
X50364Y288179D01*
X50392Y288273D01*
X50425Y288365D01*
X50460Y288457D01*
X50500Y288547D01*
X50542Y288635D01*
X50589Y288722D01*
X50638Y288806D01*
X50691Y288889D01*
X50747Y288969D01*
X50807Y289048D01*
X50869Y289124D01*
X50934Y289197D01*
X51002Y289268D01*
X51073Y289336D01*
X51146Y289401D01*
X51222Y289463D01*
X51301Y289523D01*
X51381Y289579D01*
X51464Y289632D01*
X51548Y289681D01*
X51635Y289728D01*
X51723Y289770D01*
X51813Y289810D01*
X51905Y289845D01*
X51997Y289878D01*
X52091Y289906D01*
X52186Y289931D01*
X52282Y289952D01*
X52379Y289969D01*
X52476Y289983D01*
X52574Y289992D01*
X52672Y289998D01*
X52770Y290000D01*
X107770Y290000D01*
X107868Y289998D01*
X107966Y289992D01*
X108064Y289983D01*
X108161Y289969D01*
X108258Y289952D01*
X108354Y289931D01*
X108449Y289906D01*
X108543Y289878D01*
X108635Y289845D01*
X108727Y289810D01*
X108817Y289770D01*
X108905Y289728D01*
X108992Y289681D01*
X109076Y289632D01*
X109159Y289579D01*
X109239Y289523D01*
X109318Y289463D01*
X109394Y289401D01*
X109467Y289336D01*
X109538Y289268D01*
X109606Y289197D01*
X109671Y289124D01*
X109733Y289048D01*
X109793Y288969D01*
X109849Y288889D01*
X109902Y288806D01*
X109951Y288722D01*
X109998Y288635D01*
X110040Y288547D01*
X110080Y288457D01*
X110115Y288365D01*
X110148Y288273D01*
X110176Y288179D01*
X110201Y288084D01*
X110222Y287988D01*
X110239Y287891D01*
X110253Y287794D01*
X110262Y287696D01*
X110268Y287598D01*
X110270Y287500D01*
X110270Y283500D01*
X110270Y261500D02*
X110270Y257500D01*
X50270Y257500D02*
X50270Y261500D01*
X50270Y283500D02*
X50270Y287500D01*
X65270Y265000D02*
X95270Y265000D01*
X95270Y280000D02*
X65270Y280000D01*
X95270Y280000D02*
X95270Y265000D01*
X65270Y265000D02*
X65270Y280000D01*
D12*
X78958Y249061D02*
X78956Y248996D01*
X78950Y248932D01*
X78940Y248868D01*
X78927Y248804D01*
X78909Y248742D01*
X78888Y248681D01*
X78864Y248621D01*
X78835Y248563D01*
X78803Y248506D01*
X78768Y248452D01*
X78730Y248400D01*
X78688Y248350D01*
X78644Y248303D01*
X78597Y248259D01*
X78547Y248217D01*
X78495Y248179D01*
X78441Y248144D01*
X78384Y248112D01*
X78326Y248083D01*
X78266Y248059D01*
X78205Y248038D01*
X78143Y248020D01*
X78079Y248007D01*
X78015Y247997D01*
X77951Y247991D01*
X77886Y247989D01*
X77792Y247991D01*
X77698Y247997D01*
X77604Y248007D01*
X77511Y248020D01*
X77419Y248038D01*
X77327Y248059D01*
X77236Y248084D01*
X77146Y248113D01*
X77058Y248146D01*
X76971Y248182D01*
X76886Y248222D01*
X76802Y248265D01*
X76721Y248312D01*
X76641Y248362D01*
X76563Y248415D01*
X76488Y248472D01*
X76415Y248531D01*
X76345Y248594D01*
X76277Y248659D01*
X76412Y251743D02*
X76414Y251808D01*
X76420Y251872D01*
X76430Y251936D01*
X76443Y252000D01*
X76461Y252062D01*
X76482Y252123D01*
X76506Y252183D01*
X76535Y252241D01*
X76567Y252298D01*
X76602Y252352D01*
X76640Y252404D01*
X76682Y252454D01*
X76726Y252501D01*
X76773Y252545D01*
X76823Y252587D01*
X76875Y252625D01*
X76929Y252660D01*
X76986Y252692D01*
X77044Y252721D01*
X77104Y252745D01*
X77165Y252766D01*
X77227Y252784D01*
X77291Y252797D01*
X77355Y252807D01*
X77419Y252813D01*
X77484Y252815D01*
X77570Y252813D01*
X77656Y252808D01*
X77742Y252798D01*
X77827Y252785D01*
X77912Y252769D01*
X77996Y252749D01*
X78079Y252725D01*
X78161Y252698D01*
X78241Y252667D01*
X78321Y252633D01*
X78398Y252595D01*
X78474Y252554D01*
X78548Y252510D01*
X78620Y252463D01*
X78691Y252413D01*
X76948Y250805D02*
X76895Y250838D01*
X76844Y250875D01*
X76795Y250914D01*
X76748Y250956D01*
X76704Y251001D01*
X76663Y251048D01*
X76624Y251097D01*
X76588Y251149D01*
X76555Y251203D01*
X76526Y251258D01*
X76500Y251315D01*
X76477Y251374D01*
X76457Y251433D01*
X76441Y251494D01*
X76428Y251555D01*
X76419Y251618D01*
X76414Y251680D01*
X76412Y251743D01*
X78423Y249999D02*
X78476Y249966D01*
X78527Y249929D01*
X78576Y249890D01*
X78623Y249848D01*
X78667Y249803D01*
X78708Y249756D01*
X78747Y249707D01*
X78783Y249655D01*
X78816Y249601D01*
X78845Y249546D01*
X78871Y249489D01*
X78894Y249430D01*
X78914Y249371D01*
X78930Y249310D01*
X78943Y249249D01*
X78952Y249186D01*
X78957Y249124D01*
X78959Y249061D01*
X78423Y250000D02*
X76948Y250804D01*
X83056Y252815D02*
X83124Y252813D01*
X83191Y252807D01*
X83258Y252798D01*
X83325Y252785D01*
X83390Y252768D01*
X83455Y252747D01*
X83518Y252723D01*
X83580Y252695D01*
X83640Y252664D01*
X83698Y252630D01*
X83754Y252592D01*
X83809Y252552D01*
X83860Y252508D01*
X83909Y252461D01*
X83956Y252412D01*
X84000Y252361D01*
X84040Y252306D01*
X84078Y252250D01*
X84112Y252192D01*
X84143Y252132D01*
X84171Y252070D01*
X84195Y252007D01*
X84216Y251942D01*
X84233Y251877D01*
X84246Y251810D01*
X84255Y251743D01*
X84261Y251676D01*
X84263Y251608D01*
X83056Y252815D02*
X82978Y252813D01*
X82900Y252807D01*
X82823Y252797D01*
X82746Y252784D01*
X82670Y252766D01*
X82595Y252745D01*
X82521Y252720D01*
X82449Y252691D01*
X82378Y252659D01*
X82309Y252623D01*
X82241Y252584D01*
X82176Y252541D01*
X82113Y252495D01*
X82052Y252446D01*
X81994Y252394D01*
X81939Y252339D01*
X81886Y252282D01*
X81837Y252222D01*
X81790Y252159D01*
X81747Y252095D01*
X81707Y252028D01*
X81670Y251959D01*
X81637Y251888D01*
X81607Y251816D01*
X81581Y251743D01*
X83860Y250670D02*
X83909Y250719D01*
X83956Y250771D01*
X83999Y250826D01*
X84040Y250883D01*
X84078Y250942D01*
X84112Y251003D01*
X84143Y251066D01*
X84171Y251130D01*
X84195Y251196D01*
X84215Y251262D01*
X84232Y251330D01*
X84245Y251399D01*
X84254Y251468D01*
X84260Y251538D01*
X84262Y251608D01*
X83860Y250670D02*
X81581Y247989D01*
X84262Y247989D01*
X121250Y71000D02*
X121250Y48500D01*
X121250Y71000D02*
X121250Y181000D01*
X121250Y203500D01*
X98750Y203500D01*
X-13750Y203500D01*
X-61250Y203500D01*
X-61250Y48500D01*
X-13750Y48500D01*
X98750Y48500D01*
X121250Y48500D01*
X121250Y181000D02*
X98750Y203500D01*
X121250Y71000D02*
X98750Y48500D01*
X-13750Y48500D02*
X-13750Y203500D01*
X354150Y607800D02*
X385900Y607800D01*
X385900Y620300D01*
X354150Y620300D01*
X354150Y607800D01*
X161900Y857250D02*
X161900Y924750D01*
X341900Y924750D01*
X341900Y857250D01*
X341900Y610750D02*
X161900Y610750D01*
X341900Y610750D02*
X341900Y612750D01*
X161900Y612250D02*
X161900Y610750D01*
D17*
X149700Y851750D02*
X149702Y851819D01*
X149708Y851888D01*
X149718Y851956D01*
X149732Y852024D01*
X149749Y852091D01*
X149771Y852157D01*
X149796Y852221D01*
X149825Y852284D01*
X149858Y852345D01*
X149894Y852404D01*
X149933Y852461D01*
X149976Y852515D01*
X150021Y852567D01*
X150070Y852617D01*
X150121Y852663D01*
X150175Y852706D01*
X150232Y852747D01*
X150290Y852783D01*
X150351Y852817D01*
X150413Y852847D01*
X150477Y852873D01*
X150542Y852895D01*
X150609Y852914D01*
X150677Y852929D01*
X150745Y852940D01*
X150814Y852947D01*
X150883Y852950D01*
X150952Y852949D01*
X151021Y852944D01*
X151089Y852935D01*
X151157Y852922D01*
X151224Y852905D01*
X151291Y852885D01*
X151355Y852860D01*
X151418Y852832D01*
X151480Y852801D01*
X151539Y852765D01*
X151597Y852727D01*
X151652Y852685D01*
X151705Y852640D01*
X151755Y852592D01*
X151802Y852542D01*
X151846Y852488D01*
X151887Y852433D01*
X151925Y852375D01*
X151959Y852315D01*
X151990Y852253D01*
X152017Y852189D01*
X152040Y852124D01*
X152060Y852058D01*
X152076Y851990D01*
X152088Y851922D01*
X152096Y851854D01*
X152100Y851785D01*
X152100Y851715D01*
X152096Y851646D01*
X152088Y851578D01*
X152076Y851510D01*
X152060Y851442D01*
X152040Y851376D01*
X152017Y851311D01*
X151990Y851247D01*
X151959Y851185D01*
X151925Y851125D01*
X151887Y851067D01*
X151846Y851012D01*
X151802Y850958D01*
X151755Y850908D01*
X151705Y850860D01*
X151652Y850815D01*
X151597Y850773D01*
X151539Y850735D01*
X151480Y850699D01*
X151418Y850668D01*
X151355Y850640D01*
X151291Y850615D01*
X151224Y850595D01*
X151157Y850578D01*
X151089Y850565D01*
X151021Y850556D01*
X150952Y850551D01*
X150883Y850550D01*
X150814Y850553D01*
X150745Y850560D01*
X150677Y850571D01*
X150609Y850586D01*
X150542Y850605D01*
X150477Y850627D01*
X150413Y850653D01*
X150351Y850683D01*
X150290Y850717D01*
X150232Y850753D01*
X150175Y850794D01*
X150121Y850837D01*
X150070Y850883D01*
X150021Y850933D01*
X149976Y850985D01*
X149933Y851039D01*
X149894Y851096D01*
X149858Y851155D01*
X149825Y851216D01*
X149796Y851279D01*
X149771Y851343D01*
X149749Y851409D01*
X149732Y851476D01*
X149718Y851544D01*
X149708Y851612D01*
X149702Y851681D01*
X149700Y851750D01*
D10*
X168220Y933373D02*
X168220Y941832D01*
X168221Y933373D02*
X168223Y933261D01*
X168229Y933149D01*
X168238Y933037D01*
X168252Y932925D01*
X168269Y932814D01*
X168291Y932704D01*
X168316Y932595D01*
X168344Y932486D01*
X168377Y932378D01*
X168413Y932272D01*
X168453Y932167D01*
X168496Y932064D01*
X168543Y931962D01*
X168594Y931861D01*
X168648Y931763D01*
X168705Y931666D01*
X168765Y931572D01*
X168829Y931479D01*
X168896Y931389D01*
X168966Y931301D01*
X169039Y931216D01*
X169115Y931133D01*
X169194Y931053D01*
X169275Y930976D01*
X169359Y930901D01*
X169446Y930830D01*
X169535Y930761D01*
X169626Y930696D01*
X169720Y930634D01*
X169815Y930575D01*
X169913Y930519D01*
X170012Y930467D01*
X170113Y930418D01*
X170216Y930373D01*
X170320Y930331D01*
X170426Y930293D01*
X170533Y930259D01*
X170641Y930228D01*
X170750Y930202D01*
X170860Y930178D01*
X170971Y930159D01*
X171082Y930144D01*
X171194Y930132D01*
X171306Y930124D01*
X171418Y930120D01*
X171530Y930120D01*
X171642Y930124D01*
X171754Y930132D01*
X171866Y930144D01*
X171977Y930159D01*
X172088Y930178D01*
X172198Y930202D01*
X172307Y930228D01*
X172415Y930259D01*
X172522Y930293D01*
X172628Y930331D01*
X172732Y930373D01*
X172835Y930418D01*
X172936Y930467D01*
X173035Y930519D01*
X173133Y930575D01*
X173228Y930634D01*
X173322Y930696D01*
X173413Y930761D01*
X173502Y930830D01*
X173589Y930901D01*
X173673Y930976D01*
X173754Y931053D01*
X173833Y931133D01*
X173909Y931216D01*
X173982Y931301D01*
X174052Y931389D01*
X174119Y931479D01*
X174183Y931572D01*
X174243Y931666D01*
X174300Y931763D01*
X174354Y931861D01*
X174405Y931962D01*
X174452Y932064D01*
X174495Y932167D01*
X174535Y932272D01*
X174571Y932378D01*
X174604Y932486D01*
X174632Y932595D01*
X174657Y932704D01*
X174679Y932814D01*
X174696Y932925D01*
X174710Y933037D01*
X174719Y933149D01*
X174725Y933261D01*
X174727Y933373D01*
X174727Y941832D01*
X180058Y939230D02*
X183311Y941832D01*
X183311Y930120D01*
X180058Y930120D02*
X186564Y930120D01*
D14*
X266206Y386616D02*
X266206Y308384D01*
X269254Y308384D01*
X398794Y308384D02*
X398794Y386616D01*
X395746Y386616D01*
X269254Y386616D02*
X266206Y386616D01*
X395746Y308384D02*
X398794Y308384D01*
D13*
X398992Y398589D02*
X402971Y398589D01*
X398992Y398589D02*
X396007Y396268D01*
X398992Y398589D02*
X396007Y400911D01*
X398992Y398589D02*
X400318Y394942D01*
X398992Y398589D02*
X400318Y402237D01*
X338469Y379885D02*
X329847Y379885D01*
X329733Y379883D01*
X329618Y379877D01*
X329504Y379867D01*
X329391Y379853D01*
X329277Y379836D01*
X329165Y379814D01*
X329053Y379789D01*
X328943Y379759D01*
X328833Y379726D01*
X328725Y379689D01*
X328618Y379649D01*
X328512Y379604D01*
X328408Y379557D01*
X328306Y379505D01*
X328206Y379450D01*
X328107Y379392D01*
X328011Y379330D01*
X327916Y379265D01*
X327825Y379197D01*
X327735Y379125D01*
X327648Y379051D01*
X327564Y378974D01*
X327482Y378893D01*
X327403Y378810D01*
X327327Y378725D01*
X327254Y378636D01*
X327185Y378546D01*
X327118Y378453D01*
X327055Y378357D01*
X326995Y378260D01*
X326938Y378160D01*
X326885Y378059D01*
X326835Y377956D01*
X326789Y377851D01*
X326746Y377745D01*
X326708Y377637D01*
X326673Y377528D01*
X326642Y377418D01*
X326614Y377307D01*
X326591Y377195D01*
X326571Y377082D01*
X326555Y376969D01*
X326543Y376855D01*
X326535Y376741D01*
X326531Y376626D01*
X326531Y376512D01*
X326535Y376397D01*
X326543Y376283D01*
X326555Y376169D01*
X326571Y376056D01*
X326591Y375943D01*
X326614Y375831D01*
X326642Y375720D01*
X326673Y375610D01*
X326708Y375501D01*
X326746Y375393D01*
X326789Y375287D01*
X326835Y375182D01*
X326885Y375079D01*
X326938Y374978D01*
X326995Y374878D01*
X327055Y374781D01*
X327118Y374685D01*
X327185Y374592D01*
X327254Y374502D01*
X327327Y374413D01*
X327403Y374328D01*
X327482Y374245D01*
X327564Y374164D01*
X327648Y374087D01*
X327735Y374013D01*
X327825Y373941D01*
X327916Y373873D01*
X328011Y373808D01*
X328107Y373746D01*
X328206Y373688D01*
X328306Y373633D01*
X328408Y373581D01*
X328512Y373534D01*
X328618Y373489D01*
X328725Y373449D01*
X328833Y373412D01*
X328943Y373379D01*
X329053Y373349D01*
X329165Y373324D01*
X329277Y373302D01*
X329391Y373285D01*
X329504Y373271D01*
X329618Y373261D01*
X329733Y373255D01*
X329847Y373253D01*
X338469Y373253D01*
X338470Y364426D02*
X338468Y364319D01*
X338462Y364213D01*
X338453Y364107D01*
X338440Y364001D01*
X338423Y363896D01*
X338402Y363791D01*
X338377Y363688D01*
X338349Y363585D01*
X338317Y363483D01*
X338282Y363383D01*
X338243Y363284D01*
X338200Y363186D01*
X338154Y363090D01*
X338105Y362995D01*
X338052Y362903D01*
X337996Y362812D01*
X337937Y362724D01*
X337875Y362637D01*
X337809Y362553D01*
X337741Y362471D01*
X337670Y362392D01*
X337596Y362315D01*
X337519Y362241D01*
X337440Y362170D01*
X337358Y362102D01*
X337274Y362036D01*
X337187Y361974D01*
X337099Y361915D01*
X337008Y361859D01*
X336916Y361806D01*
X336821Y361757D01*
X336725Y361711D01*
X336627Y361668D01*
X336528Y361629D01*
X336428Y361594D01*
X336326Y361562D01*
X336223Y361534D01*
X336120Y361509D01*
X336015Y361488D01*
X335910Y361471D01*
X335804Y361458D01*
X335698Y361449D01*
X335592Y361443D01*
X335485Y361441D01*
X338469Y364426D02*
X338467Y364547D01*
X338461Y364667D01*
X338452Y364787D01*
X338439Y364907D01*
X338422Y365026D01*
X338401Y365145D01*
X338377Y365263D01*
X338348Y365380D01*
X338317Y365496D01*
X338281Y365612D01*
X338242Y365726D01*
X338199Y365838D01*
X338153Y365950D01*
X338104Y366060D01*
X338050Y366168D01*
X337994Y366274D01*
X337934Y366379D01*
X337871Y366482D01*
X337805Y366582D01*
X337736Y366681D01*
X337663Y366777D01*
X337588Y366871D01*
X337510Y366963D01*
X337428Y367052D01*
X337344Y367139D01*
X337258Y367223D01*
X337169Y367304D01*
X337077Y367382D01*
X336983Y367457D01*
X336886Y367529D01*
X336788Y367599D01*
X336687Y367665D01*
X336584Y367728D01*
X336479Y367787D01*
X336373Y367844D01*
X336264Y367897D01*
X336155Y367946D01*
X336043Y367992D01*
X335930Y368035D01*
X335816Y368073D01*
X333163Y362436D02*
X333243Y362356D01*
X333325Y362278D01*
X333409Y362204D01*
X333497Y362132D01*
X333587Y362064D01*
X333679Y361998D01*
X333773Y361936D01*
X333869Y361878D01*
X333968Y361823D01*
X334068Y361771D01*
X334170Y361723D01*
X334274Y361678D01*
X334379Y361638D01*
X334486Y361601D01*
X334594Y361567D01*
X334703Y361538D01*
X334813Y361512D01*
X334924Y361491D01*
X335035Y361473D01*
X335147Y361459D01*
X335259Y361449D01*
X335372Y361443D01*
X335485Y361441D01*
X333163Y362437D02*
X326531Y368074D01*
X326531Y361442D01*
D16*
X181766Y499720D02*
X181766Y535280D01*
X181766Y499720D02*
X116234Y499720D01*
X116234Y535280D01*
X181766Y535280D01*
D10*
X161692Y474828D02*
X159716Y474828D01*
X161692Y474828D02*
X161779Y474830D01*
X161867Y474836D01*
X161954Y474845D01*
X162040Y474859D01*
X162126Y474876D01*
X162210Y474897D01*
X162294Y474922D01*
X162377Y474951D01*
X162458Y474983D01*
X162538Y475018D01*
X162616Y475057D01*
X162693Y475100D01*
X162767Y475146D01*
X162839Y475195D01*
X162909Y475247D01*
X162977Y475303D01*
X163042Y475361D01*
X163105Y475422D01*
X163164Y475486D01*
X163221Y475553D01*
X163275Y475621D01*
X163326Y475693D01*
X163373Y475766D01*
X163418Y475841D01*
X163459Y475919D01*
X163496Y475998D01*
X163530Y476078D01*
X163560Y476160D01*
X163587Y476243D01*
X163610Y476328D01*
X163629Y476413D01*
X163644Y476499D01*
X163656Y476586D01*
X163664Y476673D01*
X163668Y476760D01*
X163668Y476848D01*
X163664Y476935D01*
X163656Y477022D01*
X163644Y477109D01*
X163629Y477195D01*
X163610Y477280D01*
X163587Y477365D01*
X163560Y477448D01*
X163530Y477530D01*
X163496Y477610D01*
X163459Y477689D01*
X163418Y477767D01*
X163373Y477842D01*
X163326Y477915D01*
X163275Y477987D01*
X163221Y478055D01*
X163164Y478122D01*
X163105Y478186D01*
X163042Y478247D01*
X162977Y478305D01*
X162909Y478361D01*
X162839Y478413D01*
X162767Y478462D01*
X162693Y478508D01*
X162616Y478551D01*
X162538Y478590D01*
X162458Y478625D01*
X162377Y478657D01*
X162294Y478686D01*
X162210Y478711D01*
X162126Y478732D01*
X162040Y478749D01*
X161954Y478763D01*
X161867Y478772D01*
X161779Y478778D01*
X161692Y478780D01*
X162087Y481940D02*
X159716Y481940D01*
X162087Y481940D02*
X162166Y481938D01*
X162244Y481932D01*
X162322Y481922D01*
X162400Y481909D01*
X162477Y481891D01*
X162553Y481870D01*
X162627Y481845D01*
X162701Y481816D01*
X162773Y481784D01*
X162843Y481748D01*
X162911Y481708D01*
X162977Y481665D01*
X163041Y481619D01*
X163103Y481570D01*
X163162Y481518D01*
X163218Y481463D01*
X163272Y481405D01*
X163322Y481345D01*
X163370Y481282D01*
X163414Y481217D01*
X163455Y481150D01*
X163493Y481081D01*
X163527Y481010D01*
X163558Y480937D01*
X163585Y480863D01*
X163608Y480788D01*
X163627Y480712D01*
X163643Y480634D01*
X163655Y480556D01*
X163663Y480478D01*
X163667Y480399D01*
X163667Y480321D01*
X163663Y480242D01*
X163655Y480164D01*
X163643Y480086D01*
X163627Y480008D01*
X163608Y479932D01*
X163585Y479857D01*
X163558Y479783D01*
X163527Y479710D01*
X163493Y479639D01*
X163455Y479570D01*
X163414Y479503D01*
X163370Y479438D01*
X163322Y479375D01*
X163272Y479315D01*
X163218Y479257D01*
X163162Y479202D01*
X163103Y479150D01*
X163041Y479101D01*
X162977Y479055D01*
X162911Y479012D01*
X162843Y478972D01*
X162773Y478936D01*
X162701Y478904D01*
X162627Y478875D01*
X162553Y478850D01*
X162477Y478829D01*
X162400Y478811D01*
X162322Y478798D01*
X162244Y478788D01*
X162166Y478782D01*
X162087Y478780D01*
X162087Y478779D02*
X160506Y478779D01*
X168558Y544988D02*
X170138Y550520D01*
X168558Y544988D02*
X172509Y544988D01*
X171324Y546569D02*
X171324Y543408D01*
X116958Y481940D02*
X114982Y480360D01*
X116958Y481940D02*
X116958Y474828D01*
X118933Y474828D02*
X114982Y474828D01*
X138775Y481846D02*
X138857Y481844D01*
X138939Y481838D01*
X139021Y481829D01*
X139102Y481816D01*
X139182Y481799D01*
X139262Y481778D01*
X139340Y481754D01*
X139417Y481726D01*
X139493Y481695D01*
X139568Y481660D01*
X139640Y481621D01*
X139711Y481580D01*
X139780Y481535D01*
X139846Y481487D01*
X139911Y481436D01*
X139973Y481382D01*
X140032Y481325D01*
X140089Y481266D01*
X140143Y481204D01*
X140194Y481139D01*
X140242Y481073D01*
X140287Y481004D01*
X140328Y480933D01*
X140367Y480861D01*
X140402Y480786D01*
X140433Y480710D01*
X140461Y480633D01*
X140485Y480555D01*
X140506Y480475D01*
X140523Y480395D01*
X140536Y480314D01*
X140545Y480232D01*
X140551Y480150D01*
X140553Y480068D01*
X138775Y481846D02*
X138682Y481844D01*
X138590Y481838D01*
X138498Y481829D01*
X138406Y481816D01*
X138315Y481799D01*
X138225Y481779D01*
X138135Y481755D01*
X138047Y481727D01*
X137959Y481695D01*
X137874Y481661D01*
X137789Y481622D01*
X137707Y481581D01*
X137626Y481536D01*
X137546Y481487D01*
X137469Y481436D01*
X137394Y481382D01*
X137322Y481324D01*
X137252Y481264D01*
X137184Y481200D01*
X137119Y481135D01*
X137056Y481066D01*
X136997Y480995D01*
X136940Y480922D01*
X136886Y480846D01*
X136836Y480769D01*
X136788Y480689D01*
X136744Y480608D01*
X136704Y480524D01*
X136666Y480440D01*
X136632Y480353D01*
X136602Y480266D01*
X139960Y478685D02*
X140021Y478746D01*
X140079Y478809D01*
X140134Y478875D01*
X140187Y478943D01*
X140236Y479014D01*
X140281Y479086D01*
X140324Y479161D01*
X140363Y479237D01*
X140399Y479316D01*
X140431Y479395D01*
X140459Y479476D01*
X140484Y479559D01*
X140505Y479642D01*
X140522Y479726D01*
X140536Y479811D01*
X140545Y479896D01*
X140551Y479982D01*
X140553Y480068D01*
X139960Y478685D02*
X136602Y474734D01*
X140553Y474734D01*
X124108Y521762D02*
X124108Y530200D01*
X124108Y521762D02*
X124110Y521649D01*
X124116Y521536D01*
X124126Y521423D01*
X124140Y521310D01*
X124157Y521198D01*
X124179Y521087D01*
X124204Y520977D01*
X124234Y520867D01*
X124267Y520759D01*
X124304Y520652D01*
X124344Y520546D01*
X124389Y520442D01*
X124437Y520339D01*
X124488Y520238D01*
X124543Y520139D01*
X124601Y520042D01*
X124663Y519947D01*
X124728Y519854D01*
X124796Y519764D01*
X124867Y519676D01*
X124942Y519590D01*
X125019Y519507D01*
X125099Y519427D01*
X125182Y519350D01*
X125268Y519275D01*
X125356Y519204D01*
X125446Y519136D01*
X125539Y519071D01*
X125634Y519009D01*
X125731Y518951D01*
X125830Y518896D01*
X125931Y518845D01*
X126034Y518797D01*
X126138Y518752D01*
X126244Y518712D01*
X126351Y518675D01*
X126459Y518642D01*
X126569Y518612D01*
X126679Y518587D01*
X126790Y518565D01*
X126902Y518548D01*
X127015Y518534D01*
X127128Y518524D01*
X127241Y518518D01*
X127354Y518516D01*
X127467Y518518D01*
X127580Y518524D01*
X127693Y518534D01*
X127806Y518548D01*
X127918Y518565D01*
X128029Y518587D01*
X128139Y518612D01*
X128249Y518642D01*
X128357Y518675D01*
X128464Y518712D01*
X128570Y518752D01*
X128674Y518797D01*
X128777Y518845D01*
X128878Y518896D01*
X128977Y518951D01*
X129074Y519009D01*
X129169Y519071D01*
X129262Y519136D01*
X129352Y519204D01*
X129440Y519275D01*
X129526Y519350D01*
X129609Y519427D01*
X129689Y519507D01*
X129766Y519590D01*
X129841Y519676D01*
X129912Y519764D01*
X129980Y519854D01*
X130045Y519947D01*
X130107Y520042D01*
X130165Y520139D01*
X130220Y520238D01*
X130271Y520339D01*
X130319Y520442D01*
X130364Y520546D01*
X130404Y520652D01*
X130441Y520759D01*
X130474Y520867D01*
X130504Y520977D01*
X130529Y521087D01*
X130551Y521198D01*
X130568Y521310D01*
X130582Y521423D01*
X130592Y521536D01*
X130598Y521649D01*
X130600Y521762D01*
X130599Y521762D02*
X130599Y530200D01*
X135919Y518516D02*
X139165Y518516D01*
X139278Y518518D01*
X139391Y518524D01*
X139504Y518534D01*
X139617Y518548D01*
X139729Y518565D01*
X139840Y518587D01*
X139950Y518612D01*
X140060Y518642D01*
X140168Y518675D01*
X140275Y518712D01*
X140381Y518752D01*
X140485Y518797D01*
X140588Y518845D01*
X140689Y518896D01*
X140788Y518951D01*
X140885Y519009D01*
X140980Y519071D01*
X141073Y519136D01*
X141163Y519204D01*
X141251Y519275D01*
X141337Y519350D01*
X141420Y519427D01*
X141500Y519507D01*
X141577Y519590D01*
X141652Y519676D01*
X141723Y519764D01*
X141791Y519854D01*
X141856Y519947D01*
X141918Y520042D01*
X141976Y520139D01*
X142031Y520238D01*
X142082Y520339D01*
X142130Y520442D01*
X142175Y520546D01*
X142215Y520652D01*
X142252Y520759D01*
X142285Y520867D01*
X142315Y520977D01*
X142340Y521087D01*
X142362Y521198D01*
X142379Y521310D01*
X142393Y521423D01*
X142403Y521536D01*
X142409Y521649D01*
X142411Y521762D01*
X142409Y521875D01*
X142403Y521988D01*
X142393Y522101D01*
X142379Y522214D01*
X142362Y522326D01*
X142340Y522437D01*
X142315Y522547D01*
X142285Y522657D01*
X142252Y522765D01*
X142215Y522872D01*
X142175Y522978D01*
X142130Y523082D01*
X142082Y523185D01*
X142031Y523286D01*
X141976Y523385D01*
X141918Y523482D01*
X141856Y523577D01*
X141791Y523670D01*
X141723Y523760D01*
X141652Y523848D01*
X141577Y523934D01*
X141500Y524017D01*
X141420Y524097D01*
X141337Y524174D01*
X141251Y524249D01*
X141163Y524320D01*
X141073Y524388D01*
X140980Y524453D01*
X140885Y524515D01*
X140788Y524573D01*
X140689Y524628D01*
X140588Y524679D01*
X140485Y524727D01*
X140381Y524772D01*
X140275Y524812D01*
X140168Y524849D01*
X140060Y524882D01*
X139950Y524912D01*
X139840Y524937D01*
X139729Y524959D01*
X139617Y524976D01*
X139504Y524990D01*
X139391Y525000D01*
X139278Y525006D01*
X139165Y525008D01*
X139814Y530200D02*
X135919Y530200D01*
X139814Y530200D02*
X139915Y530198D01*
X140015Y530192D01*
X140115Y530182D01*
X140215Y530169D01*
X140314Y530151D01*
X140413Y530130D01*
X140510Y530105D01*
X140607Y530076D01*
X140702Y530043D01*
X140796Y530007D01*
X140888Y529967D01*
X140979Y529924D01*
X141068Y529877D01*
X141155Y529827D01*
X141241Y529773D01*
X141324Y529716D01*
X141404Y529656D01*
X141483Y529593D01*
X141559Y529526D01*
X141632Y529457D01*
X141702Y529385D01*
X141770Y529311D01*
X141835Y529234D01*
X141896Y529154D01*
X141955Y529072D01*
X142010Y528988D01*
X142062Y528902D01*
X142111Y528814D01*
X142156Y528724D01*
X142198Y528632D01*
X142236Y528539D01*
X142270Y528444D01*
X142301Y528349D01*
X142328Y528252D01*
X142351Y528154D01*
X142371Y528055D01*
X142386Y527955D01*
X142398Y527855D01*
X142406Y527755D01*
X142410Y527654D01*
X142410Y527554D01*
X142406Y527453D01*
X142398Y527353D01*
X142386Y527253D01*
X142371Y527153D01*
X142351Y527054D01*
X142328Y526956D01*
X142301Y526859D01*
X142270Y526764D01*
X142236Y526669D01*
X142198Y526576D01*
X142156Y526484D01*
X142111Y526394D01*
X142062Y526306D01*
X142010Y526220D01*
X141955Y526136D01*
X141896Y526054D01*
X141835Y525974D01*
X141770Y525897D01*
X141702Y525823D01*
X141632Y525751D01*
X141559Y525682D01*
X141483Y525615D01*
X141404Y525552D01*
X141324Y525492D01*
X141241Y525435D01*
X141155Y525381D01*
X141068Y525331D01*
X140979Y525284D01*
X140888Y525241D01*
X140796Y525201D01*
X140702Y525165D01*
X140607Y525132D01*
X140510Y525103D01*
X140413Y525078D01*
X140314Y525057D01*
X140215Y525039D01*
X140115Y525026D01*
X140015Y525016D01*
X139915Y525010D01*
X139814Y525008D01*
X139814Y525007D02*
X137217Y525007D01*
D14*
X188180Y574980D02*
X188180Y583100D01*
X193760Y583100D01*
X211040Y583100D02*
X216620Y583100D01*
X216620Y574980D01*
D10*
X183858Y599304D02*
X183858Y607742D01*
X183858Y599304D02*
X183860Y599191D01*
X183866Y599078D01*
X183876Y598965D01*
X183890Y598852D01*
X183907Y598740D01*
X183929Y598629D01*
X183954Y598519D01*
X183984Y598409D01*
X184017Y598301D01*
X184054Y598194D01*
X184094Y598088D01*
X184139Y597984D01*
X184187Y597881D01*
X184238Y597780D01*
X184293Y597681D01*
X184351Y597584D01*
X184413Y597489D01*
X184478Y597396D01*
X184546Y597306D01*
X184617Y597218D01*
X184692Y597132D01*
X184769Y597049D01*
X184849Y596969D01*
X184932Y596892D01*
X185018Y596817D01*
X185106Y596746D01*
X185196Y596678D01*
X185289Y596613D01*
X185384Y596551D01*
X185481Y596493D01*
X185580Y596438D01*
X185681Y596387D01*
X185784Y596339D01*
X185888Y596294D01*
X185994Y596254D01*
X186101Y596217D01*
X186209Y596184D01*
X186319Y596154D01*
X186429Y596129D01*
X186540Y596107D01*
X186652Y596090D01*
X186765Y596076D01*
X186878Y596066D01*
X186991Y596060D01*
X187104Y596058D01*
X187217Y596060D01*
X187330Y596066D01*
X187443Y596076D01*
X187556Y596090D01*
X187668Y596107D01*
X187779Y596129D01*
X187889Y596154D01*
X187999Y596184D01*
X188107Y596217D01*
X188214Y596254D01*
X188320Y596294D01*
X188424Y596339D01*
X188527Y596387D01*
X188628Y596438D01*
X188727Y596493D01*
X188824Y596551D01*
X188919Y596613D01*
X189012Y596678D01*
X189102Y596746D01*
X189190Y596817D01*
X189276Y596892D01*
X189359Y596969D01*
X189439Y597049D01*
X189516Y597132D01*
X189591Y597218D01*
X189662Y597306D01*
X189730Y597396D01*
X189795Y597489D01*
X189857Y597584D01*
X189915Y597681D01*
X189970Y597780D01*
X190021Y597881D01*
X190069Y597984D01*
X190114Y598088D01*
X190154Y598194D01*
X190191Y598301D01*
X190224Y598409D01*
X190254Y598519D01*
X190279Y598629D01*
X190301Y598740D01*
X190318Y598852D01*
X190332Y598965D01*
X190342Y599078D01*
X190348Y599191D01*
X190350Y599304D01*
X190349Y599304D02*
X190349Y607742D01*
X198265Y607742D02*
X195669Y598654D01*
X202160Y598654D01*
X200213Y601251D02*
X200213Y596058D01*
D14*
X136100Y778510D02*
X34500Y778510D01*
X34500Y720090D02*
X136100Y720090D01*
X136100Y778510D01*
X34500Y778510D02*
X34500Y759460D01*
X34500Y739140D02*
X34500Y720090D01*
X34500Y739140D02*
X34747Y739143D01*
X34995Y739152D01*
X35242Y739167D01*
X35488Y739188D01*
X35734Y739215D01*
X35979Y739248D01*
X36224Y739287D01*
X36467Y739332D01*
X36709Y739383D01*
X36950Y739440D01*
X37189Y739502D01*
X37427Y739571D01*
X37663Y739645D01*
X37897Y739725D01*
X38129Y739810D01*
X38359Y739902D01*
X38587Y739998D01*
X38812Y740101D01*
X39035Y740208D01*
X39255Y740322D01*
X39472Y740440D01*
X39687Y740564D01*
X39898Y740693D01*
X40106Y740827D01*
X40311Y740966D01*
X40512Y741110D01*
X40710Y741258D01*
X40904Y741412D01*
X41094Y741570D01*
X41280Y741733D01*
X41462Y741900D01*
X41640Y742072D01*
X41814Y742248D01*
X41984Y742428D01*
X42149Y742613D01*
X42309Y742801D01*
X42465Y742993D01*
X42617Y743189D01*
X42763Y743388D01*
X42905Y743591D01*
X43041Y743798D01*
X43173Y744007D01*
X43299Y744220D01*
X43420Y744436D01*
X43536Y744654D01*
X43646Y744876D01*
X43751Y745100D01*
X43851Y745326D01*
X43945Y745555D01*
X44033Y745786D01*
X44116Y746020D01*
X44193Y746255D01*
X44264Y746492D01*
X44330Y746730D01*
X44389Y746970D01*
X44443Y747212D01*
X44491Y747455D01*
X44533Y747698D01*
X44569Y747943D01*
X44599Y748189D01*
X44623Y748435D01*
X44641Y748682D01*
X44653Y748929D01*
X44659Y749176D01*
X44659Y749424D01*
X44653Y749671D01*
X44641Y749918D01*
X44623Y750165D01*
X44599Y750411D01*
X44569Y750657D01*
X44533Y750902D01*
X44491Y751145D01*
X44443Y751388D01*
X44389Y751630D01*
X44330Y751870D01*
X44264Y752108D01*
X44193Y752345D01*
X44116Y752580D01*
X44033Y752814D01*
X43945Y753045D01*
X43851Y753274D01*
X43751Y753500D01*
X43646Y753724D01*
X43536Y753946D01*
X43420Y754164D01*
X43299Y754380D01*
X43173Y754593D01*
X43041Y754802D01*
X42905Y755009D01*
X42763Y755212D01*
X42617Y755411D01*
X42465Y755607D01*
X42309Y755799D01*
X42149Y755987D01*
X41984Y756172D01*
X41814Y756352D01*
X41640Y756528D01*
X41462Y756700D01*
X41280Y756867D01*
X41094Y757030D01*
X40904Y757188D01*
X40710Y757342D01*
X40512Y757490D01*
X40311Y757634D01*
X40106Y757773D01*
X39898Y757907D01*
X39687Y758036D01*
X39472Y758160D01*
X39255Y758278D01*
X39035Y758392D01*
X38812Y758499D01*
X38587Y758602D01*
X38359Y758698D01*
X38129Y758790D01*
X37897Y758875D01*
X37663Y758955D01*
X37427Y759029D01*
X37189Y759098D01*
X36950Y759160D01*
X36709Y759217D01*
X36467Y759268D01*
X36224Y759313D01*
X35979Y759352D01*
X35734Y759385D01*
X35488Y759412D01*
X35242Y759433D01*
X34995Y759448D01*
X34747Y759457D01*
X34500Y759460D01*
D12*
X28078Y720688D02*
X19812Y720688D01*
X28078Y720689D02*
X28189Y720691D01*
X28300Y720697D01*
X28410Y720706D01*
X28520Y720720D01*
X28630Y720737D01*
X28739Y720758D01*
X28847Y720783D01*
X28954Y720812D01*
X29060Y720845D01*
X29165Y720881D01*
X29269Y720920D01*
X29371Y720964D01*
X29472Y721011D01*
X29570Y721061D01*
X29667Y721115D01*
X29763Y721172D01*
X29856Y721232D01*
X29947Y721296D01*
X30035Y721363D01*
X30121Y721433D01*
X30205Y721506D01*
X30286Y721581D01*
X30365Y721660D01*
X30440Y721741D01*
X30513Y721825D01*
X30583Y721911D01*
X30650Y721999D01*
X30714Y722090D01*
X30774Y722183D01*
X30831Y722279D01*
X30885Y722376D01*
X30935Y722474D01*
X30982Y722575D01*
X31026Y722677D01*
X31065Y722781D01*
X31101Y722886D01*
X31134Y722992D01*
X31163Y723099D01*
X31188Y723207D01*
X31209Y723316D01*
X31226Y723426D01*
X31240Y723536D01*
X31249Y723646D01*
X31255Y723757D01*
X31257Y723868D01*
X31255Y723979D01*
X31249Y724090D01*
X31240Y724200D01*
X31226Y724310D01*
X31209Y724420D01*
X31188Y724529D01*
X31163Y724637D01*
X31134Y724744D01*
X31101Y724850D01*
X31065Y724955D01*
X31026Y725059D01*
X30982Y725161D01*
X30935Y725262D01*
X30885Y725360D01*
X30831Y725457D01*
X30774Y725553D01*
X30714Y725646D01*
X30650Y725737D01*
X30583Y725825D01*
X30513Y725911D01*
X30440Y725995D01*
X30365Y726076D01*
X30286Y726155D01*
X30205Y726230D01*
X30121Y726303D01*
X30035Y726373D01*
X29947Y726440D01*
X29856Y726504D01*
X29763Y726564D01*
X29668Y726621D01*
X29570Y726675D01*
X29472Y726725D01*
X29371Y726772D01*
X29269Y726816D01*
X29165Y726855D01*
X29060Y726891D01*
X28954Y726924D01*
X28847Y726953D01*
X28739Y726978D01*
X28630Y726999D01*
X28520Y727016D01*
X28410Y727030D01*
X28300Y727039D01*
X28189Y727045D01*
X28078Y727047D01*
X19812Y727047D01*
X24899Y732514D02*
X24899Y736329D01*
X24901Y736429D01*
X24907Y736529D01*
X24917Y736628D01*
X24930Y736727D01*
X24948Y736825D01*
X24969Y736923D01*
X24995Y737020D01*
X25024Y737115D01*
X25056Y737210D01*
X25093Y737303D01*
X25133Y737394D01*
X25176Y737484D01*
X25223Y737572D01*
X25274Y737658D01*
X25328Y737742D01*
X25385Y737824D01*
X25445Y737904D01*
X25509Y737981D01*
X25575Y738056D01*
X25644Y738128D01*
X25716Y738197D01*
X25791Y738263D01*
X25868Y738327D01*
X25948Y738387D01*
X26030Y738444D01*
X26114Y738498D01*
X26200Y738549D01*
X26288Y738596D01*
X26378Y738639D01*
X26469Y738679D01*
X26562Y738716D01*
X26657Y738748D01*
X26752Y738777D01*
X26849Y738803D01*
X26947Y738824D01*
X27045Y738842D01*
X27144Y738855D01*
X27243Y738865D01*
X27343Y738871D01*
X27443Y738873D01*
X28078Y738873D01*
X28189Y738871D01*
X28300Y738865D01*
X28410Y738856D01*
X28520Y738842D01*
X28630Y738825D01*
X28739Y738804D01*
X28847Y738779D01*
X28954Y738750D01*
X29060Y738717D01*
X29165Y738681D01*
X29269Y738642D01*
X29371Y738598D01*
X29472Y738551D01*
X29570Y738501D01*
X29668Y738447D01*
X29763Y738390D01*
X29856Y738330D01*
X29947Y738266D01*
X30035Y738199D01*
X30121Y738129D01*
X30205Y738056D01*
X30286Y737981D01*
X30365Y737902D01*
X30440Y737821D01*
X30513Y737737D01*
X30583Y737651D01*
X30650Y737563D01*
X30714Y737472D01*
X30774Y737379D01*
X30831Y737283D01*
X30885Y737186D01*
X30935Y737088D01*
X30982Y736987D01*
X31026Y736885D01*
X31065Y736781D01*
X31101Y736676D01*
X31134Y736570D01*
X31163Y736463D01*
X31188Y736355D01*
X31209Y736246D01*
X31226Y736136D01*
X31240Y736026D01*
X31249Y735916D01*
X31255Y735805D01*
X31257Y735694D01*
X31255Y735583D01*
X31249Y735472D01*
X31240Y735362D01*
X31226Y735252D01*
X31209Y735142D01*
X31188Y735033D01*
X31163Y734925D01*
X31134Y734818D01*
X31101Y734712D01*
X31065Y734607D01*
X31026Y734503D01*
X30982Y734401D01*
X30935Y734300D01*
X30885Y734202D01*
X30831Y734105D01*
X30774Y734009D01*
X30714Y733916D01*
X30650Y733825D01*
X30583Y733737D01*
X30513Y733651D01*
X30440Y733567D01*
X30365Y733486D01*
X30286Y733407D01*
X30205Y733332D01*
X30121Y733259D01*
X30035Y733189D01*
X29947Y733122D01*
X29856Y733058D01*
X29763Y732998D01*
X29667Y732941D01*
X29570Y732887D01*
X29472Y732837D01*
X29371Y732790D01*
X29269Y732746D01*
X29165Y732707D01*
X29060Y732671D01*
X28954Y732638D01*
X28847Y732609D01*
X28739Y732584D01*
X28630Y732563D01*
X28520Y732546D01*
X28410Y732532D01*
X28300Y732523D01*
X28189Y732517D01*
X28078Y732515D01*
X28078Y732514D02*
X24899Y732514D01*
X24759Y732516D01*
X24619Y732522D01*
X24479Y732531D01*
X24339Y732545D01*
X24200Y732562D01*
X24062Y732583D01*
X23924Y732608D01*
X23787Y732637D01*
X23650Y732670D01*
X23515Y732706D01*
X23380Y732746D01*
X23247Y732790D01*
X23115Y732837D01*
X22985Y732888D01*
X22856Y732942D01*
X22728Y733001D01*
X22602Y733062D01*
X22478Y733127D01*
X22356Y733196D01*
X22235Y733267D01*
X22117Y733342D01*
X22000Y733421D01*
X21886Y733502D01*
X21775Y733587D01*
X21665Y733674D01*
X21558Y733765D01*
X21454Y733858D01*
X21352Y733955D01*
X21253Y734054D01*
X21156Y734156D01*
X21063Y734260D01*
X20972Y734367D01*
X20885Y734476D01*
X20800Y734588D01*
X20719Y734702D01*
X20640Y734819D01*
X20565Y734937D01*
X20494Y735057D01*
X20425Y735180D01*
X20360Y735304D01*
X20299Y735430D01*
X20240Y735558D01*
X20186Y735687D01*
X20135Y735817D01*
X20088Y735949D01*
X20044Y736082D01*
X20004Y736217D01*
X19968Y736352D01*
X19935Y736489D01*
X19906Y736626D01*
X19881Y736764D01*
X19860Y736902D01*
X19843Y737041D01*
X19829Y737181D01*
X19820Y737321D01*
X19814Y737461D01*
X19812Y737601D01*
X155050Y88000D02*
X358250Y88000D01*
X358250Y164200D01*
X155050Y164200D01*
X155050Y88000D01*
D10*
X146458Y175054D02*
X146458Y183492D01*
X146458Y175054D02*
X146460Y174941D01*
X146466Y174828D01*
X146476Y174715D01*
X146490Y174602D01*
X146507Y174490D01*
X146529Y174379D01*
X146554Y174269D01*
X146584Y174159D01*
X146617Y174051D01*
X146654Y173944D01*
X146694Y173838D01*
X146739Y173734D01*
X146787Y173631D01*
X146838Y173530D01*
X146893Y173431D01*
X146951Y173334D01*
X147013Y173239D01*
X147078Y173146D01*
X147146Y173056D01*
X147217Y172968D01*
X147292Y172882D01*
X147369Y172799D01*
X147449Y172719D01*
X147532Y172642D01*
X147618Y172567D01*
X147706Y172496D01*
X147796Y172428D01*
X147889Y172363D01*
X147984Y172301D01*
X148081Y172243D01*
X148180Y172188D01*
X148281Y172137D01*
X148384Y172089D01*
X148488Y172044D01*
X148594Y172004D01*
X148701Y171967D01*
X148809Y171934D01*
X148919Y171904D01*
X149029Y171879D01*
X149140Y171857D01*
X149252Y171840D01*
X149365Y171826D01*
X149478Y171816D01*
X149591Y171810D01*
X149704Y171808D01*
X149817Y171810D01*
X149930Y171816D01*
X150043Y171826D01*
X150156Y171840D01*
X150268Y171857D01*
X150379Y171879D01*
X150489Y171904D01*
X150599Y171934D01*
X150707Y171967D01*
X150814Y172004D01*
X150920Y172044D01*
X151024Y172089D01*
X151127Y172137D01*
X151228Y172188D01*
X151327Y172243D01*
X151424Y172301D01*
X151519Y172363D01*
X151612Y172428D01*
X151702Y172496D01*
X151790Y172567D01*
X151876Y172642D01*
X151959Y172719D01*
X152039Y172799D01*
X152116Y172882D01*
X152191Y172968D01*
X152262Y173056D01*
X152330Y173146D01*
X152395Y173239D01*
X152457Y173334D01*
X152515Y173431D01*
X152570Y173530D01*
X152621Y173631D01*
X152669Y173734D01*
X152714Y173838D01*
X152754Y173944D01*
X152791Y174051D01*
X152824Y174159D01*
X152854Y174269D01*
X152879Y174379D01*
X152901Y174490D01*
X152918Y174602D01*
X152932Y174715D01*
X152942Y174828D01*
X152948Y174941D01*
X152950Y175054D01*
X152949Y175054D02*
X152949Y183492D01*
X160753Y183492D02*
X160753Y171808D01*
X160753Y177650D02*
X159130Y178624D01*
X159129Y178623D02*
X159056Y178670D01*
X158985Y178719D01*
X158915Y178772D01*
X158849Y178828D01*
X158785Y178887D01*
X158723Y178948D01*
X158665Y179012D01*
X158609Y179079D01*
X158557Y179148D01*
X158507Y179220D01*
X158461Y179294D01*
X158418Y179369D01*
X158379Y179447D01*
X158343Y179526D01*
X158311Y179607D01*
X158282Y179689D01*
X158257Y179772D01*
X158236Y179856D01*
X158219Y179941D01*
X158205Y180027D01*
X158196Y180113D01*
X158190Y180200D01*
X158188Y180287D01*
X158190Y180374D01*
X158196Y180461D01*
X158206Y180547D01*
X158219Y180633D01*
X158237Y180718D01*
X158258Y180802D01*
X158283Y180885D01*
X158312Y180968D01*
X158344Y181048D01*
X158380Y181127D01*
X158419Y181205D01*
X158462Y181280D01*
X158509Y181354D01*
X158558Y181425D01*
X158611Y181495D01*
X158666Y181561D01*
X158725Y181625D01*
X158786Y181687D01*
X158851Y181746D01*
X158917Y181801D01*
X158986Y181854D01*
X159058Y181904D01*
X159131Y181950D01*
X159207Y181993D01*
X159284Y182032D01*
X159363Y182068D01*
X159444Y182101D01*
X159526Y182129D01*
X159609Y182155D01*
X159693Y182176D01*
X159779Y182193D01*
X159779Y182194D02*
X159919Y182218D01*
X160061Y182238D01*
X160202Y182254D01*
X160344Y182265D01*
X160487Y182273D01*
X160629Y182277D01*
X160772Y182278D01*
X160915Y182274D01*
X161057Y182266D01*
X161199Y182254D01*
X161341Y182238D01*
X161482Y182219D01*
X161623Y182195D01*
X161763Y182168D01*
X161902Y182136D01*
X162040Y182101D01*
X162178Y182062D01*
X162314Y182019D01*
X162448Y181973D01*
X162582Y181922D01*
X162714Y181869D01*
X162844Y181811D01*
X162973Y181750D01*
X163100Y181685D01*
X163226Y181617D01*
X163349Y181545D01*
X160753Y177650D02*
X162375Y176676D01*
X162376Y176677D02*
X162449Y176630D01*
X162520Y176581D01*
X162590Y176528D01*
X162656Y176472D01*
X162720Y176413D01*
X162782Y176352D01*
X162840Y176288D01*
X162896Y176221D01*
X162948Y176152D01*
X162998Y176080D01*
X163044Y176006D01*
X163087Y175931D01*
X163126Y175853D01*
X163162Y175774D01*
X163194Y175693D01*
X163223Y175611D01*
X163248Y175528D01*
X163269Y175444D01*
X163286Y175359D01*
X163300Y175273D01*
X163309Y175187D01*
X163315Y175100D01*
X163317Y175013D01*
X163315Y174926D01*
X163309Y174839D01*
X163299Y174753D01*
X163286Y174667D01*
X163268Y174582D01*
X163247Y174498D01*
X163222Y174415D01*
X163193Y174332D01*
X163161Y174252D01*
X163125Y174173D01*
X163086Y174095D01*
X163043Y174020D01*
X162996Y173946D01*
X162947Y173875D01*
X162894Y173805D01*
X162839Y173739D01*
X162780Y173675D01*
X162719Y173613D01*
X162654Y173554D01*
X162588Y173499D01*
X162519Y173446D01*
X162447Y173396D01*
X162374Y173350D01*
X162298Y173307D01*
X162221Y173268D01*
X162142Y173232D01*
X162061Y173199D01*
X161979Y173171D01*
X161896Y173145D01*
X161812Y173124D01*
X161727Y173107D01*
X161726Y173106D02*
X161586Y173082D01*
X161444Y173062D01*
X161303Y173046D01*
X161161Y173035D01*
X161018Y173027D01*
X160876Y173023D01*
X160733Y173022D01*
X160590Y173026D01*
X160448Y173034D01*
X160306Y173046D01*
X160164Y173062D01*
X160023Y173081D01*
X159882Y173105D01*
X159742Y173132D01*
X159603Y173164D01*
X159465Y173199D01*
X159327Y173238D01*
X159191Y173281D01*
X159057Y173327D01*
X158923Y173378D01*
X158791Y173431D01*
X158661Y173489D01*
X158532Y173550D01*
X158405Y173615D01*
X158279Y173683D01*
X158156Y173755D01*
X168175Y174404D02*
X170771Y183492D01*
X168175Y174404D02*
X174666Y174404D01*
X172719Y177001D02*
X172719Y171808D01*
X74642Y341908D02*
X62958Y341908D01*
X62958Y345154D01*
X62960Y345267D01*
X62966Y345380D01*
X62976Y345493D01*
X62990Y345606D01*
X63007Y345718D01*
X63029Y345829D01*
X63054Y345939D01*
X63084Y346049D01*
X63117Y346157D01*
X63154Y346264D01*
X63194Y346370D01*
X63239Y346474D01*
X63287Y346577D01*
X63338Y346678D01*
X63393Y346777D01*
X63451Y346874D01*
X63513Y346969D01*
X63578Y347062D01*
X63646Y347152D01*
X63717Y347240D01*
X63792Y347326D01*
X63869Y347409D01*
X63949Y347489D01*
X64032Y347566D01*
X64118Y347641D01*
X64206Y347712D01*
X64296Y347780D01*
X64389Y347845D01*
X64484Y347907D01*
X64581Y347965D01*
X64680Y348020D01*
X64781Y348071D01*
X64884Y348119D01*
X64988Y348164D01*
X65094Y348204D01*
X65201Y348241D01*
X65309Y348274D01*
X65419Y348304D01*
X65529Y348329D01*
X65640Y348351D01*
X65752Y348368D01*
X65865Y348382D01*
X65978Y348392D01*
X66091Y348398D01*
X66204Y348400D01*
X66317Y348398D01*
X66430Y348392D01*
X66543Y348382D01*
X66656Y348368D01*
X66768Y348351D01*
X66879Y348329D01*
X66989Y348304D01*
X67099Y348274D01*
X67207Y348241D01*
X67314Y348204D01*
X67420Y348164D01*
X67524Y348119D01*
X67627Y348071D01*
X67728Y348020D01*
X67827Y347965D01*
X67924Y347907D01*
X68019Y347845D01*
X68112Y347780D01*
X68202Y347712D01*
X68290Y347641D01*
X68376Y347566D01*
X68459Y347489D01*
X68539Y347409D01*
X68616Y347326D01*
X68691Y347240D01*
X68762Y347152D01*
X68830Y347062D01*
X68895Y346969D01*
X68957Y346874D01*
X69015Y346777D01*
X69070Y346678D01*
X69121Y346577D01*
X69169Y346474D01*
X69214Y346370D01*
X69254Y346264D01*
X69291Y346157D01*
X69324Y346049D01*
X69354Y345939D01*
X69379Y345829D01*
X69401Y345718D01*
X69418Y345606D01*
X69432Y345493D01*
X69442Y345380D01*
X69448Y345267D01*
X69450Y345154D01*
X69449Y345154D02*
X69449Y341908D01*
X69449Y345803D02*
X74642Y348399D01*
X65554Y353264D02*
X62958Y356510D01*
X74642Y356510D01*
X74642Y359755D02*
X74642Y353264D01*
X65554Y364694D02*
X62958Y367940D01*
X74642Y367940D01*
X74642Y371185D02*
X74642Y364694D01*
X63915Y300792D02*
X63915Y289108D01*
X63915Y300792D02*
X67160Y300792D01*
X67273Y300790D01*
X67386Y300784D01*
X67499Y300774D01*
X67612Y300760D01*
X67724Y300743D01*
X67835Y300721D01*
X67945Y300696D01*
X68055Y300666D01*
X68163Y300633D01*
X68270Y300596D01*
X68376Y300556D01*
X68480Y300511D01*
X68583Y300463D01*
X68684Y300412D01*
X68783Y300357D01*
X68880Y300299D01*
X68975Y300237D01*
X69068Y300172D01*
X69158Y300104D01*
X69246Y300033D01*
X69332Y299958D01*
X69415Y299881D01*
X69495Y299801D01*
X69572Y299718D01*
X69647Y299632D01*
X69718Y299544D01*
X69786Y299454D01*
X69851Y299361D01*
X69913Y299266D01*
X69971Y299169D01*
X70026Y299070D01*
X70077Y298969D01*
X70125Y298866D01*
X70170Y298762D01*
X70210Y298656D01*
X70247Y298549D01*
X70280Y298441D01*
X70310Y298331D01*
X70335Y298221D01*
X70357Y298110D01*
X70374Y297998D01*
X70388Y297885D01*
X70398Y297772D01*
X70404Y297659D01*
X70406Y297546D01*
X70404Y297433D01*
X70398Y297320D01*
X70388Y297207D01*
X70374Y297094D01*
X70357Y296982D01*
X70335Y296871D01*
X70310Y296761D01*
X70280Y296651D01*
X70247Y296543D01*
X70210Y296436D01*
X70170Y296330D01*
X70125Y296226D01*
X70077Y296123D01*
X70026Y296022D01*
X69971Y295923D01*
X69913Y295826D01*
X69851Y295731D01*
X69786Y295638D01*
X69718Y295548D01*
X69647Y295460D01*
X69572Y295374D01*
X69495Y295291D01*
X69415Y295211D01*
X69332Y295134D01*
X69246Y295059D01*
X69158Y294988D01*
X69068Y294920D01*
X68975Y294855D01*
X68880Y294793D01*
X68783Y294735D01*
X68684Y294680D01*
X68583Y294629D01*
X68480Y294581D01*
X68376Y294536D01*
X68270Y294496D01*
X68163Y294459D01*
X68055Y294426D01*
X67945Y294396D01*
X67835Y294371D01*
X67724Y294349D01*
X67612Y294332D01*
X67499Y294318D01*
X67386Y294308D01*
X67273Y294302D01*
X67160Y294300D01*
X67160Y294301D02*
X63915Y294301D01*
X67809Y294301D02*
X70406Y289108D01*
X75271Y298196D02*
X78516Y300792D01*
X78516Y289108D01*
X75271Y289108D02*
X81762Y289108D01*
X86701Y295599D02*
X90596Y295599D01*
X90695Y295597D01*
X90795Y295591D01*
X90894Y295582D01*
X90992Y295569D01*
X91090Y295552D01*
X91188Y295531D01*
X91284Y295506D01*
X91379Y295478D01*
X91473Y295446D01*
X91566Y295411D01*
X91658Y295372D01*
X91748Y295329D01*
X91836Y295284D01*
X91923Y295234D01*
X92007Y295182D01*
X92090Y295126D01*
X92170Y295068D01*
X92248Y295006D01*
X92323Y294941D01*
X92396Y294873D01*
X92466Y294803D01*
X92534Y294730D01*
X92599Y294655D01*
X92661Y294577D01*
X92719Y294497D01*
X92775Y294414D01*
X92827Y294330D01*
X92877Y294243D01*
X92922Y294155D01*
X92965Y294065D01*
X93004Y293973D01*
X93039Y293880D01*
X93071Y293786D01*
X93099Y293691D01*
X93124Y293595D01*
X93145Y293497D01*
X93162Y293399D01*
X93175Y293301D01*
X93184Y293202D01*
X93190Y293102D01*
X93192Y293003D01*
X93192Y292354D01*
X93190Y292241D01*
X93184Y292128D01*
X93174Y292015D01*
X93160Y291902D01*
X93143Y291790D01*
X93121Y291679D01*
X93096Y291569D01*
X93066Y291459D01*
X93033Y291351D01*
X92996Y291244D01*
X92956Y291138D01*
X92911Y291034D01*
X92863Y290931D01*
X92812Y290830D01*
X92757Y290731D01*
X92699Y290634D01*
X92637Y290539D01*
X92572Y290446D01*
X92504Y290356D01*
X92433Y290268D01*
X92358Y290182D01*
X92281Y290099D01*
X92201Y290019D01*
X92118Y289942D01*
X92032Y289867D01*
X91944Y289796D01*
X91854Y289728D01*
X91761Y289663D01*
X91666Y289601D01*
X91569Y289543D01*
X91470Y289488D01*
X91369Y289437D01*
X91266Y289389D01*
X91162Y289344D01*
X91056Y289304D01*
X90949Y289267D01*
X90841Y289234D01*
X90731Y289204D01*
X90621Y289179D01*
X90510Y289157D01*
X90398Y289140D01*
X90285Y289126D01*
X90172Y289116D01*
X90059Y289110D01*
X89946Y289108D01*
X89833Y289110D01*
X89720Y289116D01*
X89607Y289126D01*
X89494Y289140D01*
X89382Y289157D01*
X89271Y289179D01*
X89161Y289204D01*
X89051Y289234D01*
X88943Y289267D01*
X88836Y289304D01*
X88730Y289344D01*
X88626Y289389D01*
X88523Y289437D01*
X88422Y289488D01*
X88323Y289543D01*
X88226Y289601D01*
X88131Y289663D01*
X88038Y289728D01*
X87948Y289796D01*
X87860Y289867D01*
X87774Y289942D01*
X87691Y290019D01*
X87611Y290099D01*
X87534Y290182D01*
X87459Y290268D01*
X87388Y290356D01*
X87320Y290446D01*
X87255Y290539D01*
X87193Y290634D01*
X87135Y290731D01*
X87080Y290830D01*
X87029Y290931D01*
X86981Y291034D01*
X86936Y291138D01*
X86896Y291244D01*
X86859Y291351D01*
X86826Y291459D01*
X86796Y291569D01*
X86771Y291679D01*
X86749Y291790D01*
X86732Y291902D01*
X86718Y292015D01*
X86708Y292128D01*
X86702Y292241D01*
X86700Y292354D01*
X86701Y292354D02*
X86701Y295599D01*
X86703Y295742D01*
X86709Y295885D01*
X86719Y296028D01*
X86733Y296170D01*
X86750Y296312D01*
X86772Y296454D01*
X86797Y296595D01*
X86827Y296735D01*
X86860Y296874D01*
X86897Y297012D01*
X86938Y297149D01*
X86982Y297285D01*
X87031Y297420D01*
X87083Y297553D01*
X87138Y297685D01*
X87198Y297815D01*
X87261Y297944D01*
X87327Y298071D01*
X87397Y298195D01*
X87470Y298318D01*
X87547Y298439D01*
X87627Y298558D01*
X87710Y298674D01*
X87796Y298789D01*
X87885Y298900D01*
X87978Y299010D01*
X88073Y299116D01*
X88172Y299220D01*
X88273Y299321D01*
X88377Y299420D01*
X88483Y299515D01*
X88593Y299608D01*
X88704Y299697D01*
X88819Y299783D01*
X88935Y299866D01*
X89054Y299946D01*
X89175Y300023D01*
X89297Y300096D01*
X89422Y300166D01*
X89549Y300232D01*
X89678Y300295D01*
X89808Y300355D01*
X89940Y300410D01*
X90073Y300462D01*
X90208Y300511D01*
X90344Y300555D01*
X90481Y300596D01*
X90619Y300633D01*
X90758Y300666D01*
X90898Y300696D01*
X91039Y300721D01*
X91181Y300743D01*
X91323Y300760D01*
X91465Y300774D01*
X91608Y300784D01*
X91751Y300790D01*
X91894Y300792D01*
D12*
X151500Y322750D02*
X253100Y322750D01*
X253100Y373550D01*
X151500Y373550D01*
X151500Y322750D01*
M02*
