G04 EAGLE Gerber RS-274X export*
G75*
%MOMM*%
%FSLAX34Y34*%
%LPD*%
%INSoldermask Top*%
%IPPOS*%
%AMOC8*
5,1,8,0,0,1.08239X$1,22.5*%
G01*
%ADD10R,1.103200X0.903200*%
%ADD11R,1.503200X1.703200*%
%ADD12R,0.903200X1.103200*%
%ADD13C,1.524000*%
%ADD14R,1.703200X1.103200*%
%ADD15R,1.879600X1.016000*%
%ADD16R,1.498600X1.498600*%
%ADD17R,1.905000X1.701800*%
%ADD18R,1.701800X1.905000*%
%ADD19R,1.701800X1.803400*%
%ADD20R,1.600200X1.498600*%
%ADD21C,1.727200*%
%ADD22R,1.803200X2.006200*%
%ADD23R,2.006200X1.803200*%
%ADD24R,1.303200X1.203200*%
%ADD25R,1.203200X1.303200*%
%ADD26P,1.649562X8X292.500000*%
%ADD27R,1.803200X2.503200*%
%ADD28R,2.503200X1.803200*%
%ADD29P,4.566820X8X112.500000*%
%ADD30C,3.403600*%
%ADD31C,1.841500*%
%ADD32C,1.701800*%
%ADD33R,0.403200X0.603200*%
%ADD34R,3.203200X0.553200*%
%ADD35C,0.668588*%
%ADD36R,4.203200X4.203200*%
%ADD37R,0.762000X2.184400*%
%ADD38R,1.422400X2.438400*%
%ADD39R,3.803200X2.403200*%
%ADD40R,1.203200X1.603200*%
%ADD41P,1.527469X8X22.500000*%
%ADD42P,1.419230X8X202.500000*%
%ADD43C,2.703200*%
%ADD44P,1.419230X8X22.500000*%
%ADD45C,1.109600*%
%ADD46C,0.959600*%


D10*
X106000Y356500D03*
X106000Y343500D03*
D11*
X102000Y823500D03*
X121000Y823500D03*
X50000Y683500D03*
X69000Y683500D03*
D10*
X191000Y493800D03*
X191000Y506800D03*
X85500Y689500D03*
X85500Y676500D03*
D12*
X136250Y460000D03*
X123250Y460000D03*
D13*
X383646Y133525D02*
X396854Y133525D01*
X396854Y114475D02*
X383646Y114475D01*
D10*
X56250Y356000D03*
X56250Y343000D03*
D12*
X195850Y543500D03*
X208850Y543500D03*
D14*
X33500Y518500D03*
X33500Y485500D03*
X82500Y518500D03*
X82500Y485500D03*
D15*
X251180Y570910D03*
X251180Y559910D03*
X251180Y548910D03*
X251180Y537910D03*
X251180Y526910D03*
X251180Y515910D03*
X251180Y504910D03*
X251180Y493910D03*
D16*
X266820Y591490D03*
D17*
X398793Y455394D03*
D18*
X250291Y458405D03*
D19*
X250291Y584911D03*
D17*
X398793Y590407D03*
D20*
X340820Y591490D03*
D21*
X52620Y553050D02*
X37380Y553050D01*
X37380Y578450D02*
X52620Y578450D01*
X52620Y603850D02*
X37380Y603850D01*
X37380Y629250D02*
X52620Y629250D01*
X52620Y654650D02*
X37380Y654650D01*
D22*
X217530Y389000D03*
X245970Y389000D03*
D23*
X125750Y671970D03*
X125750Y643530D03*
D24*
X126250Y602250D03*
X126250Y619250D03*
D23*
X162750Y227280D03*
X162750Y255720D03*
D25*
X177650Y305200D03*
X160650Y305200D03*
D26*
X137750Y190000D03*
X137750Y63000D03*
D23*
X201250Y227030D03*
X201250Y255470D03*
X228214Y227280D03*
X228214Y255720D03*
X255179Y227410D03*
X255179Y255850D03*
X282143Y227280D03*
X282143Y255720D03*
X309107Y227280D03*
X309107Y255720D03*
X336071Y227280D03*
X336071Y255720D03*
X363036Y227280D03*
X363036Y255720D03*
X390000Y227280D03*
X390000Y255720D03*
D27*
X92500Y615750D03*
X92500Y552750D03*
D28*
X111770Y272500D03*
X48770Y272500D03*
D29*
X93750Y89500D03*
X93750Y161500D03*
D30*
X33750Y58500D03*
X33750Y193500D03*
D31*
X56208Y236280D03*
X105992Y236280D03*
D32*
X56208Y381060D03*
X81100Y381060D03*
X105992Y381060D03*
D33*
X384150Y620050D03*
X384150Y608800D03*
X380150Y608800D03*
X380150Y620050D03*
X376150Y608800D03*
X372150Y608800D03*
X368150Y608800D03*
X364150Y608800D03*
X360150Y608800D03*
X356150Y608800D03*
X356150Y620050D03*
X360150Y620050D03*
X364150Y620050D03*
X368150Y620050D03*
X371900Y620050D03*
X376150Y620050D03*
D34*
X369900Y614550D03*
D35*
X168723Y848027D02*
X158877Y848027D01*
X158877Y852673D01*
X168723Y852673D01*
X168723Y848027D01*
X168723Y835327D02*
X158877Y835327D01*
X158877Y839973D01*
X168723Y839973D01*
X168723Y835327D01*
X168723Y822627D02*
X158877Y822627D01*
X158877Y827273D01*
X168723Y827273D01*
X168723Y822627D01*
X168723Y809927D02*
X158877Y809927D01*
X158877Y814573D01*
X168723Y814573D01*
X168723Y809927D01*
X168723Y797227D02*
X158877Y797227D01*
X158877Y801873D01*
X168723Y801873D01*
X168723Y797227D01*
X168723Y784527D02*
X158877Y784527D01*
X158877Y789173D01*
X168723Y789173D01*
X168723Y784527D01*
X168723Y771827D02*
X158877Y771827D01*
X158877Y776473D01*
X168723Y776473D01*
X168723Y771827D01*
X168723Y759127D02*
X158877Y759127D01*
X158877Y763773D01*
X168723Y763773D01*
X168723Y759127D01*
X168723Y746427D02*
X158877Y746427D01*
X158877Y751073D01*
X168723Y751073D01*
X168723Y746427D01*
X168723Y733727D02*
X158877Y733727D01*
X158877Y738373D01*
X168723Y738373D01*
X168723Y733727D01*
X168723Y721027D02*
X158877Y721027D01*
X158877Y725673D01*
X168723Y725673D01*
X168723Y721027D01*
X168723Y708327D02*
X158877Y708327D01*
X158877Y712973D01*
X168723Y712973D01*
X168723Y708327D01*
X168723Y695627D02*
X158877Y695627D01*
X158877Y700273D01*
X168723Y700273D01*
X168723Y695627D01*
X168723Y682927D02*
X158877Y682927D01*
X158877Y687573D01*
X168723Y687573D01*
X168723Y682927D01*
X168723Y670227D02*
X158877Y670227D01*
X158877Y674873D01*
X168723Y674873D01*
X168723Y670227D01*
X168723Y657527D02*
X158877Y657527D01*
X158877Y662173D01*
X168723Y662173D01*
X168723Y657527D01*
X168723Y644827D02*
X158877Y644827D01*
X158877Y649473D01*
X168723Y649473D01*
X168723Y644827D01*
X168723Y632127D02*
X158877Y632127D01*
X158877Y636773D01*
X168723Y636773D01*
X168723Y632127D01*
X168723Y619427D02*
X158877Y619427D01*
X158877Y624073D01*
X168723Y624073D01*
X168723Y619427D01*
X335077Y624073D02*
X344923Y624073D01*
X344923Y619427D01*
X335077Y619427D01*
X335077Y624073D01*
X335077Y636773D02*
X344923Y636773D01*
X344923Y632127D01*
X335077Y632127D01*
X335077Y636773D01*
X335077Y649473D02*
X344923Y649473D01*
X344923Y644827D01*
X335077Y644827D01*
X335077Y649473D01*
X335077Y662173D02*
X344923Y662173D01*
X344923Y657527D01*
X335077Y657527D01*
X335077Y662173D01*
X335077Y674873D02*
X344923Y674873D01*
X344923Y670227D01*
X335077Y670227D01*
X335077Y674873D01*
X335077Y687573D02*
X344923Y687573D01*
X344923Y682927D01*
X335077Y682927D01*
X335077Y687573D01*
X335077Y700273D02*
X344923Y700273D01*
X344923Y695627D01*
X335077Y695627D01*
X335077Y700273D01*
X335077Y712973D02*
X344923Y712973D01*
X344923Y708327D01*
X335077Y708327D01*
X335077Y712973D01*
X335077Y725673D02*
X344923Y725673D01*
X344923Y721027D01*
X335077Y721027D01*
X335077Y725673D01*
X335077Y738373D02*
X344923Y738373D01*
X344923Y733727D01*
X335077Y733727D01*
X335077Y738373D01*
X335077Y751073D02*
X344923Y751073D01*
X344923Y746427D01*
X335077Y746427D01*
X335077Y751073D01*
X335077Y763773D02*
X344923Y763773D01*
X344923Y759127D01*
X335077Y759127D01*
X335077Y763773D01*
X335077Y776473D02*
X344923Y776473D01*
X344923Y771827D01*
X335077Y771827D01*
X335077Y776473D01*
X335077Y789173D02*
X344923Y789173D01*
X344923Y784527D01*
X335077Y784527D01*
X335077Y789173D01*
X335077Y801873D02*
X344923Y801873D01*
X344923Y797227D01*
X335077Y797227D01*
X335077Y801873D01*
X335077Y814573D02*
X344923Y814573D01*
X344923Y809927D01*
X335077Y809927D01*
X335077Y814573D01*
X335077Y827273D02*
X344923Y827273D01*
X344923Y822627D01*
X335077Y822627D01*
X335077Y827273D01*
X335077Y839973D02*
X344923Y839973D01*
X344923Y835327D01*
X335077Y835327D01*
X335077Y839973D01*
X335077Y852673D02*
X344923Y852673D01*
X344923Y848027D01*
X335077Y848027D01*
X335077Y852673D01*
D36*
X238100Y772450D03*
D37*
X389650Y394363D03*
X376950Y394363D03*
X364250Y394363D03*
X351550Y394363D03*
X338850Y394363D03*
X326150Y394363D03*
X313450Y394363D03*
X300750Y394363D03*
X288050Y394363D03*
X275350Y394363D03*
X275350Y300637D03*
X288050Y300637D03*
X300750Y300637D03*
X313450Y300637D03*
X326150Y300637D03*
X338850Y300637D03*
X351550Y300637D03*
X364250Y300637D03*
X376950Y300637D03*
X389650Y300637D03*
D38*
X125886Y486512D03*
X149000Y486512D03*
X172114Y486512D03*
D39*
X149000Y548490D03*
D40*
X202400Y587500D03*
X211900Y565500D03*
X192900Y565500D03*
D13*
X47200Y704596D02*
X47200Y717804D01*
X72600Y717804D02*
X72600Y704596D01*
X72600Y780796D02*
X72600Y794004D01*
X47200Y794004D02*
X47200Y780796D01*
X98000Y717804D02*
X98000Y704596D01*
X123400Y704596D02*
X123400Y717804D01*
X98000Y780796D02*
X98000Y794004D01*
X123400Y794004D02*
X123400Y780796D01*
D41*
X167750Y151500D03*
X193150Y151500D03*
X218550Y151500D03*
X243950Y151500D03*
X269350Y151500D03*
X294750Y151500D03*
X320150Y151500D03*
X345550Y151500D03*
X167750Y126100D03*
X193150Y126100D03*
X218550Y126100D03*
X243950Y126100D03*
X269350Y126100D03*
X294750Y126100D03*
X320150Y126100D03*
X345550Y126100D03*
X167750Y100700D03*
X193150Y100700D03*
X218550Y100700D03*
X243950Y100700D03*
X269350Y100700D03*
X294750Y100700D03*
X320150Y100700D03*
X345550Y100700D03*
D24*
X81500Y339250D03*
X81500Y356250D03*
D22*
X66780Y314000D03*
X95220Y314000D03*
D42*
X289800Y427500D03*
X264400Y427500D03*
X239000Y427500D03*
X213600Y427500D03*
X188200Y427500D03*
X162800Y427500D03*
X137400Y427500D03*
D43*
X372500Y427500D03*
X52500Y427500D03*
X52500Y825000D03*
X370000Y827500D03*
D44*
X164200Y335450D03*
X189600Y335450D03*
X215000Y335450D03*
X240400Y335450D03*
X164200Y360850D03*
X189600Y360850D03*
X215000Y360850D03*
X240400Y360850D03*
D45*
X179000Y838000D03*
D46*
X35000Y683500D03*
X308000Y799550D03*
X319654Y807750D03*
X258250Y403500D03*
X354500Y447500D03*
X340076Y611000D03*
X366456Y627356D03*
X176750Y799750D03*
X110750Y737500D03*
X176500Y774000D03*
X177250Y812250D03*
X176750Y787000D03*
X389650Y375750D03*
D45*
X63250Y194000D03*
X389797Y321453D03*
X202000Y310250D03*
D46*
X377009Y373259D03*
X354250Y660000D03*
X364215Y373250D03*
X327000Y672500D03*
X351750Y373250D03*
X326750Y698000D03*
X338850Y373250D03*
X326500Y736000D03*
X326250Y373500D03*
X326500Y748750D03*
X313450Y373500D03*
X326500Y761500D03*
X300750Y373500D03*
X327250Y786500D03*
X288000Y373500D03*
X327444Y825000D03*
X82500Y532500D03*
X177000Y659750D03*
X245250Y615250D03*
X252250Y600500D03*
X163500Y600500D03*
X150750Y436250D03*
X177000Y647250D03*
X177000Y634250D03*
X168750Y286250D03*
X384000Y685750D03*
X214500Y738000D03*
X233690Y730154D03*
X189250Y736000D03*
X379750Y658500D03*
X68500Y405250D03*
X177000Y698000D03*
M02*
