M48
;GenerationSoftware,Autodesk,EAGLE,9.4.2*%
;CreationDate,2019-08-23T02:25:19Z*%
FMAT,2
ICI,OFF
METRIC,TZ,000.000
T11C0.350
T10C0.500
T9C0.600
T8C0.700
T7C0.813
T6C0.991
T5C1.016
T4C1.092
T3C2.184
T2C2.500
T1C3.000
%
G90
M71
T1
X9375Y16150
X9375Y8950
T2
X37250Y42750
X5250Y42750
X5250Y82500
X37000Y82750
T3
X3375Y19350
X3375Y5850
T4
X10599Y23628
X5621Y23628
T5
X4500Y55305
X4500Y57845
X4500Y60385
X4500Y62925
X4500Y65465
T6
X10599Y38106
X8110Y38106
X5621Y38106
T7
X39025Y11447
X7260Y78740
X13775Y6300
X9800Y71120
X12340Y78740
X9800Y78740
X12340Y71120
X4720Y78740
X7260Y71120
X4720Y71120
X13775Y19000
X39025Y13352
T8
X34555Y10070
X29475Y10070
X26935Y10070
X21855Y15150
X24395Y10070
X21855Y10070
X19315Y10070
X16775Y10070
X34555Y12610
X32015Y12610
X29475Y12610
X26935Y12610
X24395Y12610
X21855Y12610
X19315Y12610
X34555Y15150
X32015Y15150
X16775Y12610
X29475Y15150
X26935Y15150
X24395Y15150
X32015Y10070
X19315Y15150
X16775Y15150
T9
X24040Y33545
X16420Y36085
X18960Y36085
X21500Y36085
X24040Y36085
X28980Y42750
X26440Y42750
X23900Y42750
X21360Y42750
X18820Y42750
X16280Y42750
X13740Y42750
X16420Y33545
X18960Y33545
X21500Y33545
T10
X17900Y83800
X20200Y31025
X38980Y32145
X6325Y19400
T11
X30800Y79955
X31965Y80775
X25825Y40350
X17700Y65975
X8250Y53250
X32744Y82500
X28800Y37350
X32725Y78650
X30075Y37350
X32650Y76150
X31345Y37350
X32650Y74875
X32625Y37350
X32650Y73600
X33885Y37325
X32675Y69800
X32700Y67250
X36421Y37325
X35425Y66000
X37701Y37326
X35175Y37325
X38965Y37575
X17675Y78700
X17725Y81225
X17650Y77400
X11075Y73750
X17675Y79975
X36646Y62736
X34008Y61100
X35450Y44750
X3500Y68350
X17700Y69800
X6850Y40525
X37975Y65850
X23369Y73015
X21450Y73800
X38400Y68575
X16875Y28625
X17700Y63425
X17700Y64725
X15075Y43625
X16350Y60050
X25225Y60050
X24525Y61525
X18925Y73600
M30