M48
;GenerationSoftware,Autodesk,EAGLE,9.5.1*%
;CreationDate,2019-10-09T03:11:54Z*%
FMAT,2
ICI,OFF
METRIC,TZ,000.000
T5C0.600
T4C1.100
T3C2.184
T2C3.000
T1C4.500
%
G90
M71
T1
X-24214Y-23380
X23786Y6120
X-24214Y6120
X23786Y-23380
T2
X-10554Y15010
X-10554Y22210
T3
X-16554Y25410
X-16554Y11910
T4
X20186Y-14380
X20186Y-17880
X-21114Y-6505
X-21114Y-3005
X-21114Y495
X-21114Y-17880
X-21114Y-14380
X13536Y23020
X-21114Y-10880
X14786Y-24030
X7786Y-24030
X-8964Y-24030
X-12464Y-24030
X-15964Y-24030
X3036Y-24030
X-464Y-24030
X-3964Y-24030
X-5214Y23020
X-1714Y23020
X1786Y23020
X6536Y23020
X10036Y23020
X11286Y-24030
X18286Y23020
X21786Y23020
X25286Y23020
X2286Y6770
X5786Y6770
X9286Y6770
X-9964Y6770
X-6464Y6770
X-2964Y6770
X20186Y495
X20186Y-3005
X20186Y-6505
X20186Y-10880
T5
X10286Y-15380
X12786Y-15380
X11536Y-16380
X12536Y-17380
X10536Y-17380
X12536Y-2130
X11286Y-880
X11036Y-2630
X9536Y-1380
X10036Y120
X11536Y-5130
X12786Y-6380
X7786Y-2630
X12036Y-11380
X12036Y-9880
X12036Y-8130
X12536Y-3880
M30