G04 EAGLE Gerber RS-274X export*
G75*
%MOMM*%
%FSLAX34Y34*%
%LPD*%
%INBottom Copper*%
%IPPOS*%
%AMOC8*
5,1,8,0,0,1.08239X$1,22.5*%
G01*
%ADD10C,1.320800*%
%ADD11C,1.524000*%
%ADD12R,5.080000X2.540000*%
%ADD13P,1.429621X8X292.500000*%
%ADD14P,4.346878X8X112.500000*%
%ADD15C,3.200400*%
%ADD16C,1.638300*%
%ADD17C,1.498600*%
%ADD18P,1.307527X8X22.500000*%
%ADD19P,1.199288X8X202.500000*%
%ADD20P,1.199288X8X22.500000*%
%ADD21R,2.540000X5.080000*%
%ADD22C,0.508000*%
%ADD23C,0.812800*%
%ADD24C,0.906400*%
%ADD25C,0.756400*%
%ADD26C,2.540000*%
%ADD27C,5.500000*%
%ADD28C,1.270000*%
%ADD29C,0.254000*%
%ADD30C,0.200000*%

G36*
X162904Y138222D02*
X162904Y138222D01*
X163034Y138224D01*
X163127Y138242D01*
X163222Y138251D01*
X163348Y138285D01*
X163476Y138310D01*
X163565Y138344D01*
X163657Y138369D01*
X163774Y138425D01*
X163896Y138472D01*
X163977Y138522D01*
X164063Y138563D01*
X164169Y138638D01*
X164280Y138706D01*
X164352Y138769D01*
X164430Y138825D01*
X164520Y138918D01*
X164618Y139004D01*
X164677Y139079D01*
X164744Y139147D01*
X164817Y139255D01*
X164897Y139357D01*
X164942Y139441D01*
X164996Y139520D01*
X165048Y139639D01*
X165110Y139754D01*
X165139Y139845D01*
X165178Y139932D01*
X165209Y140059D01*
X165249Y140182D01*
X165262Y140277D01*
X165285Y140370D01*
X165293Y140499D01*
X165310Y140628D01*
X165306Y140724D01*
X165312Y140819D01*
X165297Y140948D01*
X165292Y141078D01*
X165271Y141171D01*
X165260Y141266D01*
X165223Y141391D01*
X165194Y141518D01*
X165158Y141606D01*
X165130Y141697D01*
X165071Y141813D01*
X165021Y141933D01*
X164969Y142013D01*
X164926Y142099D01*
X164847Y142202D01*
X164776Y142311D01*
X164690Y142409D01*
X164654Y142457D01*
X164621Y142488D01*
X164570Y142546D01*
X159169Y147946D01*
X159169Y148961D01*
X167750Y148961D01*
X176331Y148961D01*
X176331Y147946D01*
X170930Y142546D01*
X170847Y142446D01*
X170756Y142353D01*
X170703Y142273D01*
X170642Y142200D01*
X170577Y142087D01*
X170504Y141980D01*
X170466Y141892D01*
X170418Y141809D01*
X170375Y141687D01*
X170322Y141568D01*
X170299Y141475D01*
X170267Y141385D01*
X170246Y141257D01*
X170215Y141130D01*
X170210Y141035D01*
X170194Y140941D01*
X170196Y140811D01*
X170188Y140681D01*
X170199Y140586D01*
X170200Y140491D01*
X170225Y140363D01*
X170240Y140234D01*
X170267Y140142D01*
X170286Y140048D01*
X170332Y139927D01*
X170370Y139803D01*
X170413Y139718D01*
X170448Y139628D01*
X170515Y139517D01*
X170574Y139401D01*
X170632Y139325D01*
X170682Y139244D01*
X170768Y139146D01*
X170846Y139043D01*
X170917Y138978D01*
X170980Y138906D01*
X171082Y138826D01*
X171178Y138738D01*
X171258Y138686D01*
X171333Y138627D01*
X171448Y138566D01*
X171557Y138496D01*
X171646Y138459D01*
X171730Y138414D01*
X171854Y138374D01*
X171974Y138325D01*
X172067Y138305D01*
X172158Y138275D01*
X172287Y138257D01*
X172414Y138230D01*
X172544Y138222D01*
X172604Y138214D01*
X172649Y138216D01*
X172726Y138211D01*
X188174Y138211D01*
X188304Y138222D01*
X188434Y138224D01*
X188527Y138242D01*
X188622Y138251D01*
X188748Y138285D01*
X188876Y138310D01*
X188965Y138344D01*
X189057Y138369D01*
X189174Y138425D01*
X189296Y138472D01*
X189377Y138522D01*
X189463Y138563D01*
X189569Y138638D01*
X189680Y138706D01*
X189752Y138769D01*
X189830Y138825D01*
X189920Y138918D01*
X190018Y139004D01*
X190077Y139079D01*
X190144Y139147D01*
X190217Y139255D01*
X190297Y139357D01*
X190342Y139441D01*
X190396Y139520D01*
X190448Y139639D01*
X190510Y139754D01*
X190539Y139845D01*
X190578Y139932D01*
X190609Y140059D01*
X190649Y140182D01*
X190662Y140277D01*
X190685Y140370D01*
X190693Y140499D01*
X190710Y140628D01*
X190706Y140724D01*
X190712Y140819D01*
X190697Y140948D01*
X190692Y141078D01*
X190671Y141171D01*
X190660Y141266D01*
X190623Y141391D01*
X190594Y141518D01*
X190558Y141606D01*
X190530Y141697D01*
X190471Y141813D01*
X190421Y141933D01*
X190369Y142013D01*
X190326Y142099D01*
X190247Y142202D01*
X190176Y142311D01*
X190090Y142409D01*
X190054Y142457D01*
X190021Y142488D01*
X189970Y142546D01*
X184569Y147946D01*
X184569Y148961D01*
X193150Y148961D01*
X201731Y148961D01*
X201731Y147946D01*
X196330Y142546D01*
X196247Y142446D01*
X196156Y142353D01*
X196103Y142273D01*
X196042Y142200D01*
X195977Y142087D01*
X195904Y141980D01*
X195866Y141892D01*
X195818Y141809D01*
X195775Y141687D01*
X195722Y141568D01*
X195699Y141475D01*
X195667Y141385D01*
X195646Y141257D01*
X195615Y141130D01*
X195610Y141035D01*
X195594Y140941D01*
X195596Y140811D01*
X195588Y140681D01*
X195599Y140586D01*
X195600Y140491D01*
X195625Y140363D01*
X195640Y140234D01*
X195667Y140142D01*
X195686Y140048D01*
X195732Y139927D01*
X195770Y139803D01*
X195813Y139718D01*
X195848Y139628D01*
X195915Y139517D01*
X195974Y139401D01*
X196032Y139325D01*
X196082Y139244D01*
X196168Y139146D01*
X196246Y139043D01*
X196317Y138978D01*
X196380Y138906D01*
X196482Y138826D01*
X196578Y138738D01*
X196658Y138686D01*
X196733Y138627D01*
X196848Y138566D01*
X196957Y138496D01*
X197046Y138459D01*
X197130Y138414D01*
X197254Y138374D01*
X197374Y138325D01*
X197467Y138305D01*
X197558Y138275D01*
X197687Y138257D01*
X197814Y138230D01*
X197944Y138222D01*
X198004Y138214D01*
X198049Y138216D01*
X198126Y138211D01*
X213574Y138211D01*
X213704Y138222D01*
X213834Y138224D01*
X213927Y138242D01*
X214022Y138251D01*
X214148Y138285D01*
X214276Y138310D01*
X214365Y138344D01*
X214457Y138369D01*
X214574Y138425D01*
X214696Y138472D01*
X214777Y138522D01*
X214863Y138563D01*
X214969Y138638D01*
X215080Y138706D01*
X215152Y138769D01*
X215230Y138825D01*
X215320Y138918D01*
X215418Y139004D01*
X215477Y139079D01*
X215544Y139147D01*
X215617Y139255D01*
X215697Y139357D01*
X215742Y139441D01*
X215796Y139520D01*
X215848Y139639D01*
X215910Y139754D01*
X215939Y139845D01*
X215978Y139932D01*
X216009Y140059D01*
X216049Y140182D01*
X216062Y140277D01*
X216085Y140370D01*
X216093Y140499D01*
X216110Y140628D01*
X216106Y140724D01*
X216112Y140819D01*
X216097Y140948D01*
X216092Y141078D01*
X216071Y141171D01*
X216060Y141266D01*
X216023Y141391D01*
X215994Y141518D01*
X215958Y141606D01*
X215930Y141697D01*
X215871Y141813D01*
X215821Y141933D01*
X215769Y142013D01*
X215726Y142099D01*
X215647Y142202D01*
X215576Y142311D01*
X215490Y142409D01*
X215454Y142457D01*
X215421Y142488D01*
X215370Y142546D01*
X209969Y147946D01*
X209969Y148961D01*
X218550Y148961D01*
X227131Y148961D01*
X227131Y147946D01*
X221730Y142546D01*
X221647Y142446D01*
X221556Y142353D01*
X221503Y142273D01*
X221442Y142200D01*
X221377Y142087D01*
X221304Y141980D01*
X221266Y141892D01*
X221218Y141809D01*
X221175Y141687D01*
X221122Y141568D01*
X221099Y141475D01*
X221067Y141385D01*
X221046Y141257D01*
X221015Y141130D01*
X221010Y141035D01*
X220994Y140941D01*
X220996Y140811D01*
X220988Y140681D01*
X220999Y140586D01*
X221000Y140491D01*
X221025Y140363D01*
X221040Y140234D01*
X221067Y140142D01*
X221086Y140048D01*
X221132Y139927D01*
X221170Y139803D01*
X221213Y139718D01*
X221248Y139628D01*
X221315Y139517D01*
X221374Y139401D01*
X221432Y139325D01*
X221482Y139244D01*
X221568Y139146D01*
X221646Y139043D01*
X221717Y138978D01*
X221780Y138906D01*
X221882Y138826D01*
X221978Y138738D01*
X222058Y138686D01*
X222133Y138627D01*
X222248Y138566D01*
X222357Y138496D01*
X222446Y138459D01*
X222530Y138414D01*
X222654Y138374D01*
X222774Y138325D01*
X222867Y138305D01*
X222958Y138275D01*
X223087Y138257D01*
X223214Y138230D01*
X223344Y138222D01*
X223404Y138214D01*
X223449Y138216D01*
X223526Y138211D01*
X238974Y138211D01*
X239104Y138222D01*
X239234Y138224D01*
X239327Y138242D01*
X239422Y138251D01*
X239548Y138285D01*
X239676Y138310D01*
X239765Y138344D01*
X239857Y138369D01*
X239974Y138425D01*
X240096Y138472D01*
X240177Y138522D01*
X240263Y138563D01*
X240369Y138638D01*
X240480Y138706D01*
X240552Y138769D01*
X240630Y138825D01*
X240720Y138918D01*
X240818Y139004D01*
X240877Y139079D01*
X240944Y139147D01*
X241017Y139255D01*
X241097Y139357D01*
X241142Y139441D01*
X241196Y139520D01*
X241248Y139639D01*
X241310Y139754D01*
X241339Y139845D01*
X241378Y139932D01*
X241409Y140059D01*
X241449Y140182D01*
X241462Y140277D01*
X241485Y140370D01*
X241493Y140499D01*
X241510Y140628D01*
X241506Y140724D01*
X241512Y140819D01*
X241497Y140948D01*
X241492Y141078D01*
X241471Y141171D01*
X241460Y141266D01*
X241423Y141391D01*
X241394Y141518D01*
X241358Y141606D01*
X241330Y141697D01*
X241271Y141813D01*
X241221Y141933D01*
X241169Y142013D01*
X241126Y142099D01*
X241047Y142202D01*
X240976Y142311D01*
X240890Y142409D01*
X240854Y142457D01*
X240821Y142488D01*
X240770Y142546D01*
X235369Y147946D01*
X235369Y148961D01*
X243950Y148961D01*
X252531Y148961D01*
X252531Y147946D01*
X247130Y142546D01*
X247047Y142446D01*
X246956Y142353D01*
X246903Y142273D01*
X246842Y142200D01*
X246777Y142087D01*
X246704Y141980D01*
X246666Y141892D01*
X246618Y141809D01*
X246575Y141687D01*
X246522Y141568D01*
X246499Y141475D01*
X246467Y141385D01*
X246446Y141257D01*
X246415Y141130D01*
X246410Y141035D01*
X246394Y140941D01*
X246396Y140811D01*
X246388Y140681D01*
X246399Y140586D01*
X246400Y140491D01*
X246425Y140363D01*
X246440Y140234D01*
X246467Y140142D01*
X246486Y140048D01*
X246532Y139927D01*
X246570Y139803D01*
X246613Y139718D01*
X246648Y139628D01*
X246715Y139517D01*
X246774Y139401D01*
X246832Y139325D01*
X246882Y139244D01*
X246968Y139146D01*
X247046Y139043D01*
X247117Y138978D01*
X247180Y138906D01*
X247282Y138826D01*
X247378Y138738D01*
X247458Y138686D01*
X247533Y138627D01*
X247648Y138566D01*
X247757Y138496D01*
X247846Y138459D01*
X247930Y138414D01*
X248054Y138374D01*
X248174Y138325D01*
X248267Y138305D01*
X248358Y138275D01*
X248487Y138257D01*
X248614Y138230D01*
X248744Y138222D01*
X248804Y138214D01*
X248849Y138216D01*
X248926Y138211D01*
X264374Y138211D01*
X264504Y138222D01*
X264634Y138224D01*
X264727Y138242D01*
X264822Y138251D01*
X264948Y138285D01*
X265076Y138310D01*
X265165Y138344D01*
X265257Y138369D01*
X265374Y138425D01*
X265496Y138472D01*
X265577Y138522D01*
X265663Y138563D01*
X265769Y138638D01*
X265880Y138706D01*
X265952Y138769D01*
X266030Y138825D01*
X266120Y138918D01*
X266218Y139004D01*
X266277Y139079D01*
X266344Y139147D01*
X266417Y139255D01*
X266497Y139357D01*
X266542Y139441D01*
X266596Y139520D01*
X266648Y139639D01*
X266710Y139754D01*
X266739Y139845D01*
X266778Y139932D01*
X266809Y140059D01*
X266849Y140182D01*
X266862Y140277D01*
X266885Y140370D01*
X266893Y140499D01*
X266910Y140628D01*
X266906Y140724D01*
X266912Y140819D01*
X266897Y140948D01*
X266892Y141078D01*
X266871Y141171D01*
X266860Y141266D01*
X266823Y141391D01*
X266794Y141518D01*
X266758Y141606D01*
X266730Y141697D01*
X266671Y141813D01*
X266621Y141933D01*
X266569Y142013D01*
X266526Y142099D01*
X266447Y142202D01*
X266376Y142311D01*
X266290Y142409D01*
X266254Y142457D01*
X266221Y142488D01*
X266170Y142546D01*
X260769Y147946D01*
X260769Y148961D01*
X269350Y148961D01*
X277931Y148961D01*
X277931Y147946D01*
X272530Y142546D01*
X272447Y142446D01*
X272356Y142353D01*
X272303Y142273D01*
X272242Y142200D01*
X272177Y142087D01*
X272104Y141980D01*
X272066Y141892D01*
X272018Y141809D01*
X271975Y141687D01*
X271922Y141568D01*
X271899Y141475D01*
X271867Y141385D01*
X271846Y141257D01*
X271815Y141130D01*
X271810Y141035D01*
X271794Y140941D01*
X271796Y140811D01*
X271788Y140681D01*
X271799Y140586D01*
X271800Y140491D01*
X271825Y140363D01*
X271840Y140234D01*
X271867Y140142D01*
X271886Y140048D01*
X271932Y139927D01*
X271970Y139803D01*
X272013Y139718D01*
X272048Y139628D01*
X272115Y139517D01*
X272174Y139401D01*
X272232Y139325D01*
X272282Y139244D01*
X272368Y139146D01*
X272446Y139043D01*
X272517Y138978D01*
X272580Y138906D01*
X272682Y138826D01*
X272778Y138738D01*
X272858Y138686D01*
X272933Y138627D01*
X273048Y138566D01*
X273157Y138496D01*
X273246Y138459D01*
X273330Y138414D01*
X273454Y138374D01*
X273574Y138325D01*
X273667Y138305D01*
X273758Y138275D01*
X273887Y138257D01*
X274014Y138230D01*
X274144Y138222D01*
X274204Y138214D01*
X274249Y138216D01*
X274326Y138211D01*
X289774Y138211D01*
X289904Y138222D01*
X290034Y138224D01*
X290127Y138242D01*
X290222Y138251D01*
X290348Y138285D01*
X290476Y138310D01*
X290565Y138344D01*
X290657Y138369D01*
X290774Y138425D01*
X290896Y138472D01*
X290977Y138522D01*
X291063Y138563D01*
X291169Y138638D01*
X291280Y138706D01*
X291352Y138769D01*
X291430Y138825D01*
X291520Y138918D01*
X291618Y139004D01*
X291677Y139079D01*
X291744Y139147D01*
X291817Y139255D01*
X291897Y139357D01*
X291942Y139441D01*
X291996Y139520D01*
X292048Y139639D01*
X292110Y139754D01*
X292139Y139845D01*
X292178Y139932D01*
X292209Y140059D01*
X292249Y140182D01*
X292262Y140277D01*
X292285Y140370D01*
X292293Y140499D01*
X292310Y140628D01*
X292306Y140724D01*
X292312Y140819D01*
X292297Y140948D01*
X292292Y141078D01*
X292271Y141171D01*
X292260Y141266D01*
X292223Y141391D01*
X292194Y141518D01*
X292158Y141606D01*
X292130Y141697D01*
X292071Y141813D01*
X292021Y141933D01*
X291969Y142013D01*
X291926Y142099D01*
X291847Y142202D01*
X291776Y142311D01*
X291690Y142409D01*
X291654Y142457D01*
X291621Y142488D01*
X291570Y142546D01*
X286169Y147946D01*
X286169Y148961D01*
X294750Y148961D01*
X303331Y148961D01*
X303331Y147946D01*
X297930Y142546D01*
X297847Y142446D01*
X297756Y142353D01*
X297703Y142273D01*
X297642Y142200D01*
X297577Y142087D01*
X297504Y141980D01*
X297466Y141892D01*
X297418Y141809D01*
X297375Y141687D01*
X297322Y141568D01*
X297299Y141475D01*
X297267Y141385D01*
X297246Y141257D01*
X297215Y141130D01*
X297210Y141035D01*
X297194Y140941D01*
X297196Y140811D01*
X297188Y140681D01*
X297199Y140586D01*
X297200Y140491D01*
X297225Y140363D01*
X297240Y140234D01*
X297267Y140142D01*
X297286Y140048D01*
X297332Y139927D01*
X297370Y139803D01*
X297413Y139718D01*
X297448Y139628D01*
X297515Y139517D01*
X297574Y139401D01*
X297632Y139325D01*
X297682Y139244D01*
X297768Y139146D01*
X297846Y139043D01*
X297917Y138978D01*
X297980Y138906D01*
X298082Y138826D01*
X298178Y138738D01*
X298258Y138686D01*
X298333Y138627D01*
X298448Y138566D01*
X298557Y138496D01*
X298646Y138459D01*
X298730Y138414D01*
X298854Y138374D01*
X298974Y138325D01*
X299067Y138305D01*
X299158Y138275D01*
X299287Y138257D01*
X299414Y138230D01*
X299544Y138222D01*
X299604Y138214D01*
X299649Y138216D01*
X299726Y138211D01*
X315174Y138211D01*
X315304Y138222D01*
X315434Y138224D01*
X315527Y138242D01*
X315622Y138251D01*
X315748Y138285D01*
X315876Y138310D01*
X315965Y138344D01*
X316057Y138369D01*
X316174Y138425D01*
X316296Y138472D01*
X316377Y138522D01*
X316463Y138563D01*
X316569Y138638D01*
X316680Y138706D01*
X316752Y138769D01*
X316830Y138825D01*
X316920Y138918D01*
X317018Y139004D01*
X317077Y139079D01*
X317144Y139147D01*
X317217Y139255D01*
X317297Y139357D01*
X317342Y139441D01*
X317396Y139520D01*
X317448Y139639D01*
X317510Y139754D01*
X317539Y139845D01*
X317578Y139932D01*
X317609Y140059D01*
X317649Y140182D01*
X317662Y140277D01*
X317685Y140370D01*
X317693Y140499D01*
X317710Y140628D01*
X317706Y140724D01*
X317712Y140819D01*
X317697Y140948D01*
X317692Y141078D01*
X317671Y141171D01*
X317660Y141266D01*
X317623Y141391D01*
X317594Y141518D01*
X317558Y141606D01*
X317530Y141697D01*
X317471Y141813D01*
X317421Y141933D01*
X317369Y142013D01*
X317326Y142099D01*
X317247Y142202D01*
X317176Y142311D01*
X317090Y142409D01*
X317054Y142457D01*
X317021Y142488D01*
X316970Y142546D01*
X311569Y147946D01*
X311569Y148961D01*
X320150Y148961D01*
X328731Y148961D01*
X328731Y147946D01*
X323330Y142546D01*
X323247Y142446D01*
X323156Y142353D01*
X323103Y142273D01*
X323042Y142200D01*
X322977Y142087D01*
X322904Y141980D01*
X322866Y141892D01*
X322818Y141809D01*
X322775Y141687D01*
X322722Y141568D01*
X322699Y141475D01*
X322667Y141385D01*
X322646Y141257D01*
X322615Y141130D01*
X322610Y141035D01*
X322594Y140941D01*
X322596Y140811D01*
X322588Y140681D01*
X322599Y140586D01*
X322600Y140491D01*
X322625Y140363D01*
X322640Y140234D01*
X322667Y140142D01*
X322686Y140048D01*
X322732Y139927D01*
X322770Y139803D01*
X322813Y139718D01*
X322848Y139628D01*
X322915Y139517D01*
X322974Y139401D01*
X323032Y139325D01*
X323082Y139244D01*
X323168Y139146D01*
X323246Y139043D01*
X323317Y138978D01*
X323380Y138906D01*
X323482Y138826D01*
X323578Y138738D01*
X323658Y138686D01*
X323733Y138627D01*
X323848Y138566D01*
X323957Y138496D01*
X324046Y138459D01*
X324130Y138414D01*
X324254Y138374D01*
X324374Y138325D01*
X324467Y138305D01*
X324558Y138275D01*
X324687Y138257D01*
X324814Y138230D01*
X324944Y138222D01*
X325004Y138214D01*
X325049Y138216D01*
X325126Y138211D01*
X340574Y138211D01*
X340704Y138222D01*
X340834Y138224D01*
X340927Y138242D01*
X341022Y138251D01*
X341148Y138285D01*
X341276Y138310D01*
X341365Y138344D01*
X341457Y138369D01*
X341574Y138425D01*
X341696Y138472D01*
X341777Y138522D01*
X341863Y138563D01*
X341969Y138638D01*
X342080Y138706D01*
X342152Y138769D01*
X342230Y138825D01*
X342320Y138918D01*
X342418Y139004D01*
X342477Y139079D01*
X342544Y139147D01*
X342617Y139255D01*
X342697Y139357D01*
X342742Y139441D01*
X342796Y139520D01*
X342848Y139639D01*
X342910Y139754D01*
X342939Y139845D01*
X342978Y139932D01*
X343009Y140059D01*
X343049Y140182D01*
X343062Y140277D01*
X343085Y140370D01*
X343093Y140499D01*
X343110Y140628D01*
X343106Y140724D01*
X343112Y140819D01*
X343097Y140948D01*
X343092Y141078D01*
X343071Y141171D01*
X343060Y141266D01*
X343023Y141391D01*
X342994Y141518D01*
X342958Y141606D01*
X342930Y141697D01*
X342871Y141813D01*
X342821Y141933D01*
X342769Y142013D01*
X342726Y142099D01*
X342647Y142202D01*
X342576Y142311D01*
X342490Y142409D01*
X342454Y142457D01*
X342421Y142488D01*
X342370Y142546D01*
X336969Y147946D01*
X336969Y148961D01*
X345550Y148961D01*
X354131Y148961D01*
X354131Y147946D01*
X348730Y142546D01*
X348647Y142446D01*
X348556Y142353D01*
X348503Y142273D01*
X348442Y142200D01*
X348377Y142087D01*
X348304Y141980D01*
X348266Y141892D01*
X348218Y141809D01*
X348175Y141687D01*
X348122Y141568D01*
X348099Y141475D01*
X348067Y141385D01*
X348046Y141257D01*
X348015Y141130D01*
X348010Y141035D01*
X347994Y140941D01*
X347996Y140811D01*
X347988Y140681D01*
X347999Y140586D01*
X348000Y140491D01*
X348025Y140363D01*
X348040Y140234D01*
X348067Y140142D01*
X348086Y140048D01*
X348132Y139927D01*
X348170Y139803D01*
X348213Y139718D01*
X348248Y139628D01*
X348315Y139517D01*
X348374Y139401D01*
X348432Y139325D01*
X348482Y139244D01*
X348568Y139146D01*
X348646Y139043D01*
X348717Y138978D01*
X348780Y138906D01*
X348882Y138826D01*
X348978Y138738D01*
X349058Y138686D01*
X349133Y138627D01*
X349248Y138566D01*
X349357Y138496D01*
X349446Y138459D01*
X349530Y138414D01*
X349654Y138374D01*
X349774Y138325D01*
X349867Y138305D01*
X349958Y138275D01*
X350087Y138257D01*
X350214Y138230D01*
X350344Y138222D01*
X350404Y138214D01*
X350449Y138216D01*
X350526Y138211D01*
X372653Y138211D01*
X372793Y138223D01*
X372935Y138227D01*
X373017Y138243D01*
X373101Y138251D01*
X373238Y138288D01*
X373376Y138316D01*
X373454Y138347D01*
X373535Y138369D01*
X373663Y138430D01*
X373795Y138482D01*
X373866Y138527D01*
X373942Y138563D01*
X374057Y138645D01*
X374177Y138720D01*
X374240Y138776D01*
X374308Y138825D01*
X374407Y138926D01*
X374512Y139021D01*
X374563Y139087D01*
X374622Y139147D01*
X374701Y139265D01*
X374788Y139376D01*
X374827Y139451D01*
X374874Y139520D01*
X374932Y139650D01*
X374997Y139775D01*
X375022Y139855D01*
X375057Y139932D01*
X375090Y140070D01*
X375133Y140205D01*
X375143Y140288D01*
X375163Y140370D01*
X375172Y140511D01*
X375190Y140651D01*
X375186Y140735D01*
X375191Y140819D01*
X375174Y140960D01*
X375167Y141101D01*
X375145Y141210D01*
X375139Y141266D01*
X375124Y141316D01*
X375105Y141407D01*
X375009Y141765D01*
X375009Y162421D01*
X385171Y162421D01*
X385171Y145209D01*
X385174Y145174D01*
X385172Y145140D01*
X385194Y144951D01*
X385211Y144760D01*
X385220Y144727D01*
X385224Y144693D01*
X385279Y144510D01*
X385329Y144326D01*
X385344Y144295D01*
X385354Y144262D01*
X385441Y144091D01*
X385523Y143919D01*
X385543Y143891D01*
X385558Y143860D01*
X385674Y143708D01*
X385785Y143553D01*
X385810Y143529D01*
X385830Y143502D01*
X385971Y143373D01*
X386107Y143239D01*
X386136Y143220D01*
X386162Y143196D01*
X386323Y143094D01*
X386481Y142987D01*
X386512Y142973D01*
X386541Y142955D01*
X386718Y142882D01*
X386892Y142805D01*
X386926Y142797D01*
X386958Y142784D01*
X387145Y142744D01*
X387330Y142698D01*
X387364Y142696D01*
X387398Y142689D01*
X387710Y142670D01*
X387711Y142670D01*
X387711Y140750D01*
X387714Y140716D01*
X387712Y140681D01*
X387734Y140492D01*
X387750Y140302D01*
X387760Y140268D01*
X387764Y140234D01*
X387819Y140051D01*
X387869Y139867D01*
X387884Y139836D01*
X387894Y139803D01*
X387981Y139632D01*
X388062Y139461D01*
X388083Y139432D01*
X388098Y139401D01*
X388213Y139249D01*
X388325Y139094D01*
X388349Y139070D01*
X388370Y139043D01*
X388510Y138914D01*
X388647Y138780D01*
X388676Y138761D01*
X388701Y138738D01*
X388862Y138635D01*
X389020Y138528D01*
X389052Y138514D01*
X389081Y138496D01*
X389258Y138423D01*
X389432Y138346D01*
X389466Y138338D01*
X389498Y138325D01*
X389684Y138285D01*
X389869Y138239D01*
X389904Y138237D01*
X389938Y138230D01*
X390250Y138211D01*
X390285Y138214D01*
X390319Y138212D01*
X390509Y138234D01*
X390699Y138251D01*
X390732Y138260D01*
X390766Y138264D01*
X390949Y138319D01*
X391133Y138369D01*
X391164Y138384D01*
X391197Y138394D01*
X391368Y138481D01*
X391540Y138563D01*
X391568Y138583D01*
X391599Y138598D01*
X391751Y138714D01*
X391906Y138825D01*
X391930Y138850D01*
X391957Y138870D01*
X392087Y139011D01*
X392220Y139147D01*
X392239Y139176D01*
X392263Y139202D01*
X392365Y139363D01*
X392472Y139520D01*
X392486Y139552D01*
X392504Y139581D01*
X392577Y139758D01*
X392654Y139932D01*
X392662Y139966D01*
X392675Y139998D01*
X392716Y140185D01*
X392761Y140370D01*
X392763Y140404D01*
X392770Y140438D01*
X392789Y140750D01*
X392789Y142670D01*
X392790Y142670D01*
X392824Y142673D01*
X392859Y142671D01*
X393048Y142693D01*
X393238Y142710D01*
X393272Y142719D01*
X393306Y142723D01*
X393489Y142778D01*
X393673Y142828D01*
X393704Y142843D01*
X393737Y142853D01*
X393908Y142940D01*
X394079Y143022D01*
X394108Y143042D01*
X394138Y143057D01*
X394290Y143173D01*
X394446Y143284D01*
X394470Y143309D01*
X394497Y143329D01*
X394626Y143469D01*
X394760Y143606D01*
X394779Y143635D01*
X394802Y143661D01*
X394905Y143822D01*
X395012Y143979D01*
X395026Y144011D01*
X395044Y144040D01*
X395117Y144217D01*
X395194Y144391D01*
X395202Y144425D01*
X395215Y144457D01*
X395255Y144644D01*
X395301Y144829D01*
X395303Y144863D01*
X395310Y144897D01*
X395329Y145209D01*
X395329Y164960D01*
X395326Y164994D01*
X395328Y165029D01*
X395306Y165218D01*
X395289Y165408D01*
X395280Y165442D01*
X395276Y165476D01*
X395221Y165659D01*
X395171Y165843D01*
X395156Y165874D01*
X395146Y165907D01*
X395059Y166078D01*
X394977Y166249D01*
X394957Y166277D01*
X394941Y166308D01*
X394826Y166460D01*
X394715Y166615D01*
X394690Y166640D01*
X394669Y166667D01*
X394529Y166796D01*
X394393Y166930D01*
X394364Y166949D01*
X394338Y166972D01*
X394177Y167075D01*
X394019Y167182D01*
X393988Y167196D01*
X393959Y167214D01*
X393782Y167287D01*
X393608Y167364D01*
X393574Y167372D01*
X393542Y167385D01*
X393355Y167425D01*
X393170Y167470D01*
X393136Y167473D01*
X393102Y167480D01*
X392790Y167499D01*
X390249Y167499D01*
X390249Y167501D01*
X392790Y167501D01*
X392824Y167504D01*
X392859Y167502D01*
X393048Y167524D01*
X393238Y167541D01*
X393272Y167550D01*
X393306Y167554D01*
X393489Y167609D01*
X393673Y167659D01*
X393704Y167674D01*
X393737Y167684D01*
X393908Y167771D01*
X394079Y167853D01*
X394108Y167873D01*
X394138Y167889D01*
X394290Y168004D01*
X394446Y168115D01*
X394470Y168140D01*
X394497Y168161D01*
X394626Y168301D01*
X394760Y168437D01*
X394779Y168466D01*
X394802Y168492D01*
X394905Y168653D01*
X395012Y168811D01*
X395026Y168842D01*
X395044Y168871D01*
X395117Y169048D01*
X395194Y169222D01*
X395202Y169256D01*
X395215Y169288D01*
X395255Y169475D01*
X395301Y169660D01*
X395303Y169694D01*
X395310Y169728D01*
X395329Y170040D01*
X395329Y195441D01*
X403285Y195441D01*
X403931Y195268D01*
X404510Y194933D01*
X404983Y194460D01*
X405101Y194256D01*
X405108Y194246D01*
X405113Y194236D01*
X405236Y194063D01*
X405360Y193888D01*
X405368Y193879D01*
X405375Y193870D01*
X405528Y193721D01*
X405679Y193571D01*
X405689Y193564D01*
X405697Y193556D01*
X405875Y193436D01*
X406050Y193315D01*
X406061Y193310D01*
X406070Y193304D01*
X406267Y193217D01*
X406460Y193129D01*
X406472Y193126D01*
X406482Y193122D01*
X406689Y193071D01*
X406897Y193018D01*
X406908Y193018D01*
X406920Y193015D01*
X407131Y193002D01*
X407346Y192987D01*
X407357Y192988D01*
X407369Y192987D01*
X407582Y193012D01*
X407794Y193035D01*
X407805Y193038D01*
X407816Y193039D01*
X408022Y193101D01*
X408226Y193161D01*
X408236Y193166D01*
X408247Y193170D01*
X408437Y193266D01*
X408629Y193362D01*
X408638Y193369D01*
X408649Y193374D01*
X408818Y193502D01*
X408990Y193630D01*
X408998Y193639D01*
X409007Y193646D01*
X409152Y193803D01*
X409298Y193959D01*
X409305Y193968D01*
X409313Y193977D01*
X409427Y194157D01*
X409544Y194336D01*
X409548Y194347D01*
X409554Y194357D01*
X409635Y194554D01*
X409718Y194751D01*
X409721Y194763D01*
X409725Y194773D01*
X409770Y194982D01*
X409817Y195191D01*
X409818Y195202D01*
X409820Y195214D01*
X409839Y195525D01*
X409839Y853300D01*
X409836Y853335D01*
X409838Y853369D01*
X409816Y853558D01*
X409799Y853749D01*
X409790Y853782D01*
X409786Y853816D01*
X409731Y853999D01*
X409681Y854183D01*
X409666Y854214D01*
X409656Y854247D01*
X409569Y854418D01*
X409487Y854590D01*
X409467Y854618D01*
X409452Y854649D01*
X409336Y854801D01*
X409225Y854956D01*
X409200Y854980D01*
X409180Y855007D01*
X409040Y855136D01*
X408903Y855270D01*
X408874Y855289D01*
X408848Y855313D01*
X408687Y855415D01*
X408530Y855522D01*
X408498Y855536D01*
X408469Y855554D01*
X408292Y855627D01*
X408118Y855704D01*
X408084Y855712D01*
X408052Y855725D01*
X407865Y855765D01*
X407680Y855811D01*
X407646Y855813D01*
X407612Y855820D01*
X407300Y855839D01*
X176632Y855839D01*
X176502Y855828D01*
X176372Y855826D01*
X176278Y855808D01*
X176183Y855799D01*
X176057Y855765D01*
X175930Y855740D01*
X175841Y855706D01*
X175749Y855681D01*
X175631Y855625D01*
X175510Y855578D01*
X175428Y855528D01*
X175342Y855487D01*
X175236Y855412D01*
X175125Y855344D01*
X175054Y855281D01*
X174976Y855225D01*
X174885Y855132D01*
X174788Y855046D01*
X174729Y854971D01*
X174662Y854903D01*
X174589Y854795D01*
X174508Y854693D01*
X174463Y854609D01*
X174410Y854530D01*
X174357Y854411D01*
X174296Y854296D01*
X174266Y854205D01*
X174228Y854118D01*
X174197Y853991D01*
X174157Y853868D01*
X174144Y853773D01*
X174121Y853680D01*
X174113Y853551D01*
X174095Y853422D01*
X174099Y853326D01*
X174093Y853231D01*
X174108Y853102D01*
X174114Y852972D01*
X174134Y852879D01*
X174145Y852784D01*
X174183Y852659D01*
X174211Y852532D01*
X174248Y852444D01*
X174276Y852353D01*
X174335Y852237D01*
X174385Y852117D01*
X174437Y852037D01*
X174480Y851951D01*
X174558Y851848D01*
X174629Y851739D01*
X174715Y851641D01*
X174752Y851593D01*
X174785Y851562D01*
X174836Y851504D01*
X181519Y844821D01*
X181609Y844746D01*
X181692Y844664D01*
X181781Y844602D01*
X181865Y844532D01*
X181966Y844474D01*
X182062Y844408D01*
X182201Y844340D01*
X182256Y844309D01*
X182290Y844297D01*
X182343Y844271D01*
X183006Y843996D01*
X184996Y842006D01*
X186073Y839407D01*
X186073Y836593D01*
X184996Y833994D01*
X183006Y832004D01*
X180407Y830927D01*
X177593Y830927D01*
X174994Y832004D01*
X173004Y833994D01*
X172729Y834657D01*
X172675Y834760D01*
X172630Y834868D01*
X172571Y834960D01*
X172521Y835056D01*
X172449Y835148D01*
X172386Y835246D01*
X172284Y835362D01*
X172245Y835412D01*
X172218Y835436D01*
X172179Y835481D01*
X163232Y844428D01*
X163106Y844533D01*
X162985Y844645D01*
X162933Y844677D01*
X162887Y844716D01*
X162744Y844798D01*
X162605Y844886D01*
X162549Y844910D01*
X162496Y844940D01*
X162341Y844995D01*
X162189Y845057D01*
X162129Y845070D01*
X162071Y845091D01*
X161909Y845117D01*
X161748Y845152D01*
X161671Y845157D01*
X161627Y845164D01*
X161566Y845163D01*
X161436Y845171D01*
X70506Y845171D01*
X70376Y845160D01*
X70247Y845158D01*
X70153Y845140D01*
X70058Y845131D01*
X69932Y845097D01*
X69805Y845072D01*
X69715Y845038D01*
X69623Y845013D01*
X69506Y844957D01*
X69385Y844910D01*
X69303Y844860D01*
X69217Y844819D01*
X69111Y844744D01*
X69000Y844676D01*
X68928Y844613D01*
X68851Y844557D01*
X68760Y844464D01*
X68662Y844378D01*
X68603Y844303D01*
X68536Y844235D01*
X68464Y844127D01*
X68383Y844025D01*
X68338Y843941D01*
X68284Y843862D01*
X68232Y843743D01*
X68170Y843628D01*
X68141Y843537D01*
X68102Y843450D01*
X68071Y843323D01*
X68031Y843200D01*
X68018Y843105D01*
X67996Y843012D01*
X67988Y842883D01*
X67970Y842754D01*
X67974Y842658D01*
X67968Y842563D01*
X67983Y842434D01*
X67988Y842304D01*
X68009Y842211D01*
X68020Y842116D01*
X68058Y841991D01*
X68086Y841864D01*
X68122Y841776D01*
X68150Y841685D01*
X68209Y841568D01*
X68259Y841449D01*
X68311Y841369D01*
X68355Y841283D01*
X68433Y841180D01*
X68504Y841071D01*
X68590Y840973D01*
X68627Y840925D01*
X68660Y840894D01*
X68711Y840836D01*
X71711Y837836D01*
X75161Y829508D01*
X75161Y820492D01*
X71711Y812164D01*
X66005Y806458D01*
X65891Y806322D01*
X65772Y806190D01*
X65747Y806150D01*
X65717Y806113D01*
X65628Y805959D01*
X65535Y805808D01*
X65517Y805763D01*
X65493Y805722D01*
X65434Y805555D01*
X65368Y805390D01*
X65366Y805379D01*
X65347Y805382D01*
X65172Y805413D01*
X65124Y805413D01*
X65077Y805419D01*
X64899Y805412D01*
X64722Y805411D01*
X64675Y805403D01*
X64627Y805401D01*
X64454Y805362D01*
X64279Y805330D01*
X64223Y805311D01*
X64188Y805303D01*
X64130Y805279D01*
X63983Y805229D01*
X56788Y802249D01*
X56701Y802219D01*
X56563Y802181D01*
X56489Y802145D01*
X56411Y802119D01*
X56285Y802049D01*
X56156Y801987D01*
X56090Y801940D01*
X56017Y801899D01*
X55907Y801809D01*
X55790Y801725D01*
X55733Y801666D01*
X55669Y801614D01*
X55576Y801505D01*
X55476Y801403D01*
X55430Y801334D01*
X55377Y801272D01*
X55304Y801148D01*
X55224Y801030D01*
X55191Y800954D01*
X55149Y800883D01*
X55100Y800749D01*
X55042Y800618D01*
X55022Y800538D01*
X54994Y800460D01*
X54969Y800319D01*
X54935Y800180D01*
X54930Y800098D01*
X54916Y800017D01*
X54916Y799874D01*
X54908Y799731D01*
X54917Y799649D01*
X54917Y799567D01*
X54943Y799426D01*
X54960Y799284D01*
X54984Y799205D01*
X54998Y799124D01*
X55078Y798890D01*
X55090Y798853D01*
X55095Y798843D01*
X55100Y798828D01*
X56345Y795823D01*
X56345Y778977D01*
X54953Y775616D01*
X52380Y773043D01*
X49019Y771651D01*
X45381Y771651D01*
X42020Y773043D01*
X39447Y775616D01*
X38055Y778977D01*
X38055Y795823D01*
X39447Y799184D01*
X41494Y801231D01*
X41547Y801294D01*
X41607Y801351D01*
X41691Y801466D01*
X41783Y801576D01*
X41824Y801648D01*
X41873Y801714D01*
X41935Y801843D01*
X42006Y801967D01*
X42034Y802045D01*
X42070Y802119D01*
X42109Y802256D01*
X42157Y802391D01*
X42171Y802473D01*
X42193Y802552D01*
X42207Y802694D01*
X42231Y802836D01*
X42230Y802918D01*
X42238Y803000D01*
X42227Y803143D01*
X42225Y803286D01*
X42209Y803367D01*
X42202Y803449D01*
X42166Y803587D01*
X42139Y803728D01*
X42109Y803805D01*
X42088Y803884D01*
X42028Y804014D01*
X41977Y804148D01*
X41934Y804218D01*
X41899Y804293D01*
X41817Y804410D01*
X41743Y804533D01*
X41688Y804594D01*
X41641Y804662D01*
X41539Y804763D01*
X41445Y804870D01*
X41380Y804921D01*
X41322Y804979D01*
X41204Y805061D01*
X41092Y805149D01*
X41019Y805188D01*
X40951Y805235D01*
X40730Y805343D01*
X40695Y805362D01*
X40684Y805365D01*
X40670Y805372D01*
X39664Y805789D01*
X34190Y811263D01*
X34090Y811347D01*
X33997Y811438D01*
X33917Y811491D01*
X33844Y811552D01*
X33731Y811617D01*
X33624Y811690D01*
X33536Y811728D01*
X33453Y811776D01*
X33331Y811819D01*
X33212Y811872D01*
X33119Y811894D01*
X33029Y811926D01*
X32901Y811948D01*
X32774Y811978D01*
X32679Y811984D01*
X32585Y812000D01*
X32455Y811998D01*
X32325Y812006D01*
X32230Y811995D01*
X32134Y811994D01*
X32007Y811969D01*
X31878Y811954D01*
X31786Y811926D01*
X31692Y811908D01*
X31571Y811861D01*
X31447Y811824D01*
X31362Y811780D01*
X31272Y811746D01*
X31161Y811678D01*
X31045Y811619D01*
X30969Y811562D01*
X30888Y811512D01*
X30790Y811426D01*
X30687Y811347D01*
X30622Y811277D01*
X30550Y811214D01*
X30470Y811112D01*
X30381Y811016D01*
X30330Y810936D01*
X30271Y810861D01*
X30210Y810746D01*
X30140Y810637D01*
X30103Y810548D01*
X30058Y810464D01*
X30018Y810340D01*
X29969Y810220D01*
X29949Y810127D01*
X29919Y810036D01*
X29901Y809907D01*
X29874Y809780D01*
X29866Y809650D01*
X29858Y809590D01*
X29859Y809545D01*
X29855Y809468D01*
X29855Y692013D01*
X29862Y691930D01*
X29860Y691848D01*
X29882Y691707D01*
X29895Y691564D01*
X29916Y691485D01*
X29929Y691403D01*
X29975Y691268D01*
X30013Y691130D01*
X30049Y691055D01*
X30075Y690977D01*
X30145Y690852D01*
X30207Y690723D01*
X30254Y690656D01*
X30295Y690584D01*
X30385Y690473D01*
X30469Y690357D01*
X30528Y690300D01*
X30580Y690236D01*
X30689Y690143D01*
X30791Y690043D01*
X30860Y689997D01*
X30922Y689943D01*
X31046Y689871D01*
X31164Y689791D01*
X31240Y689758D01*
X31311Y689716D01*
X31445Y689667D01*
X31576Y689609D01*
X31656Y689589D01*
X31734Y689561D01*
X31875Y689536D01*
X32014Y689502D01*
X32096Y689497D01*
X32177Y689483D01*
X32320Y689483D01*
X32463Y689474D01*
X32545Y689484D01*
X32627Y689484D01*
X32768Y689510D01*
X32910Y689526D01*
X32989Y689550D01*
X33070Y689565D01*
X33303Y689645D01*
X33341Y689657D01*
X33351Y689662D01*
X33366Y689667D01*
X33742Y689823D01*
X36258Y689823D01*
X38582Y688860D01*
X40360Y687082D01*
X41323Y684758D01*
X41323Y682242D01*
X40360Y679918D01*
X38582Y678140D01*
X36258Y677177D01*
X33742Y677177D01*
X33366Y677333D01*
X33287Y677358D01*
X33212Y677391D01*
X33073Y677425D01*
X32936Y677468D01*
X32854Y677478D01*
X32774Y677498D01*
X32632Y677507D01*
X32489Y677525D01*
X32407Y677521D01*
X32325Y677526D01*
X32183Y677509D01*
X32040Y677502D01*
X31960Y677483D01*
X31878Y677474D01*
X31741Y677432D01*
X31601Y677400D01*
X31526Y677367D01*
X31447Y677343D01*
X31319Y677278D01*
X31188Y677222D01*
X31119Y677176D01*
X31045Y677139D01*
X30931Y677052D01*
X30812Y676974D01*
X30752Y676917D01*
X30687Y676867D01*
X30590Y676762D01*
X30486Y676663D01*
X30437Y676596D01*
X30381Y676536D01*
X30305Y676415D01*
X30220Y676300D01*
X30184Y676226D01*
X30140Y676156D01*
X30085Y676024D01*
X30022Y675895D01*
X30000Y675816D01*
X29969Y675739D01*
X29939Y675599D01*
X29899Y675462D01*
X29891Y675380D01*
X29874Y675299D01*
X29859Y675053D01*
X29855Y675014D01*
X29856Y675003D01*
X29855Y674987D01*
X29855Y666331D01*
X29856Y666314D01*
X29856Y666306D01*
X29861Y666258D01*
X29862Y666249D01*
X29860Y666167D01*
X29882Y666026D01*
X29895Y665883D01*
X29916Y665803D01*
X29929Y665722D01*
X29975Y665586D01*
X30013Y665448D01*
X30049Y665374D01*
X30075Y665296D01*
X30145Y665171D01*
X30207Y665042D01*
X30254Y664975D01*
X30295Y664903D01*
X30385Y664792D01*
X30469Y664675D01*
X30528Y664618D01*
X30580Y664554D01*
X30689Y664461D01*
X30791Y664361D01*
X30860Y664315D01*
X30922Y664262D01*
X31046Y664189D01*
X31164Y664109D01*
X31240Y664076D01*
X31311Y664034D01*
X31445Y663985D01*
X31576Y663927D01*
X31656Y663908D01*
X31734Y663879D01*
X31875Y663854D01*
X32014Y663820D01*
X32096Y663815D01*
X32177Y663801D01*
X32320Y663802D01*
X32463Y663793D01*
X32545Y663802D01*
X32627Y663803D01*
X32768Y663828D01*
X32910Y663845D01*
X32989Y663869D01*
X33070Y663884D01*
X33304Y663964D01*
X33341Y663975D01*
X33351Y663980D01*
X33366Y663985D01*
X35359Y664811D01*
X54641Y664811D01*
X58376Y663264D01*
X61234Y660406D01*
X62781Y656671D01*
X62781Y652629D01*
X61234Y648894D01*
X58376Y646036D01*
X54641Y644489D01*
X35359Y644489D01*
X33366Y645315D01*
X33287Y645340D01*
X33212Y645373D01*
X33073Y645407D01*
X32936Y645450D01*
X32854Y645460D01*
X32774Y645480D01*
X32632Y645488D01*
X32489Y645506D01*
X32407Y645502D01*
X32325Y645507D01*
X32183Y645491D01*
X32040Y645483D01*
X31960Y645465D01*
X31878Y645455D01*
X31740Y645414D01*
X31601Y645381D01*
X31526Y645349D01*
X31447Y645325D01*
X31319Y645260D01*
X31188Y645203D01*
X31119Y645158D01*
X31045Y645120D01*
X30931Y645034D01*
X30812Y644955D01*
X30752Y644898D01*
X30687Y644848D01*
X30590Y644743D01*
X30486Y644644D01*
X30437Y644578D01*
X30381Y644517D01*
X30304Y644396D01*
X30220Y644281D01*
X30184Y644207D01*
X30140Y644138D01*
X30085Y644005D01*
X30022Y643876D01*
X30000Y643797D01*
X29969Y643721D01*
X29939Y643581D01*
X29899Y643443D01*
X29891Y643361D01*
X29874Y643281D01*
X29859Y643035D01*
X29855Y642995D01*
X29856Y642985D01*
X29855Y642969D01*
X29855Y640931D01*
X29856Y640918D01*
X29856Y640913D01*
X29858Y640889D01*
X29862Y640849D01*
X29860Y640767D01*
X29882Y640626D01*
X29895Y640483D01*
X29916Y640403D01*
X29929Y640322D01*
X29975Y640186D01*
X30013Y640048D01*
X30049Y639974D01*
X30075Y639896D01*
X30145Y639771D01*
X30207Y639642D01*
X30254Y639575D01*
X30295Y639503D01*
X30385Y639392D01*
X30469Y639275D01*
X30528Y639218D01*
X30580Y639154D01*
X30689Y639061D01*
X30791Y638961D01*
X30860Y638915D01*
X30922Y638862D01*
X31046Y638789D01*
X31164Y638709D01*
X31240Y638676D01*
X31311Y638634D01*
X31445Y638585D01*
X31576Y638527D01*
X31656Y638508D01*
X31734Y638479D01*
X31875Y638454D01*
X32014Y638420D01*
X32096Y638415D01*
X32177Y638401D01*
X32320Y638402D01*
X32463Y638393D01*
X32545Y638402D01*
X32627Y638403D01*
X32768Y638428D01*
X32910Y638445D01*
X32989Y638469D01*
X33070Y638484D01*
X33304Y638564D01*
X33341Y638575D01*
X33351Y638580D01*
X33366Y638585D01*
X35359Y639411D01*
X54641Y639411D01*
X58376Y637864D01*
X61234Y635006D01*
X62781Y631271D01*
X62781Y627229D01*
X61234Y623494D01*
X58376Y620636D01*
X54641Y619089D01*
X35359Y619089D01*
X33366Y619915D01*
X33287Y619940D01*
X33212Y619973D01*
X33073Y620007D01*
X32936Y620050D01*
X32854Y620060D01*
X32774Y620080D01*
X32632Y620088D01*
X32489Y620106D01*
X32407Y620102D01*
X32325Y620107D01*
X32183Y620091D01*
X32040Y620083D01*
X31960Y620065D01*
X31878Y620055D01*
X31740Y620014D01*
X31601Y619981D01*
X31526Y619949D01*
X31447Y619925D01*
X31319Y619860D01*
X31188Y619803D01*
X31119Y619758D01*
X31045Y619720D01*
X30931Y619634D01*
X30812Y619555D01*
X30752Y619498D01*
X30687Y619448D01*
X30590Y619343D01*
X30486Y619244D01*
X30437Y619178D01*
X30381Y619117D01*
X30304Y618996D01*
X30220Y618881D01*
X30184Y618807D01*
X30140Y618738D01*
X30085Y618605D01*
X30022Y618476D01*
X30000Y618397D01*
X29969Y618321D01*
X29939Y618181D01*
X29899Y618043D01*
X29891Y617961D01*
X29874Y617881D01*
X29859Y617635D01*
X29855Y617595D01*
X29856Y617585D01*
X29855Y617569D01*
X29855Y615531D01*
X29862Y615449D01*
X29860Y615367D01*
X29882Y615226D01*
X29895Y615083D01*
X29916Y615003D01*
X29929Y614922D01*
X29975Y614786D01*
X30013Y614648D01*
X30049Y614574D01*
X30075Y614496D01*
X30145Y614371D01*
X30207Y614242D01*
X30254Y614175D01*
X30295Y614103D01*
X30385Y613992D01*
X30469Y613875D01*
X30528Y613818D01*
X30580Y613754D01*
X30689Y613661D01*
X30791Y613561D01*
X30860Y613515D01*
X30922Y613462D01*
X31046Y613389D01*
X31164Y613309D01*
X31240Y613276D01*
X31311Y613234D01*
X31445Y613185D01*
X31576Y613127D01*
X31656Y613108D01*
X31734Y613079D01*
X31875Y613054D01*
X32014Y613020D01*
X32096Y613015D01*
X32177Y613001D01*
X32320Y613002D01*
X32463Y612993D01*
X32545Y613002D01*
X32627Y613003D01*
X32768Y613028D01*
X32910Y613045D01*
X32989Y613069D01*
X33070Y613084D01*
X33304Y613164D01*
X33341Y613175D01*
X33351Y613180D01*
X33366Y613185D01*
X35359Y614011D01*
X54641Y614011D01*
X58376Y612464D01*
X61234Y609606D01*
X62781Y605871D01*
X62781Y601829D01*
X61234Y598094D01*
X58376Y595236D01*
X54641Y593689D01*
X37032Y593689D01*
X36902Y593678D01*
X36772Y593676D01*
X36678Y593658D01*
X36583Y593649D01*
X36458Y593615D01*
X36330Y593590D01*
X36241Y593556D01*
X36149Y593531D01*
X36031Y593475D01*
X35910Y593428D01*
X35828Y593378D01*
X35742Y593337D01*
X35636Y593262D01*
X35525Y593194D01*
X35454Y593131D01*
X35376Y593075D01*
X35285Y592982D01*
X35188Y592896D01*
X35129Y592821D01*
X35062Y592753D01*
X34989Y592645D01*
X34908Y592543D01*
X34863Y592459D01*
X34810Y592380D01*
X34757Y592261D01*
X34696Y592146D01*
X34666Y592055D01*
X34628Y591968D01*
X34597Y591841D01*
X34557Y591718D01*
X34544Y591623D01*
X34521Y591530D01*
X34513Y591401D01*
X34495Y591272D01*
X34499Y591176D01*
X34493Y591081D01*
X34508Y590952D01*
X34514Y590822D01*
X34534Y590729D01*
X34545Y590634D01*
X34583Y590509D01*
X34611Y590382D01*
X34648Y590294D01*
X34676Y590203D01*
X34735Y590087D01*
X34785Y589967D01*
X34837Y589886D01*
X34880Y589801D01*
X34958Y589698D01*
X35029Y589589D01*
X35115Y589491D01*
X35152Y589443D01*
X35185Y589412D01*
X35236Y589354D01*
X35362Y589249D01*
X35483Y589137D01*
X35535Y589105D01*
X35581Y589066D01*
X35724Y588984D01*
X35863Y588896D01*
X35919Y588872D01*
X35972Y588842D01*
X36127Y588787D01*
X36279Y588725D01*
X36339Y588712D01*
X36397Y588691D01*
X36559Y588665D01*
X36720Y588630D01*
X36797Y588625D01*
X36841Y588618D01*
X36902Y588619D01*
X37032Y588611D01*
X54641Y588611D01*
X58376Y587064D01*
X61234Y584206D01*
X62781Y580471D01*
X62781Y576429D01*
X61234Y572694D01*
X58376Y569836D01*
X54641Y568289D01*
X35359Y568289D01*
X31624Y569836D01*
X28766Y572694D01*
X27219Y576429D01*
X27219Y577638D01*
X27205Y577802D01*
X27198Y577967D01*
X27185Y578026D01*
X27179Y578087D01*
X27136Y578246D01*
X27100Y578406D01*
X27077Y578462D01*
X27061Y578521D01*
X26990Y578670D01*
X26927Y578822D01*
X26894Y578873D01*
X26867Y578928D01*
X26772Y579062D01*
X26682Y579200D01*
X26631Y579258D01*
X26605Y579294D01*
X26562Y579337D01*
X26476Y579434D01*
X19866Y586044D01*
X19496Y586414D01*
X19396Y586497D01*
X19303Y586588D01*
X19223Y586642D01*
X19150Y586703D01*
X19037Y586767D01*
X18930Y586840D01*
X18842Y586879D01*
X18759Y586926D01*
X18637Y586970D01*
X18518Y587022D01*
X18425Y587045D01*
X18335Y587077D01*
X18207Y587098D01*
X18080Y587129D01*
X17985Y587135D01*
X17891Y587151D01*
X17761Y587149D01*
X17631Y587157D01*
X17536Y587146D01*
X17441Y587144D01*
X17313Y587120D01*
X17184Y587105D01*
X17092Y587077D01*
X16999Y587059D01*
X16877Y587012D01*
X16753Y586974D01*
X16667Y586931D01*
X16578Y586897D01*
X16467Y586829D01*
X16351Y586770D01*
X16275Y586712D01*
X16194Y586663D01*
X16096Y586576D01*
X15993Y586498D01*
X15928Y586428D01*
X15856Y586365D01*
X15776Y586263D01*
X15687Y586167D01*
X15636Y586086D01*
X15577Y586011D01*
X15516Y585897D01*
X15446Y585787D01*
X15409Y585699D01*
X15364Y585615D01*
X15324Y585491D01*
X15275Y585371D01*
X15255Y585277D01*
X15225Y585186D01*
X15207Y585058D01*
X15180Y584930D01*
X15172Y584801D01*
X15164Y584740D01*
X15165Y584696D01*
X15161Y584618D01*
X15161Y207264D01*
X15172Y207135D01*
X15174Y207005D01*
X15192Y206911D01*
X15201Y206816D01*
X15235Y206690D01*
X15260Y206563D01*
X15294Y206474D01*
X15319Y206382D01*
X15375Y206264D01*
X15422Y206143D01*
X15472Y206061D01*
X15513Y205975D01*
X15588Y205869D01*
X15656Y205758D01*
X15719Y205686D01*
X15775Y205609D01*
X15868Y205518D01*
X15954Y205421D01*
X16029Y205361D01*
X16097Y205295D01*
X16205Y205222D01*
X16307Y205141D01*
X16391Y205096D01*
X16470Y205043D01*
X16589Y204990D01*
X16704Y204929D01*
X16795Y204899D01*
X16882Y204860D01*
X17009Y204830D01*
X17132Y204789D01*
X17227Y204776D01*
X17320Y204754D01*
X17449Y204746D01*
X17578Y204728D01*
X17674Y204732D01*
X17769Y204726D01*
X17898Y204741D01*
X18028Y204746D01*
X18121Y204767D01*
X18216Y204778D01*
X18341Y204816D01*
X18468Y204844D01*
X18556Y204881D01*
X18647Y204908D01*
X18763Y204968D01*
X18883Y205018D01*
X18963Y205069D01*
X19049Y205113D01*
X19152Y205191D01*
X19261Y205262D01*
X19359Y205348D01*
X19407Y205385D01*
X19438Y205418D01*
X19496Y205469D01*
X23246Y209220D01*
X30062Y212043D01*
X37438Y212043D01*
X44254Y209220D01*
X49470Y204004D01*
X52258Y197272D01*
X52318Y197157D01*
X52370Y197038D01*
X52422Y196958D01*
X52466Y196873D01*
X52546Y196770D01*
X52618Y196662D01*
X52684Y196593D01*
X52742Y196517D01*
X52839Y196430D01*
X52928Y196336D01*
X53006Y196279D01*
X53076Y196215D01*
X53187Y196147D01*
X53292Y196070D01*
X53378Y196028D01*
X53459Y195978D01*
X53579Y195929D01*
X53696Y195872D01*
X53788Y195846D01*
X53877Y195811D01*
X54005Y195785D01*
X54130Y195749D01*
X54225Y195740D01*
X54318Y195721D01*
X54448Y195718D01*
X54578Y195705D01*
X54673Y195712D01*
X54768Y195710D01*
X54897Y195730D01*
X55026Y195740D01*
X55119Y195764D01*
X55213Y195779D01*
X55337Y195821D01*
X55462Y195854D01*
X55549Y195894D01*
X55639Y195925D01*
X55753Y195989D01*
X55871Y196043D01*
X55949Y196098D01*
X56032Y196145D01*
X56133Y196227D01*
X56239Y196302D01*
X56307Y196369D01*
X56381Y196430D01*
X56465Y196529D01*
X56557Y196621D01*
X56611Y196700D01*
X56673Y196772D01*
X56739Y196884D01*
X56813Y196991D01*
X56870Y197108D01*
X56901Y197161D01*
X56916Y197203D01*
X56950Y197272D01*
X57254Y198006D01*
X59244Y199996D01*
X59907Y200271D01*
X60010Y200325D01*
X60118Y200370D01*
X60210Y200429D01*
X60306Y200479D01*
X60398Y200551D01*
X60496Y200614D01*
X60612Y200716D01*
X60662Y200755D01*
X60686Y200782D01*
X60731Y200821D01*
X79759Y219849D01*
X82186Y220855D01*
X102422Y220855D01*
X102599Y220870D01*
X102776Y220880D01*
X102822Y220890D01*
X102870Y220895D01*
X103042Y220941D01*
X103214Y220982D01*
X103258Y221001D01*
X103304Y221013D01*
X103465Y221089D01*
X103628Y221160D01*
X103668Y221186D01*
X103711Y221207D01*
X103855Y221310D01*
X104004Y221408D01*
X104038Y221441D01*
X104077Y221469D01*
X104201Y221596D01*
X104330Y221719D01*
X104358Y221757D01*
X104391Y221791D01*
X104491Y221939D01*
X104596Y222082D01*
X104617Y222125D01*
X104643Y222164D01*
X104715Y222327D01*
X104793Y222486D01*
X104806Y222532D01*
X104826Y222576D01*
X104868Y222749D01*
X104916Y222920D01*
X104921Y222967D01*
X104932Y223014D01*
X104943Y223191D01*
X104961Y223368D01*
X104957Y223415D01*
X104960Y223463D01*
X104939Y223640D01*
X104925Y223817D01*
X104913Y223863D01*
X104908Y223910D01*
X104856Y224081D01*
X104811Y224252D01*
X104791Y224295D01*
X104778Y224341D01*
X104697Y224500D01*
X104622Y224661D01*
X104595Y224700D01*
X104573Y224743D01*
X104466Y224884D01*
X104364Y225030D01*
X104330Y225063D01*
X104301Y225101D01*
X104171Y225222D01*
X104045Y225347D01*
X104005Y225374D01*
X103970Y225406D01*
X103820Y225502D01*
X103674Y225603D01*
X103621Y225629D01*
X103590Y225648D01*
X103532Y225672D01*
X103393Y225740D01*
X99913Y227182D01*
X96894Y230201D01*
X95260Y234145D01*
X95260Y238415D01*
X96894Y242359D01*
X99913Y245378D01*
X103857Y247012D01*
X108127Y247012D01*
X112071Y245378D01*
X115090Y242359D01*
X116724Y238415D01*
X116724Y234145D01*
X115090Y230201D01*
X112071Y227182D01*
X108591Y225740D01*
X108433Y225657D01*
X108273Y225581D01*
X108234Y225554D01*
X108192Y225531D01*
X108051Y225422D01*
X107907Y225319D01*
X107873Y225285D01*
X107836Y225256D01*
X107717Y225124D01*
X107593Y224997D01*
X107566Y224957D01*
X107534Y224921D01*
X107440Y224771D01*
X107341Y224624D01*
X107321Y224580D01*
X107296Y224539D01*
X107230Y224374D01*
X107158Y224212D01*
X107147Y224165D01*
X107129Y224121D01*
X107094Y223947D01*
X107052Y223774D01*
X107049Y223727D01*
X107039Y223680D01*
X107035Y223502D01*
X107024Y223325D01*
X107030Y223277D01*
X107028Y223230D01*
X107056Y223054D01*
X107076Y222878D01*
X107090Y222832D01*
X107097Y222785D01*
X107155Y222617D01*
X107206Y222447D01*
X107228Y222404D01*
X107244Y222359D01*
X107330Y222204D01*
X107411Y222045D01*
X107440Y222007D01*
X107463Y221966D01*
X107576Y221828D01*
X107683Y221687D01*
X107718Y221654D01*
X107748Y221617D01*
X107883Y221502D01*
X108014Y221381D01*
X108054Y221356D01*
X108091Y221325D01*
X108244Y221235D01*
X108394Y221140D01*
X108438Y221121D01*
X108479Y221097D01*
X108646Y221036D01*
X108810Y220969D01*
X108857Y220959D01*
X108902Y220942D01*
X109077Y220911D01*
X109250Y220874D01*
X109310Y220870D01*
X109345Y220864D01*
X109408Y220864D01*
X109562Y220855D01*
X138462Y220855D01*
X138626Y220869D01*
X138791Y220876D01*
X138850Y220889D01*
X138911Y220895D01*
X139070Y220938D01*
X139230Y220974D01*
X139286Y220997D01*
X139345Y221013D01*
X139493Y221084D01*
X139646Y221147D01*
X139697Y221180D01*
X139752Y221207D01*
X139885Y221302D01*
X140024Y221392D01*
X140082Y221443D01*
X140118Y221469D01*
X140161Y221512D01*
X140258Y221598D01*
X151652Y232992D01*
X151757Y233118D01*
X151869Y233239D01*
X151901Y233291D01*
X151940Y233337D01*
X152022Y233480D01*
X152110Y233619D01*
X152134Y233675D01*
X152164Y233728D01*
X152219Y233883D01*
X152281Y234035D01*
X152294Y234095D01*
X152315Y234153D01*
X152341Y234315D01*
X152376Y234476D01*
X152381Y234553D01*
X152388Y234597D01*
X152387Y234658D01*
X152395Y234788D01*
X152395Y291814D01*
X153401Y294241D01*
X175009Y315849D01*
X177436Y316855D01*
X198958Y316855D01*
X199075Y316865D01*
X199191Y316865D01*
X199298Y316885D01*
X199407Y316895D01*
X199520Y316925D01*
X199634Y316946D01*
X199781Y316997D01*
X199841Y317013D01*
X199874Y317029D01*
X199930Y317048D01*
X200593Y317323D01*
X203407Y317323D01*
X204070Y317048D01*
X204182Y317013D01*
X204290Y316969D01*
X204396Y316946D01*
X204500Y316913D01*
X204616Y316899D01*
X204730Y316874D01*
X204884Y316864D01*
X204946Y316857D01*
X204983Y316858D01*
X205042Y316855D01*
X374806Y316855D01*
X374969Y316869D01*
X375134Y316876D01*
X375193Y316889D01*
X375254Y316895D01*
X375413Y316938D01*
X375574Y316974D01*
X375630Y316997D01*
X375689Y317013D01*
X375837Y317084D01*
X375989Y317147D01*
X376040Y317180D01*
X376095Y317207D01*
X376229Y317302D01*
X376367Y317392D01*
X376425Y317443D01*
X376461Y317469D01*
X376504Y317512D01*
X376601Y317598D01*
X382448Y323445D01*
X382554Y323572D01*
X382665Y323692D01*
X382698Y323744D01*
X382737Y323791D01*
X382819Y323933D01*
X382907Y324072D01*
X382930Y324129D01*
X382960Y324182D01*
X383016Y324337D01*
X383078Y324489D01*
X383091Y324548D01*
X383111Y324606D01*
X383138Y324768D01*
X383173Y324929D01*
X383177Y325006D01*
X383185Y325050D01*
X383184Y325111D01*
X383192Y325241D01*
X383192Y365176D01*
X383185Y365258D01*
X383187Y365341D01*
X383165Y365482D01*
X383152Y365625D01*
X383130Y365704D01*
X383118Y365786D01*
X383071Y365921D01*
X383034Y366059D01*
X382998Y366133D01*
X382971Y366212D01*
X382901Y366337D01*
X382840Y366466D01*
X382792Y366533D01*
X382752Y366605D01*
X382661Y366715D01*
X382578Y366832D01*
X382519Y366889D01*
X382467Y366953D01*
X382358Y367046D01*
X382255Y367146D01*
X382187Y367192D01*
X382124Y367246D01*
X382001Y367318D01*
X381882Y367398D01*
X381807Y367431D01*
X381736Y367473D01*
X381601Y367522D01*
X381470Y367580D01*
X381390Y367600D01*
X381313Y367628D01*
X381172Y367653D01*
X381033Y367687D01*
X380951Y367692D01*
X380870Y367706D01*
X380726Y367706D01*
X380584Y367715D01*
X380502Y367705D01*
X380419Y367705D01*
X380279Y367679D01*
X380136Y367663D01*
X380058Y367639D01*
X379976Y367624D01*
X379744Y367544D01*
X379705Y367532D01*
X379696Y367527D01*
X379681Y367522D01*
X378267Y366937D01*
X375752Y366937D01*
X373428Y367899D01*
X372412Y368915D01*
X372385Y368937D01*
X372362Y368963D01*
X372213Y369081D01*
X372067Y369204D01*
X372037Y369221D01*
X372009Y369242D01*
X371841Y369333D01*
X371676Y369427D01*
X371643Y369439D01*
X371612Y369455D01*
X371431Y369514D01*
X371251Y369578D01*
X371217Y369584D01*
X371184Y369594D01*
X370995Y369620D01*
X370807Y369651D01*
X370773Y369651D01*
X370738Y369656D01*
X370548Y369648D01*
X370357Y369645D01*
X370323Y369639D01*
X370288Y369637D01*
X370102Y369596D01*
X369915Y369560D01*
X369883Y369547D01*
X369849Y369540D01*
X369673Y369466D01*
X369495Y369397D01*
X369465Y369379D01*
X369433Y369366D01*
X369273Y369263D01*
X369110Y369163D01*
X369084Y369141D01*
X369055Y369122D01*
X368821Y368915D01*
X367796Y367890D01*
X365472Y366927D01*
X362957Y366927D01*
X360633Y367890D01*
X359778Y368745D01*
X359751Y368767D01*
X359728Y368793D01*
X359579Y368911D01*
X359432Y369034D01*
X359402Y369051D01*
X359375Y369073D01*
X359207Y369163D01*
X359041Y369257D01*
X359009Y369269D01*
X358978Y369285D01*
X358797Y369344D01*
X358617Y369408D01*
X358583Y369414D01*
X358550Y369424D01*
X358361Y369451D01*
X358173Y369482D01*
X358139Y369481D01*
X358104Y369486D01*
X357913Y369478D01*
X357723Y369475D01*
X357689Y369469D01*
X357654Y369467D01*
X357468Y369426D01*
X357281Y369390D01*
X357248Y369377D01*
X357215Y369370D01*
X357038Y369296D01*
X356861Y369228D01*
X356831Y369210D01*
X356799Y369196D01*
X356639Y369093D01*
X356476Y368994D01*
X356450Y368971D01*
X356421Y368952D01*
X356187Y368745D01*
X355332Y367890D01*
X353008Y366927D01*
X350492Y366927D01*
X348168Y367890D01*
X347096Y368963D01*
X347069Y368985D01*
X347046Y369011D01*
X346897Y369129D01*
X346750Y369252D01*
X346720Y369269D01*
X346693Y369290D01*
X346525Y369380D01*
X346359Y369475D01*
X346327Y369487D01*
X346296Y369503D01*
X346115Y369562D01*
X345935Y369626D01*
X345901Y369632D01*
X345868Y369642D01*
X345679Y369668D01*
X345491Y369699D01*
X345456Y369699D01*
X345422Y369704D01*
X345231Y369696D01*
X345041Y369693D01*
X345006Y369687D01*
X344972Y369685D01*
X344786Y369644D01*
X344598Y369608D01*
X344566Y369595D01*
X344532Y369588D01*
X344356Y369514D01*
X344178Y369445D01*
X344149Y369427D01*
X344117Y369414D01*
X343956Y369310D01*
X343794Y369211D01*
X343768Y369189D01*
X343739Y369170D01*
X343504Y368963D01*
X342432Y367890D01*
X340108Y366927D01*
X337592Y366927D01*
X335268Y367890D01*
X334221Y368938D01*
X334194Y368960D01*
X334171Y368986D01*
X334022Y369104D01*
X333875Y369227D01*
X333845Y369244D01*
X333818Y369265D01*
X333650Y369355D01*
X333484Y369450D01*
X333452Y369462D01*
X333421Y369478D01*
X333240Y369537D01*
X333060Y369601D01*
X333026Y369607D01*
X332993Y369617D01*
X332804Y369643D01*
X332616Y369674D01*
X332581Y369674D01*
X332547Y369679D01*
X332356Y369671D01*
X332166Y369668D01*
X332131Y369662D01*
X332097Y369660D01*
X331911Y369619D01*
X331723Y369583D01*
X331691Y369570D01*
X331657Y369563D01*
X331481Y369489D01*
X331303Y369420D01*
X331274Y369402D01*
X331242Y369389D01*
X331081Y369285D01*
X330919Y369186D01*
X330893Y369163D01*
X330864Y369145D01*
X330629Y368938D01*
X329832Y368140D01*
X327508Y367177D01*
X324992Y367177D01*
X322668Y368140D01*
X321646Y369163D01*
X321619Y369185D01*
X321596Y369211D01*
X321447Y369329D01*
X321300Y369452D01*
X321270Y369469D01*
X321243Y369490D01*
X321075Y369580D01*
X320909Y369675D01*
X320877Y369687D01*
X320846Y369703D01*
X320665Y369762D01*
X320485Y369826D01*
X320451Y369832D01*
X320418Y369842D01*
X320229Y369868D01*
X320041Y369899D01*
X320006Y369899D01*
X319972Y369904D01*
X319781Y369896D01*
X319591Y369893D01*
X319556Y369887D01*
X319522Y369885D01*
X319336Y369844D01*
X319148Y369808D01*
X319116Y369795D01*
X319082Y369788D01*
X318906Y369714D01*
X318728Y369645D01*
X318699Y369627D01*
X318667Y369614D01*
X318506Y369510D01*
X318344Y369411D01*
X318318Y369389D01*
X318289Y369370D01*
X318054Y369163D01*
X317032Y368140D01*
X314708Y367177D01*
X312192Y367177D01*
X309868Y368140D01*
X308896Y369113D01*
X308869Y369135D01*
X308846Y369161D01*
X308697Y369279D01*
X308550Y369402D01*
X308520Y369419D01*
X308493Y369440D01*
X308325Y369531D01*
X308159Y369625D01*
X308127Y369637D01*
X308096Y369653D01*
X307915Y369712D01*
X307735Y369776D01*
X307701Y369782D01*
X307668Y369792D01*
X307479Y369818D01*
X307291Y369849D01*
X307256Y369849D01*
X307222Y369854D01*
X307031Y369846D01*
X306840Y369843D01*
X306806Y369837D01*
X306772Y369835D01*
X306586Y369794D01*
X306398Y369758D01*
X306366Y369745D01*
X306332Y369738D01*
X306157Y369664D01*
X305978Y369595D01*
X305949Y369577D01*
X305917Y369564D01*
X305757Y369461D01*
X305594Y369361D01*
X305568Y369339D01*
X305539Y369320D01*
X305304Y369113D01*
X304332Y368140D01*
X302008Y367177D01*
X299492Y367177D01*
X297168Y368140D01*
X296171Y369138D01*
X296144Y369160D01*
X296121Y369186D01*
X295972Y369304D01*
X295825Y369427D01*
X295795Y369444D01*
X295768Y369465D01*
X295600Y369555D01*
X295434Y369650D01*
X295402Y369662D01*
X295371Y369678D01*
X295190Y369737D01*
X295010Y369801D01*
X294976Y369807D01*
X294943Y369817D01*
X294754Y369843D01*
X294566Y369874D01*
X294531Y369874D01*
X294497Y369879D01*
X294306Y369871D01*
X294116Y369868D01*
X294081Y369862D01*
X294047Y369860D01*
X293861Y369819D01*
X293673Y369783D01*
X293641Y369770D01*
X293607Y369763D01*
X293431Y369689D01*
X293253Y369620D01*
X293224Y369602D01*
X293192Y369589D01*
X293031Y369485D01*
X292869Y369386D01*
X292843Y369364D01*
X292814Y369345D01*
X292579Y369138D01*
X291582Y368140D01*
X289258Y367177D01*
X286742Y367177D01*
X284418Y368140D01*
X282640Y369918D01*
X281677Y372242D01*
X281677Y374758D01*
X282640Y377082D01*
X284418Y378860D01*
X286950Y379909D01*
X287054Y379963D01*
X287162Y380008D01*
X287253Y380067D01*
X287349Y380117D01*
X287442Y380189D01*
X287540Y380252D01*
X287655Y380354D01*
X287705Y380393D01*
X287730Y380420D01*
X287774Y380459D01*
X293926Y386611D01*
X294031Y386737D01*
X294143Y386858D01*
X294175Y386909D01*
X294214Y386956D01*
X294296Y387099D01*
X294384Y387238D01*
X294408Y387294D01*
X294438Y387347D01*
X294493Y387502D01*
X294555Y387654D01*
X294568Y387714D01*
X294589Y387771D01*
X294615Y387934D01*
X294650Y388094D01*
X294655Y388171D01*
X294662Y388216D01*
X294661Y388277D01*
X294669Y388406D01*
X294669Y416880D01*
X294666Y416915D01*
X294668Y416949D01*
X294646Y417138D01*
X294629Y417329D01*
X294620Y417362D01*
X294616Y417396D01*
X294561Y417579D01*
X294511Y417763D01*
X294496Y417794D01*
X294486Y417827D01*
X294399Y417998D01*
X294317Y418170D01*
X294297Y418198D01*
X294282Y418229D01*
X294166Y418381D01*
X294055Y418536D01*
X294030Y418560D01*
X294010Y418587D01*
X293870Y418716D01*
X293733Y418850D01*
X293704Y418869D01*
X293678Y418893D01*
X293517Y418995D01*
X293360Y419102D01*
X293328Y419116D01*
X293299Y419134D01*
X293122Y419207D01*
X292948Y419284D01*
X292914Y419292D01*
X292882Y419305D01*
X292695Y419345D01*
X292510Y419391D01*
X292476Y419393D01*
X292442Y419400D01*
X292130Y419419D01*
X286453Y419419D01*
X285699Y420173D01*
X285673Y420195D01*
X285650Y420221D01*
X285501Y420339D01*
X285354Y420462D01*
X285324Y420479D01*
X285297Y420501D01*
X285129Y420590D01*
X284963Y420685D01*
X284930Y420697D01*
X284900Y420713D01*
X284719Y420772D01*
X284539Y420836D01*
X284504Y420842D01*
X284472Y420852D01*
X284283Y420878D01*
X284094Y420909D01*
X284060Y420909D01*
X284025Y420914D01*
X283834Y420906D01*
X283644Y420903D01*
X283610Y420897D01*
X283576Y420895D01*
X283389Y420854D01*
X283202Y420818D01*
X283170Y420805D01*
X283136Y420798D01*
X282960Y420724D01*
X282782Y420656D01*
X282753Y420638D01*
X282721Y420624D01*
X282560Y420521D01*
X282397Y420422D01*
X282371Y420399D01*
X282342Y420380D01*
X282108Y420173D01*
X265209Y403274D01*
X265134Y403184D01*
X265052Y403101D01*
X264990Y403012D01*
X264920Y402929D01*
X264862Y402827D01*
X264796Y402731D01*
X264728Y402592D01*
X264697Y402538D01*
X264685Y402504D01*
X264659Y402450D01*
X263610Y399918D01*
X261832Y398140D01*
X259508Y397177D01*
X256834Y397177D01*
X256831Y397178D01*
X256750Y397197D01*
X256608Y397206D01*
X256466Y397224D01*
X256383Y397220D01*
X256301Y397225D01*
X256159Y397208D01*
X256016Y397201D01*
X255936Y397182D01*
X255854Y397173D01*
X255717Y397131D01*
X255578Y397099D01*
X255502Y397066D01*
X255423Y397043D01*
X255295Y396978D01*
X255164Y396921D01*
X255095Y396876D01*
X255021Y396838D01*
X254908Y396752D01*
X254788Y396673D01*
X254728Y396616D01*
X254663Y396566D01*
X254566Y396461D01*
X254462Y396362D01*
X254413Y396296D01*
X254357Y396235D01*
X254281Y396115D01*
X254196Y395999D01*
X254160Y395925D01*
X254116Y395855D01*
X254061Y395723D01*
X253999Y395595D01*
X253976Y395516D01*
X253966Y395493D01*
X253965Y395488D01*
X253945Y395439D01*
X253915Y395299D01*
X253876Y395162D01*
X253869Y395094D01*
X253859Y395055D01*
X253858Y395037D01*
X253850Y394999D01*
X253835Y394753D01*
X253831Y394713D01*
X253832Y394703D01*
X253831Y394687D01*
X253831Y368189D01*
X253057Y366322D01*
X249224Y362489D01*
X249119Y362363D01*
X249007Y362242D01*
X248975Y362191D01*
X248936Y362144D01*
X248854Y362001D01*
X248766Y361862D01*
X248742Y361806D01*
X248712Y361753D01*
X248657Y361598D01*
X248595Y361446D01*
X248582Y361386D01*
X248561Y361329D01*
X248535Y361166D01*
X248500Y361006D01*
X248495Y360929D01*
X248488Y360884D01*
X248489Y360823D01*
X248481Y360694D01*
X248481Y357503D01*
X243747Y352769D01*
X237053Y352769D01*
X232319Y357503D01*
X232319Y364854D01*
X232308Y364983D01*
X232306Y365113D01*
X232288Y365207D01*
X232279Y365302D01*
X232245Y365428D01*
X232220Y365555D01*
X232186Y365645D01*
X232161Y365737D01*
X232105Y365854D01*
X232058Y365975D01*
X232008Y366057D01*
X231967Y366143D01*
X231892Y366249D01*
X231824Y366360D01*
X231761Y366432D01*
X231705Y366509D01*
X231612Y366600D01*
X231526Y366697D01*
X231451Y366757D01*
X231383Y366823D01*
X231275Y366896D01*
X231173Y366977D01*
X231089Y367022D01*
X231010Y367075D01*
X230891Y367128D01*
X230776Y367189D01*
X230685Y367219D01*
X230598Y367258D01*
X230471Y367289D01*
X230348Y367329D01*
X230253Y367342D01*
X230160Y367364D01*
X230031Y367372D01*
X229902Y367390D01*
X229806Y367386D01*
X229711Y367392D01*
X229582Y367377D01*
X229452Y367372D01*
X229359Y367351D01*
X229264Y367340D01*
X229139Y367302D01*
X229012Y367274D01*
X228924Y367237D01*
X228833Y367210D01*
X228717Y367151D01*
X228597Y367100D01*
X228517Y367049D01*
X228431Y367005D01*
X228328Y366927D01*
X228219Y366856D01*
X228121Y366770D01*
X228073Y366733D01*
X228042Y366700D01*
X227984Y366649D01*
X223824Y362489D01*
X223719Y362363D01*
X223607Y362242D01*
X223575Y362191D01*
X223536Y362144D01*
X223454Y362001D01*
X223366Y361862D01*
X223342Y361806D01*
X223312Y361753D01*
X223257Y361598D01*
X223195Y361446D01*
X223182Y361386D01*
X223161Y361329D01*
X223135Y361166D01*
X223100Y361006D01*
X223095Y360929D01*
X223088Y360884D01*
X223089Y360823D01*
X223081Y360694D01*
X223081Y357503D01*
X217927Y352349D01*
X217905Y352323D01*
X217879Y352300D01*
X217761Y352151D01*
X217638Y352004D01*
X217621Y351974D01*
X217600Y351947D01*
X217510Y351779D01*
X217415Y351613D01*
X217403Y351580D01*
X217387Y351550D01*
X217328Y351368D01*
X217264Y351189D01*
X217258Y351154D01*
X217248Y351122D01*
X217222Y350933D01*
X217191Y350744D01*
X217191Y350710D01*
X217186Y350675D01*
X217194Y350485D01*
X217197Y350294D01*
X217203Y350260D01*
X217205Y350226D01*
X217246Y350040D01*
X217282Y349852D01*
X217295Y349820D01*
X217302Y349786D01*
X217376Y349610D01*
X217444Y349432D01*
X217462Y349403D01*
X217476Y349371D01*
X217579Y349210D01*
X217678Y349047D01*
X217701Y349021D01*
X217720Y348992D01*
X217927Y348758D01*
X219307Y347378D01*
X220081Y345511D01*
X220081Y342849D01*
X220095Y342685D01*
X220102Y342521D01*
X220115Y342461D01*
X220121Y342400D01*
X220164Y342242D01*
X220200Y342081D01*
X220223Y342025D01*
X220239Y341966D01*
X220310Y341818D01*
X220373Y341666D01*
X220406Y341614D01*
X220433Y341559D01*
X220528Y341426D01*
X220618Y341288D01*
X220669Y341230D01*
X220695Y341193D01*
X220738Y341151D01*
X220824Y341053D01*
X223081Y338797D01*
X223081Y332103D01*
X218347Y327369D01*
X211653Y327369D01*
X206919Y332103D01*
X206919Y338797D01*
X208423Y340301D01*
X208445Y340327D01*
X208471Y340350D01*
X208589Y340499D01*
X208712Y340646D01*
X208729Y340676D01*
X208751Y340703D01*
X208840Y340871D01*
X208935Y341037D01*
X208947Y341070D01*
X208963Y341100D01*
X209022Y341281D01*
X209086Y341461D01*
X209092Y341496D01*
X209102Y341528D01*
X209128Y341717D01*
X209159Y341906D01*
X209159Y341940D01*
X209164Y341975D01*
X209156Y342165D01*
X209153Y342356D01*
X209147Y342390D01*
X209145Y342424D01*
X209104Y342611D01*
X209068Y342798D01*
X209055Y342830D01*
X209048Y342864D01*
X208974Y343040D01*
X208906Y343218D01*
X208888Y343247D01*
X208874Y343279D01*
X208771Y343440D01*
X208672Y343603D01*
X208649Y343629D01*
X208630Y343658D01*
X208423Y343892D01*
X200193Y352122D01*
X199335Y354192D01*
X199297Y354265D01*
X199267Y354342D01*
X199193Y354464D01*
X199127Y354591D01*
X199076Y354656D01*
X199033Y354727D01*
X198939Y354834D01*
X198851Y354947D01*
X198790Y355002D01*
X198735Y355064D01*
X198623Y355153D01*
X198517Y355249D01*
X198447Y355293D01*
X198382Y355344D01*
X198256Y355411D01*
X198134Y355487D01*
X198058Y355517D01*
X197985Y355556D01*
X197849Y355600D01*
X197716Y355653D01*
X197635Y355670D01*
X197557Y355695D01*
X197415Y355715D01*
X197275Y355744D01*
X197193Y355746D01*
X197111Y355757D01*
X196968Y355751D01*
X196825Y355754D01*
X196744Y355742D01*
X196661Y355738D01*
X196521Y355707D01*
X196380Y355685D01*
X196302Y355659D01*
X196222Y355641D01*
X196090Y355586D01*
X195954Y355539D01*
X195882Y355499D01*
X195806Y355467D01*
X195686Y355390D01*
X195561Y355320D01*
X195497Y355268D01*
X195428Y355223D01*
X195243Y355060D01*
X195213Y355034D01*
X195206Y355026D01*
X195194Y355016D01*
X192947Y352769D01*
X186253Y352769D01*
X181519Y357503D01*
X181519Y364197D01*
X186253Y368931D01*
X192947Y368931D01*
X195985Y365893D01*
X196048Y365840D01*
X196105Y365781D01*
X196220Y365696D01*
X196330Y365604D01*
X196401Y365564D01*
X196468Y365515D01*
X196597Y365452D01*
X196721Y365381D01*
X196799Y365353D01*
X196873Y365317D01*
X197010Y365278D01*
X197145Y365230D01*
X197227Y365217D01*
X197306Y365194D01*
X197448Y365180D01*
X197589Y365157D01*
X197672Y365158D01*
X197754Y365150D01*
X197897Y365161D01*
X198040Y365163D01*
X198121Y365178D01*
X198203Y365185D01*
X198341Y365221D01*
X198482Y365248D01*
X198559Y365278D01*
X198638Y365299D01*
X198768Y365359D01*
X198902Y365411D01*
X198972Y365453D01*
X199047Y365488D01*
X199164Y365570D01*
X199286Y365645D01*
X199348Y365699D01*
X199416Y365746D01*
X199516Y365848D01*
X199624Y365943D01*
X199675Y366007D01*
X199733Y366066D01*
X199814Y366183D01*
X199903Y366296D01*
X199942Y366368D01*
X199989Y366436D01*
X200097Y366658D01*
X200116Y366693D01*
X200119Y366703D01*
X200126Y366717D01*
X200193Y366878D01*
X223426Y390111D01*
X223531Y390237D01*
X223643Y390358D01*
X223675Y390409D01*
X223714Y390456D01*
X223796Y390599D01*
X223884Y390738D01*
X223908Y390794D01*
X223938Y390847D01*
X223993Y391002D01*
X224055Y391154D01*
X224068Y391214D01*
X224089Y391271D01*
X224115Y391434D01*
X224150Y391594D01*
X224155Y391671D01*
X224162Y391716D01*
X224161Y391777D01*
X224169Y391906D01*
X224169Y420511D01*
X224158Y420641D01*
X224156Y420771D01*
X224138Y420864D01*
X224129Y420960D01*
X224095Y421085D01*
X224070Y421213D01*
X224036Y421302D01*
X224011Y421394D01*
X223955Y421511D01*
X223908Y421633D01*
X223858Y421715D01*
X223817Y421801D01*
X223742Y421906D01*
X223674Y422017D01*
X223611Y422089D01*
X223555Y422167D01*
X223462Y422257D01*
X223376Y422355D01*
X223301Y422414D01*
X223233Y422481D01*
X223125Y422554D01*
X223023Y422634D01*
X222939Y422679D01*
X222860Y422733D01*
X222741Y422785D01*
X222626Y422847D01*
X222535Y422876D01*
X222448Y422915D01*
X222321Y422946D01*
X222198Y422986D01*
X222103Y422999D01*
X222010Y423022D01*
X221881Y423030D01*
X221752Y423047D01*
X221656Y423044D01*
X221561Y423049D01*
X221432Y423034D01*
X221302Y423029D01*
X221209Y423008D01*
X221114Y422997D01*
X220989Y422960D01*
X220862Y422932D01*
X220774Y422895D01*
X220683Y422867D01*
X220567Y422808D01*
X220447Y422758D01*
X220367Y422706D01*
X220281Y422663D01*
X220178Y422584D01*
X220069Y422514D01*
X219971Y422428D01*
X219923Y422391D01*
X219892Y422358D01*
X219834Y422307D01*
X216947Y419419D01*
X213756Y419419D01*
X213593Y419405D01*
X213428Y419398D01*
X213369Y419385D01*
X213308Y419379D01*
X213149Y419336D01*
X212989Y419300D01*
X212932Y419277D01*
X212873Y419261D01*
X212725Y419190D01*
X212573Y419127D01*
X212522Y419094D01*
X212467Y419067D01*
X212333Y418972D01*
X212195Y418882D01*
X212137Y418831D01*
X212101Y418805D01*
X212058Y418762D01*
X211961Y418676D01*
X170024Y376739D01*
X169919Y376613D01*
X169807Y376492D01*
X169775Y376441D01*
X169736Y376394D01*
X169654Y376251D01*
X169566Y376112D01*
X169542Y376056D01*
X169512Y376003D01*
X169457Y375848D01*
X169395Y375696D01*
X169382Y375636D01*
X169361Y375579D01*
X169335Y375416D01*
X169300Y375256D01*
X169295Y375179D01*
X169288Y375134D01*
X169289Y375073D01*
X169281Y374944D01*
X169281Y368249D01*
X169295Y368085D01*
X169302Y367921D01*
X169315Y367861D01*
X169321Y367800D01*
X169364Y367642D01*
X169400Y367481D01*
X169423Y367425D01*
X169439Y367366D01*
X169510Y367218D01*
X169573Y367066D01*
X169607Y367014D01*
X169633Y366959D01*
X169728Y366826D01*
X169818Y366688D01*
X169869Y366630D01*
X169895Y366593D01*
X169938Y366551D01*
X170024Y366453D01*
X172281Y364197D01*
X172281Y357503D01*
X169943Y355166D01*
X169860Y355066D01*
X169769Y354973D01*
X169716Y354893D01*
X169654Y354820D01*
X169590Y354707D01*
X169517Y354600D01*
X169478Y354512D01*
X169431Y354429D01*
X169388Y354307D01*
X169335Y354188D01*
X169312Y354095D01*
X169280Y354005D01*
X169259Y353877D01*
X169228Y353750D01*
X169222Y353655D01*
X169207Y353561D01*
X169209Y353431D01*
X169201Y353301D01*
X169212Y353206D01*
X169213Y353110D01*
X169238Y352983D01*
X169253Y352854D01*
X169280Y352762D01*
X169298Y352668D01*
X169345Y352547D01*
X169383Y352423D01*
X169426Y352337D01*
X169461Y352248D01*
X169528Y352137D01*
X169587Y352021D01*
X169645Y351945D01*
X169695Y351864D01*
X169781Y351766D01*
X169859Y351663D01*
X169930Y351598D01*
X169993Y351526D01*
X170095Y351446D01*
X170190Y351357D01*
X170271Y351306D01*
X170346Y351247D01*
X170460Y351186D01*
X170570Y351116D01*
X170659Y351079D01*
X170743Y351034D01*
X170866Y350994D01*
X170987Y350945D01*
X171080Y350925D01*
X171171Y350895D01*
X171300Y350877D01*
X171427Y350850D01*
X171557Y350842D01*
X171617Y350834D01*
X171662Y350835D01*
X171739Y350831D01*
X171761Y350831D01*
X173628Y350057D01*
X181408Y342277D01*
X181435Y342255D01*
X181458Y342229D01*
X181607Y342111D01*
X181754Y341988D01*
X181784Y341971D01*
X181811Y341949D01*
X181979Y341859D01*
X182144Y341765D01*
X182177Y341753D01*
X182208Y341737D01*
X182389Y341678D01*
X182569Y341614D01*
X182603Y341608D01*
X182636Y341598D01*
X182825Y341572D01*
X183013Y341541D01*
X183047Y341541D01*
X183082Y341536D01*
X183273Y341544D01*
X183463Y341547D01*
X183497Y341553D01*
X183532Y341555D01*
X183718Y341596D01*
X183905Y341632D01*
X183938Y341645D01*
X183971Y341652D01*
X184147Y341726D01*
X184325Y341794D01*
X184355Y341813D01*
X184387Y341826D01*
X184547Y341929D01*
X184710Y342028D01*
X184736Y342051D01*
X184765Y342070D01*
X184999Y342277D01*
X186253Y343531D01*
X192947Y343531D01*
X197681Y338797D01*
X197681Y332103D01*
X192947Y327369D01*
X186253Y327369D01*
X183997Y329626D01*
X183870Y329731D01*
X183750Y329843D01*
X183698Y329875D01*
X183651Y329914D01*
X183509Y329996D01*
X183370Y330084D01*
X183313Y330108D01*
X183260Y330138D01*
X183105Y330193D01*
X182953Y330255D01*
X182894Y330268D01*
X182836Y330289D01*
X182674Y330315D01*
X182513Y330350D01*
X182436Y330355D01*
X182392Y330362D01*
X182331Y330361D01*
X182201Y330369D01*
X180039Y330369D01*
X178172Y331143D01*
X176542Y332773D01*
X176515Y332795D01*
X176492Y332821D01*
X176343Y332939D01*
X176196Y333062D01*
X176166Y333079D01*
X176139Y333101D01*
X175971Y333190D01*
X175806Y333285D01*
X175773Y333297D01*
X175742Y333313D01*
X175561Y333372D01*
X175381Y333436D01*
X175347Y333442D01*
X175314Y333452D01*
X175125Y333478D01*
X174937Y333509D01*
X174903Y333509D01*
X174868Y333514D01*
X174677Y333506D01*
X174487Y333503D01*
X174453Y333497D01*
X174418Y333495D01*
X174232Y333454D01*
X174045Y333418D01*
X174012Y333405D01*
X173979Y333398D01*
X173803Y333324D01*
X173625Y333256D01*
X173595Y333238D01*
X173563Y333224D01*
X173403Y333121D01*
X173240Y333022D01*
X173214Y332999D01*
X173185Y332980D01*
X172951Y332773D01*
X167547Y327369D01*
X166739Y327369D01*
X166739Y335450D01*
X166736Y335484D01*
X166738Y335519D01*
X166716Y335708D01*
X166699Y335898D01*
X166690Y335932D01*
X166686Y335966D01*
X166631Y336149D01*
X166581Y336333D01*
X166566Y336364D01*
X166556Y336397D01*
X166469Y336568D01*
X166388Y336739D01*
X166367Y336767D01*
X166352Y336798D01*
X166236Y336950D01*
X166125Y337105D01*
X166125Y337106D01*
X166101Y337130D01*
X166080Y337157D01*
X166079Y337157D01*
X165939Y337287D01*
X165802Y337420D01*
X165774Y337439D01*
X165748Y337463D01*
X165587Y337565D01*
X165429Y337672D01*
X165398Y337686D01*
X165368Y337704D01*
X165192Y337777D01*
X165017Y337854D01*
X164984Y337862D01*
X164952Y337875D01*
X164765Y337916D01*
X164580Y337961D01*
X164546Y337963D01*
X164512Y337970D01*
X164200Y337989D01*
X156119Y337989D01*
X156119Y338130D01*
X156116Y338165D01*
X156118Y338199D01*
X156096Y338388D01*
X156079Y338579D01*
X156070Y338612D01*
X156066Y338646D01*
X156011Y338829D01*
X155961Y339013D01*
X155946Y339044D01*
X155936Y339077D01*
X155849Y339248D01*
X155767Y339420D01*
X155747Y339448D01*
X155732Y339479D01*
X155616Y339631D01*
X155505Y339786D01*
X155480Y339810D01*
X155460Y339837D01*
X155320Y339966D01*
X155183Y340100D01*
X155154Y340119D01*
X155128Y340143D01*
X154967Y340245D01*
X154810Y340352D01*
X154778Y340366D01*
X154749Y340384D01*
X154572Y340457D01*
X154398Y340534D01*
X154364Y340542D01*
X154332Y340555D01*
X154145Y340595D01*
X153960Y340641D01*
X153926Y340643D01*
X153892Y340650D01*
X153580Y340669D01*
X97739Y340669D01*
X95872Y341443D01*
X94086Y343229D01*
X78579Y358736D01*
X76793Y360522D01*
X76019Y362389D01*
X76019Y370899D01*
X76005Y371063D01*
X75998Y371227D01*
X75985Y371287D01*
X75979Y371348D01*
X75936Y371506D01*
X75900Y371667D01*
X75877Y371723D01*
X75861Y371782D01*
X75790Y371930D01*
X75727Y372082D01*
X75694Y372134D01*
X75667Y372189D01*
X75572Y372322D01*
X75482Y372460D01*
X75431Y372518D01*
X75405Y372555D01*
X75362Y372597D01*
X75276Y372695D01*
X72594Y375376D01*
X71000Y379224D01*
X70940Y379340D01*
X70888Y379459D01*
X70836Y379539D01*
X70791Y379623D01*
X70712Y379726D01*
X70640Y379835D01*
X70574Y379904D01*
X70516Y379979D01*
X70419Y380066D01*
X70329Y380161D01*
X70252Y380217D01*
X70181Y380281D01*
X70071Y380350D01*
X69966Y380426D01*
X69880Y380468D01*
X69799Y380519D01*
X69678Y380567D01*
X69562Y380624D01*
X69470Y380650D01*
X69381Y380686D01*
X69253Y380712D01*
X69128Y380747D01*
X69033Y380757D01*
X68940Y380776D01*
X68810Y380779D01*
X68680Y380792D01*
X68585Y380784D01*
X68490Y380786D01*
X68361Y380767D01*
X68231Y380756D01*
X68139Y380732D01*
X68045Y380718D01*
X67922Y380675D01*
X67796Y380642D01*
X67709Y380602D01*
X67619Y380571D01*
X67505Y380508D01*
X67387Y380453D01*
X67309Y380398D01*
X67226Y380352D01*
X67125Y380270D01*
X67018Y380195D01*
X66951Y380127D01*
X66877Y380067D01*
X66793Y379968D01*
X66701Y379876D01*
X66647Y379797D01*
X66585Y379724D01*
X66519Y379612D01*
X66445Y379505D01*
X66388Y379388D01*
X66357Y379336D01*
X66342Y379294D01*
X66308Y379224D01*
X64714Y375376D01*
X61892Y372554D01*
X58204Y371026D01*
X54212Y371026D01*
X50524Y372554D01*
X47702Y375376D01*
X46174Y379064D01*
X46174Y383056D01*
X47702Y386744D01*
X50524Y389566D01*
X54212Y391094D01*
X58005Y391094D01*
X58168Y391108D01*
X58333Y391115D01*
X58392Y391128D01*
X58453Y391134D01*
X58612Y391177D01*
X58772Y391213D01*
X58829Y391236D01*
X58888Y391252D01*
X59036Y391323D01*
X59188Y391386D01*
X59239Y391419D01*
X59294Y391446D01*
X59428Y391541D01*
X59566Y391631D01*
X59624Y391682D01*
X59660Y391708D01*
X59703Y391751D01*
X59800Y391837D01*
X64590Y396627D01*
X64612Y396654D01*
X64638Y396677D01*
X64756Y396825D01*
X64879Y396973D01*
X64896Y397003D01*
X64918Y397030D01*
X65007Y397197D01*
X65102Y397364D01*
X65114Y397396D01*
X65130Y397427D01*
X65189Y397608D01*
X65253Y397788D01*
X65259Y397822D01*
X65269Y397855D01*
X65295Y398043D01*
X65327Y398232D01*
X65326Y398267D01*
X65331Y398301D01*
X65323Y398491D01*
X65320Y398682D01*
X65314Y398716D01*
X65312Y398751D01*
X65271Y398937D01*
X65235Y399124D01*
X65222Y399157D01*
X65215Y399190D01*
X65141Y399366D01*
X65073Y399544D01*
X65055Y399574D01*
X65041Y399606D01*
X64938Y399766D01*
X64839Y399929D01*
X64816Y399955D01*
X64797Y399984D01*
X64590Y400218D01*
X63140Y401668D01*
X62092Y404197D01*
X62076Y404228D01*
X62065Y404261D01*
X61972Y404427D01*
X61884Y404596D01*
X61863Y404624D01*
X61846Y404654D01*
X61725Y404801D01*
X61608Y404952D01*
X61583Y404975D01*
X61561Y405002D01*
X61415Y405126D01*
X61274Y405254D01*
X61245Y405272D01*
X61218Y405295D01*
X61053Y405391D01*
X60892Y405492D01*
X60860Y405505D01*
X60830Y405522D01*
X60650Y405588D01*
X60473Y405658D01*
X60440Y405665D01*
X60407Y405677D01*
X60219Y405710D01*
X60032Y405748D01*
X59998Y405749D01*
X59963Y405755D01*
X59773Y405755D01*
X59582Y405759D01*
X59548Y405754D01*
X59513Y405754D01*
X59326Y405720D01*
X59137Y405690D01*
X59104Y405679D01*
X59070Y405673D01*
X58775Y405571D01*
X57008Y404839D01*
X47992Y404839D01*
X39664Y408289D01*
X33289Y414664D01*
X29839Y422992D01*
X29839Y432008D01*
X33289Y440336D01*
X39664Y446711D01*
X47992Y450161D01*
X57008Y450161D01*
X65336Y446711D01*
X71711Y440336D01*
X73930Y434979D01*
X74012Y434821D01*
X74089Y434661D01*
X74116Y434622D01*
X74139Y434579D01*
X74247Y434439D01*
X74351Y434295D01*
X74385Y434261D01*
X74414Y434224D01*
X74546Y434105D01*
X74673Y433981D01*
X74713Y433954D01*
X74749Y433922D01*
X74899Y433828D01*
X75046Y433729D01*
X75090Y433709D01*
X75131Y433684D01*
X75296Y433618D01*
X75458Y433546D01*
X75505Y433535D01*
X75549Y433517D01*
X75723Y433482D01*
X75896Y433440D01*
X75943Y433437D01*
X75990Y433427D01*
X76168Y433423D01*
X76345Y433412D01*
X76393Y433418D01*
X76440Y433416D01*
X76616Y433444D01*
X76792Y433464D01*
X76838Y433478D01*
X76885Y433485D01*
X77053Y433543D01*
X77223Y433594D01*
X77266Y433616D01*
X77311Y433632D01*
X77466Y433718D01*
X77625Y433799D01*
X77663Y433828D01*
X77704Y433851D01*
X77842Y433964D01*
X77983Y434071D01*
X78016Y434106D01*
X78053Y434136D01*
X78168Y434271D01*
X78289Y434402D01*
X78314Y434442D01*
X78345Y434479D01*
X78435Y434631D01*
X78530Y434782D01*
X78549Y434826D01*
X78573Y434867D01*
X78634Y435034D01*
X78701Y435198D01*
X78711Y435245D01*
X78728Y435290D01*
X78759Y435465D01*
X78796Y435638D01*
X78800Y435698D01*
X78806Y435733D01*
X78806Y435796D01*
X78815Y435950D01*
X78815Y516852D01*
X78801Y517015D01*
X78794Y517180D01*
X78781Y517239D01*
X78775Y517300D01*
X78732Y517459D01*
X78696Y517619D01*
X78673Y517676D01*
X78657Y517735D01*
X78586Y517883D01*
X78523Y518035D01*
X78490Y518086D01*
X78463Y518141D01*
X78368Y518275D01*
X78278Y518413D01*
X78227Y518471D01*
X78201Y518507D01*
X78158Y518550D01*
X78072Y518647D01*
X70347Y526372D01*
X69573Y528239D01*
X69573Y628165D01*
X70347Y630032D01*
X142622Y702307D01*
X144489Y703081D01*
X172239Y703081D01*
X172355Y703091D01*
X172472Y703091D01*
X172579Y703111D01*
X172687Y703121D01*
X172800Y703151D01*
X172915Y703172D01*
X173061Y703223D01*
X173122Y703239D01*
X173154Y703255D01*
X173211Y703274D01*
X175742Y704323D01*
X178258Y704323D01*
X180582Y703360D01*
X182360Y701582D01*
X183323Y699258D01*
X183323Y696742D01*
X182360Y694418D01*
X180582Y692640D01*
X178258Y691677D01*
X175742Y691677D01*
X173211Y692726D01*
X173099Y692761D01*
X172991Y692805D01*
X172885Y692828D01*
X172781Y692861D01*
X172665Y692875D01*
X172551Y692900D01*
X172397Y692910D01*
X172334Y692917D01*
X172298Y692916D01*
X172239Y692919D01*
X148656Y692919D01*
X148493Y692905D01*
X148328Y692898D01*
X148269Y692885D01*
X148208Y692879D01*
X148049Y692836D01*
X147889Y692800D01*
X147832Y692777D01*
X147773Y692761D01*
X147625Y692690D01*
X147473Y692627D01*
X147422Y692594D01*
X147367Y692567D01*
X147233Y692472D01*
X147095Y692382D01*
X147037Y692331D01*
X147001Y692305D01*
X146958Y692262D01*
X146861Y692176D01*
X118101Y663416D01*
X118017Y663316D01*
X117927Y663223D01*
X117873Y663143D01*
X117812Y663070D01*
X117747Y662957D01*
X117675Y662850D01*
X117636Y662762D01*
X117588Y662679D01*
X117545Y662557D01*
X117492Y662438D01*
X117470Y662345D01*
X117438Y662255D01*
X117416Y662126D01*
X117386Y662000D01*
X117380Y661905D01*
X117364Y661811D01*
X117366Y661680D01*
X117358Y661551D01*
X117369Y661456D01*
X117370Y661360D01*
X117395Y661233D01*
X117410Y661104D01*
X117438Y661012D01*
X117456Y660918D01*
X117503Y660797D01*
X117540Y660673D01*
X117584Y660588D01*
X117618Y660498D01*
X117686Y660387D01*
X117745Y660271D01*
X117802Y660195D01*
X117852Y660114D01*
X117938Y660016D01*
X118017Y659913D01*
X118087Y659848D01*
X118150Y659776D01*
X118252Y659696D01*
X118348Y659607D01*
X118428Y659556D01*
X118503Y659497D01*
X118618Y659436D01*
X118728Y659366D01*
X118816Y659329D01*
X118900Y659284D01*
X119024Y659244D01*
X119144Y659195D01*
X119238Y659175D01*
X119328Y659145D01*
X119457Y659127D01*
X119584Y659100D01*
X119714Y659092D01*
X119775Y659084D01*
X119819Y659085D01*
X119896Y659081D01*
X168094Y659081D01*
X168257Y659095D01*
X168422Y659102D01*
X168481Y659115D01*
X168542Y659121D01*
X168701Y659164D01*
X168861Y659199D01*
X168918Y659223D01*
X168977Y659239D01*
X169125Y659310D01*
X169277Y659373D01*
X169328Y659406D01*
X169383Y659433D01*
X169517Y659528D01*
X169655Y659617D01*
X169713Y659668D01*
X169749Y659695D01*
X169792Y659738D01*
X169889Y659824D01*
X170041Y659976D01*
X170116Y660066D01*
X170198Y660149D01*
X170260Y660238D01*
X170329Y660321D01*
X170388Y660423D01*
X170454Y660519D01*
X170522Y660657D01*
X170553Y660712D01*
X170565Y660746D01*
X170591Y660800D01*
X171640Y663332D01*
X173418Y665110D01*
X175742Y666073D01*
X178258Y666073D01*
X180582Y665110D01*
X182360Y663332D01*
X183323Y661008D01*
X183323Y658492D01*
X182360Y656168D01*
X181487Y655296D01*
X181465Y655269D01*
X181439Y655246D01*
X181321Y655097D01*
X181198Y654950D01*
X181181Y654920D01*
X181160Y654893D01*
X181069Y654725D01*
X180975Y654559D01*
X180963Y654527D01*
X180947Y654496D01*
X180888Y654315D01*
X180824Y654135D01*
X180818Y654101D01*
X180808Y654068D01*
X180782Y653879D01*
X180751Y653691D01*
X180751Y653656D01*
X180746Y653622D01*
X180754Y653431D01*
X180757Y653240D01*
X180763Y653206D01*
X180765Y653172D01*
X180806Y652986D01*
X180842Y652798D01*
X180855Y652766D01*
X180862Y652732D01*
X180936Y652557D01*
X181005Y652378D01*
X181023Y652349D01*
X181036Y652317D01*
X181139Y652157D01*
X181239Y651994D01*
X181261Y651968D01*
X181280Y651939D01*
X181487Y651704D01*
X182360Y650832D01*
X183323Y648508D01*
X183323Y645992D01*
X182360Y643668D01*
X181237Y642546D01*
X181215Y642519D01*
X181189Y642496D01*
X181071Y642347D01*
X180948Y642200D01*
X180931Y642170D01*
X180910Y642143D01*
X180820Y641975D01*
X180725Y641809D01*
X180713Y641777D01*
X180697Y641746D01*
X180638Y641565D01*
X180574Y641385D01*
X180568Y641351D01*
X180558Y641318D01*
X180532Y641129D01*
X180501Y640941D01*
X180501Y640906D01*
X180496Y640872D01*
X180504Y640681D01*
X180507Y640491D01*
X180513Y640456D01*
X180515Y640422D01*
X180556Y640236D01*
X180592Y640048D01*
X180605Y640016D01*
X180612Y639982D01*
X180686Y639806D01*
X180755Y639628D01*
X180773Y639599D01*
X180786Y639567D01*
X180890Y639406D01*
X180989Y639244D01*
X181011Y639218D01*
X181030Y639189D01*
X181237Y638954D01*
X182360Y637832D01*
X183323Y635508D01*
X183323Y632992D01*
X182360Y630668D01*
X180582Y628890D01*
X178258Y627927D01*
X175742Y627927D01*
X173418Y628890D01*
X171640Y630668D01*
X170591Y633200D01*
X170537Y633304D01*
X170492Y633412D01*
X170433Y633503D01*
X170383Y633599D01*
X170311Y633692D01*
X170248Y633790D01*
X170146Y633905D01*
X170107Y633955D01*
X170080Y633980D01*
X170041Y634024D01*
X169639Y634426D01*
X169513Y634531D01*
X169392Y634643D01*
X169341Y634675D01*
X169294Y634714D01*
X169151Y634796D01*
X169012Y634884D01*
X168956Y634908D01*
X168903Y634938D01*
X168748Y634993D01*
X168596Y635055D01*
X168536Y635068D01*
X168479Y635089D01*
X168316Y635115D01*
X168156Y635150D01*
X168079Y635155D01*
X168034Y635162D01*
X167973Y635161D01*
X167844Y635169D01*
X119085Y635169D01*
X118922Y635155D01*
X118757Y635148D01*
X118698Y635135D01*
X118637Y635129D01*
X118478Y635086D01*
X118318Y635050D01*
X118261Y635027D01*
X118202Y635011D01*
X118054Y634940D01*
X117902Y634877D01*
X117851Y634844D01*
X117796Y634817D01*
X117662Y634722D01*
X117524Y634632D01*
X117466Y634581D01*
X117430Y634555D01*
X117387Y634512D01*
X117290Y634426D01*
X103074Y620210D01*
X102969Y620084D01*
X102857Y619963D01*
X102825Y619912D01*
X102786Y619865D01*
X102704Y619722D01*
X102616Y619583D01*
X102592Y619527D01*
X102562Y619474D01*
X102507Y619319D01*
X102445Y619167D01*
X102432Y619107D01*
X102411Y619050D01*
X102385Y618887D01*
X102350Y618727D01*
X102345Y618650D01*
X102338Y618605D01*
X102339Y618544D01*
X102331Y618415D01*
X102331Y393633D01*
X102334Y393598D01*
X102332Y393564D01*
X102354Y393375D01*
X102371Y393184D01*
X102380Y393151D01*
X102384Y393117D01*
X102439Y392934D01*
X102489Y392750D01*
X102504Y392719D01*
X102514Y392686D01*
X102601Y392515D01*
X102683Y392343D01*
X102703Y392315D01*
X102718Y392284D01*
X102834Y392132D01*
X102945Y391977D01*
X102970Y391953D01*
X102990Y391926D01*
X103130Y391797D01*
X103267Y391663D01*
X103296Y391644D01*
X103322Y391620D01*
X103483Y391518D01*
X103640Y391411D01*
X103672Y391397D01*
X103701Y391379D01*
X103878Y391306D01*
X104052Y391229D01*
X104086Y391221D01*
X104118Y391208D01*
X104305Y391168D01*
X104490Y391122D01*
X104524Y391120D01*
X104558Y391113D01*
X104870Y391094D01*
X107988Y391094D01*
X111676Y389566D01*
X114498Y386744D01*
X116026Y383056D01*
X116026Y379064D01*
X114498Y375376D01*
X111676Y372554D01*
X107988Y371026D01*
X103996Y371026D01*
X100308Y372554D01*
X97486Y375376D01*
X95892Y379224D01*
X95832Y379340D01*
X95780Y379459D01*
X95728Y379539D01*
X95683Y379623D01*
X95604Y379726D01*
X95532Y379835D01*
X95466Y379904D01*
X95408Y379979D01*
X95311Y380066D01*
X95221Y380161D01*
X95144Y380217D01*
X95073Y380281D01*
X94963Y380350D01*
X94858Y380426D01*
X94772Y380468D01*
X94691Y380519D01*
X94570Y380567D01*
X94454Y380624D01*
X94362Y380650D01*
X94273Y380686D01*
X94145Y380712D01*
X94020Y380747D01*
X93925Y380757D01*
X93832Y380776D01*
X93702Y380779D01*
X93572Y380792D01*
X93477Y380784D01*
X93382Y380786D01*
X93253Y380767D01*
X93123Y380756D01*
X93031Y380732D01*
X92937Y380718D01*
X92814Y380675D01*
X92688Y380642D01*
X92601Y380602D01*
X92511Y380571D01*
X92397Y380508D01*
X92279Y380453D01*
X92201Y380398D01*
X92118Y380352D01*
X92017Y380270D01*
X91910Y380195D01*
X91843Y380127D01*
X91769Y380067D01*
X91685Y379968D01*
X91593Y379876D01*
X91539Y379797D01*
X91477Y379724D01*
X91411Y379612D01*
X91337Y379505D01*
X91280Y379388D01*
X91249Y379336D01*
X91234Y379294D01*
X91200Y379224D01*
X89606Y375376D01*
X86924Y372695D01*
X86819Y372568D01*
X86707Y372448D01*
X86675Y372396D01*
X86636Y372349D01*
X86554Y372207D01*
X86466Y372068D01*
X86442Y372011D01*
X86412Y371958D01*
X86357Y371803D01*
X86295Y371651D01*
X86282Y371592D01*
X86261Y371534D01*
X86235Y371372D01*
X86200Y371211D01*
X86195Y371134D01*
X86188Y371090D01*
X86189Y371029D01*
X86181Y370899D01*
X86181Y366556D01*
X86195Y366393D01*
X86202Y366228D01*
X86215Y366169D01*
X86221Y366108D01*
X86264Y365949D01*
X86300Y365789D01*
X86323Y365732D01*
X86339Y365673D01*
X86410Y365525D01*
X86473Y365373D01*
X86506Y365322D01*
X86533Y365267D01*
X86628Y365133D01*
X86718Y364995D01*
X86769Y364937D01*
X86795Y364901D01*
X86838Y364858D01*
X86924Y364761D01*
X100111Y351574D01*
X100237Y351469D01*
X100358Y351357D01*
X100409Y351325D01*
X100456Y351286D01*
X100599Y351204D01*
X100738Y351116D01*
X100794Y351092D01*
X100847Y351062D01*
X101002Y351007D01*
X101154Y350945D01*
X101214Y350932D01*
X101271Y350911D01*
X101434Y350885D01*
X101594Y350850D01*
X101671Y350845D01*
X101716Y350838D01*
X101777Y350839D01*
X101906Y350831D01*
X156661Y350831D01*
X156791Y350842D01*
X156921Y350844D01*
X157014Y350862D01*
X157110Y350871D01*
X157235Y350905D01*
X157363Y350930D01*
X157452Y350964D01*
X157544Y350989D01*
X157661Y351045D01*
X157783Y351092D01*
X157865Y351142D01*
X157951Y351183D01*
X158056Y351258D01*
X158167Y351326D01*
X158239Y351389D01*
X158317Y351445D01*
X158407Y351538D01*
X158505Y351624D01*
X158564Y351699D01*
X158631Y351767D01*
X158704Y351875D01*
X158784Y351977D01*
X158829Y352061D01*
X158883Y352140D01*
X158935Y352259D01*
X158997Y352374D01*
X159026Y352465D01*
X159065Y352552D01*
X159096Y352679D01*
X159136Y352802D01*
X159149Y352897D01*
X159172Y352990D01*
X159180Y353119D01*
X159197Y353248D01*
X159194Y353344D01*
X159199Y353439D01*
X159184Y353568D01*
X159179Y353698D01*
X159158Y353791D01*
X159147Y353886D01*
X159110Y354011D01*
X159082Y354138D01*
X159045Y354226D01*
X159017Y354317D01*
X158958Y354433D01*
X158908Y354553D01*
X158856Y354633D01*
X158813Y354719D01*
X158734Y354822D01*
X158664Y354931D01*
X158578Y355029D01*
X158541Y355077D01*
X158508Y355108D01*
X158457Y355166D01*
X156119Y357503D01*
X156119Y364197D01*
X158376Y366453D01*
X158481Y366580D01*
X158593Y366700D01*
X158625Y366752D01*
X158664Y366799D01*
X158746Y366941D01*
X158834Y367080D01*
X158858Y367137D01*
X158888Y367190D01*
X158943Y367345D01*
X159005Y367497D01*
X159018Y367556D01*
X159039Y367614D01*
X159065Y367776D01*
X159100Y367937D01*
X159105Y368014D01*
X159112Y368058D01*
X159111Y368119D01*
X159119Y368249D01*
X159119Y379111D01*
X159893Y380978D01*
X193999Y415084D01*
X194083Y415184D01*
X194173Y415277D01*
X194227Y415357D01*
X194288Y415430D01*
X194353Y415543D01*
X194425Y415650D01*
X194464Y415738D01*
X194512Y415821D01*
X194555Y415943D01*
X194608Y416062D01*
X194630Y416155D01*
X194662Y416245D01*
X194684Y416374D01*
X194714Y416500D01*
X194720Y416595D01*
X194736Y416689D01*
X194734Y416820D01*
X194742Y416949D01*
X194731Y417044D01*
X194730Y417140D01*
X194705Y417267D01*
X194690Y417396D01*
X194662Y417488D01*
X194644Y417582D01*
X194597Y417703D01*
X194560Y417827D01*
X194516Y417912D01*
X194482Y418002D01*
X194414Y418113D01*
X194355Y418229D01*
X194298Y418305D01*
X194248Y418386D01*
X194162Y418484D01*
X194083Y418587D01*
X194013Y418652D01*
X193950Y418724D01*
X193848Y418804D01*
X193752Y418893D01*
X193672Y418944D01*
X193597Y419003D01*
X193482Y419064D01*
X193372Y419134D01*
X193284Y419171D01*
X193200Y419216D01*
X193076Y419256D01*
X192956Y419305D01*
X192862Y419325D01*
X192772Y419355D01*
X192643Y419373D01*
X192516Y419400D01*
X192386Y419408D01*
X192325Y419416D01*
X192281Y419415D01*
X192204Y419419D01*
X184853Y419419D01*
X180119Y424153D01*
X180119Y431504D01*
X180108Y431633D01*
X180106Y431763D01*
X180088Y431857D01*
X180079Y431952D01*
X180045Y432078D01*
X180020Y432205D01*
X179986Y432295D01*
X179961Y432387D01*
X179905Y432504D01*
X179858Y432625D01*
X179808Y432707D01*
X179767Y432793D01*
X179692Y432899D01*
X179624Y433010D01*
X179561Y433082D01*
X179505Y433159D01*
X179412Y433250D01*
X179326Y433347D01*
X179251Y433407D01*
X179183Y433473D01*
X179075Y433546D01*
X178973Y433627D01*
X178889Y433672D01*
X178810Y433725D01*
X178691Y433778D01*
X178576Y433839D01*
X178485Y433869D01*
X178398Y433908D01*
X178271Y433939D01*
X178148Y433979D01*
X178053Y433992D01*
X177960Y434014D01*
X177831Y434022D01*
X177702Y434040D01*
X177606Y434036D01*
X177511Y434042D01*
X177382Y434027D01*
X177252Y434022D01*
X177159Y434001D01*
X177064Y433990D01*
X176939Y433952D01*
X176812Y433924D01*
X176724Y433887D01*
X176633Y433860D01*
X176517Y433801D01*
X176397Y433750D01*
X176317Y433699D01*
X176231Y433655D01*
X176128Y433577D01*
X176019Y433506D01*
X175921Y433420D01*
X175873Y433383D01*
X175842Y433350D01*
X175784Y433299D01*
X171624Y429139D01*
X171519Y429013D01*
X171407Y428892D01*
X171375Y428841D01*
X171336Y428794D01*
X171254Y428651D01*
X171166Y428512D01*
X171142Y428456D01*
X171112Y428403D01*
X171057Y428248D01*
X170995Y428096D01*
X170982Y428036D01*
X170961Y427979D01*
X170935Y427816D01*
X170900Y427656D01*
X170895Y427579D01*
X170888Y427534D01*
X170889Y427473D01*
X170881Y427344D01*
X170881Y424153D01*
X166147Y419419D01*
X159453Y419419D01*
X154719Y424153D01*
X154719Y427388D01*
X154716Y427423D01*
X154718Y427457D01*
X154696Y427646D01*
X154679Y427837D01*
X154670Y427870D01*
X154666Y427904D01*
X154611Y428087D01*
X154561Y428271D01*
X154546Y428302D01*
X154536Y428335D01*
X154449Y428506D01*
X154367Y428678D01*
X154347Y428706D01*
X154332Y428737D01*
X154216Y428889D01*
X154105Y429044D01*
X154080Y429068D01*
X154060Y429095D01*
X153920Y429224D01*
X153783Y429358D01*
X153754Y429377D01*
X153728Y429401D01*
X153567Y429503D01*
X153410Y429610D01*
X153378Y429624D01*
X153349Y429642D01*
X153172Y429715D01*
X152998Y429792D01*
X152964Y429800D01*
X152932Y429813D01*
X152745Y429853D01*
X152560Y429899D01*
X152526Y429901D01*
X152492Y429908D01*
X152180Y429927D01*
X149492Y429927D01*
X148992Y430135D01*
X148913Y430159D01*
X148838Y430193D01*
X148699Y430226D01*
X148562Y430269D01*
X148480Y430280D01*
X148400Y430299D01*
X148258Y430308D01*
X148115Y430326D01*
X148033Y430322D01*
X147951Y430327D01*
X147809Y430310D01*
X147666Y430303D01*
X147586Y430284D01*
X147504Y430275D01*
X147366Y430233D01*
X147227Y430201D01*
X147152Y430168D01*
X147073Y430145D01*
X146945Y430080D01*
X146814Y430023D01*
X146745Y429978D01*
X146671Y429940D01*
X146557Y429854D01*
X146438Y429775D01*
X146378Y429718D01*
X146313Y429668D01*
X146216Y429563D01*
X146112Y429464D01*
X146063Y429398D01*
X146007Y429337D01*
X145930Y429216D01*
X145846Y429101D01*
X145810Y429027D01*
X145766Y428957D01*
X145711Y428825D01*
X145648Y428696D01*
X145626Y428617D01*
X145595Y428541D01*
X145565Y428401D01*
X145525Y428263D01*
X145517Y428181D01*
X145500Y428101D01*
X145485Y427855D01*
X145481Y427815D01*
X145482Y427804D01*
X145481Y427789D01*
X145481Y424153D01*
X140747Y419419D01*
X134053Y419419D01*
X129319Y424153D01*
X129319Y430847D01*
X134053Y435581D01*
X141220Y435581D01*
X141258Y435567D01*
X141339Y435554D01*
X141419Y435531D01*
X141561Y435517D01*
X141702Y435494D01*
X141785Y435495D01*
X141867Y435486D01*
X142010Y435498D01*
X142152Y435500D01*
X142234Y435515D01*
X142316Y435522D01*
X142454Y435558D01*
X142595Y435585D01*
X142672Y435615D01*
X142751Y435636D01*
X142881Y435696D01*
X143015Y435747D01*
X143085Y435790D01*
X143160Y435825D01*
X143277Y435907D01*
X143399Y435981D01*
X143461Y436036D01*
X143529Y436083D01*
X143630Y436185D01*
X143737Y436279D01*
X143788Y436344D01*
X143846Y436403D01*
X143927Y436520D01*
X144016Y436632D01*
X144055Y436705D01*
X144102Y436773D01*
X144210Y436994D01*
X144229Y437029D01*
X144232Y437039D01*
X144239Y437054D01*
X145390Y439832D01*
X147168Y441610D01*
X149700Y442659D01*
X149804Y442713D01*
X149912Y442758D01*
X150003Y442817D01*
X150099Y442867D01*
X150192Y442939D01*
X150290Y443002D01*
X150405Y443104D01*
X150455Y443143D01*
X150480Y443170D01*
X150524Y443209D01*
X157676Y450361D01*
X157781Y450487D01*
X157893Y450608D01*
X157925Y450659D01*
X157964Y450706D01*
X158046Y450849D01*
X158134Y450988D01*
X158158Y451044D01*
X158188Y451097D01*
X158243Y451252D01*
X158305Y451404D01*
X158318Y451464D01*
X158339Y451521D01*
X158365Y451684D01*
X158400Y451844D01*
X158405Y451921D01*
X158412Y451966D01*
X158411Y452027D01*
X158419Y452156D01*
X158419Y595739D01*
X158409Y595855D01*
X158409Y595972D01*
X158389Y596079D01*
X158379Y596187D01*
X158349Y596300D01*
X158328Y596415D01*
X158277Y596561D01*
X158261Y596622D01*
X158245Y596654D01*
X158226Y596711D01*
X157177Y599242D01*
X157177Y601758D01*
X158140Y604082D01*
X159918Y605860D01*
X162242Y606823D01*
X164758Y606823D01*
X167082Y605860D01*
X168860Y604082D01*
X169823Y601758D01*
X169823Y599242D01*
X168774Y596711D01*
X168739Y596599D01*
X168695Y596491D01*
X168672Y596385D01*
X168639Y596281D01*
X168625Y596165D01*
X168600Y596051D01*
X168590Y595897D01*
X168583Y595834D01*
X168584Y595798D01*
X168581Y595739D01*
X168581Y447989D01*
X168146Y446940D01*
X168093Y446770D01*
X168033Y446603D01*
X168026Y446556D01*
X168011Y446510D01*
X167989Y446334D01*
X167960Y446159D01*
X167961Y446111D01*
X167955Y446064D01*
X167964Y445886D01*
X167966Y445709D01*
X167975Y445662D01*
X167978Y445614D01*
X168018Y445441D01*
X168052Y445267D01*
X168069Y445222D01*
X168080Y445176D01*
X168150Y445012D01*
X168214Y444847D01*
X168239Y444806D01*
X168258Y444762D01*
X168356Y444613D01*
X168448Y444462D01*
X168480Y444426D01*
X168506Y444386D01*
X168629Y444258D01*
X168746Y444125D01*
X168784Y444095D01*
X168817Y444060D01*
X168960Y443956D01*
X169099Y443845D01*
X169141Y443823D01*
X169180Y443794D01*
X169340Y443716D01*
X169496Y443633D01*
X169542Y443618D01*
X169585Y443597D01*
X169755Y443548D01*
X169924Y443493D01*
X169972Y443487D01*
X170018Y443474D01*
X170194Y443456D01*
X170370Y443432D01*
X170418Y443434D01*
X170466Y443429D01*
X170643Y443443D01*
X170820Y443450D01*
X170867Y443461D01*
X170915Y443465D01*
X171086Y443509D01*
X171260Y443548D01*
X171304Y443566D01*
X171350Y443579D01*
X171511Y443653D01*
X171675Y443722D01*
X171715Y443748D01*
X171759Y443768D01*
X171904Y443870D01*
X172054Y443966D01*
X172098Y444005D01*
X172128Y444026D01*
X172149Y444048D01*
X174039Y444831D01*
X187954Y444831D01*
X188118Y444845D01*
X188282Y444852D01*
X188342Y444865D01*
X188403Y444871D01*
X188562Y444914D01*
X188722Y444950D01*
X188778Y444973D01*
X188837Y444989D01*
X188985Y445060D01*
X189137Y445123D01*
X189189Y445156D01*
X189244Y445183D01*
X189377Y445278D01*
X189516Y445368D01*
X189573Y445419D01*
X189610Y445445D01*
X189652Y445488D01*
X189750Y445574D01*
X213364Y469188D01*
X213469Y469315D01*
X213581Y469435D01*
X213613Y469487D01*
X213652Y469534D01*
X213734Y469676D01*
X213822Y469815D01*
X213846Y469872D01*
X213876Y469925D01*
X213931Y470079D01*
X213993Y470232D01*
X214006Y470291D01*
X214027Y470349D01*
X214053Y470511D01*
X214088Y470672D01*
X214093Y470749D01*
X214100Y470793D01*
X214099Y470854D01*
X214107Y470984D01*
X214107Y620128D01*
X214881Y621995D01*
X253762Y660876D01*
X253867Y661002D01*
X253979Y661123D01*
X254011Y661174D01*
X254050Y661221D01*
X254132Y661364D01*
X254220Y661503D01*
X254244Y661559D01*
X254274Y661612D01*
X254329Y661767D01*
X254391Y661919D01*
X254404Y661979D01*
X254425Y662036D01*
X254451Y662199D01*
X254486Y662359D01*
X254491Y662436D01*
X254498Y662481D01*
X254497Y662542D01*
X254505Y662671D01*
X254505Y701102D01*
X254491Y701265D01*
X254484Y701430D01*
X254471Y701489D01*
X254465Y701550D01*
X254422Y701709D01*
X254386Y701869D01*
X254363Y701926D01*
X254347Y701985D01*
X254276Y702133D01*
X254213Y702285D01*
X254180Y702336D01*
X254153Y702391D01*
X254058Y702525D01*
X253968Y702663D01*
X253917Y702721D01*
X253891Y702757D01*
X253848Y702800D01*
X253762Y702897D01*
X233464Y723195D01*
X233374Y723270D01*
X233292Y723352D01*
X233202Y723414D01*
X233119Y723484D01*
X233017Y723542D01*
X232921Y723608D01*
X232782Y723676D01*
X232728Y723707D01*
X232694Y723719D01*
X232640Y723745D01*
X230109Y724794D01*
X228330Y726572D01*
X227367Y728896D01*
X227367Y730380D01*
X227364Y730415D01*
X227366Y730449D01*
X227344Y730638D01*
X227327Y730829D01*
X227318Y730862D01*
X227314Y730896D01*
X227259Y731079D01*
X227209Y731263D01*
X227194Y731294D01*
X227184Y731327D01*
X227097Y731498D01*
X227016Y731670D01*
X226995Y731698D01*
X226980Y731729D01*
X226864Y731881D01*
X226753Y732036D01*
X226729Y732060D01*
X226708Y732087D01*
X226568Y732216D01*
X226431Y732350D01*
X226402Y732369D01*
X226377Y732393D01*
X226216Y732495D01*
X226058Y732602D01*
X226026Y732616D01*
X225997Y732634D01*
X225820Y732707D01*
X225646Y732784D01*
X225612Y732792D01*
X225580Y732805D01*
X225394Y732845D01*
X225208Y732891D01*
X225174Y732893D01*
X225140Y732900D01*
X224828Y732919D01*
X219261Y732919D01*
X219145Y732909D01*
X219028Y732909D01*
X218921Y732889D01*
X218813Y732879D01*
X218700Y732849D01*
X218585Y732828D01*
X218439Y732777D01*
X218378Y732761D01*
X218346Y732745D01*
X218289Y732726D01*
X215758Y731677D01*
X213242Y731677D01*
X210918Y732640D01*
X209140Y734418D01*
X208177Y736742D01*
X208177Y739258D01*
X209140Y741582D01*
X210918Y743360D01*
X213242Y744323D01*
X215758Y744323D01*
X218289Y743274D01*
X218401Y743239D01*
X218509Y743195D01*
X218615Y743172D01*
X218719Y743139D01*
X218835Y743125D01*
X218949Y743100D01*
X219103Y743090D01*
X219166Y743083D01*
X219202Y743084D01*
X219261Y743081D01*
X237951Y743081D01*
X239818Y742307D01*
X241604Y740521D01*
X263378Y718747D01*
X263478Y718663D01*
X263571Y718573D01*
X263651Y718519D01*
X263724Y718458D01*
X263837Y718393D01*
X263944Y718321D01*
X264032Y718282D01*
X264115Y718234D01*
X264237Y718191D01*
X264356Y718138D01*
X264449Y718116D01*
X264539Y718084D01*
X264668Y718062D01*
X264794Y718032D01*
X264889Y718026D01*
X264983Y718010D01*
X265114Y718012D01*
X265243Y718004D01*
X265338Y718015D01*
X265434Y718016D01*
X265561Y718041D01*
X265690Y718056D01*
X265782Y718084D01*
X265876Y718102D01*
X265997Y718149D01*
X266121Y718186D01*
X266206Y718230D01*
X266296Y718264D01*
X266407Y718332D01*
X266523Y718391D01*
X266599Y718448D01*
X266680Y718498D01*
X266778Y718584D01*
X266881Y718663D01*
X266946Y718733D01*
X267018Y718796D01*
X267098Y718898D01*
X267187Y718994D01*
X267238Y719074D01*
X267297Y719149D01*
X267358Y719264D01*
X267428Y719374D01*
X267465Y719462D01*
X267510Y719546D01*
X267550Y719670D01*
X267599Y719790D01*
X267619Y719884D01*
X267649Y719974D01*
X267667Y720103D01*
X267694Y720230D01*
X267702Y720360D01*
X267710Y720421D01*
X267709Y720465D01*
X267713Y720542D01*
X267713Y762984D01*
X268487Y764851D01*
X300934Y797298D01*
X301039Y797424D01*
X301151Y797545D01*
X301183Y797596D01*
X301222Y797643D01*
X301304Y797786D01*
X301392Y797925D01*
X301416Y797981D01*
X301446Y798034D01*
X301501Y798189D01*
X301563Y798341D01*
X301576Y798401D01*
X301597Y798458D01*
X301623Y798621D01*
X301658Y798781D01*
X301663Y798858D01*
X301670Y798903D01*
X301669Y798964D01*
X301677Y799093D01*
X301677Y800808D01*
X302640Y803132D01*
X304418Y804910D01*
X306742Y805873D01*
X309258Y805873D01*
X309820Y805640D01*
X309899Y805615D01*
X309974Y805582D01*
X310113Y805548D01*
X310250Y805505D01*
X310332Y805495D01*
X310412Y805475D01*
X310554Y805466D01*
X310697Y805448D01*
X310779Y805452D01*
X310861Y805447D01*
X311003Y805464D01*
X311146Y805471D01*
X311226Y805490D01*
X311308Y805499D01*
X311446Y805541D01*
X311585Y805573D01*
X311660Y805606D01*
X311739Y805630D01*
X311867Y805695D01*
X311998Y805751D01*
X312067Y805797D01*
X312141Y805834D01*
X312254Y805920D01*
X312374Y805999D01*
X312434Y806056D01*
X312499Y806106D01*
X312596Y806211D01*
X312700Y806310D01*
X312749Y806377D01*
X312805Y806437D01*
X312881Y806558D01*
X312966Y806673D01*
X313002Y806748D01*
X313046Y806817D01*
X313101Y806949D01*
X313164Y807078D01*
X313186Y807157D01*
X313217Y807234D01*
X313247Y807373D01*
X313287Y807511D01*
X313295Y807593D01*
X313312Y807674D01*
X313327Y807920D01*
X313331Y807959D01*
X313330Y807970D01*
X313331Y807986D01*
X313331Y809008D01*
X314294Y811332D01*
X316072Y813110D01*
X318396Y814073D01*
X319880Y814073D01*
X319915Y814076D01*
X319949Y814074D01*
X320138Y814096D01*
X320329Y814113D01*
X320362Y814122D01*
X320396Y814126D01*
X320579Y814181D01*
X320763Y814231D01*
X320794Y814246D01*
X320827Y814256D01*
X320998Y814343D01*
X321170Y814425D01*
X321198Y814445D01*
X321229Y814460D01*
X321381Y814576D01*
X321536Y814687D01*
X321560Y814712D01*
X321587Y814732D01*
X321716Y814872D01*
X321850Y815009D01*
X321869Y815038D01*
X321893Y815064D01*
X321995Y815225D01*
X322102Y815382D01*
X322116Y815414D01*
X322134Y815443D01*
X322207Y815620D01*
X322284Y815794D01*
X322292Y815828D01*
X322305Y815860D01*
X322345Y816047D01*
X322391Y816232D01*
X322393Y816266D01*
X322400Y816300D01*
X322419Y816612D01*
X322419Y820104D01*
X322409Y820220D01*
X322409Y820337D01*
X322389Y820444D01*
X322379Y820552D01*
X322349Y820665D01*
X322328Y820780D01*
X322277Y820926D01*
X322261Y820986D01*
X322245Y821019D01*
X322226Y821075D01*
X321121Y823742D01*
X321121Y826258D01*
X321805Y827908D01*
X321830Y827987D01*
X321863Y828062D01*
X321897Y828201D01*
X321940Y828338D01*
X321950Y828420D01*
X321970Y828500D01*
X321978Y828642D01*
X321996Y828785D01*
X321992Y828867D01*
X321997Y828949D01*
X321981Y829091D01*
X321973Y829234D01*
X321955Y829314D01*
X321945Y829396D01*
X321904Y829534D01*
X321871Y829673D01*
X321839Y829748D01*
X321815Y829827D01*
X321750Y829955D01*
X321693Y830086D01*
X321648Y830155D01*
X321611Y830229D01*
X321524Y830343D01*
X321445Y830462D01*
X321388Y830522D01*
X321339Y830587D01*
X321233Y830684D01*
X321135Y830788D01*
X321068Y830837D01*
X321007Y830893D01*
X320887Y830970D01*
X320771Y831054D01*
X320697Y831090D01*
X320628Y831134D01*
X320495Y831189D01*
X320367Y831252D01*
X320287Y831274D01*
X320211Y831305D01*
X320071Y831335D01*
X319933Y831375D01*
X319852Y831383D01*
X319771Y831400D01*
X319525Y831415D01*
X319485Y831419D01*
X319475Y831418D01*
X319459Y831419D01*
X224156Y831419D01*
X223993Y831405D01*
X223828Y831398D01*
X223769Y831385D01*
X223708Y831379D01*
X223549Y831336D01*
X223389Y831300D01*
X223332Y831277D01*
X223273Y831261D01*
X223125Y831190D01*
X222973Y831127D01*
X222922Y831094D01*
X222867Y831067D01*
X222733Y830972D01*
X222595Y830882D01*
X222537Y830831D01*
X222501Y830805D01*
X222458Y830762D01*
X222361Y830676D01*
X219824Y828139D01*
X219741Y828039D01*
X219654Y827950D01*
X219636Y827923D01*
X219607Y827892D01*
X219575Y827841D01*
X219536Y827794D01*
X219464Y827669D01*
X219402Y827577D01*
X219391Y827552D01*
X219366Y827512D01*
X219342Y827456D01*
X219312Y827403D01*
X219260Y827256D01*
X219220Y827165D01*
X219215Y827145D01*
X219195Y827096D01*
X219182Y827036D01*
X219161Y826979D01*
X219135Y826816D01*
X219133Y826808D01*
X219113Y826728D01*
X219112Y826713D01*
X219100Y826656D01*
X219095Y826579D01*
X219088Y826534D01*
X219089Y826473D01*
X219081Y826344D01*
X219081Y774739D01*
X218307Y772872D01*
X195074Y749639D01*
X194969Y749513D01*
X194857Y749392D01*
X194825Y749341D01*
X194786Y749294D01*
X194704Y749151D01*
X194616Y749012D01*
X194592Y748956D01*
X194562Y748903D01*
X194507Y748748D01*
X194445Y748596D01*
X194432Y748536D01*
X194411Y748479D01*
X194385Y748316D01*
X194350Y748156D01*
X194345Y748079D01*
X194338Y748034D01*
X194339Y747973D01*
X194331Y747844D01*
X194331Y740761D01*
X194341Y740645D01*
X194341Y740528D01*
X194361Y740421D01*
X194371Y740313D01*
X194401Y740200D01*
X194422Y740085D01*
X194473Y739939D01*
X194489Y739878D01*
X194505Y739846D01*
X194524Y739789D01*
X195573Y737258D01*
X195573Y734742D01*
X194610Y732418D01*
X192832Y730640D01*
X190508Y729677D01*
X187992Y729677D01*
X185668Y730640D01*
X183890Y732418D01*
X182927Y734742D01*
X182927Y737258D01*
X183976Y739789D01*
X184011Y739901D01*
X184055Y740009D01*
X184078Y740115D01*
X184111Y740219D01*
X184125Y740335D01*
X184150Y740449D01*
X184160Y740603D01*
X184167Y740666D01*
X184166Y740702D01*
X184169Y740761D01*
X184169Y752011D01*
X184943Y753878D01*
X208176Y777111D01*
X208281Y777237D01*
X208393Y777358D01*
X208425Y777409D01*
X208464Y777456D01*
X208546Y777599D01*
X208634Y777738D01*
X208658Y777794D01*
X208688Y777847D01*
X208743Y778002D01*
X208805Y778154D01*
X208818Y778214D01*
X208839Y778271D01*
X208865Y778434D01*
X208900Y778594D01*
X208905Y778671D01*
X208912Y778716D01*
X208911Y778777D01*
X208919Y778906D01*
X208919Y830511D01*
X209693Y832378D01*
X216336Y839021D01*
X218122Y840807D01*
X219989Y841581D01*
X330511Y841581D01*
X332378Y840807D01*
X343004Y830181D01*
X343104Y830097D01*
X343197Y830007D01*
X343277Y829953D01*
X343350Y829892D01*
X343463Y829827D01*
X343570Y829755D01*
X343658Y829716D01*
X343741Y829668D01*
X343863Y829625D01*
X343982Y829572D01*
X344075Y829550D01*
X344165Y829518D01*
X344293Y829496D01*
X344420Y829466D01*
X344515Y829460D01*
X344609Y829444D01*
X344739Y829446D01*
X344869Y829438D01*
X344964Y829449D01*
X345060Y829450D01*
X345187Y829475D01*
X345316Y829490D01*
X345408Y829518D01*
X345502Y829536D01*
X345623Y829583D01*
X345747Y829620D01*
X345832Y829664D01*
X345922Y829698D01*
X346033Y829766D01*
X346149Y829825D01*
X346225Y829882D01*
X346306Y829932D01*
X346404Y830018D01*
X346507Y830097D01*
X346572Y830167D01*
X346644Y830230D01*
X346724Y830332D01*
X346813Y830428D01*
X346864Y830508D01*
X346923Y830583D01*
X346984Y830698D01*
X347054Y830808D01*
X347091Y830896D01*
X347136Y830980D01*
X347176Y831104D01*
X347225Y831224D01*
X347245Y831318D01*
X347275Y831408D01*
X347293Y831537D01*
X347320Y831664D01*
X347328Y831794D01*
X347336Y831855D01*
X347335Y831899D01*
X347339Y831976D01*
X347339Y832008D01*
X350789Y840336D01*
X357164Y846711D01*
X365492Y850161D01*
X374508Y850161D01*
X382836Y846711D01*
X389211Y840336D01*
X392661Y832008D01*
X392661Y822992D01*
X389211Y814664D01*
X382836Y808289D01*
X374508Y804839D01*
X365492Y804839D01*
X357164Y808289D01*
X354666Y810787D01*
X354566Y810871D01*
X354473Y810962D01*
X354393Y811015D01*
X354320Y811076D01*
X354207Y811141D01*
X354100Y811214D01*
X354012Y811252D01*
X353929Y811300D01*
X353807Y811343D01*
X353688Y811396D01*
X353595Y811418D01*
X353505Y811450D01*
X353377Y811472D01*
X353250Y811502D01*
X353155Y811508D01*
X353061Y811524D01*
X352931Y811522D01*
X352801Y811530D01*
X352706Y811519D01*
X352610Y811518D01*
X352483Y811493D01*
X352354Y811478D01*
X352262Y811450D01*
X352168Y811432D01*
X352047Y811386D01*
X351923Y811348D01*
X351837Y811304D01*
X351748Y811270D01*
X351637Y811202D01*
X351521Y811143D01*
X351445Y811086D01*
X351364Y811036D01*
X351266Y810950D01*
X351163Y810871D01*
X351098Y810801D01*
X351026Y810738D01*
X350946Y810636D01*
X350857Y810540D01*
X350806Y810460D01*
X350747Y810385D01*
X350686Y810270D01*
X350616Y810161D01*
X350579Y810072D01*
X350534Y809988D01*
X350494Y809864D01*
X350445Y809744D01*
X350425Y809650D01*
X350395Y809560D01*
X350377Y809431D01*
X350350Y809304D01*
X350342Y809174D01*
X350334Y809114D01*
X350335Y809069D01*
X350331Y808992D01*
X350331Y696156D01*
X350345Y695993D01*
X350352Y695828D01*
X350365Y695769D01*
X350371Y695708D01*
X350414Y695549D01*
X350450Y695389D01*
X350473Y695332D01*
X350489Y695273D01*
X350560Y695125D01*
X350623Y694973D01*
X350656Y694922D01*
X350683Y694867D01*
X350778Y694733D01*
X350868Y694595D01*
X350919Y694537D01*
X350945Y694501D01*
X350988Y694458D01*
X351074Y694361D01*
X379976Y665459D01*
X380066Y665384D01*
X380149Y665302D01*
X380238Y665240D01*
X380321Y665170D01*
X380423Y665112D01*
X380519Y665046D01*
X380658Y664978D01*
X380712Y664947D01*
X380746Y664935D01*
X380800Y664909D01*
X383332Y663860D01*
X385110Y662082D01*
X386073Y659758D01*
X386073Y657242D01*
X385110Y654918D01*
X383332Y653140D01*
X381008Y652177D01*
X378492Y652177D01*
X376168Y653140D01*
X374390Y654918D01*
X373341Y657450D01*
X373287Y657554D01*
X373242Y657662D01*
X373183Y657753D01*
X373133Y657849D01*
X373061Y657942D01*
X372998Y658040D01*
X372896Y658155D01*
X372857Y658205D01*
X372830Y658230D01*
X372791Y658274D01*
X340943Y690122D01*
X340169Y691989D01*
X340169Y817594D01*
X340155Y817757D01*
X340148Y817922D01*
X340135Y817981D01*
X340129Y818042D01*
X340086Y818201D01*
X340050Y818361D01*
X340027Y818418D01*
X340011Y818477D01*
X339940Y818625D01*
X339877Y818777D01*
X339844Y818828D01*
X339817Y818883D01*
X339722Y819017D01*
X339632Y819155D01*
X339581Y819213D01*
X339555Y819249D01*
X339512Y819292D01*
X339426Y819389D01*
X336916Y821899D01*
X336816Y821983D01*
X336723Y822073D01*
X336643Y822127D01*
X336570Y822188D01*
X336457Y822253D01*
X336350Y822325D01*
X336262Y822364D01*
X336179Y822412D01*
X336057Y822455D01*
X335938Y822508D01*
X335845Y822530D01*
X335755Y822562D01*
X335627Y822584D01*
X335500Y822614D01*
X335405Y822620D01*
X335311Y822636D01*
X335181Y822634D01*
X335051Y822642D01*
X334956Y822631D01*
X334860Y822630D01*
X334733Y822605D01*
X334604Y822590D01*
X334512Y822562D01*
X334418Y822544D01*
X334297Y822497D01*
X334173Y822460D01*
X334087Y822416D01*
X333998Y822382D01*
X333887Y822314D01*
X333771Y822255D01*
X333695Y822198D01*
X333614Y822148D01*
X333516Y822062D01*
X333413Y821983D01*
X333348Y821913D01*
X333276Y821850D01*
X333196Y821748D01*
X333107Y821652D01*
X333056Y821572D01*
X332997Y821497D01*
X332936Y821382D01*
X332866Y821272D01*
X332829Y821184D01*
X332784Y821100D01*
X332744Y820976D01*
X332695Y820856D01*
X332675Y820762D01*
X332645Y820672D01*
X332627Y820543D01*
X332600Y820416D01*
X332592Y820286D01*
X332584Y820226D01*
X332585Y820181D01*
X332581Y820104D01*
X332581Y796989D01*
X331807Y795122D01*
X331484Y794799D01*
X331462Y794772D01*
X331436Y794749D01*
X331318Y794600D01*
X331195Y794453D01*
X331178Y794423D01*
X331156Y794396D01*
X331066Y794228D01*
X330972Y794062D01*
X330960Y794030D01*
X330944Y793999D01*
X330885Y793818D01*
X330821Y793638D01*
X330815Y793604D01*
X330805Y793571D01*
X330779Y793382D01*
X330747Y793194D01*
X330748Y793159D01*
X330743Y793125D01*
X330751Y792934D01*
X330754Y792744D01*
X330760Y792710D01*
X330762Y792675D01*
X330803Y792489D01*
X330839Y792302D01*
X330852Y792269D01*
X330859Y792235D01*
X330932Y792060D01*
X331001Y791882D01*
X331019Y791852D01*
X331033Y791820D01*
X331136Y791660D01*
X331235Y791497D01*
X331258Y791471D01*
X331277Y791442D01*
X331484Y791208D01*
X332610Y790082D01*
X333573Y787758D01*
X333573Y785242D01*
X332610Y782918D01*
X330832Y781140D01*
X328300Y780091D01*
X328196Y780037D01*
X328088Y779992D01*
X327997Y779933D01*
X327901Y779883D01*
X327808Y779811D01*
X327710Y779748D01*
X327595Y779646D01*
X327545Y779607D01*
X327520Y779580D01*
X327476Y779541D01*
X298430Y750495D01*
X298325Y750369D01*
X298213Y750248D01*
X298181Y750197D01*
X298142Y750150D01*
X298060Y750007D01*
X297972Y749868D01*
X297948Y749812D01*
X297918Y749759D01*
X297863Y749604D01*
X297801Y749452D01*
X297788Y749392D01*
X297767Y749335D01*
X297741Y749172D01*
X297706Y749012D01*
X297701Y748935D01*
X297694Y748890D01*
X297695Y748829D01*
X297687Y748700D01*
X297687Y746002D01*
X297698Y745873D01*
X297700Y745743D01*
X297718Y745649D01*
X297727Y745554D01*
X297761Y745428D01*
X297786Y745301D01*
X297820Y745211D01*
X297845Y745119D01*
X297901Y745002D01*
X297948Y744881D01*
X297998Y744799D01*
X298039Y744713D01*
X298114Y744607D01*
X298182Y744496D01*
X298245Y744424D01*
X298301Y744347D01*
X298394Y744256D01*
X298480Y744159D01*
X298555Y744099D01*
X298623Y744033D01*
X298731Y743960D01*
X298833Y743879D01*
X298917Y743834D01*
X298996Y743781D01*
X299115Y743728D01*
X299230Y743667D01*
X299321Y743637D01*
X299408Y743598D01*
X299535Y743567D01*
X299658Y743527D01*
X299753Y743514D01*
X299846Y743492D01*
X299975Y743484D01*
X300104Y743466D01*
X300200Y743470D01*
X300295Y743464D01*
X300424Y743479D01*
X300554Y743484D01*
X300647Y743505D01*
X300742Y743516D01*
X300867Y743554D01*
X300994Y743582D01*
X301082Y743619D01*
X301173Y743646D01*
X301289Y743705D01*
X301409Y743755D01*
X301490Y743807D01*
X301575Y743851D01*
X301678Y743929D01*
X301787Y744000D01*
X301885Y744086D01*
X301933Y744123D01*
X301964Y744156D01*
X302022Y744207D01*
X319541Y761726D01*
X319616Y761816D01*
X319698Y761899D01*
X319760Y761988D01*
X319830Y762071D01*
X319888Y762173D01*
X319954Y762269D01*
X320022Y762408D01*
X320053Y762462D01*
X320065Y762496D01*
X320091Y762550D01*
X321140Y765082D01*
X322918Y766860D01*
X325242Y767823D01*
X327758Y767823D01*
X330082Y766860D01*
X331860Y765082D01*
X332823Y762758D01*
X332823Y760242D01*
X331860Y757918D01*
X330862Y756921D01*
X330840Y756894D01*
X330814Y756871D01*
X330696Y756722D01*
X330573Y756575D01*
X330556Y756545D01*
X330535Y756518D01*
X330444Y756350D01*
X330350Y756184D01*
X330338Y756152D01*
X330322Y756121D01*
X330263Y755940D01*
X330199Y755760D01*
X330193Y755726D01*
X330183Y755693D01*
X330157Y755504D01*
X330126Y755316D01*
X330126Y755281D01*
X330121Y755247D01*
X330129Y755056D01*
X330132Y754865D01*
X330138Y754831D01*
X330140Y754797D01*
X330181Y754611D01*
X330217Y754423D01*
X330230Y754391D01*
X330237Y754357D01*
X330311Y754182D01*
X330380Y754003D01*
X330398Y753974D01*
X330411Y753942D01*
X330514Y753782D01*
X330614Y753619D01*
X330636Y753593D01*
X330655Y753564D01*
X330862Y753329D01*
X331860Y752332D01*
X332823Y750008D01*
X332823Y747492D01*
X331860Y745168D01*
X330862Y744171D01*
X330840Y744144D01*
X330814Y744121D01*
X330696Y743972D01*
X330573Y743825D01*
X330556Y743795D01*
X330535Y743768D01*
X330444Y743600D01*
X330350Y743434D01*
X330338Y743402D01*
X330322Y743371D01*
X330263Y743190D01*
X330199Y743010D01*
X330193Y742976D01*
X330183Y742943D01*
X330157Y742754D01*
X330126Y742566D01*
X330126Y742531D01*
X330121Y742497D01*
X330129Y742306D01*
X330132Y742115D01*
X330138Y742081D01*
X330140Y742047D01*
X330181Y741861D01*
X330217Y741673D01*
X330230Y741641D01*
X330237Y741607D01*
X330311Y741432D01*
X330380Y741253D01*
X330398Y741224D01*
X330411Y741192D01*
X330514Y741032D01*
X330614Y740869D01*
X330636Y740843D01*
X330655Y740814D01*
X330862Y740579D01*
X331860Y739582D01*
X332823Y737258D01*
X332823Y734742D01*
X331860Y732418D01*
X330082Y730640D01*
X327550Y729591D01*
X327446Y729537D01*
X327338Y729492D01*
X327247Y729433D01*
X327151Y729383D01*
X327058Y729311D01*
X326960Y729248D01*
X326845Y729146D01*
X326795Y729107D01*
X326770Y729080D01*
X326726Y729041D01*
X318242Y720557D01*
X318137Y720431D01*
X318025Y720310D01*
X317993Y720259D01*
X317954Y720212D01*
X317872Y720069D01*
X317784Y719930D01*
X317760Y719874D01*
X317730Y719821D01*
X317675Y719666D01*
X317613Y719514D01*
X317600Y719454D01*
X317579Y719397D01*
X317553Y719234D01*
X317518Y719074D01*
X317513Y718997D01*
X317506Y718952D01*
X317507Y718891D01*
X317499Y718762D01*
X317499Y703821D01*
X317510Y703691D01*
X317512Y703561D01*
X317530Y703468D01*
X317539Y703372D01*
X317573Y703247D01*
X317598Y703119D01*
X317632Y703030D01*
X317657Y702938D01*
X317713Y702821D01*
X317760Y702699D01*
X317810Y702617D01*
X317851Y702531D01*
X317926Y702426D01*
X317994Y702314D01*
X318057Y702243D01*
X318113Y702165D01*
X318206Y702074D01*
X318292Y701977D01*
X318367Y701918D01*
X318435Y701851D01*
X318543Y701778D01*
X318645Y701698D01*
X318729Y701652D01*
X318808Y701599D01*
X318927Y701546D01*
X319042Y701485D01*
X319133Y701455D01*
X319220Y701417D01*
X319346Y701386D01*
X319470Y701346D01*
X319565Y701333D01*
X319658Y701310D01*
X319787Y701302D01*
X319916Y701284D01*
X320012Y701288D01*
X320107Y701282D01*
X320236Y701297D01*
X320366Y701303D01*
X320459Y701323D01*
X320554Y701334D01*
X320679Y701372D01*
X320806Y701400D01*
X320894Y701437D01*
X320985Y701465D01*
X321101Y701524D01*
X321221Y701574D01*
X321301Y701626D01*
X321387Y701669D01*
X321490Y701748D01*
X321599Y701818D01*
X321697Y701904D01*
X321745Y701941D01*
X321776Y701974D01*
X321834Y702025D01*
X323168Y703360D01*
X325492Y704323D01*
X328008Y704323D01*
X330332Y703360D01*
X332110Y701582D01*
X333073Y699258D01*
X333073Y696742D01*
X332110Y694418D01*
X330332Y692640D01*
X327800Y691591D01*
X327696Y691537D01*
X327588Y691492D01*
X327497Y691433D01*
X327401Y691383D01*
X327308Y691311D01*
X327210Y691248D01*
X327123Y691171D01*
X327099Y691153D01*
X327081Y691135D01*
X327045Y691107D01*
X327020Y691080D01*
X326976Y691041D01*
X324846Y688911D01*
X324741Y688785D01*
X324629Y688664D01*
X324597Y688613D01*
X324558Y688566D01*
X324476Y688423D01*
X324388Y688284D01*
X324364Y688228D01*
X324334Y688175D01*
X324279Y688020D01*
X324217Y687868D01*
X324204Y687808D01*
X324183Y687751D01*
X324157Y687588D01*
X324122Y687428D01*
X324117Y687351D01*
X324110Y687306D01*
X324111Y687245D01*
X324103Y687116D01*
X324103Y681362D01*
X324106Y681327D01*
X324104Y681293D01*
X324126Y681104D01*
X324143Y680913D01*
X324152Y680880D01*
X324156Y680846D01*
X324211Y680663D01*
X324261Y680479D01*
X324276Y680448D01*
X324286Y680415D01*
X324373Y680244D01*
X324455Y680072D01*
X324475Y680044D01*
X324490Y680013D01*
X324606Y679861D01*
X324717Y679706D01*
X324742Y679682D01*
X324762Y679655D01*
X324902Y679526D01*
X325039Y679392D01*
X325068Y679373D01*
X325094Y679349D01*
X325255Y679247D01*
X325412Y679140D01*
X325444Y679126D01*
X325473Y679108D01*
X325650Y679035D01*
X325824Y678958D01*
X325858Y678950D01*
X325890Y678937D01*
X326077Y678897D01*
X326262Y678851D01*
X326296Y678849D01*
X326330Y678842D01*
X326642Y678823D01*
X328258Y678823D01*
X330582Y677860D01*
X332360Y676082D01*
X333323Y673758D01*
X333323Y671242D01*
X332360Y668918D01*
X331450Y668009D01*
X331345Y667882D01*
X331233Y667762D01*
X331201Y667710D01*
X331162Y667663D01*
X331080Y667521D01*
X330992Y667382D01*
X330968Y667325D01*
X330938Y667272D01*
X330883Y667118D01*
X330821Y666965D01*
X330808Y666906D01*
X330787Y666848D01*
X330761Y666686D01*
X330726Y666525D01*
X330721Y666448D01*
X330714Y666404D01*
X330715Y666343D01*
X330707Y666213D01*
X330707Y649772D01*
X330718Y649643D01*
X330720Y649513D01*
X330738Y649419D01*
X330747Y649324D01*
X330781Y649198D01*
X330806Y649071D01*
X330840Y648981D01*
X330865Y648889D01*
X330921Y648772D01*
X330968Y648651D01*
X331018Y648569D01*
X331059Y648483D01*
X331134Y648377D01*
X331202Y648266D01*
X331265Y648194D01*
X331321Y648117D01*
X331414Y648026D01*
X331500Y647929D01*
X331575Y647869D01*
X331643Y647803D01*
X331751Y647730D01*
X331853Y647649D01*
X331937Y647604D01*
X332016Y647551D01*
X332135Y647498D01*
X332250Y647437D01*
X332341Y647407D01*
X332428Y647368D01*
X332555Y647337D01*
X332678Y647297D01*
X332773Y647284D01*
X332866Y647262D01*
X332995Y647254D01*
X333124Y647236D01*
X333220Y647240D01*
X333315Y647234D01*
X333444Y647249D01*
X333574Y647254D01*
X333667Y647275D01*
X333762Y647286D01*
X333887Y647324D01*
X334014Y647352D01*
X334102Y647389D01*
X334193Y647416D01*
X334309Y647475D01*
X334429Y647525D01*
X334510Y647577D01*
X334595Y647621D01*
X334698Y647699D01*
X334807Y647770D01*
X334905Y647856D01*
X334953Y647893D01*
X334984Y647926D01*
X335042Y647977D01*
X347291Y660226D01*
X347366Y660316D01*
X347448Y660399D01*
X347510Y660488D01*
X347580Y660571D01*
X347638Y660673D01*
X347704Y660769D01*
X347772Y660908D01*
X347803Y660962D01*
X347815Y660996D01*
X347841Y661050D01*
X348890Y663582D01*
X350668Y665360D01*
X352992Y666323D01*
X355508Y666323D01*
X357832Y665360D01*
X359610Y663582D01*
X360573Y661258D01*
X360573Y658742D01*
X359610Y656418D01*
X357832Y654640D01*
X355300Y653591D01*
X355196Y653537D01*
X355088Y653492D01*
X354997Y653433D01*
X354901Y653383D01*
X354808Y653311D01*
X354710Y653248D01*
X354595Y653146D01*
X354545Y653107D01*
X354520Y653080D01*
X354476Y653041D01*
X338054Y636619D01*
X337949Y636493D01*
X337837Y636372D01*
X337805Y636321D01*
X337766Y636274D01*
X337684Y636131D01*
X337596Y635992D01*
X337572Y635936D01*
X337542Y635883D01*
X337487Y635728D01*
X337425Y635576D01*
X337412Y635516D01*
X337391Y635459D01*
X337365Y635296D01*
X337330Y635136D01*
X337325Y635059D01*
X337318Y635014D01*
X337319Y634953D01*
X337311Y634824D01*
X337311Y619862D01*
X337314Y619827D01*
X337312Y619793D01*
X337334Y619604D01*
X337351Y619413D01*
X337360Y619380D01*
X337364Y619346D01*
X337419Y619163D01*
X337469Y618979D01*
X337484Y618948D01*
X337494Y618915D01*
X337581Y618744D01*
X337663Y618572D01*
X337683Y618544D01*
X337698Y618513D01*
X337814Y618361D01*
X337925Y618206D01*
X337950Y618182D01*
X337970Y618155D01*
X338110Y618026D01*
X338247Y617892D01*
X338276Y617873D01*
X338302Y617849D01*
X338463Y617747D01*
X338620Y617640D01*
X338652Y617626D01*
X338681Y617608D01*
X338858Y617535D01*
X339032Y617458D01*
X339066Y617450D01*
X339098Y617437D01*
X339285Y617397D01*
X339470Y617351D01*
X339504Y617349D01*
X339538Y617342D01*
X339850Y617323D01*
X341334Y617323D01*
X343658Y616360D01*
X345260Y614758D01*
X345286Y614736D01*
X345309Y614710D01*
X345458Y614592D01*
X345605Y614469D01*
X345635Y614452D01*
X345662Y614430D01*
X345830Y614341D01*
X345996Y614246D01*
X346029Y614234D01*
X346059Y614218D01*
X346240Y614159D01*
X346420Y614095D01*
X346455Y614089D01*
X346487Y614079D01*
X346676Y614053D01*
X346864Y614021D01*
X346899Y614022D01*
X346933Y614017D01*
X347124Y614025D01*
X347315Y614028D01*
X347349Y614034D01*
X347383Y614036D01*
X347569Y614077D01*
X347757Y614113D01*
X347789Y614126D01*
X347823Y614133D01*
X347999Y614207D01*
X348177Y614275D01*
X348206Y614293D01*
X348238Y614307D01*
X348399Y614410D01*
X348561Y614509D01*
X348587Y614532D01*
X348617Y614551D01*
X348851Y614758D01*
X359390Y625297D01*
X359495Y625423D01*
X359607Y625544D01*
X359639Y625595D01*
X359678Y625642D01*
X359760Y625785D01*
X359848Y625924D01*
X359872Y625980D01*
X359902Y626033D01*
X359957Y626188D01*
X360019Y626340D01*
X360032Y626400D01*
X360053Y626457D01*
X360079Y626620D01*
X360114Y626781D01*
X360119Y626857D01*
X360126Y626902D01*
X360125Y626963D01*
X360133Y627092D01*
X360133Y628614D01*
X361096Y630938D01*
X362874Y632716D01*
X365198Y633679D01*
X367714Y633679D01*
X370038Y632716D01*
X371816Y630938D01*
X372779Y628614D01*
X372779Y626098D01*
X371816Y623774D01*
X370038Y621996D01*
X367714Y621033D01*
X366192Y621033D01*
X366029Y621019D01*
X365864Y621012D01*
X365805Y620999D01*
X365744Y620993D01*
X365585Y620950D01*
X365425Y620914D01*
X365368Y620891D01*
X365310Y620875D01*
X365161Y620804D01*
X365009Y620741D01*
X364958Y620708D01*
X364903Y620681D01*
X364769Y620586D01*
X364631Y620496D01*
X364573Y620445D01*
X364537Y620419D01*
X364494Y620376D01*
X364397Y620290D01*
X348605Y604497D01*
X348582Y604471D01*
X348557Y604448D01*
X348439Y604299D01*
X348316Y604152D01*
X348299Y604122D01*
X348277Y604095D01*
X348187Y603927D01*
X348093Y603761D01*
X348081Y603729D01*
X348065Y603698D01*
X348006Y603517D01*
X347942Y603337D01*
X347936Y603303D01*
X347925Y603270D01*
X347899Y603081D01*
X347868Y602893D01*
X347869Y602858D01*
X347864Y602824D01*
X347872Y602633D01*
X347874Y602442D01*
X347881Y602408D01*
X347882Y602374D01*
X347924Y602188D01*
X347960Y602000D01*
X347972Y601968D01*
X347980Y601934D01*
X348053Y601758D01*
X348122Y601580D01*
X348140Y601551D01*
X348154Y601519D01*
X348257Y601358D01*
X348356Y601196D01*
X348379Y601170D01*
X348398Y601141D01*
X348605Y600906D01*
X358807Y590704D01*
X359581Y588837D01*
X359581Y452261D01*
X359591Y452145D01*
X359591Y452028D01*
X359611Y451921D01*
X359621Y451813D01*
X359651Y451700D01*
X359672Y451585D01*
X359723Y451439D01*
X359739Y451378D01*
X359755Y451346D01*
X359774Y451289D01*
X360405Y449766D01*
X360421Y449736D01*
X360432Y449703D01*
X360525Y449536D01*
X360613Y449367D01*
X360635Y449340D01*
X360652Y449310D01*
X360772Y449162D01*
X360889Y449011D01*
X360915Y448988D01*
X360937Y448961D01*
X361082Y448837D01*
X361223Y448710D01*
X361253Y448691D01*
X361279Y448669D01*
X361444Y448573D01*
X361606Y448472D01*
X361638Y448459D01*
X361668Y448441D01*
X361847Y448376D01*
X362024Y448305D01*
X362058Y448298D01*
X362090Y448286D01*
X362278Y448253D01*
X362465Y448215D01*
X362500Y448214D01*
X362534Y448208D01*
X362724Y448209D01*
X362915Y448204D01*
X362950Y448209D01*
X362984Y448210D01*
X363171Y448244D01*
X363360Y448273D01*
X363393Y448284D01*
X363427Y448290D01*
X363723Y448392D01*
X367993Y450161D01*
X377008Y450161D01*
X385336Y446711D01*
X389634Y442413D01*
X389734Y442329D01*
X389827Y442238D01*
X389907Y442185D01*
X389980Y442124D01*
X390093Y442059D01*
X390200Y441986D01*
X390288Y441948D01*
X390371Y441900D01*
X390493Y441857D01*
X390612Y441804D01*
X390705Y441782D01*
X390795Y441750D01*
X390923Y441728D01*
X391050Y441698D01*
X391145Y441692D01*
X391239Y441676D01*
X391369Y441678D01*
X391499Y441670D01*
X391594Y441681D01*
X391690Y441682D01*
X391817Y441707D01*
X391946Y441722D01*
X392038Y441750D01*
X392132Y441768D01*
X392253Y441815D01*
X392377Y441852D01*
X392462Y441896D01*
X392552Y441930D01*
X392663Y441998D01*
X392779Y442057D01*
X392855Y442114D01*
X392936Y442164D01*
X393034Y442250D01*
X393137Y442329D01*
X393202Y442399D01*
X393274Y442462D01*
X393354Y442564D01*
X393443Y442660D01*
X393494Y442740D01*
X393553Y442815D01*
X393614Y442930D01*
X393684Y443039D01*
X393721Y443128D01*
X393766Y443212D01*
X393806Y443336D01*
X393855Y443456D01*
X393875Y443549D01*
X393905Y443640D01*
X393923Y443769D01*
X393950Y443896D01*
X393958Y444026D01*
X393966Y444086D01*
X393965Y444131D01*
X393969Y444208D01*
X393969Y667544D01*
X393955Y667707D01*
X393948Y667872D01*
X393935Y667931D01*
X393929Y667992D01*
X393886Y668151D01*
X393850Y668311D01*
X393827Y668368D01*
X393811Y668427D01*
X393740Y668575D01*
X393677Y668727D01*
X393644Y668778D01*
X393617Y668833D01*
X393522Y668967D01*
X393432Y669105D01*
X393381Y669163D01*
X393355Y669199D01*
X393312Y669242D01*
X393226Y669339D01*
X383774Y678791D01*
X383684Y678866D01*
X383601Y678948D01*
X383512Y679010D01*
X383429Y679080D01*
X383327Y679138D01*
X383231Y679204D01*
X383092Y679272D01*
X383038Y679303D01*
X383004Y679315D01*
X382950Y679341D01*
X380418Y680390D01*
X378640Y682168D01*
X377677Y684492D01*
X377677Y687008D01*
X378640Y689332D01*
X380418Y691110D01*
X382742Y692073D01*
X385258Y692073D01*
X387582Y691110D01*
X389360Y689332D01*
X390409Y686800D01*
X390463Y686696D01*
X390508Y686588D01*
X390567Y686497D01*
X390617Y686401D01*
X390689Y686308D01*
X390752Y686210D01*
X390854Y686095D01*
X390893Y686045D01*
X390920Y686020D01*
X390959Y685976D01*
X401571Y675364D01*
X403357Y673578D01*
X404131Y671711D01*
X404131Y316039D01*
X403357Y314172D01*
X386378Y297193D01*
X384511Y296419D01*
X187156Y296419D01*
X186993Y296405D01*
X186828Y296398D01*
X186769Y296385D01*
X186708Y296379D01*
X186549Y296336D01*
X186389Y296300D01*
X186332Y296277D01*
X186273Y296261D01*
X186125Y296190D01*
X185973Y296127D01*
X185922Y296094D01*
X185867Y296067D01*
X185733Y295972D01*
X185595Y295882D01*
X185537Y295831D01*
X185501Y295805D01*
X185458Y295762D01*
X185361Y295676D01*
X175709Y286024D01*
X175634Y285934D01*
X175552Y285851D01*
X175490Y285762D01*
X175420Y285679D01*
X175362Y285577D01*
X175296Y285481D01*
X175228Y285342D01*
X175197Y285288D01*
X175185Y285254D01*
X175159Y285200D01*
X174110Y282668D01*
X172332Y280890D01*
X170008Y279927D01*
X168144Y279927D01*
X168109Y279924D01*
X168075Y279926D01*
X167886Y279904D01*
X167695Y279887D01*
X167662Y279878D01*
X167628Y279874D01*
X167445Y279819D01*
X167261Y279769D01*
X167230Y279754D01*
X167197Y279744D01*
X167026Y279657D01*
X166854Y279575D01*
X166826Y279555D01*
X166795Y279540D01*
X166643Y279424D01*
X166488Y279313D01*
X166464Y279288D01*
X166437Y279268D01*
X166308Y279128D01*
X166174Y278991D01*
X166155Y278962D01*
X166131Y278936D01*
X166029Y278775D01*
X165922Y278618D01*
X165908Y278586D01*
X165890Y278557D01*
X165817Y278380D01*
X165740Y278206D01*
X165732Y278172D01*
X165719Y278140D01*
X165679Y277953D01*
X165633Y277768D01*
X165631Y277734D01*
X165624Y277700D01*
X165605Y277388D01*
X165605Y229686D01*
X164599Y227259D01*
X145991Y208651D01*
X143564Y207645D01*
X87288Y207645D01*
X87124Y207631D01*
X86959Y207624D01*
X86900Y207611D01*
X86839Y207605D01*
X86680Y207562D01*
X86520Y207526D01*
X86464Y207503D01*
X86405Y207487D01*
X86257Y207416D01*
X86104Y207353D01*
X86053Y207320D01*
X85998Y207293D01*
X85865Y207198D01*
X85726Y207108D01*
X85668Y207057D01*
X85632Y207031D01*
X85589Y206988D01*
X85492Y206902D01*
X70071Y191481D01*
X69996Y191391D01*
X69914Y191308D01*
X69852Y191219D01*
X69782Y191135D01*
X69724Y191034D01*
X69658Y190938D01*
X69590Y190799D01*
X69559Y190744D01*
X69547Y190710D01*
X69521Y190657D01*
X69246Y189994D01*
X67256Y188004D01*
X64657Y186927D01*
X61843Y186927D01*
X59244Y188004D01*
X57254Y189994D01*
X57157Y190228D01*
X57097Y190343D01*
X57045Y190462D01*
X56993Y190542D01*
X56949Y190627D01*
X56869Y190729D01*
X56797Y190838D01*
X56731Y190907D01*
X56673Y190983D01*
X56576Y191070D01*
X56487Y191164D01*
X56410Y191220D01*
X56339Y191285D01*
X56228Y191353D01*
X56123Y191430D01*
X56038Y191472D01*
X55956Y191522D01*
X55835Y191571D01*
X55719Y191628D01*
X55627Y191654D01*
X55538Y191689D01*
X55411Y191715D01*
X55285Y191751D01*
X55191Y191760D01*
X55097Y191779D01*
X54967Y191782D01*
X54837Y191795D01*
X54742Y191788D01*
X54647Y191790D01*
X54518Y191770D01*
X54389Y191760D01*
X54296Y191736D01*
X54202Y191721D01*
X54079Y191679D01*
X53953Y191646D01*
X53866Y191606D01*
X53776Y191575D01*
X53662Y191511D01*
X53544Y191457D01*
X53466Y191402D01*
X53383Y191355D01*
X53282Y191273D01*
X53176Y191198D01*
X53108Y191131D01*
X53034Y191070D01*
X52950Y190971D01*
X52858Y190879D01*
X52804Y190800D01*
X52742Y190728D01*
X52676Y190616D01*
X52602Y190509D01*
X52545Y190392D01*
X52514Y190339D01*
X52499Y190297D01*
X52465Y190228D01*
X49470Y182996D01*
X44254Y177780D01*
X37438Y174957D01*
X30062Y174957D01*
X23246Y177780D01*
X19496Y181531D01*
X19396Y181614D01*
X19303Y181705D01*
X19223Y181759D01*
X19150Y181820D01*
X19037Y181884D01*
X18930Y181957D01*
X18842Y181996D01*
X18759Y182043D01*
X18637Y182087D01*
X18518Y182140D01*
X18425Y182162D01*
X18335Y182194D01*
X18207Y182215D01*
X18080Y182246D01*
X17985Y182252D01*
X17891Y182268D01*
X17761Y182266D01*
X17631Y182274D01*
X17536Y182263D01*
X17440Y182262D01*
X17313Y182237D01*
X17184Y182222D01*
X17092Y182194D01*
X16998Y182176D01*
X16877Y182129D01*
X16753Y182092D01*
X16667Y182048D01*
X16578Y182014D01*
X16467Y181946D01*
X16351Y181887D01*
X16275Y181829D01*
X16194Y181780D01*
X16096Y181694D01*
X15993Y181615D01*
X15928Y181545D01*
X15856Y181482D01*
X15776Y181380D01*
X15687Y181284D01*
X15636Y181203D01*
X15577Y181129D01*
X15516Y181014D01*
X15446Y180904D01*
X15409Y180816D01*
X15364Y180732D01*
X15324Y180608D01*
X15275Y180488D01*
X15255Y180394D01*
X15225Y180303D01*
X15207Y180175D01*
X15180Y180048D01*
X15172Y179918D01*
X15164Y179857D01*
X15165Y179813D01*
X15161Y179736D01*
X15161Y171381D01*
X15173Y171240D01*
X15177Y171098D01*
X15193Y171016D01*
X15201Y170933D01*
X15238Y170796D01*
X15266Y170657D01*
X15297Y170579D01*
X15319Y170498D01*
X15380Y170371D01*
X15432Y170239D01*
X15477Y170167D01*
X15513Y170092D01*
X15595Y169977D01*
X15670Y169856D01*
X15726Y169794D01*
X15775Y169725D01*
X15876Y169627D01*
X15971Y169521D01*
X16037Y169470D01*
X16097Y169411D01*
X16215Y169332D01*
X16326Y169245D01*
X16401Y169206D01*
X16470Y169159D01*
X16600Y169102D01*
X16725Y169036D01*
X16805Y169011D01*
X16882Y168977D01*
X17020Y168944D01*
X17155Y168901D01*
X17238Y168890D01*
X17320Y168870D01*
X17461Y168862D01*
X17601Y168844D01*
X17685Y168848D01*
X17769Y168843D01*
X17910Y168859D01*
X18051Y168866D01*
X18160Y168888D01*
X18216Y168895D01*
X18266Y168910D01*
X18357Y168928D01*
X18516Y168971D01*
X39171Y168971D01*
X39171Y156270D01*
X39174Y156236D01*
X39172Y156201D01*
X39194Y156012D01*
X39211Y155822D01*
X39220Y155788D01*
X39224Y155754D01*
X39279Y155571D01*
X39329Y155387D01*
X39344Y155356D01*
X39354Y155323D01*
X39441Y155152D01*
X39523Y154981D01*
X39543Y154953D01*
X39558Y154922D01*
X39674Y154770D01*
X39785Y154615D01*
X39810Y154590D01*
X39830Y154563D01*
X39971Y154434D01*
X40107Y154300D01*
X40136Y154281D01*
X40162Y154258D01*
X40323Y154155D01*
X40481Y154048D01*
X40512Y154034D01*
X40541Y154016D01*
X40718Y153943D01*
X40892Y153866D01*
X40926Y153858D01*
X40958Y153845D01*
X41145Y153805D01*
X41330Y153760D01*
X41364Y153757D01*
X41398Y153750D01*
X41710Y153731D01*
X46790Y153731D01*
X46824Y153734D01*
X46859Y153732D01*
X47048Y153754D01*
X47238Y153771D01*
X47272Y153780D01*
X47306Y153784D01*
X47489Y153839D01*
X47673Y153889D01*
X47704Y153904D01*
X47737Y153914D01*
X47908Y154001D01*
X48079Y154083D01*
X48108Y154103D01*
X48138Y154119D01*
X48290Y154234D01*
X48446Y154345D01*
X48470Y154370D01*
X48497Y154391D01*
X48626Y154531D01*
X48760Y154667D01*
X48779Y154696D01*
X48802Y154722D01*
X48905Y154883D01*
X49012Y155041D01*
X49026Y155072D01*
X49044Y155101D01*
X49117Y155278D01*
X49194Y155452D01*
X49202Y155486D01*
X49215Y155518D01*
X49255Y155705D01*
X49301Y155890D01*
X49303Y155924D01*
X49310Y155958D01*
X49329Y156270D01*
X49329Y168971D01*
X68590Y168971D01*
X68625Y168974D01*
X68659Y168972D01*
X68848Y168994D01*
X69039Y169011D01*
X69072Y169020D01*
X69106Y169024D01*
X69289Y169079D01*
X69473Y169129D01*
X69504Y169144D01*
X69537Y169154D01*
X69708Y169241D01*
X69880Y169323D01*
X69908Y169343D01*
X69939Y169358D01*
X70091Y169474D01*
X70246Y169585D01*
X70270Y169610D01*
X70297Y169630D01*
X70426Y169770D01*
X70560Y169907D01*
X70579Y169936D01*
X70603Y169962D01*
X70705Y170123D01*
X70812Y170280D01*
X70826Y170312D01*
X70844Y170341D01*
X70917Y170518D01*
X70994Y170692D01*
X71002Y170726D01*
X71014Y170754D01*
X84380Y184121D01*
X88671Y184121D01*
X88671Y164040D01*
X88674Y164006D01*
X88672Y163971D01*
X88694Y163782D01*
X88711Y163592D01*
X88720Y163558D01*
X88724Y163524D01*
X88779Y163341D01*
X88829Y163157D01*
X88844Y163126D01*
X88854Y163093D01*
X88941Y162922D01*
X89023Y162751D01*
X89043Y162723D01*
X89058Y162692D01*
X89174Y162540D01*
X89285Y162385D01*
X89310Y162360D01*
X89330Y162333D01*
X89471Y162204D01*
X89607Y162071D01*
X89636Y162051D01*
X89662Y162028D01*
X89823Y161925D01*
X89980Y161818D01*
X90012Y161804D01*
X90041Y161786D01*
X90218Y161713D01*
X90392Y161636D01*
X90426Y161628D01*
X90458Y161615D01*
X90645Y161575D01*
X90830Y161530D01*
X90864Y161527D01*
X90898Y161520D01*
X91210Y161501D01*
X93751Y161501D01*
X93751Y158960D01*
X93754Y158926D01*
X93752Y158891D01*
X93774Y158702D01*
X93791Y158512D01*
X93800Y158478D01*
X93804Y158444D01*
X93859Y158261D01*
X93909Y158077D01*
X93924Y158046D01*
X93934Y158013D01*
X94021Y157842D01*
X94103Y157671D01*
X94123Y157642D01*
X94139Y157611D01*
X94254Y157459D01*
X94365Y157304D01*
X94390Y157280D01*
X94411Y157253D01*
X94551Y157124D01*
X94688Y156990D01*
X94716Y156971D01*
X94742Y156948D01*
X94903Y156845D01*
X95061Y156738D01*
X95092Y156724D01*
X95121Y156706D01*
X95298Y156633D01*
X95472Y156556D01*
X95506Y156548D01*
X95538Y156535D01*
X95725Y156495D01*
X95910Y156449D01*
X95944Y156447D01*
X95978Y156440D01*
X96290Y156421D01*
X116371Y156421D01*
X116371Y152130D01*
X106786Y142546D01*
X106703Y142446D01*
X106612Y142353D01*
X106558Y142273D01*
X106497Y142200D01*
X106433Y142087D01*
X106360Y141980D01*
X106321Y141892D01*
X106274Y141809D01*
X106230Y141687D01*
X106178Y141568D01*
X106155Y141475D01*
X106123Y141385D01*
X106102Y141257D01*
X106071Y141130D01*
X106065Y141035D01*
X106050Y140941D01*
X106051Y140811D01*
X106043Y140681D01*
X106054Y140586D01*
X106056Y140491D01*
X106080Y140363D01*
X106095Y140234D01*
X106123Y140142D01*
X106141Y140048D01*
X106188Y139927D01*
X106226Y139803D01*
X106269Y139718D01*
X106303Y139628D01*
X106371Y139517D01*
X106430Y139401D01*
X106488Y139325D01*
X106537Y139244D01*
X106624Y139146D01*
X106702Y139043D01*
X106772Y138978D01*
X106836Y138906D01*
X106938Y138826D01*
X107033Y138738D01*
X107114Y138686D01*
X107189Y138627D01*
X107303Y138566D01*
X107413Y138496D01*
X107501Y138459D01*
X107586Y138414D01*
X107709Y138374D01*
X107829Y138325D01*
X107923Y138305D01*
X108014Y138275D01*
X108142Y138257D01*
X108270Y138230D01*
X108399Y138222D01*
X108460Y138214D01*
X108505Y138216D01*
X108582Y138211D01*
X162774Y138211D01*
X162904Y138222D01*
G37*
G36*
X407335Y42414D02*
X407335Y42414D01*
X407369Y42412D01*
X407558Y42434D01*
X407749Y42451D01*
X407782Y42460D01*
X407816Y42464D01*
X407999Y42519D01*
X408183Y42569D01*
X408214Y42584D01*
X408247Y42594D01*
X408418Y42681D01*
X408590Y42763D01*
X408618Y42783D01*
X408649Y42798D01*
X408801Y42914D01*
X408956Y43025D01*
X408980Y43050D01*
X409007Y43070D01*
X409136Y43210D01*
X409270Y43347D01*
X409289Y43376D01*
X409313Y43402D01*
X409415Y43563D01*
X409522Y43720D01*
X409536Y43752D01*
X409554Y43781D01*
X409627Y43958D01*
X409704Y44132D01*
X409712Y44166D01*
X409725Y44198D01*
X409765Y44385D01*
X409811Y44570D01*
X409813Y44604D01*
X409820Y44638D01*
X409839Y44950D01*
X409839Y52041D01*
X409838Y52054D01*
X409839Y52066D01*
X409818Y52276D01*
X409799Y52490D01*
X409796Y52502D01*
X409795Y52514D01*
X409737Y52718D01*
X409681Y52924D01*
X409676Y52935D01*
X409672Y52947D01*
X409578Y53140D01*
X409487Y53331D01*
X409480Y53341D01*
X409475Y53352D01*
X409349Y53525D01*
X409225Y53697D01*
X409217Y53706D01*
X409209Y53715D01*
X409056Y53862D01*
X408903Y54011D01*
X408892Y54018D01*
X408884Y54026D01*
X408707Y54143D01*
X408530Y54263D01*
X408518Y54268D01*
X408508Y54275D01*
X408312Y54359D01*
X408118Y54445D01*
X408106Y54448D01*
X408095Y54453D01*
X407886Y54502D01*
X407680Y54552D01*
X407668Y54553D01*
X407656Y54556D01*
X407443Y54567D01*
X407231Y54580D01*
X407219Y54578D01*
X407207Y54579D01*
X406997Y54553D01*
X406784Y54528D01*
X406772Y54524D01*
X406760Y54523D01*
X406558Y54460D01*
X406353Y54397D01*
X406342Y54392D01*
X406330Y54388D01*
X406142Y54290D01*
X405951Y54193D01*
X405942Y54186D01*
X405931Y54180D01*
X405762Y54049D01*
X405593Y53921D01*
X405584Y53912D01*
X405575Y53905D01*
X405432Y53746D01*
X405340Y53647D01*
X404760Y53067D01*
X404181Y52732D01*
X403535Y52559D01*
X395579Y52559D01*
X395579Y77960D01*
X395576Y77994D01*
X395578Y78029D01*
X395556Y78218D01*
X395539Y78408D01*
X395530Y78442D01*
X395526Y78476D01*
X395471Y78659D01*
X395421Y78843D01*
X395406Y78874D01*
X395396Y78907D01*
X395309Y79078D01*
X395227Y79249D01*
X395207Y79277D01*
X395191Y79308D01*
X395076Y79460D01*
X394965Y79615D01*
X394940Y79640D01*
X394919Y79667D01*
X394779Y79796D01*
X394643Y79930D01*
X394614Y79949D01*
X394588Y79972D01*
X394427Y80075D01*
X394269Y80182D01*
X394238Y80196D01*
X394209Y80214D01*
X394032Y80287D01*
X393858Y80364D01*
X393824Y80372D01*
X393792Y80385D01*
X393605Y80425D01*
X393420Y80470D01*
X393386Y80473D01*
X393352Y80480D01*
X393040Y80499D01*
X390499Y80499D01*
X390499Y80501D01*
X393040Y80501D01*
X393074Y80504D01*
X393109Y80502D01*
X393298Y80524D01*
X393488Y80541D01*
X393522Y80550D01*
X393556Y80554D01*
X393739Y80609D01*
X393923Y80659D01*
X393954Y80674D01*
X393987Y80684D01*
X394158Y80771D01*
X394329Y80853D01*
X394358Y80873D01*
X394388Y80889D01*
X394540Y81004D01*
X394696Y81115D01*
X394720Y81140D01*
X394747Y81161D01*
X394876Y81301D01*
X395010Y81437D01*
X395029Y81466D01*
X395052Y81492D01*
X395155Y81653D01*
X395262Y81811D01*
X395276Y81842D01*
X395294Y81871D01*
X395367Y82048D01*
X395444Y82222D01*
X395452Y82256D01*
X395465Y82288D01*
X395505Y82474D01*
X395551Y82660D01*
X395553Y82694D01*
X395560Y82728D01*
X395579Y83040D01*
X395579Y102791D01*
X395576Y102826D01*
X395578Y102860D01*
X395556Y103049D01*
X395539Y103240D01*
X395530Y103273D01*
X395526Y103307D01*
X395471Y103490D01*
X395421Y103674D01*
X395406Y103705D01*
X395396Y103738D01*
X395309Y103909D01*
X395227Y104081D01*
X395207Y104109D01*
X395191Y104140D01*
X395076Y104292D01*
X394965Y104447D01*
X394940Y104471D01*
X394919Y104498D01*
X394779Y104627D01*
X394643Y104761D01*
X394614Y104780D01*
X394588Y104804D01*
X394427Y104906D01*
X394269Y105013D01*
X394238Y105027D01*
X394209Y105045D01*
X394032Y105118D01*
X393858Y105195D01*
X393824Y105203D01*
X393792Y105216D01*
X393605Y105256D01*
X393420Y105302D01*
X393386Y105304D01*
X393352Y105311D01*
X393040Y105330D01*
X392789Y105330D01*
X392789Y114475D01*
X392786Y114509D01*
X392788Y114544D01*
X392766Y114733D01*
X392749Y114923D01*
X392740Y114957D01*
X392736Y114991D01*
X392681Y115174D01*
X392631Y115358D01*
X392616Y115389D01*
X392606Y115422D01*
X392519Y115593D01*
X392438Y115764D01*
X392417Y115792D01*
X392402Y115823D01*
X392286Y115975D01*
X392175Y116130D01*
X392175Y116131D01*
X392151Y116155D01*
X392130Y116182D01*
X392129Y116182D01*
X391989Y116312D01*
X391852Y116445D01*
X391824Y116464D01*
X391798Y116488D01*
X391637Y116590D01*
X391479Y116697D01*
X391448Y116711D01*
X391418Y116729D01*
X391242Y116802D01*
X391067Y116879D01*
X391034Y116887D01*
X391002Y116900D01*
X390815Y116941D01*
X390630Y116986D01*
X390596Y116988D01*
X390562Y116995D01*
X390250Y117014D01*
X374509Y117014D01*
X374460Y117181D01*
X374456Y117189D01*
X374453Y117197D01*
X374354Y117392D01*
X374258Y117584D01*
X374253Y117591D01*
X374249Y117599D01*
X374119Y117771D01*
X373989Y117945D01*
X373982Y117951D01*
X373977Y117957D01*
X373818Y118104D01*
X373659Y118252D01*
X373652Y118257D01*
X373646Y118263D01*
X373462Y118380D01*
X373281Y118496D01*
X373273Y118500D01*
X373266Y118504D01*
X373065Y118587D01*
X372866Y118670D01*
X372858Y118672D01*
X372850Y118675D01*
X372638Y118721D01*
X372426Y118768D01*
X372418Y118768D01*
X372409Y118770D01*
X372098Y118789D01*
X349989Y118789D01*
X349825Y118775D01*
X349661Y118768D01*
X349602Y118755D01*
X349541Y118749D01*
X349382Y118706D01*
X349221Y118670D01*
X349165Y118647D01*
X349106Y118631D01*
X348958Y118560D01*
X348898Y118535D01*
X342209Y118535D01*
X342170Y118558D01*
X342015Y118613D01*
X341863Y118675D01*
X341803Y118688D01*
X341746Y118709D01*
X341583Y118735D01*
X341423Y118770D01*
X341346Y118775D01*
X341302Y118782D01*
X341240Y118781D01*
X341111Y118789D01*
X324589Y118789D01*
X324425Y118775D01*
X324261Y118768D01*
X324202Y118755D01*
X324141Y118749D01*
X323982Y118706D01*
X323821Y118670D01*
X323765Y118647D01*
X323706Y118631D01*
X323558Y118560D01*
X323498Y118535D01*
X316809Y118535D01*
X316770Y118558D01*
X316615Y118613D01*
X316463Y118675D01*
X316403Y118688D01*
X316346Y118709D01*
X316183Y118735D01*
X316023Y118770D01*
X315946Y118775D01*
X315902Y118782D01*
X315840Y118781D01*
X315711Y118789D01*
X299189Y118789D01*
X299025Y118775D01*
X298861Y118768D01*
X298802Y118755D01*
X298741Y118749D01*
X298582Y118706D01*
X298421Y118670D01*
X298365Y118647D01*
X298306Y118631D01*
X298158Y118560D01*
X298098Y118535D01*
X291409Y118535D01*
X291370Y118558D01*
X291215Y118613D01*
X291063Y118675D01*
X291003Y118688D01*
X290946Y118709D01*
X290783Y118735D01*
X290623Y118770D01*
X290546Y118775D01*
X290502Y118782D01*
X290440Y118781D01*
X290311Y118789D01*
X273789Y118789D01*
X273625Y118775D01*
X273461Y118768D01*
X273402Y118755D01*
X273341Y118749D01*
X273182Y118706D01*
X273021Y118670D01*
X272965Y118647D01*
X272906Y118631D01*
X272758Y118560D01*
X272698Y118535D01*
X266009Y118535D01*
X265970Y118558D01*
X265815Y118613D01*
X265663Y118675D01*
X265603Y118688D01*
X265546Y118709D01*
X265383Y118735D01*
X265223Y118770D01*
X265146Y118775D01*
X265102Y118782D01*
X265040Y118781D01*
X264911Y118789D01*
X248389Y118789D01*
X248225Y118775D01*
X248061Y118768D01*
X248002Y118755D01*
X247941Y118749D01*
X247782Y118706D01*
X247621Y118670D01*
X247565Y118647D01*
X247506Y118631D01*
X247358Y118560D01*
X247298Y118535D01*
X240609Y118535D01*
X240570Y118558D01*
X240415Y118613D01*
X240263Y118675D01*
X240203Y118688D01*
X240146Y118709D01*
X239983Y118735D01*
X239823Y118770D01*
X239746Y118775D01*
X239702Y118782D01*
X239640Y118781D01*
X239511Y118789D01*
X222989Y118789D01*
X222825Y118775D01*
X222661Y118768D01*
X222602Y118755D01*
X222541Y118749D01*
X222382Y118706D01*
X222221Y118670D01*
X222165Y118647D01*
X222106Y118631D01*
X221958Y118560D01*
X221898Y118535D01*
X215209Y118535D01*
X215170Y118558D01*
X215015Y118613D01*
X214863Y118675D01*
X214803Y118688D01*
X214746Y118709D01*
X214583Y118735D01*
X214423Y118770D01*
X214346Y118775D01*
X214302Y118782D01*
X214240Y118781D01*
X214111Y118789D01*
X197589Y118789D01*
X197425Y118775D01*
X197261Y118768D01*
X197202Y118755D01*
X197141Y118749D01*
X196982Y118706D01*
X196821Y118670D01*
X196765Y118647D01*
X196706Y118631D01*
X196558Y118560D01*
X196498Y118535D01*
X189809Y118535D01*
X189770Y118558D01*
X189615Y118613D01*
X189463Y118675D01*
X189403Y118688D01*
X189346Y118709D01*
X189183Y118735D01*
X189023Y118770D01*
X188946Y118775D01*
X188902Y118782D01*
X188840Y118781D01*
X188711Y118789D01*
X172189Y118789D01*
X172025Y118775D01*
X171861Y118768D01*
X171802Y118755D01*
X171741Y118749D01*
X171582Y118706D01*
X171421Y118670D01*
X171365Y118647D01*
X171306Y118631D01*
X171158Y118560D01*
X171098Y118535D01*
X164409Y118535D01*
X164370Y118558D01*
X164215Y118613D01*
X164063Y118675D01*
X164003Y118688D01*
X163946Y118709D01*
X163783Y118735D01*
X163623Y118770D01*
X163546Y118775D01*
X163502Y118782D01*
X163440Y118781D01*
X163311Y118789D01*
X17700Y118789D01*
X17665Y118786D01*
X17631Y118788D01*
X17442Y118766D01*
X17251Y118749D01*
X17218Y118740D01*
X17184Y118736D01*
X17001Y118681D01*
X16817Y118631D01*
X16786Y118616D01*
X16753Y118606D01*
X16582Y118519D01*
X16410Y118437D01*
X16382Y118417D01*
X16351Y118402D01*
X16199Y118286D01*
X16044Y118175D01*
X16020Y118150D01*
X15993Y118130D01*
X15864Y117989D01*
X15730Y117853D01*
X15711Y117824D01*
X15687Y117798D01*
X15585Y117637D01*
X15478Y117480D01*
X15464Y117448D01*
X15446Y117419D01*
X15373Y117242D01*
X15296Y117068D01*
X15288Y117034D01*
X15275Y117002D01*
X15235Y116815D01*
X15189Y116630D01*
X15187Y116596D01*
X15180Y116562D01*
X15161Y116250D01*
X15161Y115780D01*
X15164Y115745D01*
X15162Y115711D01*
X15184Y115522D01*
X15201Y115331D01*
X15210Y115298D01*
X15214Y115264D01*
X15269Y115081D01*
X15319Y114897D01*
X15334Y114866D01*
X15344Y114833D01*
X15431Y114662D01*
X15513Y114490D01*
X15533Y114462D01*
X15548Y114431D01*
X15664Y114279D01*
X15775Y114124D01*
X15800Y114100D01*
X15820Y114073D01*
X15960Y113944D01*
X16097Y113810D01*
X16126Y113791D01*
X16152Y113767D01*
X16313Y113665D01*
X16470Y113558D01*
X16502Y113544D01*
X16531Y113526D01*
X16708Y113453D01*
X16882Y113376D01*
X16916Y113368D01*
X16948Y113355D01*
X17135Y113315D01*
X17320Y113269D01*
X17354Y113267D01*
X17388Y113260D01*
X17700Y113241D01*
X38421Y113241D01*
X38421Y100540D01*
X38424Y100506D01*
X38422Y100471D01*
X38444Y100282D01*
X38461Y100092D01*
X38470Y100058D01*
X38474Y100024D01*
X38529Y99841D01*
X38579Y99657D01*
X38594Y99626D01*
X38604Y99593D01*
X38691Y99422D01*
X38773Y99251D01*
X38793Y99223D01*
X38808Y99192D01*
X38924Y99040D01*
X39035Y98885D01*
X39060Y98860D01*
X39080Y98833D01*
X39221Y98704D01*
X39357Y98570D01*
X39386Y98551D01*
X39412Y98528D01*
X39573Y98425D01*
X39731Y98318D01*
X39762Y98304D01*
X39791Y98286D01*
X39968Y98213D01*
X40142Y98136D01*
X40176Y98128D01*
X40208Y98115D01*
X40395Y98075D01*
X40580Y98030D01*
X40614Y98027D01*
X40648Y98020D01*
X40960Y98001D01*
X46040Y98001D01*
X46074Y98004D01*
X46109Y98002D01*
X46298Y98024D01*
X46488Y98041D01*
X46522Y98050D01*
X46556Y98054D01*
X46739Y98109D01*
X46923Y98159D01*
X46954Y98174D01*
X46987Y98184D01*
X47158Y98271D01*
X47329Y98353D01*
X47358Y98373D01*
X47388Y98389D01*
X47540Y98504D01*
X47696Y98615D01*
X47720Y98640D01*
X47747Y98661D01*
X47876Y98801D01*
X48010Y98937D01*
X48029Y98966D01*
X48052Y98992D01*
X48155Y99153D01*
X48262Y99311D01*
X48276Y99342D01*
X48294Y99371D01*
X48367Y99548D01*
X48444Y99722D01*
X48452Y99756D01*
X48465Y99788D01*
X48505Y99975D01*
X48551Y100160D01*
X48553Y100194D01*
X48560Y100228D01*
X48579Y100540D01*
X48579Y113241D01*
X69235Y113241D01*
X69881Y113068D01*
X70460Y112733D01*
X70933Y112260D01*
X71268Y111681D01*
X71441Y111035D01*
X71441Y105312D01*
X71452Y105182D01*
X71454Y105052D01*
X71472Y104958D01*
X71481Y104863D01*
X71515Y104738D01*
X71540Y104610D01*
X71574Y104521D01*
X71599Y104429D01*
X71655Y104311D01*
X71702Y104190D01*
X71752Y104108D01*
X71793Y104022D01*
X71868Y103916D01*
X71936Y103805D01*
X71999Y103734D01*
X72055Y103656D01*
X72148Y103565D01*
X72234Y103468D01*
X72309Y103409D01*
X72377Y103342D01*
X72485Y103269D01*
X72587Y103188D01*
X72671Y103143D01*
X72750Y103090D01*
X72869Y103037D01*
X72984Y102976D01*
X73075Y102946D01*
X73162Y102908D01*
X73289Y102877D01*
X73412Y102837D01*
X73507Y102824D01*
X73600Y102801D01*
X73729Y102793D01*
X73858Y102775D01*
X73954Y102779D01*
X74049Y102773D01*
X74178Y102788D01*
X74308Y102794D01*
X74401Y102814D01*
X74496Y102825D01*
X74621Y102863D01*
X74748Y102891D01*
X74836Y102928D01*
X74927Y102956D01*
X75043Y103015D01*
X75163Y103065D01*
X75244Y103117D01*
X75329Y103160D01*
X75432Y103238D01*
X75541Y103309D01*
X75639Y103395D01*
X75687Y103432D01*
X75718Y103465D01*
X75776Y103516D01*
X84380Y112121D01*
X88671Y112121D01*
X88671Y92040D01*
X88674Y92006D01*
X88672Y91971D01*
X88694Y91782D01*
X88711Y91592D01*
X88720Y91558D01*
X88724Y91524D01*
X88779Y91341D01*
X88829Y91157D01*
X88844Y91126D01*
X88854Y91093D01*
X88941Y90922D01*
X89023Y90751D01*
X89043Y90723D01*
X89058Y90692D01*
X89174Y90540D01*
X89285Y90385D01*
X89310Y90360D01*
X89330Y90333D01*
X89471Y90204D01*
X89607Y90071D01*
X89636Y90051D01*
X89662Y90028D01*
X89823Y89925D01*
X89980Y89818D01*
X90012Y89804D01*
X90041Y89786D01*
X90218Y89713D01*
X90392Y89636D01*
X90426Y89628D01*
X90458Y89615D01*
X90645Y89575D01*
X90830Y89530D01*
X90864Y89527D01*
X90898Y89520D01*
X91210Y89501D01*
X93751Y89501D01*
X93751Y89499D01*
X91210Y89499D01*
X91176Y89496D01*
X91141Y89498D01*
X90952Y89476D01*
X90762Y89459D01*
X90728Y89450D01*
X90694Y89446D01*
X90511Y89391D01*
X90327Y89341D01*
X90296Y89326D01*
X90263Y89316D01*
X90092Y89229D01*
X89921Y89147D01*
X89892Y89127D01*
X89861Y89111D01*
X89709Y88996D01*
X89554Y88885D01*
X89530Y88860D01*
X89503Y88839D01*
X89374Y88699D01*
X89240Y88562D01*
X89221Y88534D01*
X89198Y88508D01*
X89095Y88347D01*
X88988Y88189D01*
X88974Y88158D01*
X88956Y88129D01*
X88883Y87952D01*
X88806Y87778D01*
X88798Y87744D01*
X88785Y87712D01*
X88745Y87525D01*
X88699Y87340D01*
X88697Y87306D01*
X88690Y87272D01*
X88671Y86960D01*
X88671Y66879D01*
X84380Y66879D01*
X71129Y80130D01*
X71129Y80220D01*
X71126Y80255D01*
X71128Y80289D01*
X71106Y80478D01*
X71089Y80669D01*
X71080Y80702D01*
X71076Y80736D01*
X71021Y80919D01*
X70971Y81103D01*
X70956Y81134D01*
X70946Y81167D01*
X70859Y81338D01*
X70777Y81510D01*
X70757Y81538D01*
X70742Y81569D01*
X70626Y81721D01*
X70515Y81876D01*
X70490Y81900D01*
X70470Y81927D01*
X70330Y82056D01*
X70193Y82190D01*
X70164Y82209D01*
X70138Y82233D01*
X69977Y82335D01*
X69820Y82442D01*
X69788Y82456D01*
X69759Y82474D01*
X69582Y82547D01*
X69408Y82624D01*
X69374Y82632D01*
X69342Y82645D01*
X69155Y82685D01*
X68970Y82731D01*
X68936Y82733D01*
X68902Y82740D01*
X68590Y82759D01*
X48579Y82759D01*
X48579Y95460D01*
X48576Y95494D01*
X48578Y95529D01*
X48556Y95718D01*
X48539Y95908D01*
X48530Y95942D01*
X48526Y95976D01*
X48471Y96159D01*
X48421Y96343D01*
X48406Y96374D01*
X48396Y96407D01*
X48309Y96578D01*
X48227Y96749D01*
X48207Y96777D01*
X48191Y96808D01*
X48076Y96960D01*
X47965Y97115D01*
X47940Y97140D01*
X47919Y97167D01*
X47779Y97296D01*
X47643Y97430D01*
X47614Y97449D01*
X47588Y97472D01*
X47427Y97575D01*
X47269Y97682D01*
X47238Y97696D01*
X47209Y97714D01*
X47032Y97787D01*
X46858Y97864D01*
X46824Y97872D01*
X46792Y97885D01*
X46605Y97925D01*
X46420Y97970D01*
X46386Y97973D01*
X46352Y97980D01*
X46040Y97999D01*
X40960Y97999D01*
X40926Y97996D01*
X40891Y97998D01*
X40702Y97976D01*
X40512Y97959D01*
X40478Y97950D01*
X40444Y97946D01*
X40261Y97891D01*
X40077Y97841D01*
X40046Y97826D01*
X40013Y97816D01*
X39842Y97729D01*
X39671Y97647D01*
X39642Y97627D01*
X39612Y97611D01*
X39460Y97496D01*
X39304Y97385D01*
X39280Y97360D01*
X39253Y97339D01*
X39124Y97199D01*
X38990Y97063D01*
X38971Y97034D01*
X38948Y97008D01*
X38845Y96847D01*
X38738Y96689D01*
X38724Y96658D01*
X38706Y96629D01*
X38633Y96452D01*
X38556Y96278D01*
X38548Y96244D01*
X38535Y96212D01*
X38495Y96025D01*
X38449Y95840D01*
X38447Y95806D01*
X38440Y95772D01*
X38421Y95460D01*
X38421Y82759D01*
X17700Y82759D01*
X17665Y82756D01*
X17631Y82758D01*
X17442Y82736D01*
X17251Y82719D01*
X17218Y82710D01*
X17184Y82706D01*
X17001Y82651D01*
X16817Y82601D01*
X16786Y82586D01*
X16753Y82576D01*
X16582Y82489D01*
X16410Y82407D01*
X16382Y82387D01*
X16351Y82372D01*
X16199Y82256D01*
X16044Y82145D01*
X16020Y82120D01*
X15993Y82100D01*
X15864Y81960D01*
X15730Y81823D01*
X15711Y81794D01*
X15687Y81768D01*
X15585Y81607D01*
X15478Y81450D01*
X15464Y81418D01*
X15446Y81389D01*
X15373Y81212D01*
X15296Y81038D01*
X15288Y81004D01*
X15275Y80972D01*
X15235Y80785D01*
X15189Y80600D01*
X15187Y80566D01*
X15180Y80532D01*
X15161Y80220D01*
X15161Y70828D01*
X15172Y70698D01*
X15174Y70568D01*
X15192Y70474D01*
X15201Y70379D01*
X15235Y70253D01*
X15260Y70126D01*
X15294Y70037D01*
X15319Y69945D01*
X15375Y69827D01*
X15422Y69706D01*
X15472Y69624D01*
X15513Y69538D01*
X15588Y69432D01*
X15656Y69321D01*
X15719Y69250D01*
X15775Y69172D01*
X15868Y69081D01*
X15954Y68984D01*
X16029Y68925D01*
X16097Y68858D01*
X16205Y68785D01*
X16307Y68704D01*
X16391Y68659D01*
X16470Y68606D01*
X16589Y68553D01*
X16704Y68492D01*
X16795Y68462D01*
X16882Y68424D01*
X17009Y68393D01*
X17132Y68353D01*
X17227Y68340D01*
X17320Y68317D01*
X17449Y68309D01*
X17578Y68291D01*
X17674Y68295D01*
X17769Y68289D01*
X17898Y68304D01*
X18028Y68310D01*
X18121Y68330D01*
X18216Y68341D01*
X18341Y68379D01*
X18468Y68407D01*
X18556Y68444D01*
X18647Y68472D01*
X18763Y68531D01*
X18883Y68581D01*
X18963Y68633D01*
X19049Y68676D01*
X19152Y68755D01*
X19261Y68825D01*
X19359Y68911D01*
X19407Y68948D01*
X19438Y68981D01*
X19496Y69032D01*
X23822Y73358D01*
X30264Y76027D01*
X37236Y76027D01*
X43678Y73358D01*
X48608Y68428D01*
X51277Y61986D01*
X51277Y55014D01*
X48608Y48572D01*
X46782Y46746D01*
X46699Y46646D01*
X46608Y46553D01*
X46554Y46473D01*
X46493Y46400D01*
X46429Y46287D01*
X46356Y46180D01*
X46317Y46092D01*
X46270Y46009D01*
X46226Y45887D01*
X46174Y45768D01*
X46151Y45675D01*
X46119Y45585D01*
X46098Y45457D01*
X46067Y45330D01*
X46061Y45235D01*
X46045Y45141D01*
X46047Y45011D01*
X46039Y44881D01*
X46050Y44786D01*
X46052Y44690D01*
X46076Y44563D01*
X46091Y44434D01*
X46119Y44342D01*
X46137Y44248D01*
X46184Y44127D01*
X46222Y44003D01*
X46265Y43917D01*
X46299Y43828D01*
X46367Y43717D01*
X46426Y43601D01*
X46484Y43525D01*
X46533Y43444D01*
X46619Y43346D01*
X46698Y43243D01*
X46768Y43178D01*
X46832Y43106D01*
X46933Y43026D01*
X47029Y42937D01*
X47110Y42886D01*
X47185Y42827D01*
X47299Y42765D01*
X47409Y42696D01*
X47497Y42659D01*
X47581Y42614D01*
X47705Y42574D01*
X47825Y42525D01*
X47919Y42505D01*
X48010Y42475D01*
X48138Y42457D01*
X48266Y42430D01*
X48395Y42422D01*
X48456Y42414D01*
X48501Y42415D01*
X48578Y42411D01*
X407300Y42411D01*
X407335Y42414D01*
G37*
%LPC*%
G36*
X96181Y695451D02*
X96181Y695451D01*
X92820Y696843D01*
X90247Y699416D01*
X88855Y702777D01*
X88855Y719623D01*
X90247Y722984D01*
X92820Y725557D01*
X96181Y726949D01*
X99819Y726949D01*
X101783Y726135D01*
X101987Y726071D01*
X102187Y726006D01*
X102200Y726004D01*
X102213Y726000D01*
X102424Y725974D01*
X102633Y725945D01*
X102646Y725945D01*
X102659Y725944D01*
X102870Y725954D01*
X103083Y725963D01*
X103096Y725966D01*
X103109Y725967D01*
X103315Y726015D01*
X103523Y726061D01*
X103535Y726066D01*
X103548Y726069D01*
X103742Y726152D01*
X103938Y726234D01*
X103949Y726242D01*
X103961Y726247D01*
X104138Y726363D01*
X104316Y726479D01*
X104328Y726489D01*
X104337Y726495D01*
X104365Y726522D01*
X104550Y726686D01*
X106791Y728926D01*
X106813Y728953D01*
X106839Y728976D01*
X106957Y729125D01*
X107080Y729272D01*
X107097Y729302D01*
X107119Y729329D01*
X107209Y729497D01*
X107303Y729663D01*
X107315Y729695D01*
X107331Y729726D01*
X107390Y729907D01*
X107454Y730087D01*
X107460Y730121D01*
X107470Y730154D01*
X107496Y730343D01*
X107528Y730531D01*
X107527Y730566D01*
X107532Y730600D01*
X107524Y730791D01*
X107521Y730981D01*
X107515Y731015D01*
X107513Y731050D01*
X107472Y731236D01*
X107436Y731423D01*
X107423Y731456D01*
X107416Y731490D01*
X107343Y731665D01*
X107274Y731843D01*
X107256Y731873D01*
X107242Y731905D01*
X107139Y732065D01*
X107040Y732228D01*
X107017Y732254D01*
X106998Y732283D01*
X106791Y732517D01*
X105390Y733918D01*
X104427Y736242D01*
X104427Y738758D01*
X105390Y741082D01*
X107168Y742860D01*
X109700Y743909D01*
X109804Y743963D01*
X109912Y744008D01*
X110003Y744067D01*
X110099Y744117D01*
X110192Y744189D01*
X110290Y744252D01*
X110405Y744354D01*
X110455Y744393D01*
X110480Y744420D01*
X110524Y744459D01*
X168336Y802271D01*
X168899Y802834D01*
X168983Y802934D01*
X169073Y803027D01*
X169127Y803107D01*
X169188Y803180D01*
X169253Y803293D01*
X169325Y803400D01*
X169364Y803488D01*
X169411Y803571D01*
X169455Y803693D01*
X169508Y803812D01*
X169530Y803905D01*
X169562Y803995D01*
X169584Y804123D01*
X169614Y804250D01*
X169620Y804345D01*
X169636Y804439D01*
X169634Y804569D01*
X169642Y804699D01*
X169631Y804794D01*
X169630Y804889D01*
X169605Y805017D01*
X169590Y805146D01*
X169562Y805238D01*
X169544Y805332D01*
X169497Y805453D01*
X169460Y805577D01*
X169416Y805662D01*
X169382Y805752D01*
X169314Y805863D01*
X169255Y805979D01*
X169198Y806055D01*
X169148Y806136D01*
X169062Y806234D01*
X168983Y806337D01*
X168913Y806402D01*
X168850Y806474D01*
X168748Y806554D01*
X168652Y806643D01*
X168572Y806694D01*
X168497Y806753D01*
X168382Y806814D01*
X168272Y806884D01*
X168184Y806921D01*
X168100Y806966D01*
X167976Y807006D01*
X167856Y807055D01*
X167762Y807075D01*
X167672Y807105D01*
X167543Y807123D01*
X167416Y807150D01*
X167286Y807158D01*
X167226Y807166D01*
X167181Y807165D01*
X167104Y807169D01*
X128278Y807169D01*
X128101Y807154D01*
X127924Y807144D01*
X127877Y807134D01*
X127830Y807129D01*
X127658Y807083D01*
X127485Y807042D01*
X127441Y807023D01*
X127395Y807011D01*
X127235Y806935D01*
X127072Y806864D01*
X127032Y806838D01*
X126989Y806817D01*
X126844Y806714D01*
X126696Y806616D01*
X126662Y806583D01*
X126623Y806555D01*
X126498Y806428D01*
X126370Y806305D01*
X126342Y806267D01*
X126309Y806233D01*
X126209Y806085D01*
X126104Y805942D01*
X126083Y805899D01*
X126056Y805860D01*
X125985Y805697D01*
X125907Y805538D01*
X125894Y805492D01*
X125874Y805448D01*
X125832Y805275D01*
X125784Y805104D01*
X125779Y805057D01*
X125768Y805010D01*
X125757Y804833D01*
X125739Y804656D01*
X125743Y804609D01*
X125740Y804561D01*
X125760Y804384D01*
X125774Y804207D01*
X125786Y804161D01*
X125792Y804114D01*
X125843Y803943D01*
X125888Y803772D01*
X125908Y803729D01*
X125922Y803683D01*
X126003Y803524D01*
X126077Y803363D01*
X126105Y803324D01*
X126127Y803281D01*
X126234Y803140D01*
X126336Y802994D01*
X126370Y802961D01*
X126399Y802923D01*
X126529Y802802D01*
X126655Y802677D01*
X126695Y802650D01*
X126730Y802618D01*
X126880Y802522D01*
X127026Y802421D01*
X127079Y802395D01*
X127110Y802376D01*
X127168Y802352D01*
X127307Y802284D01*
X128580Y801757D01*
X131153Y799184D01*
X132545Y795823D01*
X132545Y778977D01*
X131153Y775616D01*
X128580Y773043D01*
X125219Y771651D01*
X121581Y771651D01*
X118220Y773043D01*
X115647Y775616D01*
X114255Y778977D01*
X114255Y795823D01*
X115647Y799184D01*
X118220Y801757D01*
X119493Y802284D01*
X119651Y802366D01*
X119811Y802443D01*
X119850Y802470D01*
X119893Y802493D01*
X120033Y802601D01*
X120177Y802705D01*
X120211Y802739D01*
X120249Y802768D01*
X120367Y802900D01*
X120491Y803027D01*
X120518Y803067D01*
X120550Y803103D01*
X120644Y803253D01*
X120744Y803400D01*
X120763Y803444D01*
X120788Y803485D01*
X120854Y803650D01*
X120926Y803812D01*
X120937Y803859D01*
X120955Y803903D01*
X120990Y804077D01*
X121032Y804250D01*
X121035Y804297D01*
X121045Y804344D01*
X121049Y804522D01*
X121060Y804699D01*
X121055Y804747D01*
X121056Y804794D01*
X121029Y804970D01*
X121008Y805146D01*
X120994Y805192D01*
X120987Y805239D01*
X120929Y805407D01*
X120878Y805577D01*
X120856Y805620D01*
X120840Y805665D01*
X120754Y805820D01*
X120673Y805979D01*
X120644Y806017D01*
X120621Y806058D01*
X120509Y806196D01*
X120401Y806337D01*
X120366Y806370D01*
X120336Y806407D01*
X120201Y806522D01*
X120070Y806643D01*
X120030Y806668D01*
X119994Y806699D01*
X119840Y806789D01*
X119690Y806884D01*
X119646Y806903D01*
X119605Y806927D01*
X119438Y806988D01*
X119274Y807055D01*
X119227Y807065D01*
X119182Y807082D01*
X119008Y807113D01*
X118834Y807150D01*
X118774Y807154D01*
X118739Y807160D01*
X118676Y807160D01*
X118522Y807169D01*
X102878Y807169D01*
X102701Y807154D01*
X102524Y807144D01*
X102477Y807134D01*
X102430Y807129D01*
X102258Y807083D01*
X102085Y807042D01*
X102041Y807023D01*
X101995Y807011D01*
X101835Y806935D01*
X101672Y806864D01*
X101632Y806838D01*
X101589Y806817D01*
X101444Y806714D01*
X101296Y806616D01*
X101262Y806583D01*
X101223Y806555D01*
X101098Y806428D01*
X100970Y806305D01*
X100942Y806267D01*
X100909Y806233D01*
X100809Y806085D01*
X100704Y805942D01*
X100683Y805899D01*
X100656Y805860D01*
X100585Y805697D01*
X100507Y805538D01*
X100494Y805492D01*
X100474Y805448D01*
X100432Y805275D01*
X100384Y805104D01*
X100379Y805057D01*
X100368Y805010D01*
X100357Y804833D01*
X100339Y804656D01*
X100343Y804609D01*
X100340Y804561D01*
X100360Y804384D01*
X100374Y804207D01*
X100386Y804161D01*
X100392Y804114D01*
X100443Y803943D01*
X100488Y803772D01*
X100508Y803729D01*
X100522Y803683D01*
X100603Y803524D01*
X100677Y803363D01*
X100705Y803324D01*
X100727Y803281D01*
X100834Y803140D01*
X100936Y802994D01*
X100970Y802961D01*
X100999Y802923D01*
X101129Y802802D01*
X101255Y802677D01*
X101295Y802650D01*
X101330Y802618D01*
X101480Y802522D01*
X101626Y802421D01*
X101679Y802395D01*
X101710Y802376D01*
X101768Y802352D01*
X101907Y802284D01*
X103180Y801757D01*
X105753Y799184D01*
X107145Y795823D01*
X107145Y778977D01*
X105753Y775616D01*
X103180Y773043D01*
X99819Y771651D01*
X96181Y771651D01*
X92820Y773043D01*
X90247Y775616D01*
X88855Y778977D01*
X88855Y795823D01*
X88988Y796144D01*
X89042Y796314D01*
X89101Y796481D01*
X89109Y796528D01*
X89123Y796574D01*
X89145Y796750D01*
X89175Y796925D01*
X89174Y796973D01*
X89180Y797021D01*
X89171Y797198D01*
X89168Y797376D01*
X89159Y797423D01*
X89157Y797470D01*
X89117Y797643D01*
X89083Y797818D01*
X89066Y797862D01*
X89055Y797909D01*
X88985Y798072D01*
X88921Y798238D01*
X88896Y798279D01*
X88877Y798322D01*
X88779Y798471D01*
X88687Y798622D01*
X88655Y798658D01*
X88629Y798698D01*
X88506Y798827D01*
X88388Y798960D01*
X88351Y798989D01*
X88318Y799024D01*
X88174Y799129D01*
X88035Y799239D01*
X87993Y799262D01*
X87955Y799290D01*
X87795Y799368D01*
X87638Y799452D01*
X87593Y799467D01*
X87550Y799488D01*
X87379Y799536D01*
X87210Y799591D01*
X87163Y799598D01*
X87117Y799611D01*
X86940Y799628D01*
X86764Y799652D01*
X86716Y799651D01*
X86669Y799655D01*
X86492Y799641D01*
X86314Y799634D01*
X86268Y799624D01*
X86220Y799620D01*
X86048Y799575D01*
X85875Y799537D01*
X85831Y799518D01*
X85784Y799506D01*
X85623Y799432D01*
X85459Y799363D01*
X85419Y799337D01*
X85376Y799317D01*
X85230Y799215D01*
X85081Y799119D01*
X85037Y799079D01*
X85007Y799059D01*
X84963Y799014D01*
X84847Y798912D01*
X82488Y796553D01*
X82383Y796427D01*
X82271Y796306D01*
X82239Y796255D01*
X82200Y796208D01*
X82118Y796065D01*
X82030Y795926D01*
X82006Y795870D01*
X81976Y795817D01*
X81921Y795662D01*
X81859Y795510D01*
X81846Y795450D01*
X81825Y795393D01*
X81799Y795230D01*
X81764Y795070D01*
X81759Y794993D01*
X81752Y794948D01*
X81753Y794887D01*
X81745Y794758D01*
X81745Y778977D01*
X80353Y775616D01*
X77780Y773043D01*
X74419Y771651D01*
X70781Y771651D01*
X67420Y773043D01*
X64847Y775616D01*
X63455Y778977D01*
X63455Y795823D01*
X64847Y799184D01*
X66751Y801087D01*
X66865Y801224D01*
X66984Y801355D01*
X67009Y801396D01*
X67040Y801433D01*
X67128Y801587D01*
X67222Y801738D01*
X67239Y801782D01*
X67263Y801824D01*
X67322Y801991D01*
X67388Y802156D01*
X67390Y802166D01*
X67409Y802164D01*
X67584Y802133D01*
X67632Y802133D01*
X67679Y802126D01*
X67857Y802134D01*
X68034Y802134D01*
X68081Y802143D01*
X68129Y802145D01*
X68302Y802183D01*
X68477Y802215D01*
X68533Y802235D01*
X68569Y802242D01*
X68627Y802267D01*
X68773Y802317D01*
X70781Y803149D01*
X73662Y803149D01*
X73825Y803163D01*
X73990Y803170D01*
X74049Y803183D01*
X74110Y803189D01*
X74269Y803232D01*
X74429Y803268D01*
X74486Y803291D01*
X74545Y803307D01*
X74693Y803378D01*
X74845Y803441D01*
X74896Y803474D01*
X74951Y803501D01*
X75085Y803596D01*
X75223Y803686D01*
X75281Y803737D01*
X75317Y803763D01*
X75360Y803806D01*
X75457Y803892D01*
X88122Y816557D01*
X89989Y817331D01*
X172489Y817331D01*
X172605Y817341D01*
X172722Y817341D01*
X172829Y817361D01*
X172937Y817371D01*
X173050Y817401D01*
X173165Y817422D01*
X173311Y817473D01*
X173372Y817489D01*
X173404Y817505D01*
X173461Y817524D01*
X175992Y818573D01*
X178508Y818573D01*
X180832Y817610D01*
X182610Y815832D01*
X183573Y813508D01*
X183573Y810992D01*
X182610Y808668D01*
X181487Y807546D01*
X181465Y807519D01*
X181439Y807496D01*
X181321Y807347D01*
X181198Y807200D01*
X181181Y807170D01*
X181160Y807143D01*
X181070Y806975D01*
X180975Y806809D01*
X180963Y806776D01*
X180947Y806746D01*
X180888Y806565D01*
X180824Y806385D01*
X180818Y806351D01*
X180808Y806318D01*
X180782Y806129D01*
X180751Y805941D01*
X180751Y805906D01*
X180746Y805872D01*
X180754Y805681D01*
X180757Y805490D01*
X180763Y805456D01*
X180765Y805422D01*
X180806Y805235D01*
X180842Y805048D01*
X180855Y805016D01*
X180862Y804982D01*
X180936Y804806D01*
X181005Y804628D01*
X181023Y804599D01*
X181036Y804567D01*
X181139Y804407D01*
X181239Y804244D01*
X181262Y804218D01*
X181280Y804189D01*
X181487Y803954D01*
X182110Y803332D01*
X183073Y801008D01*
X183073Y798492D01*
X182110Y796168D01*
X181112Y795171D01*
X181090Y795144D01*
X181064Y795121D01*
X180946Y794972D01*
X180823Y794825D01*
X180806Y794795D01*
X180785Y794768D01*
X180695Y794600D01*
X180600Y794434D01*
X180588Y794402D01*
X180572Y794371D01*
X180513Y794190D01*
X180449Y794010D01*
X180443Y793976D01*
X180433Y793943D01*
X180407Y793754D01*
X180376Y793566D01*
X180376Y793531D01*
X180371Y793497D01*
X180379Y793306D01*
X180382Y793116D01*
X180388Y793081D01*
X180390Y793047D01*
X180431Y792861D01*
X180467Y792673D01*
X180480Y792641D01*
X180487Y792607D01*
X180561Y792431D01*
X180630Y792253D01*
X180648Y792224D01*
X180661Y792192D01*
X180765Y792031D01*
X180864Y791869D01*
X180886Y791843D01*
X180905Y791814D01*
X181056Y791643D01*
X181066Y791630D01*
X181075Y791621D01*
X181112Y791579D01*
X182110Y790582D01*
X183073Y788258D01*
X183073Y785742D01*
X182110Y783418D01*
X180862Y782171D01*
X180840Y782144D01*
X180814Y782121D01*
X180696Y781972D01*
X180573Y781825D01*
X180556Y781795D01*
X180535Y781768D01*
X180444Y781600D01*
X180350Y781434D01*
X180338Y781402D01*
X180322Y781371D01*
X180263Y781190D01*
X180199Y781010D01*
X180193Y780976D01*
X180183Y780943D01*
X180157Y780754D01*
X180126Y780566D01*
X180126Y780531D01*
X180121Y780497D01*
X180129Y780306D01*
X180132Y780115D01*
X180138Y780081D01*
X180140Y780047D01*
X180181Y779861D01*
X180217Y779673D01*
X180230Y779641D01*
X180237Y779607D01*
X180311Y779432D01*
X180380Y779253D01*
X180398Y779224D01*
X180411Y779192D01*
X180514Y779032D01*
X180614Y778869D01*
X180636Y778843D01*
X180655Y778814D01*
X180862Y778579D01*
X181860Y777582D01*
X182823Y775258D01*
X182823Y772742D01*
X181860Y770418D01*
X180082Y768640D01*
X177758Y767677D01*
X175242Y767677D01*
X172711Y768726D01*
X172599Y768761D01*
X172491Y768805D01*
X172385Y768828D01*
X172281Y768861D01*
X172165Y768875D01*
X172051Y768900D01*
X171897Y768910D01*
X171834Y768917D01*
X171798Y768916D01*
X171739Y768919D01*
X171656Y768919D01*
X171493Y768905D01*
X171328Y768898D01*
X171269Y768885D01*
X171208Y768879D01*
X171049Y768836D01*
X170889Y768800D01*
X170832Y768777D01*
X170773Y768761D01*
X170625Y768690D01*
X170473Y768627D01*
X170422Y768594D01*
X170367Y768567D01*
X170233Y768472D01*
X170095Y768382D01*
X170037Y768331D01*
X170001Y768305D01*
X169958Y768262D01*
X169861Y768176D01*
X129706Y728021D01*
X129684Y727995D01*
X129658Y727972D01*
X129540Y727822D01*
X129418Y727676D01*
X129400Y727646D01*
X129379Y727619D01*
X129289Y727450D01*
X129194Y727285D01*
X129183Y727252D01*
X129166Y727222D01*
X129107Y727040D01*
X129043Y726861D01*
X129038Y726826D01*
X129027Y726793D01*
X129001Y726604D01*
X128970Y726416D01*
X128970Y726382D01*
X128966Y726347D01*
X128973Y726157D01*
X128976Y725966D01*
X128983Y725932D01*
X128984Y725898D01*
X129025Y725712D01*
X129062Y725524D01*
X129074Y725492D01*
X129082Y725458D01*
X129155Y725282D01*
X129224Y725104D01*
X129242Y725074D01*
X129255Y725043D01*
X129359Y724882D01*
X129458Y724719D01*
X129481Y724693D01*
X129499Y724664D01*
X129706Y724430D01*
X131153Y722984D01*
X132545Y719623D01*
X132545Y702777D01*
X131153Y699416D01*
X128580Y696843D01*
X125219Y695451D01*
X121581Y695451D01*
X118220Y696843D01*
X115647Y699416D01*
X114255Y702777D01*
X114255Y715890D01*
X114244Y716019D01*
X114242Y716149D01*
X114224Y716243D01*
X114215Y716338D01*
X114181Y716464D01*
X114156Y716591D01*
X114122Y716681D01*
X114097Y716773D01*
X114041Y716890D01*
X113994Y717011D01*
X113944Y717093D01*
X113903Y717179D01*
X113828Y717285D01*
X113760Y717396D01*
X113697Y717468D01*
X113641Y717545D01*
X113548Y717636D01*
X113462Y717733D01*
X113387Y717793D01*
X113319Y717859D01*
X113211Y717932D01*
X113109Y718013D01*
X113025Y718058D01*
X112946Y718111D01*
X112827Y718164D01*
X112712Y718225D01*
X112621Y718255D01*
X112534Y718294D01*
X112407Y718325D01*
X112284Y718365D01*
X112189Y718378D01*
X112096Y718400D01*
X111967Y718408D01*
X111838Y718426D01*
X111742Y718422D01*
X111647Y718428D01*
X111518Y718413D01*
X111388Y718408D01*
X111295Y718387D01*
X111200Y718376D01*
X111075Y718338D01*
X110948Y718310D01*
X110860Y718273D01*
X110769Y718246D01*
X110653Y718187D01*
X110533Y718136D01*
X110453Y718085D01*
X110367Y718041D01*
X110264Y717963D01*
X110155Y717892D01*
X110057Y717806D01*
X110009Y717769D01*
X109978Y717736D01*
X109920Y717685D01*
X107888Y715653D01*
X107783Y715527D01*
X107671Y715406D01*
X107639Y715355D01*
X107600Y715308D01*
X107518Y715165D01*
X107430Y715026D01*
X107406Y714970D01*
X107376Y714917D01*
X107321Y714762D01*
X107259Y714610D01*
X107246Y714550D01*
X107225Y714493D01*
X107199Y714330D01*
X107164Y714170D01*
X107159Y714093D01*
X107152Y714048D01*
X107153Y713987D01*
X107145Y713858D01*
X107145Y702777D01*
X105753Y699416D01*
X103180Y696843D01*
X99819Y695451D01*
X96181Y695451D01*
G37*
%LPD*%
G36*
X264435Y424964D02*
X264435Y424964D01*
X264469Y424962D01*
X264659Y424984D01*
X264849Y425001D01*
X264882Y425010D01*
X264916Y425014D01*
X265099Y425069D01*
X265283Y425120D01*
X265314Y425134D01*
X265347Y425144D01*
X265518Y425231D01*
X265690Y425313D01*
X265718Y425333D01*
X265749Y425349D01*
X265901Y425464D01*
X266056Y425575D01*
X266080Y425600D01*
X266107Y425621D01*
X266237Y425761D01*
X266370Y425898D01*
X266389Y425926D01*
X266413Y425952D01*
X266515Y426113D01*
X266622Y426271D01*
X266636Y426302D01*
X266654Y426332D01*
X266727Y426508D01*
X266804Y426683D01*
X266812Y426716D01*
X266825Y426748D01*
X266866Y426935D01*
X266911Y427120D01*
X266913Y427154D01*
X266920Y427188D01*
X266939Y427500D01*
X266939Y435581D01*
X267747Y435581D01*
X271176Y432152D01*
X271239Y432099D01*
X271296Y432040D01*
X271411Y431955D01*
X271521Y431863D01*
X271592Y431823D01*
X271659Y431774D01*
X271788Y431711D01*
X271912Y431640D01*
X271990Y431612D01*
X272064Y431576D01*
X272201Y431537D01*
X272336Y431489D01*
X272418Y431476D01*
X272497Y431453D01*
X272639Y431439D01*
X272780Y431416D01*
X272863Y431417D01*
X272945Y431409D01*
X273088Y431420D01*
X273231Y431422D01*
X273312Y431437D01*
X273394Y431444D01*
X273532Y431480D01*
X273673Y431507D01*
X273750Y431537D01*
X273829Y431558D01*
X273959Y431618D01*
X274093Y431670D01*
X274163Y431712D01*
X274238Y431747D01*
X274355Y431829D01*
X274477Y431904D01*
X274539Y431958D01*
X274607Y432005D01*
X274707Y432107D01*
X274815Y432202D01*
X274866Y432266D01*
X274924Y432325D01*
X275005Y432442D01*
X275094Y432555D01*
X275133Y432628D01*
X275180Y432695D01*
X275288Y432917D01*
X275307Y432952D01*
X275310Y432962D01*
X275317Y432976D01*
X275889Y434356D01*
X277675Y436142D01*
X277675Y436143D01*
X287322Y445789D01*
X287427Y445915D01*
X287539Y446036D01*
X287571Y446087D01*
X287610Y446134D01*
X287692Y446277D01*
X287780Y446416D01*
X287804Y446472D01*
X287834Y446525D01*
X287889Y446680D01*
X287951Y446832D01*
X287964Y446892D01*
X287985Y446949D01*
X288011Y447112D01*
X288046Y447273D01*
X288051Y447349D01*
X288058Y447394D01*
X288057Y447455D01*
X288065Y447584D01*
X288065Y561968D01*
X288051Y562132D01*
X288044Y562296D01*
X288031Y562356D01*
X288025Y562417D01*
X287982Y562576D01*
X287946Y562736D01*
X287923Y562792D01*
X287907Y562851D01*
X287836Y562999D01*
X287773Y563151D01*
X287740Y563203D01*
X287713Y563258D01*
X287618Y563391D01*
X287528Y563530D01*
X287477Y563587D01*
X287451Y563624D01*
X287408Y563666D01*
X287322Y563764D01*
X276877Y574208D01*
X275091Y575995D01*
X274317Y577862D01*
X274317Y642252D01*
X274306Y642381D01*
X274304Y642511D01*
X274286Y642605D01*
X274277Y642700D01*
X274243Y642826D01*
X274218Y642953D01*
X274184Y643043D01*
X274159Y643135D01*
X274103Y643252D01*
X274056Y643373D01*
X274006Y643455D01*
X273965Y643541D01*
X273890Y643647D01*
X273822Y643758D01*
X273759Y643830D01*
X273703Y643907D01*
X273610Y643998D01*
X273524Y644095D01*
X273449Y644155D01*
X273381Y644221D01*
X273273Y644294D01*
X273171Y644375D01*
X273087Y644420D01*
X273008Y644473D01*
X272889Y644526D01*
X272774Y644587D01*
X272683Y644617D01*
X272596Y644656D01*
X272469Y644687D01*
X272346Y644727D01*
X272251Y644740D01*
X272158Y644762D01*
X272029Y644770D01*
X271900Y644788D01*
X271804Y644784D01*
X271709Y644790D01*
X271580Y644775D01*
X271450Y644770D01*
X271357Y644749D01*
X271262Y644738D01*
X271137Y644700D01*
X271010Y644672D01*
X270922Y644635D01*
X270831Y644608D01*
X270715Y644549D01*
X270595Y644499D01*
X270514Y644447D01*
X270429Y644403D01*
X270326Y644325D01*
X270217Y644254D01*
X270119Y644168D01*
X270071Y644131D01*
X270040Y644098D01*
X269982Y644047D01*
X249484Y623549D01*
X249462Y623522D01*
X249436Y623499D01*
X249318Y623350D01*
X249195Y623203D01*
X249178Y623173D01*
X249156Y623146D01*
X249066Y622978D01*
X248972Y622812D01*
X248960Y622780D01*
X248944Y622749D01*
X248885Y622568D01*
X248821Y622388D01*
X248815Y622354D01*
X248805Y622321D01*
X248779Y622133D01*
X248747Y621944D01*
X248748Y621909D01*
X248743Y621875D01*
X248751Y621685D01*
X248754Y621494D01*
X248760Y621460D01*
X248762Y621425D01*
X248803Y621239D01*
X248839Y621052D01*
X248852Y621019D01*
X248859Y620986D01*
X248933Y620810D01*
X249001Y620632D01*
X249019Y620602D01*
X249033Y620570D01*
X249136Y620410D01*
X249235Y620247D01*
X249258Y620221D01*
X249277Y620192D01*
X249484Y619958D01*
X250610Y618832D01*
X251573Y616508D01*
X251573Y613992D01*
X250610Y611668D01*
X250099Y611158D01*
X250016Y611058D01*
X249925Y610965D01*
X249872Y610885D01*
X249810Y610812D01*
X249746Y610699D01*
X249673Y610592D01*
X249634Y610504D01*
X249587Y610421D01*
X249543Y610299D01*
X249491Y610180D01*
X249468Y610087D01*
X249436Y609997D01*
X249415Y609869D01*
X249384Y609742D01*
X249378Y609647D01*
X249363Y609553D01*
X249364Y609423D01*
X249356Y609293D01*
X249367Y609198D01*
X249369Y609103D01*
X249393Y608975D01*
X249408Y608846D01*
X249436Y608754D01*
X249454Y608660D01*
X249501Y608539D01*
X249539Y608415D01*
X249582Y608330D01*
X249617Y608240D01*
X249684Y608129D01*
X249743Y608013D01*
X249801Y607937D01*
X249850Y607856D01*
X249936Y607758D01*
X250015Y607655D01*
X250086Y607590D01*
X250149Y607518D01*
X250250Y607438D01*
X250346Y607349D01*
X250427Y607298D01*
X250502Y607239D01*
X250616Y607178D01*
X250726Y607108D01*
X250815Y607071D01*
X250899Y607026D01*
X251022Y606986D01*
X251143Y606937D01*
X251236Y606917D01*
X251327Y606887D01*
X251456Y606869D01*
X251583Y606842D01*
X251713Y606834D01*
X251773Y606826D01*
X251818Y606827D01*
X251895Y606823D01*
X253508Y606823D01*
X255832Y605860D01*
X257610Y604082D01*
X258573Y601758D01*
X258573Y599242D01*
X257610Y596918D01*
X255832Y595140D01*
X255398Y594960D01*
X255211Y594862D01*
X255021Y594766D01*
X255011Y594758D01*
X254999Y594752D01*
X254831Y594622D01*
X254663Y594494D01*
X254654Y594484D01*
X254643Y594476D01*
X254501Y594319D01*
X254357Y594163D01*
X254350Y594152D01*
X254342Y594142D01*
X254229Y593962D01*
X254116Y593783D01*
X254111Y593771D01*
X254104Y593760D01*
X254025Y593563D01*
X253945Y593367D01*
X253942Y593354D01*
X253937Y593341D01*
X253895Y593135D01*
X253850Y592926D01*
X253849Y592911D01*
X253847Y592900D01*
X253846Y592861D01*
X253831Y592614D01*
X253831Y434489D01*
X253842Y434359D01*
X253844Y434229D01*
X253862Y434136D01*
X253871Y434040D01*
X253905Y433915D01*
X253930Y433787D01*
X253964Y433698D01*
X253989Y433606D01*
X254045Y433489D01*
X254092Y433367D01*
X254142Y433285D01*
X254183Y433199D01*
X254258Y433094D01*
X254326Y432983D01*
X254389Y432911D01*
X254445Y432833D01*
X254538Y432743D01*
X254624Y432645D01*
X254699Y432586D01*
X254767Y432519D01*
X254875Y432446D01*
X254977Y432366D01*
X255061Y432321D01*
X255140Y432267D01*
X255259Y432215D01*
X255374Y432153D01*
X255465Y432124D01*
X255552Y432085D01*
X255679Y432054D01*
X255802Y432014D01*
X255897Y432001D01*
X255990Y431978D01*
X256119Y431970D01*
X256248Y431953D01*
X256344Y431956D01*
X256439Y431951D01*
X256568Y431966D01*
X256698Y431971D01*
X256791Y431992D01*
X256886Y432003D01*
X257011Y432040D01*
X257138Y432068D01*
X257226Y432105D01*
X257317Y432133D01*
X257433Y432192D01*
X257553Y432242D01*
X257633Y432294D01*
X257719Y432337D01*
X257822Y432416D01*
X257931Y432486D01*
X258029Y432572D01*
X258077Y432609D01*
X258108Y432642D01*
X258166Y432693D01*
X261053Y435581D01*
X261861Y435581D01*
X261861Y427500D01*
X261864Y427466D01*
X261862Y427431D01*
X261884Y427242D01*
X261900Y427052D01*
X261910Y427018D01*
X261914Y426984D01*
X261969Y426801D01*
X262019Y426617D01*
X262034Y426586D01*
X262044Y426553D01*
X262131Y426382D01*
X262212Y426211D01*
X262233Y426183D01*
X262248Y426152D01*
X262363Y426000D01*
X262475Y425845D01*
X262499Y425821D01*
X262520Y425793D01*
X262660Y425664D01*
X262797Y425531D01*
X262826Y425511D01*
X262851Y425488D01*
X263012Y425385D01*
X263170Y425279D01*
X263202Y425265D01*
X263231Y425246D01*
X263408Y425174D01*
X263582Y425096D01*
X263616Y425088D01*
X263648Y425075D01*
X263834Y425035D01*
X264019Y424990D01*
X264054Y424988D01*
X264088Y424980D01*
X264400Y424961D01*
X264435Y424964D01*
G37*
%LPC*%
G36*
X45381Y695451D02*
X45381Y695451D01*
X42020Y696843D01*
X39447Y699416D01*
X38055Y702777D01*
X38055Y719623D01*
X39447Y722984D01*
X42020Y725557D01*
X45381Y726949D01*
X49019Y726949D01*
X52380Y725557D01*
X54953Y722984D01*
X56345Y719623D01*
X56345Y702777D01*
X54953Y699416D01*
X52380Y696843D01*
X49019Y695451D01*
X45381Y695451D01*
G37*
%LPD*%
%LPC*%
G36*
X375259Y85579D02*
X375259Y85579D01*
X375259Y106235D01*
X375432Y106881D01*
X375710Y107361D01*
X375796Y107546D01*
X375885Y107731D01*
X375891Y107751D01*
X375899Y107769D01*
X375952Y107968D01*
X376007Y108165D01*
X376009Y108185D01*
X376014Y108205D01*
X376030Y108410D01*
X376050Y108613D01*
X376048Y108633D01*
X376050Y108654D01*
X376030Y108858D01*
X376013Y109062D01*
X376008Y109081D01*
X376006Y109102D01*
X375950Y109299D01*
X375898Y109497D01*
X375888Y109519D01*
X375883Y109535D01*
X375861Y109581D01*
X375773Y109783D01*
X375171Y110965D01*
X374856Y111936D01*
X387711Y111936D01*
X387711Y105308D01*
X387702Y105307D01*
X387512Y105290D01*
X387478Y105281D01*
X387444Y105277D01*
X387261Y105222D01*
X387077Y105172D01*
X387046Y105157D01*
X387013Y105147D01*
X386842Y105060D01*
X386671Y104978D01*
X386642Y104958D01*
X386612Y104943D01*
X386460Y104827D01*
X386304Y104716D01*
X386280Y104691D01*
X386253Y104671D01*
X386124Y104531D01*
X385990Y104394D01*
X385971Y104365D01*
X385948Y104339D01*
X385845Y104178D01*
X385738Y104021D01*
X385724Y103989D01*
X385706Y103960D01*
X385633Y103783D01*
X385556Y103609D01*
X385548Y103575D01*
X385535Y103543D01*
X385495Y103356D01*
X385449Y103171D01*
X385447Y103137D01*
X385440Y103103D01*
X385421Y102791D01*
X385421Y85579D01*
X375259Y85579D01*
G37*
%LPD*%
%LPC*%
G36*
X375009Y172579D02*
X375009Y172579D01*
X375009Y193235D01*
X375182Y193881D01*
X375517Y194460D01*
X375990Y194933D01*
X376569Y195268D01*
X377215Y195441D01*
X385171Y195441D01*
X385171Y172579D01*
X375009Y172579D01*
G37*
%LPD*%
%LPC*%
G36*
X377465Y52559D02*
X377465Y52559D01*
X376819Y52732D01*
X376240Y53067D01*
X375767Y53540D01*
X375432Y54119D01*
X375259Y54765D01*
X375259Y75421D01*
X385421Y75421D01*
X385421Y52559D01*
X377465Y52559D01*
G37*
%LPD*%
%LPC*%
G36*
X98829Y166579D02*
X98829Y166579D01*
X98829Y184121D01*
X103120Y184121D01*
X116371Y170870D01*
X116371Y166579D01*
X98829Y166579D01*
G37*
%LPD*%
%LPC*%
G36*
X98829Y94579D02*
X98829Y94579D01*
X98829Y112121D01*
X103120Y112121D01*
X116371Y98870D01*
X116371Y94579D01*
X98829Y94579D01*
G37*
%LPD*%
%LPC*%
G36*
X98829Y66879D02*
X98829Y66879D01*
X98829Y84421D01*
X116371Y84421D01*
X116371Y80130D01*
X103120Y66879D01*
X98829Y66879D01*
G37*
%LPD*%
%LPC*%
G36*
X237053Y327369D02*
X237053Y327369D01*
X232319Y332103D01*
X232319Y338797D01*
X237053Y343531D01*
X243747Y343531D01*
X248481Y338797D01*
X248481Y332103D01*
X243747Y327369D01*
X237053Y327369D01*
G37*
%LPD*%
%LPC*%
G36*
X47539Y555589D02*
X47539Y555589D01*
X47539Y563211D01*
X53420Y563211D01*
X54999Y562961D01*
X56520Y562466D01*
X57945Y561740D01*
X59239Y560800D01*
X60370Y559669D01*
X61310Y558375D01*
X62036Y556950D01*
X62479Y555589D01*
X47539Y555589D01*
G37*
%LPD*%
%LPC*%
G36*
X27521Y555589D02*
X27521Y555589D01*
X27964Y556950D01*
X28690Y558375D01*
X29630Y559669D01*
X30761Y560800D01*
X32055Y561740D01*
X33480Y562466D01*
X35001Y562961D01*
X36580Y563211D01*
X42461Y563211D01*
X42461Y555589D01*
X27521Y555589D01*
G37*
%LPD*%
%LPC*%
G36*
X47539Y550511D02*
X47539Y550511D01*
X62479Y550511D01*
X62036Y549150D01*
X61310Y547725D01*
X60370Y546431D01*
X59239Y545300D01*
X57945Y544360D01*
X56520Y543634D01*
X54999Y543139D01*
X53420Y542889D01*
X47539Y542889D01*
X47539Y550511D01*
G37*
%LPD*%
%LPC*%
G36*
X36580Y542889D02*
X36580Y542889D01*
X35001Y543139D01*
X33480Y543634D01*
X32055Y544360D01*
X30761Y545300D01*
X29630Y546431D01*
X28690Y547725D01*
X27964Y549150D01*
X27521Y550511D01*
X42461Y550511D01*
X42461Y542889D01*
X36580Y542889D01*
G37*
%LPD*%
%LPC*%
G36*
X75139Y713739D02*
X75139Y713739D01*
X75139Y726594D01*
X76110Y726279D01*
X77393Y725625D01*
X78557Y724779D01*
X79575Y723761D01*
X80421Y722597D01*
X81075Y721314D01*
X81520Y719946D01*
X81745Y718524D01*
X81745Y713739D01*
X75139Y713739D01*
G37*
%LPD*%
%LPC*%
G36*
X75139Y708661D02*
X75139Y708661D01*
X81745Y708661D01*
X81745Y703876D01*
X81520Y702454D01*
X81075Y701086D01*
X80421Y699803D01*
X79575Y698639D01*
X78557Y697621D01*
X77393Y696775D01*
X76110Y696121D01*
X75139Y695806D01*
X75139Y708661D01*
G37*
%LPD*%
%LPC*%
G36*
X63455Y713739D02*
X63455Y713739D01*
X63455Y718524D01*
X63680Y719946D01*
X64125Y721314D01*
X64779Y722597D01*
X65625Y723761D01*
X66643Y724779D01*
X67807Y725625D01*
X69090Y726279D01*
X70061Y726594D01*
X70061Y713739D01*
X63455Y713739D01*
G37*
%LPD*%
%LPC*%
G36*
X69090Y696121D02*
X69090Y696121D01*
X67807Y696775D01*
X66643Y697621D01*
X65625Y698639D01*
X64779Y699803D01*
X64125Y701086D01*
X63680Y702454D01*
X63455Y703876D01*
X63455Y708661D01*
X70061Y708661D01*
X70061Y695806D01*
X69090Y696121D01*
G37*
%LPD*%
%LPC*%
G36*
X58938Y239010D02*
X58938Y239010D01*
X58938Y246678D01*
X60328Y246226D01*
X61833Y245459D01*
X63200Y244466D01*
X64394Y243272D01*
X65387Y241905D01*
X66154Y240400D01*
X66606Y239010D01*
X58938Y239010D01*
G37*
%LPD*%
%LPC*%
G36*
X45810Y239010D02*
X45810Y239010D01*
X46262Y240400D01*
X47029Y241905D01*
X48022Y243272D01*
X49216Y244466D01*
X50583Y245459D01*
X52088Y246226D01*
X53478Y246678D01*
X53478Y239010D01*
X45810Y239010D01*
G37*
%LPD*%
%LPC*%
G36*
X58938Y233550D02*
X58938Y233550D01*
X66606Y233550D01*
X66154Y232160D01*
X65387Y230655D01*
X64394Y229288D01*
X63200Y228094D01*
X61833Y227101D01*
X60328Y226334D01*
X58938Y225882D01*
X58938Y233550D01*
G37*
%LPD*%
%LPC*%
G36*
X52088Y226334D02*
X52088Y226334D01*
X50583Y227101D01*
X49216Y228094D01*
X48022Y229288D01*
X47029Y230655D01*
X46262Y232160D01*
X45810Y233550D01*
X53478Y233550D01*
X53478Y225882D01*
X52088Y226334D01*
G37*
%LPD*%
%LPC*%
G36*
X140289Y192539D02*
X140289Y192539D01*
X140289Y199145D01*
X141538Y199145D01*
X146895Y193788D01*
X146895Y192539D01*
X140289Y192539D01*
G37*
%LPD*%
%LPC*%
G36*
X140289Y65539D02*
X140289Y65539D01*
X140289Y72145D01*
X141538Y72145D01*
X146895Y66788D01*
X146895Y65539D01*
X140289Y65539D01*
G37*
%LPD*%
%LPC*%
G36*
X128605Y192539D02*
X128605Y192539D01*
X128605Y193788D01*
X133962Y199145D01*
X135211Y199145D01*
X135211Y192539D01*
X128605Y192539D01*
G37*
%LPD*%
%LPC*%
G36*
X140289Y180855D02*
X140289Y180855D01*
X140289Y187461D01*
X146895Y187461D01*
X146895Y186212D01*
X141538Y180855D01*
X140289Y180855D01*
G37*
%LPD*%
%LPC*%
G36*
X140289Y53855D02*
X140289Y53855D01*
X140289Y60461D01*
X146895Y60461D01*
X146895Y59212D01*
X141538Y53855D01*
X140289Y53855D01*
G37*
%LPD*%
%LPC*%
G36*
X128605Y65539D02*
X128605Y65539D01*
X128605Y66788D01*
X133962Y72145D01*
X135211Y72145D01*
X135211Y65539D01*
X128605Y65539D01*
G37*
%LPD*%
%LPC*%
G36*
X133962Y53855D02*
X133962Y53855D01*
X128605Y59212D01*
X128605Y60461D01*
X135211Y60461D01*
X135211Y53855D01*
X133962Y53855D01*
G37*
%LPD*%
%LPC*%
G36*
X133962Y180855D02*
X133962Y180855D01*
X128605Y186212D01*
X128605Y187461D01*
X135211Y187461D01*
X135211Y180855D01*
X133962Y180855D01*
G37*
%LPD*%
%LPC*%
G36*
X271889Y154039D02*
X271889Y154039D01*
X271889Y160081D01*
X272904Y160081D01*
X277931Y155054D01*
X277931Y154039D01*
X271889Y154039D01*
G37*
%LPD*%
%LPC*%
G36*
X297289Y154039D02*
X297289Y154039D01*
X297289Y160081D01*
X298304Y160081D01*
X303331Y155054D01*
X303331Y154039D01*
X297289Y154039D01*
G37*
%LPD*%
%LPC*%
G36*
X322689Y154039D02*
X322689Y154039D01*
X322689Y160081D01*
X323704Y160081D01*
X328731Y155054D01*
X328731Y154039D01*
X322689Y154039D01*
G37*
%LPD*%
%LPC*%
G36*
X348089Y154039D02*
X348089Y154039D01*
X348089Y160081D01*
X349104Y160081D01*
X354131Y155054D01*
X354131Y154039D01*
X348089Y154039D01*
G37*
%LPD*%
%LPC*%
G36*
X221089Y154039D02*
X221089Y154039D01*
X221089Y160081D01*
X222104Y160081D01*
X227131Y155054D01*
X227131Y154039D01*
X221089Y154039D01*
G37*
%LPD*%
%LPC*%
G36*
X170289Y154039D02*
X170289Y154039D01*
X170289Y160081D01*
X171304Y160081D01*
X176331Y155054D01*
X176331Y154039D01*
X170289Y154039D01*
G37*
%LPD*%
%LPC*%
G36*
X195689Y154039D02*
X195689Y154039D01*
X195689Y160081D01*
X196704Y160081D01*
X201731Y155054D01*
X201731Y154039D01*
X195689Y154039D01*
G37*
%LPD*%
%LPC*%
G36*
X246489Y154039D02*
X246489Y154039D01*
X246489Y160081D01*
X247504Y160081D01*
X252531Y155054D01*
X252531Y154039D01*
X246489Y154039D01*
G37*
%LPD*%
%LPC*%
G36*
X195689Y103239D02*
X195689Y103239D01*
X195689Y109281D01*
X196704Y109281D01*
X201731Y104254D01*
X201731Y103239D01*
X195689Y103239D01*
G37*
%LPD*%
%LPC*%
G36*
X170289Y103239D02*
X170289Y103239D01*
X170289Y109281D01*
X171304Y109281D01*
X176331Y104254D01*
X176331Y103239D01*
X170289Y103239D01*
G37*
%LPD*%
%LPC*%
G36*
X246489Y103239D02*
X246489Y103239D01*
X246489Y109281D01*
X247504Y109281D01*
X252531Y104254D01*
X252531Y103239D01*
X246489Y103239D01*
G37*
%LPD*%
%LPC*%
G36*
X271889Y103239D02*
X271889Y103239D01*
X271889Y109281D01*
X272904Y109281D01*
X277931Y104254D01*
X277931Y103239D01*
X271889Y103239D01*
G37*
%LPD*%
%LPC*%
G36*
X297289Y103239D02*
X297289Y103239D01*
X297289Y109281D01*
X298304Y109281D01*
X303331Y104254D01*
X303331Y103239D01*
X297289Y103239D01*
G37*
%LPD*%
%LPC*%
G36*
X322689Y103239D02*
X322689Y103239D01*
X322689Y109281D01*
X323704Y109281D01*
X328731Y104254D01*
X328731Y103239D01*
X322689Y103239D01*
G37*
%LPD*%
%LPC*%
G36*
X348089Y103239D02*
X348089Y103239D01*
X348089Y109281D01*
X349104Y109281D01*
X354131Y104254D01*
X354131Y103239D01*
X348089Y103239D01*
G37*
%LPD*%
%LPC*%
G36*
X221089Y103239D02*
X221089Y103239D01*
X221089Y109281D01*
X222104Y109281D01*
X227131Y104254D01*
X227131Y103239D01*
X221089Y103239D01*
G37*
%LPD*%
%LPC*%
G36*
X159169Y103239D02*
X159169Y103239D01*
X159169Y104254D01*
X164196Y109281D01*
X165211Y109281D01*
X165211Y103239D01*
X159169Y103239D01*
G37*
%LPD*%
%LPC*%
G36*
X286169Y154039D02*
X286169Y154039D01*
X286169Y155054D01*
X291196Y160081D01*
X292211Y160081D01*
X292211Y154039D01*
X286169Y154039D01*
G37*
%LPD*%
%LPC*%
G36*
X209969Y154039D02*
X209969Y154039D01*
X209969Y155054D01*
X214996Y160081D01*
X216011Y160081D01*
X216011Y154039D01*
X209969Y154039D01*
G37*
%LPD*%
%LPC*%
G36*
X311569Y103239D02*
X311569Y103239D01*
X311569Y104254D01*
X316596Y109281D01*
X317611Y109281D01*
X317611Y103239D01*
X311569Y103239D01*
G37*
%LPD*%
%LPC*%
G36*
X159169Y154039D02*
X159169Y154039D01*
X159169Y155054D01*
X164196Y160081D01*
X165211Y160081D01*
X165211Y154039D01*
X159169Y154039D01*
G37*
%LPD*%
%LPC*%
G36*
X209969Y103239D02*
X209969Y103239D01*
X209969Y104254D01*
X214996Y109281D01*
X216011Y109281D01*
X216011Y103239D01*
X209969Y103239D01*
G37*
%LPD*%
%LPC*%
G36*
X286169Y103239D02*
X286169Y103239D01*
X286169Y104254D01*
X291196Y109281D01*
X292211Y109281D01*
X292211Y103239D01*
X286169Y103239D01*
G37*
%LPD*%
%LPC*%
G36*
X260769Y103239D02*
X260769Y103239D01*
X260769Y104254D01*
X265796Y109281D01*
X266811Y109281D01*
X266811Y103239D01*
X260769Y103239D01*
G37*
%LPD*%
%LPC*%
G36*
X235369Y103239D02*
X235369Y103239D01*
X235369Y104254D01*
X240396Y109281D01*
X241411Y109281D01*
X241411Y103239D01*
X235369Y103239D01*
G37*
%LPD*%
%LPC*%
G36*
X336969Y103239D02*
X336969Y103239D01*
X336969Y104254D01*
X341996Y109281D01*
X343011Y109281D01*
X343011Y103239D01*
X336969Y103239D01*
G37*
%LPD*%
%LPC*%
G36*
X184569Y103239D02*
X184569Y103239D01*
X184569Y104254D01*
X189596Y109281D01*
X190611Y109281D01*
X190611Y103239D01*
X184569Y103239D01*
G37*
%LPD*%
%LPC*%
G36*
X195689Y92119D02*
X195689Y92119D01*
X195689Y98161D01*
X201731Y98161D01*
X201731Y97146D01*
X196704Y92119D01*
X195689Y92119D01*
G37*
%LPD*%
%LPC*%
G36*
X184569Y154039D02*
X184569Y154039D01*
X184569Y155054D01*
X189596Y160081D01*
X190611Y160081D01*
X190611Y154039D01*
X184569Y154039D01*
G37*
%LPD*%
%LPC*%
G36*
X336969Y154039D02*
X336969Y154039D01*
X336969Y155054D01*
X341996Y160081D01*
X343011Y160081D01*
X343011Y154039D01*
X336969Y154039D01*
G37*
%LPD*%
%LPC*%
G36*
X271889Y92119D02*
X271889Y92119D01*
X271889Y98161D01*
X277931Y98161D01*
X277931Y97146D01*
X272904Y92119D01*
X271889Y92119D01*
G37*
%LPD*%
%LPC*%
G36*
X170289Y92119D02*
X170289Y92119D01*
X170289Y98161D01*
X176331Y98161D01*
X176331Y97146D01*
X171304Y92119D01*
X170289Y92119D01*
G37*
%LPD*%
%LPC*%
G36*
X246489Y92119D02*
X246489Y92119D01*
X246489Y98161D01*
X252531Y98161D01*
X252531Y97146D01*
X247504Y92119D01*
X246489Y92119D01*
G37*
%LPD*%
%LPC*%
G36*
X221089Y92119D02*
X221089Y92119D01*
X221089Y98161D01*
X227131Y98161D01*
X227131Y97146D01*
X222104Y92119D01*
X221089Y92119D01*
G37*
%LPD*%
%LPC*%
G36*
X297289Y92119D02*
X297289Y92119D01*
X297289Y98161D01*
X303331Y98161D01*
X303331Y97146D01*
X298304Y92119D01*
X297289Y92119D01*
G37*
%LPD*%
%LPC*%
G36*
X348089Y92119D02*
X348089Y92119D01*
X348089Y98161D01*
X354131Y98161D01*
X354131Y97146D01*
X349104Y92119D01*
X348089Y92119D01*
G37*
%LPD*%
%LPC*%
G36*
X322689Y92119D02*
X322689Y92119D01*
X322689Y98161D01*
X328731Y98161D01*
X328731Y97146D01*
X323704Y92119D01*
X322689Y92119D01*
G37*
%LPD*%
%LPC*%
G36*
X235369Y154039D02*
X235369Y154039D01*
X235369Y155054D01*
X240396Y160081D01*
X241411Y160081D01*
X241411Y154039D01*
X235369Y154039D01*
G37*
%LPD*%
%LPC*%
G36*
X260769Y154039D02*
X260769Y154039D01*
X260769Y155054D01*
X265796Y160081D01*
X266811Y160081D01*
X266811Y154039D01*
X260769Y154039D01*
G37*
%LPD*%
%LPC*%
G36*
X311569Y154039D02*
X311569Y154039D01*
X311569Y155054D01*
X316596Y160081D01*
X317611Y160081D01*
X317611Y154039D01*
X311569Y154039D01*
G37*
%LPD*%
%LPC*%
G36*
X291196Y92119D02*
X291196Y92119D01*
X286169Y97146D01*
X286169Y98161D01*
X292211Y98161D01*
X292211Y92119D01*
X291196Y92119D01*
G37*
%LPD*%
%LPC*%
G36*
X265796Y92119D02*
X265796Y92119D01*
X260769Y97146D01*
X260769Y98161D01*
X266811Y98161D01*
X266811Y92119D01*
X265796Y92119D01*
G37*
%LPD*%
%LPC*%
G36*
X316596Y92119D02*
X316596Y92119D01*
X311569Y97146D01*
X311569Y98161D01*
X317611Y98161D01*
X317611Y92119D01*
X316596Y92119D01*
G37*
%LPD*%
%LPC*%
G36*
X164196Y92119D02*
X164196Y92119D01*
X159169Y97146D01*
X159169Y98161D01*
X165211Y98161D01*
X165211Y92119D01*
X164196Y92119D01*
G37*
%LPD*%
%LPC*%
G36*
X214996Y92119D02*
X214996Y92119D01*
X209969Y97146D01*
X209969Y98161D01*
X216011Y98161D01*
X216011Y92119D01*
X214996Y92119D01*
G37*
%LPD*%
%LPC*%
G36*
X189596Y92119D02*
X189596Y92119D01*
X184569Y97146D01*
X184569Y98161D01*
X190611Y98161D01*
X190611Y92119D01*
X189596Y92119D01*
G37*
%LPD*%
%LPC*%
G36*
X341996Y92119D02*
X341996Y92119D01*
X336969Y97146D01*
X336969Y98161D01*
X343011Y98161D01*
X343011Y92119D01*
X341996Y92119D01*
G37*
%LPD*%
%LPC*%
G36*
X240396Y92119D02*
X240396Y92119D01*
X235369Y97146D01*
X235369Y98161D01*
X241411Y98161D01*
X241411Y92119D01*
X240396Y92119D01*
G37*
%LPD*%
%LPC*%
G36*
X160853Y327369D02*
X160853Y327369D01*
X156119Y332103D01*
X156119Y332911D01*
X161661Y332911D01*
X161661Y327369D01*
X160853Y327369D01*
G37*
%LPD*%
D10*
X383646Y133525D02*
X396854Y133525D01*
X396854Y114475D02*
X383646Y114475D01*
D11*
X52620Y553050D02*
X37380Y553050D01*
X37380Y578450D02*
X52620Y578450D01*
X52620Y603850D02*
X37380Y603850D01*
X37380Y629250D02*
X52620Y629250D01*
X52620Y654650D02*
X37380Y654650D01*
D12*
X43500Y98000D03*
X44250Y153730D03*
D13*
X137750Y190000D03*
X137750Y63000D03*
D14*
X93750Y89500D03*
X93750Y161500D03*
D15*
X33750Y58500D03*
X33750Y193500D03*
D16*
X56208Y236280D03*
X105992Y236280D03*
D17*
X56208Y381060D03*
X81100Y381060D03*
X105992Y381060D03*
D10*
X47200Y704596D02*
X47200Y717804D01*
X72600Y717804D02*
X72600Y704596D01*
X72600Y780796D02*
X72600Y794004D01*
X47200Y794004D02*
X47200Y780796D01*
X98000Y717804D02*
X98000Y704596D01*
X123400Y704596D02*
X123400Y717804D01*
X98000Y780796D02*
X98000Y794004D01*
X123400Y794004D02*
X123400Y780796D01*
D18*
X167750Y151500D03*
X193150Y151500D03*
X218550Y151500D03*
X243950Y151500D03*
X269350Y151500D03*
X294750Y151500D03*
X320150Y151500D03*
X345550Y151500D03*
X167750Y126100D03*
X193150Y126100D03*
X218550Y126100D03*
X243950Y126100D03*
X269350Y126100D03*
X294750Y126100D03*
X320150Y126100D03*
X345550Y126100D03*
X167750Y100700D03*
X193150Y100700D03*
X218550Y100700D03*
X243950Y100700D03*
X269350Y100700D03*
X294750Y100700D03*
X320150Y100700D03*
X345550Y100700D03*
D19*
X289800Y427500D03*
X264400Y427500D03*
X239000Y427500D03*
X213600Y427500D03*
X188200Y427500D03*
X162800Y427500D03*
X137400Y427500D03*
D20*
X164200Y335450D03*
X189600Y335450D03*
X215000Y335450D03*
X240400Y335450D03*
X164200Y360850D03*
X189600Y360850D03*
X215000Y360850D03*
X240400Y360850D03*
D21*
X390250Y167500D03*
X390500Y80500D03*
D22*
X98750Y345750D02*
X81100Y363400D01*
X81100Y381060D01*
D23*
X45000Y578450D02*
X36800Y578450D01*
X23250Y592000D01*
X23250Y833544D02*
X41483Y851776D01*
X23250Y683000D02*
X23250Y592000D01*
X23250Y683000D02*
X23250Y833544D01*
X165224Y851776D02*
X179000Y838000D01*
D24*
X179000Y838000D03*
D23*
X165224Y851776D02*
X41483Y851776D01*
D25*
X35000Y683500D03*
D22*
X23750Y683500D01*
X23250Y683000D01*
X181050Y335450D02*
X189600Y335450D01*
X170750Y345750D02*
X98750Y345750D01*
X170750Y345750D02*
X181050Y335450D01*
D26*
X85730Y153480D02*
X44500Y153480D01*
X44250Y153730D01*
X85730Y153480D02*
X93750Y161500D01*
X390250Y167500D02*
X390250Y141649D01*
X390250Y139250D02*
X390250Y167500D01*
D27*
X374004Y161164D02*
X94086Y161164D01*
X93750Y161500D01*
X374004Y161164D02*
X380090Y167250D01*
D26*
X109250Y161500D02*
X93750Y161500D01*
X109250Y161500D02*
X137750Y190000D01*
X167750Y160000D01*
X167750Y151500D01*
X193150Y151500D01*
X218550Y151500D01*
X243950Y151500D01*
X269350Y151500D01*
X294750Y151500D01*
X320150Y151500D01*
X345550Y151500D01*
X374250Y151500D01*
X390250Y167500D01*
D28*
X372275Y151500D02*
X345550Y151500D01*
X372275Y151500D02*
X390250Y133525D01*
X390250Y167500D01*
D25*
X308000Y799550D03*
D22*
X308000Y797179D01*
X272794Y761973D01*
X272794Y654044D01*
X232396Y613646D01*
X232396Y440146D01*
X229250Y437000D02*
X229250Y388750D01*
X204500Y364000D01*
X229250Y437000D02*
X232396Y440146D01*
X215000Y344500D02*
X215000Y335450D01*
X204500Y355000D02*
X204500Y364000D01*
X204500Y355000D02*
X215000Y344500D01*
D25*
X319654Y807750D03*
D22*
X319654Y799494D01*
X279398Y759238D01*
X279398Y578873D02*
X293146Y565125D01*
X293146Y444428D02*
X280196Y431478D01*
X279398Y578873D02*
X279398Y759238D01*
X293146Y565125D02*
X293146Y444428D01*
X280196Y425446D02*
X258250Y403500D01*
D25*
X258250Y403500D03*
D22*
X280196Y425446D02*
X280196Y431478D01*
D25*
X354500Y447500D03*
D22*
X354500Y587826D01*
X341913Y600413D01*
D25*
X340076Y611000D03*
D22*
X340076Y602350D01*
X341913Y600513D01*
D29*
X341913Y600413D01*
D25*
X366456Y627356D03*
D30*
X341913Y602813D01*
X341913Y600413D01*
D22*
X164200Y378100D02*
X164200Y360850D01*
X164200Y378100D02*
X213600Y427500D01*
D25*
X176750Y799750D03*
X110750Y737500D03*
D22*
X173000Y799750D01*
X176750Y799750D01*
X123400Y728900D02*
X123400Y711200D01*
D25*
X176500Y774000D03*
D22*
X168500Y774000D01*
X123400Y728900D01*
X72600Y787400D02*
X72600Y793850D01*
X91000Y812250D01*
X177250Y812250D01*
D25*
X177250Y812250D03*
D22*
X98000Y712950D02*
X98000Y711200D01*
X98000Y712950D02*
X172050Y787000D01*
X176750Y787000D01*
D25*
X176750Y787000D03*
D26*
X85250Y98000D02*
X43500Y98000D01*
X85250Y98000D02*
X93750Y89500D01*
X390500Y80500D02*
X390500Y108750D01*
D27*
X371090Y89500D02*
X93750Y89500D01*
X371090Y89500D02*
X380090Y80500D01*
D26*
X370300Y100700D02*
X345550Y100700D01*
D28*
X376475Y100700D01*
X390250Y114475D01*
X390250Y80750D02*
X390500Y80500D01*
X390250Y80750D02*
X390250Y114475D01*
D26*
X111250Y89500D02*
X93750Y89500D01*
X111250Y89500D02*
X137750Y63000D01*
X167750Y93000D01*
X167750Y100700D01*
D25*
X389650Y375750D03*
D24*
X63250Y194000D03*
D23*
X83500Y214250D01*
X142250Y214250D01*
X159000Y231000D01*
X159000Y290500D01*
X178750Y310250D01*
X378593Y310250D02*
X389797Y321453D01*
D24*
X389797Y321453D03*
D23*
X202000Y310250D02*
X178750Y310250D01*
X202000Y310250D02*
X378593Y310250D01*
X389797Y321453D02*
X389797Y375603D01*
X389650Y375750D01*
D24*
X202000Y310250D03*
D22*
X346470Y403799D02*
X377009Y373259D01*
D25*
X377009Y373259D03*
D22*
X346470Y403799D02*
X346470Y586517D01*
X332230Y600757D01*
X332230Y637980D01*
X354250Y660000D01*
D25*
X354250Y660000D03*
D22*
X364179Y373250D02*
X364215Y373250D01*
X364179Y373250D02*
X339866Y397563D01*
D25*
X364215Y373250D03*
D22*
X339866Y583781D02*
X325626Y598021D01*
X339866Y583781D02*
X339866Y397563D01*
X325626Y671126D02*
X327000Y672500D01*
D25*
X327000Y672500D03*
D22*
X325626Y671126D02*
X325626Y598021D01*
D25*
X351750Y373250D03*
D22*
X351590Y373250D01*
X333262Y391578D01*
X333262Y581046D02*
X319022Y595286D01*
X333262Y581046D02*
X333262Y391578D01*
X319022Y690272D02*
X326750Y698000D01*
D25*
X326750Y698000D03*
D22*
X319022Y690272D02*
X319022Y595286D01*
X326658Y385592D02*
X338850Y373400D01*
X338850Y373250D01*
D25*
X338850Y373250D03*
D22*
X326658Y578310D02*
X312418Y592550D01*
X326658Y578310D02*
X326658Y385592D01*
X312418Y721918D02*
X326500Y736000D01*
D25*
X326500Y736000D03*
D22*
X312418Y721918D02*
X312418Y592550D01*
D25*
X326250Y373500D03*
D22*
X320054Y379857D02*
X320054Y575575D01*
X326250Y373661D02*
X326250Y373500D01*
X326250Y373661D02*
X320054Y379857D01*
X320054Y575575D02*
X305814Y589815D01*
X305814Y728064D02*
X326500Y748750D01*
D25*
X326500Y748750D03*
D22*
X305814Y728064D02*
X305814Y589815D01*
D25*
X313450Y373500D03*
D22*
X313450Y572839D02*
X299210Y587079D01*
X313450Y572839D02*
X313450Y373500D01*
X299210Y734210D02*
X326500Y761500D01*
D25*
X326500Y761500D03*
D22*
X299210Y734210D02*
X299210Y587079D01*
X306354Y379104D02*
X300750Y373500D01*
D25*
X300750Y373500D03*
D22*
X306354Y379104D02*
X306354Y570596D01*
X292606Y584344D01*
D25*
X327250Y786500D03*
D22*
X292606Y751856D02*
X292606Y584344D01*
X292606Y751856D02*
X327250Y786500D01*
X299750Y385250D02*
X288000Y373500D01*
D25*
X288000Y373500D03*
D22*
X299750Y567860D02*
X286002Y581608D01*
X286002Y756502D02*
X327500Y798000D01*
X299750Y567860D02*
X299750Y385250D01*
X286002Y581608D02*
X286002Y756502D01*
X327500Y798000D02*
X327500Y824944D01*
X327444Y825000D01*
D25*
X327444Y825000D03*
X82500Y532500D03*
D22*
X82500Y625500D01*
X111000Y654000D02*
X171250Y654000D01*
X177000Y659750D01*
D25*
X177000Y659750D03*
D22*
X111000Y654000D02*
X82500Y625500D01*
X239000Y384850D02*
X215000Y360850D01*
X239000Y384850D02*
X239000Y427500D01*
X239000Y609000D01*
X245250Y615250D01*
D25*
X245250Y615250D03*
D22*
X248750Y369200D02*
X240400Y360850D01*
D25*
X252250Y600500D03*
D22*
X248750Y597000D01*
X248750Y369200D01*
D25*
X163500Y600500D03*
D22*
X163500Y449000D02*
X150750Y436250D01*
D25*
X150750Y436250D03*
D22*
X163500Y449000D02*
X163500Y600500D01*
X57060Y381060D02*
X56208Y381060D01*
X90500Y415352D01*
X113590Y647250D02*
X177000Y647250D01*
D25*
X177000Y647250D03*
D22*
X90500Y624161D02*
X90500Y415352D01*
X90500Y624161D02*
X113590Y647250D01*
X171000Y640250D02*
X177000Y634250D01*
X171000Y640250D02*
X115929Y640250D01*
D25*
X177000Y634250D03*
D22*
X97250Y389802D02*
X105992Y381060D01*
X97250Y389802D02*
X97250Y621571D01*
X115929Y640250D01*
X184000Y301500D02*
X168750Y286250D01*
D25*
X168750Y286250D03*
D22*
X383500Y301500D02*
X399050Y317050D01*
X383500Y301500D02*
X184000Y301500D01*
D25*
X384000Y685750D03*
D22*
X399050Y670700D01*
X399050Y317050D01*
X225792Y465092D02*
X188200Y427500D01*
X266190Y656780D02*
X266190Y708750D01*
X236940Y738000D01*
D25*
X214500Y738000D03*
D22*
X225792Y616382D02*
X225792Y465092D01*
X225792Y616382D02*
X266190Y656780D01*
X236940Y738000D02*
X214500Y738000D01*
X175050Y439750D02*
X162800Y427500D01*
X191111Y439750D02*
X219188Y467828D01*
X219188Y619117D01*
X259586Y659515D01*
X259586Y704258D02*
X233690Y730154D01*
D25*
X233690Y730154D03*
D22*
X191111Y439750D02*
X175050Y439750D01*
X259586Y659515D02*
X259586Y704258D01*
D25*
X189250Y736000D03*
D22*
X189250Y751000D01*
X214000Y775750D01*
X214000Y829500D01*
X221000Y836500D01*
X329500Y836500D01*
X345250Y820750D01*
X345250Y693000D01*
X379750Y658500D01*
D25*
X379750Y658500D03*
X68500Y405250D03*
D22*
X83896Y420646D01*
X83896Y520008D02*
X74654Y529250D01*
X74654Y627154D01*
X145500Y698000D02*
X177000Y698000D01*
D25*
X177000Y698000D03*
D22*
X83896Y520008D02*
X83896Y420646D01*
X74654Y627154D02*
X145500Y698000D01*
M02*
